# This file uses centimeters as units for non-parametric coordinates.

mtllib bed_bedroom.mtl
g default
v -5.150372 0.830666 20.435163
v -1.131522 0.830666 20.435163
v -5.150372 1.060789 20.435163
v -1.131522 1.060789 20.435163
v -5.150372 1.060789 13.053000
v -1.131522 1.060789 13.053000
v -5.150372 0.830666 13.053000
v -1.131522 0.830666 13.053000
v -5.150372 1.060789 13.224974
v -5.150372 0.830666 13.224974
v -1.131522 0.830666 13.224974
v -1.131522 1.060789 13.224974
v -1.355055 0.830666 20.435163
v -1.355055 1.060789 20.435163
v -1.239979 1.060789 13.224975
v -1.355055 1.060789 13.053000
v -1.355055 0.830666 13.053000
v -1.355055 0.830666 13.224974
v -4.927726 0.830666 20.435163
v -4.927726 1.060789 20.435163
v -5.070993 1.060789 13.224974
v -4.927726 1.060789 13.053000
v -4.927726 0.830666 13.053000
v -4.927726 0.830666 13.224975
v -5.150372 1.060789 20.222740
v -5.150372 0.830666 20.222736
v -4.927726 0.830666 20.222736
v -1.355055 0.830666 20.222736
v -1.131522 0.830666 20.222736
v -1.131522 1.060789 20.222740
v -1.239981 1.060789 20.222740
v -5.070993 1.060789 20.222740
v -5.150372 0.830666 18.723976
v -5.150372 1.060789 18.723980
v -5.070993 1.060789 18.723980
v -1.239980 1.060789 18.723980
v -1.131522 1.060789 18.723980
v -1.131522 0.830666 18.723976
v -1.355055 0.830666 18.723976
v -4.927726 0.830666 18.723976
v -5.150372 2.820372 20.435163
v -4.927726 2.820372 20.435163
v -4.927726 2.820372 20.222740
v -5.150372 2.820372 20.222740
v -1.131522 2.820372 20.222740
v -1.355055 2.820372 20.222740
v -1.355055 2.820372 20.435163
v -1.131522 2.820372 20.435163
v -5.150372 0.008284 20.222736
v -4.927726 0.008284 20.222736
v -4.927726 0.008284 20.435163
v -5.150372 0.008284 20.435163
v -5.150372 0.008284 13.053000
v -4.927726 0.008284 13.053000
v -4.927726 0.008284 13.224975
v -5.150372 0.008284 13.224974
v -1.355055 0.008284 13.053000
v -1.355055 0.008284 13.224974
v -1.131522 0.008284 13.053000
v -1.131522 0.008284 13.224974
v -1.355055 0.008284 20.222736
v -1.355055 0.008284 20.435163
v -1.131522 0.008284 20.222736
v -1.131522 0.008284 20.435163
v -4.927727 1.903914 13.224974
v -5.150372 1.903914 13.224974
v -4.927726 1.903914 13.053000
v -5.150372 1.903914 13.053000
v -1.355053 1.903914 13.224975
v -1.355055 1.903914 13.053000
v -1.131522 1.903914 13.224974
v -1.131522 1.903914 13.053000
v -5.143296 1.186362 18.723980
v -5.143296 1.186362 13.224974
v -1.167677 1.186362 18.723980
v -1.239979 1.186362 13.224975
v -5.143296 1.186362 20.222740
v -1.167677 1.186362 20.222740
v -4.808814 1.603532 18.723980
v -5.062137 1.422683 18.723980
v -4.808815 1.603534 13.224974
v -5.062138 1.422683 13.224974
v -1.230735 1.414962 18.723980
v -1.268404 1.536924 18.723980
v -1.282447 1.536929 13.224975
v -1.261367 1.394968 13.224975
v -4.808814 1.603532 20.222740
v -5.062137 1.422683 20.222740
v -1.478365 1.603532 20.222740
v -1.230736 1.414962 20.222740
v -4.766814 1.853654 18.680000
v -4.808814 1.813577 18.722303
v -4.767455 1.645003 13.226985
v -1.519838 1.853679 18.680631
v -1.478364 1.813578 18.722303
v -1.533763 1.645003 13.226986
v -1.139713 1.319359 18.695189
v -1.177382 1.441322 18.695189
v -1.170344 1.299365 13.443714
v -1.233752 1.441326 13.443714
v -1.076655 1.090759 18.695189
v -1.148956 1.090759 13.443714
v -1.334555 1.717975 18.693588
vt 0.375000 0.000000
vt 0.625000 0.000000
vt 0.375000 0.250000
vt 0.625000 0.250000
vt 0.375000 0.500000
vt 0.625000 0.500000
vt 0.375000 0.750000
vt 0.625000 0.750000
vt 0.375000 1.000000
vt 0.625000 1.000000
vt 0.875000 0.000000
vt 0.875000 0.250000
vt 0.125000 0.000000
vt 0.125000 0.250000
vt 0.130824 0.250000
vt 0.375000 0.494176
vt 0.130824 0.000000
vt 0.375000 0.755824
vt 0.625000 0.755824
vt 0.869176 0.000000
vt 0.625000 0.494176
vt 0.869176 0.250000
vt 0.611095 0.000000
vt 0.611095 1.000000
vt 0.611095 0.250000
vt 0.611095 0.494176
vt 0.611095 0.500000
vt 0.611095 0.750000
vt 0.611095 0.755824
vt 0.388850 0.000000
vt 0.388850 1.000000
vt 0.388850 0.250000
vt 0.388850 0.494176
vt 0.388850 0.500000
vt 0.388850 0.750000
vt 0.388850 0.755824
vt 0.367806 0.250000
vt 0.375000 0.257194
vt 0.367806 0.000000
vt 0.375000 0.992806
vt 0.388850 0.992806
vt 0.611095 0.992806
vt 0.625000 0.992806
vt 0.632194 0.000000
vt 0.625000 0.257194
vt 0.632194 0.250000
vt 0.611095 0.257194
vt 0.388850 0.257194
vt 0.317050 0.000000
vt 0.375000 0.942050
vt 0.317050 0.250000
vt 0.375000 0.307950
vt 0.388850 0.307950
vt 0.611095 0.307950
vt 0.625000 0.307950
vt 0.682950 0.250000
vt 0.625000 0.942050
vt 0.682950 0.000000
vt 0.611095 0.942050
vt 0.388850 0.942050
vt 0.375000 0.250000
vt 0.388850 0.250000
vt 0.388850 0.257194
vt 0.375000 0.257194
vt 0.625000 0.257194
vt 0.611095 0.257194
vt 0.611095 0.250000
vt 0.625000 0.250000
vt 0.375000 0.992806
vt 0.388850 0.992806
vt 0.388850 1.000000
vt 0.375000 1.000000
vt 0.375000 0.750000
vt 0.388850 0.750000
vt 0.388850 0.755824
vt 0.375000 0.755824
vt 0.611095 0.755824
vt 0.611095 0.750000
vt 0.625000 0.750000
vt 0.625000 0.755824
vt 0.611095 1.000000
vt 0.611095 0.992806
vt 0.625000 0.992806
vt 0.625000 1.000000
vt 0.375000 0.494176
vt 0.388850 0.494176
vt 0.388850 0.500000
vt 0.375000 0.500000
vt 0.611095 0.494176
vt 0.625000 0.494176
vt 0.625000 0.500000
vt 0.611095 0.500000
vt 0.388850 0.494176
vt 0.611095 0.257194
vt 0.400282 0.257194
vt 0.388850 0.494176
vt 0.611095 0.257194
vt 0.599400 0.257194
vt 0.388850 0.307950
vt 0.611095 0.494176
vt 0.611095 0.494176
vt 0.611095 0.307950
vt 0.388850 0.257194
vt 0.388850 0.257194
vt 0.388850 0.307950
vt 0.611095 0.307950
vt 0.400282 0.494176
vt 0.402793 0.309372
vt 0.596088 0.494176
vt 0.402755 0.494176
vt 0.596920 0.309351
vt 0.400282 0.307950
vt 0.599400 0.307950
vt 0.400282 0.307950
vt 0.598560 0.494176
vt 0.599400 0.307950
vt 0.599400 0.307950
vt 0.611095 0.307950
vt 0.611095 0.494176
vt 0.598560 0.494176
vt 0.611095 0.307950
vt 0.611095 0.494176
vt 0.599400 0.307950
vn -0.000001 0.000000 1.000000
vn -0.000000 0.000000 1.000000
vn 0.000000 0.000000 1.000000
vn -0.000001 0.000000 1.000000
vn 0.000000 1.000000 0.000000
vn 0.000000 1.000000 0.000000
vn 0.000000 1.000000 0.000000
vn 0.000000 1.000000 0.000000
vn 0.000000 0.000000 -1.000000
vn -0.000000 0.000000 -1.000000
vn -0.000000 0.000000 -1.000000
vn 0.000000 0.000000 -1.000000
vn 0.000000 -1.000000 0.000000
vn 0.000000 -1.000000 0.000000
vn 0.000000 -1.000000 0.000000
vn 0.000000 -1.000000 0.000000
vn 1.000000 0.000000 0.000000
vn 1.000000 0.000000 0.000000
vn 1.000000 0.000000 0.000000
vn 1.000000 0.000000 0.000000
vn -1.000000 0.000000 0.000000
vn -1.000000 0.000000 0.000000
vn -1.000000 0.000000 0.000000
vn -1.000000 0.000000 0.000000
vn -1.000000 0.000000 0.000000
vn -1.000000 0.000000 0.000000
vn -1.000000 0.000000 0.000000
vn -1.000000 0.000000 0.000000
vn 0.000000 -1.000000 0.000000
vn 0.000000 -1.000000 0.000000
vn 0.000000 -1.000000 0.000000
vn 0.000000 -1.000000 0.000000
vn 1.000000 0.000000 0.000000
vn 1.000000 0.000000 0.000000
vn 1.000000 0.000000 0.000000
vn 1.000000 0.000000 0.000000
vn 0.000000 1.000000 -0.000000
vn 0.000000 1.000000 0.000000
vn 0.000000 1.000000 0.000000
vn 0.000000 1.000000 -0.000000
vn 0.000000 0.000000 1.000000
vn 0.000000 0.000000 1.000000
vn 0.000000 0.000000 1.000000
vn 0.000000 0.000000 1.000000
vn 0.000000 1.000000 0.000000
vn 0.000000 1.000000 0.000000
vn 0.000000 1.000000 0.000000
vn 0.000000 1.000000 0.000000
vn 0.000000 1.000000 0.000000
vn 0.000000 1.000000 0.000000
vn 0.000000 1.000000 0.000000
vn 0.000000 1.000000 0.000000
vn -0.000000 0.000000 -1.000000
vn -0.000000 0.000000 -1.000000
vn 0.000000 0.000000 -1.000000
vn 0.000000 0.000000 -1.000000
vn 0.000000 -1.000000 0.000000
vn 0.000000 -1.000000 0.000000
vn 0.000000 -1.000000 0.000000
vn 0.000000 -1.000000 0.000000
vn 0.000000 -1.000000 0.000000
vn 0.000000 -1.000000 0.000000
vn 0.000000 -1.000000 0.000000
vn 0.000000 -1.000000 0.000000
vn -0.000000 -1.000000 0.000000
vn -0.000000 -1.000000 0.000000
vn -0.000000 -1.000000 0.000000
vn -0.000000 -1.000000 0.000000
vn -0.000000 -1.000000 0.000000
vn -0.000000 -1.000000 0.000000
vn -0.000000 -1.000000 0.000000
vn -0.000000 -1.000000 0.000000
vn -1.000000 0.000000 0.000000
vn -1.000000 0.000000 0.000000
vn 0.000000 -1.000000 0.000000
vn 0.000000 -1.000000 0.000000
vn 0.000000 -1.000000 0.000000
vn -0.000000 -1.000000 0.000000
vn 0.000000 -1.000000 0.000000
vn 0.000000 -1.000000 0.000000
vn 1.000000 0.000000 0.000000
vn 1.000000 0.000000 0.000000
vn 0.000000 1.000000 0.000000
vn 0.000000 1.000000 -0.000000
vn 0.000000 1.000000 -0.000000
vn 0.000000 1.000000 0.000000
vn 0.000000 1.000000 0.000000
vn 0.000000 1.000000 0.000000
vn 0.000000 1.000000 0.000000
vn 0.000000 1.000000 0.000000
vn 0.000000 1.000000 0.000000
vn 0.000000 1.000000 0.000000
vn 0.000000 1.000000 -0.000000
vn 0.000000 1.000000 -0.000000
vn 0.000000 -1.000000 0.000000
vn 0.000000 -1.000000 0.000000
vn 0.000000 0.000000 1.000000
vn 0.000000 0.000000 1.000000
vn 0.000000 0.000000 1.000000
vn 0.000000 0.000000 1.000000
vn 0.000000 0.000000 -1.000000
vn 0.000000 0.000000 -1.000000
vn 0.000000 0.000000 -1.000000
vn 0.000000 0.000000 -1.000000
vn -1.000000 0.000000 0.000000
vn -1.000000 0.000000 0.000000
vn -1.000000 0.000000 0.000000
vn -1.000000 0.000000 0.000000
vn 0.000000 0.000000 -1.000000
vn 0.000000 0.000000 -1.000000
vn 0.000000 0.000000 -1.000000
vn 0.000000 0.000000 -1.000000
vn 0.000000 0.000000 1.000000
vn 0.000000 0.000000 1.000000
vn 0.000000 0.000000 1.000000
vn 0.000000 0.000000 1.000000
vn 1.000000 0.000000 0.000000
vn 1.000000 0.000000 0.000000
vn 1.000000 0.000000 0.000000
vn 1.000000 0.000000 0.000000
vn 0.000000 0.000000 -1.000000
vn 0.000000 0.000000 -1.000000
vn 0.000000 0.000000 -1.000000
vn 0.000000 0.000000 -1.000000
vn 0.000000 0.000000 1.000000
vn 0.000000 0.000000 1.000000
vn 0.000000 0.000000 1.000000
vn 0.000000 0.000000 1.000000
vn 0.000000 0.000000 -1.000000
vn 0.000000 0.000000 -1.000000
vn 0.000000 0.000000 -1.000000
vn 0.000000 0.000000 -1.000000
vn 1.000000 0.000000 0.000000
vn 1.000000 0.000000 0.000000
vn 1.000000 0.000000 0.000000
vn 1.000000 0.000000 0.000000
vn 0.000000 0.000000 1.000000
vn 0.000000 0.000000 1.000000
vn 0.000000 0.000000 1.000000
vn 0.000000 0.000000 1.000000
vn -1.000000 0.000000 0.000000
vn -1.000000 0.000000 0.000000
vn -1.000000 0.000000 0.000000
vn -1.000000 0.000000 0.000000
vn 0.000000 0.000000 -1.000000
vn 0.000000 0.000000 -1.000000
vn 0.000000 0.000000 -1.000000
vn 0.000000 0.000000 -1.000000
vn 1.000000 0.000000 0.000000
vn 1.000000 0.000000 0.000000
vn 1.000000 0.000000 0.000000
vn 1.000000 0.000000 0.000000
vn -0.000005 0.000000 1.000000
vn -0.000005 0.000000 1.000000
vn -0.000005 0.000000 1.000000
vn -0.000005 0.000000 1.000000
vn -1.000000 0.000000 0.000000
vn -1.000000 0.000000 0.000000
vn -1.000000 0.000000 0.000000
vn -1.000000 0.000000 0.000000
vn -1.000000 0.000000 0.000000
vn -1.000000 0.000000 0.000000
vn -1.000000 0.000000 0.000000
vn -1.000000 0.000000 0.000000
vn 0.000000 0.000000 -1.000000
vn 0.000000 0.000000 -1.000000
vn 0.000000 0.000000 -1.000000
vn 0.000000 0.000000 -1.000000
vn 1.000000 0.000000 0.000000
vn 1.000000 0.000000 0.000000
vn 1.000000 0.000000 0.000000
vn 1.000000 0.000000 0.000000
vn 0.000000 0.000000 1.000000
vn 0.000000 0.000000 1.000000
vn 0.000000 0.000000 1.000000
vn 0.000000 0.000000 1.000000
vn -1.000000 0.000000 0.000000
vn -1.000000 0.000000 0.000000
vn -1.000000 0.000000 0.000000
vn -1.000000 0.000000 0.000000
vn 0.000000 0.000000 -1.000000
vn 0.000000 0.000000 -1.000000
vn 0.000000 0.000000 -1.000000
vn 0.000000 0.000000 -1.000000
vn 1.000000 0.000000 0.000000
vn 1.000000 0.000000 0.000000
vn 1.000000 0.000000 0.000000
vn 1.000000 0.000000 0.000000
vn 0.000000 0.000000 1.000000
vn 0.000000 0.000000 1.000000
vn 0.000000 0.000000 1.000000
vn 0.000000 0.000000 1.000000
vn 0.000000 0.000000 1.000000
vn 0.000000 0.000000 1.000000
vn 0.000000 0.000000 1.000000
vn 0.000000 0.000000 1.000000
vn 0.000000 0.000000 -1.000000
vn 0.000000 0.000000 -1.000000
vn 0.000000 0.000000 -1.000000
vn 0.000000 0.000000 -1.000000
vn -1.000000 0.000000 0.000000
vn -1.000000 0.000000 0.000000
vn -1.000000 0.000000 0.000000
vn -1.000000 0.000000 0.000000
vn 0.000005 0.000000 1.000000
vn 0.000005 0.000000 1.000000
vn 0.000005 0.000000 1.000000
vn 0.000005 0.000000 1.000000
vn 1.000000 0.000000 0.000000
vn 1.000000 0.000000 0.000000
vn 1.000000 0.000000 0.000000
vn 1.000000 0.000000 0.000000
vn 0.000000 0.000000 -1.000000
vn 0.000000 0.000000 -1.000000
vn 0.000000 0.000000 -1.000000
vn 0.000000 0.000000 -1.000000
vn -0.000000 0.000000 1.000000
vn -0.000000 0.000000 1.000000
vn -0.000000 0.000000 1.000000
vn -0.000000 0.000000 1.000000
vn 0.000000 0.000000 -1.000000
vn 0.000000 0.000000 -1.000000
vn 0.000000 0.000000 -1.000000
vn 0.000000 0.000000 -1.000000
vn -0.866611 -0.498984 0.000000
vn -0.866611 -0.498984 0.000000
vn -0.866611 -0.498984 0.000000
vn -0.866611 -0.498984 0.000000
vn 0.960950 -0.276651 -0.006317
vn 0.960950 -0.276651 -0.006317
vn 0.960950 -0.276651 -0.006317
vn 0.960950 -0.276651 -0.006317
vn 0.000000 0.000000 -1.000000
vn 0.000000 0.000000 -1.000000
vn 0.000000 0.000000 -1.000000
vn 0.000000 0.000000 -1.000000
vn -0.866611 -0.498985 0.000000
vn -0.866611 -0.498985 0.000000
vn -0.866611 -0.498985 0.000000
vn -0.866611 -0.498985 0.000000
vn 0.000000 0.000000 1.000000
vn 0.000000 0.000000 1.000000
vn 0.000000 0.000000 1.000000
vn 0.000000 0.000000 1.000000
vn 0.866611 -0.498984 0.000000
vn 0.866611 -0.498984 0.000000
vn 0.866611 -0.498984 0.000000
vn 0.866611 -0.498984 0.000000
vn 0.000000 -0.000000 -1.000000
vn 0.000000 -0.000000 -1.000000
vn 0.000000 -0.000000 -1.000000
vn 0.000000 -0.000000 -1.000000
vn 0.000000 -0.000000 -1.000000
vn 0.000000 -0.000000 -1.000000
vn 0.000000 0.000000 1.000000
vn 0.000000 0.000000 1.000000
vn 0.000000 0.000000 1.000000
vn 0.000000 0.000000 1.000000
vn 0.000000 0.000000 1.000000
vn 0.000000 0.000000 1.000000
vn -0.581034 0.813880 0.000000
vn -0.581034 0.813880 0.000000
vn -0.581032 0.813881 0.000000
vn -0.581032 0.813881 0.000000
vn -0.581034 0.813879 0.000000
vn -0.581034 0.813879 0.000000
vn 0.735903 0.676101 0.036523
vn 0.735903 0.676101 0.036523
vn 0.735903 0.676101 0.036523
vn 0.735903 0.676101 0.036523
vn 0.933824 0.357634 -0.008416
vn 0.933824 0.357634 -0.008416
vn 0.933824 0.357634 -0.008416
vn 0.933824 0.357634 -0.008416
vn 0.009691 0.999721 -0.021536
vn 0.009691 0.999721 -0.021536
vn 0.009691 0.999721 -0.021536
vn 0.009691 0.999721 -0.021536
vn -0.945781 0.324804 0.000000
vn -0.945781 0.324804 0.000000
vn -0.945781 0.324804 0.000000
vn -0.945781 0.324804 0.000000
vn 0.981804 0.189634 -0.009983
vn 0.981804 0.189634 -0.009983
vn 0.981804 0.189633 -0.009983
vn 0.981804 0.189633 -0.009983
vn -0.945781 0.324805 0.000000
vn -0.945781 0.324805 0.000000
vn 0.963997 0.265914 0.000000
vn 0.963997 0.265914 0.000000
vn 0.963997 0.265914 0.000000
vn 0.963997 0.265914 0.000000
vn 0.000269 0.027254 -0.999629
vn 0.000269 0.027254 -0.999629
vn 0.000269 0.027254 -0.999629
vn 0.000269 0.027254 -0.999629
vn -0.000069 0.723265 0.690570
vn -0.000069 0.723265 0.690570
vn -0.000069 0.723265 0.690570
vn -0.000069 0.723265 0.690571
vn -0.705679 0.708016 -0.027030
vn -0.705679 0.708016 -0.027030
vn -0.705679 0.708016 -0.027030
vn -0.705679 0.708016 -0.027030
vn 0.454755 0.890045 -0.031887
vn 0.454755 0.890045 -0.031887
vn 0.454755 0.890045 -0.031887
vn 0.454755 0.890045 -0.031887
vn -0.000000 0.999269 -0.038236
vn -0.000000 0.999269 -0.038236
vn -0.000000 0.999269 -0.038236
vn -0.000000 0.999269 -0.038236
vn -1.000000 0.000000 0.000000
vn -1.000000 0.000000 0.000000
vn -1.000000 0.000000 0.000000
vn 0.000067 0.006918 0.999976
vn 0.000067 0.006918 0.999976
vn 0.000067 0.006918 0.999976
vn 0.000067 0.006918 0.999976
vn 0.869463 0.493910 -0.009333
vn 0.869463 0.493910 -0.009333
vn 0.869463 0.493910 -0.009333
vn 0.420422 0.129849 0.897989
vn 0.420422 0.129849 0.897989
vn 0.420422 0.129849 0.897989
vn 0.420422 0.129849 0.897989
vn 0.943064 0.280635 -0.178534
vn 0.943064 0.280635 -0.178534
vn 0.943064 0.280635 -0.178534
vn 0.943064 0.280635 -0.178534
vn -0.729056 -0.684384 0.009806
vn -0.729056 -0.684384 0.009806
vn -0.729056 -0.684384 0.009806
vn -0.729056 -0.684384 0.009806
vn 0.933160 0.095674 -0.346496
vn 0.933160 0.095674 -0.346496
vn 0.933160 0.095674 -0.346496
vn 0.933160 0.095674 -0.346496
vn 0.404274 0.111517 0.907814
vn 0.404274 0.111517 0.907814
vn 0.404274 0.111517 0.907814
vn 0.404274 0.111517 0.907814
vn 0.712728 0.701248 -0.016424
vn 0.712728 0.701248 -0.016424
vn 0.712728 0.701248 -0.016424
vn 0.712728 0.701248 -0.016424
vn 0.454329 0.306415 0.836478
vn 0.454329 0.306415 0.836478
vn 0.454329 0.306415 0.836478
vn 0.454329 0.306415 0.836478
s 1
g pCube12
usemtl standardSurface7SG
f 1/1/1 19/30/2 20/32/3 3/3/4
s 2
f 41/61/5 42/62/6 43/63/7 44/64/8
s 3
f 5/5/9 22/34/10 23/35/11 7/7/12
s off
f 49/69/13 50/70/14 51/71/15 52/72/16
s 4
f 2/2/17 29/44/18 30/46/19 4/4/20
s 5
f 25/37/21 26/39/22 1/1/23 3/3/24
f 7/13/25 10/17/26 9/15/27 5/14/28
s off
f 53/73/29 54/74/30 55/75/31 56/76/32
s 4
f 12/22/33 11/20/34 8/11/35 6/12/36
s 8
f 66/85/37 65/86/38 67/87/39 68/88/40
s 1
f 14/25/41 13/23/42 2/2/43 4/4/44
s 2
f 45/65/45 46/66/46 47/67/47 48/68/48
s 8
f 70/92/49 69/89/50 71/90/51 72/91/52
s 3
f 17/28/53 16/27/54 6/6/55 8/8/56
s off
f 58/77/57 57/78/58 59/79/59 60/80/60
f 62/81/61 61/82/62 63/83/63 64/84/64
s 1
f 20/32/3 19/30/2 13/23/42 14/25/41
s 2
f 46/66/46 43/63/7 42/62/6 47/67/47
s 8
f 67/87/39 65/86/38 69/89/50 70/92/49
s 3
f 23/35/11 22/34/10 16/27/54 17/28/53
s 9
f 24/36/65 23/35/66 17/28/67 18/29/68
f 19/31/69 27/41/70 28/42/71 13/24/72
s 5
f 9/15/27 10/17/26 33/49/73 34/51/74
s 9
f 10/18/75 24/36/65 40/60/76 33/50/77
f 39/59/78 40/60/76 24/36/65 18/29/68
f 38/57/79 39/59/78 18/29/68 11/19/80
s 4
f 37/56/81 38/58/82 11/20/34 12/22/33
s 11
f 15/26/83 36/54/84 37/55/85 12/21/86
s 12
f 34/52/87 35/53/88 21/33/89 9/16/90
s 5
f 34/51/74 33/49/73 26/39/22 25/37/21
s 12
f 25/38/91 32/48/92 35/53/88 34/52/87
s 11
f 37/55/85 36/54/84 31/47/93 30/45/94
s 4
f 30/46/19 29/44/18 38/58/82 37/56/81
s 9
f 29/43/95 28/42/71 39/59/78 38/57/79
f 28/42/71 27/41/70 40/60/76 39/59/78
f 33/50/77 40/60/76 27/41/70 26/40/96
s off
f 3/3/97 20/32/98 42/62/99 41/61/100
f 32/48/101 25/38/102 44/64/103 43/63/104
f 25/38/105 3/3/106 41/61/107 44/64/108
f 30/45/109 31/47/110 46/66/111 45/65/112
f 14/25/113 4/4/114 48/68/115 47/67/116
f 4/4/117 30/45/118 45/65/119 48/68/120
f 31/47/121 32/48/122 43/63/123 46/66/124
f 20/32/125 14/25/126 47/67/127 42/62/128
f 26/40/129 27/41/130 50/70/131 49/69/132
f 27/41/133 19/31/134 51/71/135 50/70/136
f 19/31/137 1/9/138 52/72/139 51/71/140
f 1/9/141 26/40/142 49/69/143 52/72/144
f 7/7/145 23/35/146 54/74/147 53/73/148
usemtl initialShadingGroup
f 23/35/149 24/36/150 55/75/151 54/74/152
usemtl standardSurface7SG
f 24/36/153 10/18/154 56/76/155 55/75/156
f 10/18/157 7/7/158 53/73/159 56/76/160
f 18/29/161 17/28/162 57/78/163 58/77/164
f 17/28/165 8/8/166 59/79/167 57/78/168
f 8/8/169 11/19/170 60/80/171 59/79/172
f 11/19/173 18/29/174 58/77/175 60/80/176
usemtl initialShadingGroup
f 13/24/177 28/42/178 61/82/179 62/81/180
usemtl standardSurface7SG
f 28/42/181 29/43/182 63/83/183 61/82/184
f 29/43/185 2/10/186 64/84/187 63/83/188
f 2/10/189 13/24/190 62/81/191 64/84/192
f 9/16/193 21/33/194 65/86/195 66/85/196
f 22/34/197 5/5/198 68/88/199 67/87/200
f 5/5/201 9/16/202 66/85/203 68/88/204
f 15/26/205 12/21/206 71/90/207 69/89/208
f 12/21/209 6/6/210 72/91/211 71/90/212
f 6/6/213 16/27/214 70/92/215 72/91/216
f 21/33/217 15/26/218 69/89/219 65/86/220
f 16/27/221 22/34/222 67/87/223 70/92/224
usemtl standardSurface6SG
f 21/33/225 35/53/226 73/99/227 74/93/228
f 36/54/229 15/26/230 76/100/231 75/106/232
usemtl initialShadingGroup
f 15/26/233 21/33/234 74/93/235 76/100/236
usemtl standardSurface6SG
f 35/53/237 32/48/238 77/103/239 73/99/240
usemtl initialShadingGroup
f 32/48/241 31/47/242 78/94/243 77/103/244
usemtl standardSurface6SG
f 31/47/245 36/54/246 75/106/247 78/94/248
usemtl initialShadingGroup
f 76/100/249 74/93/250 82/96/251 81/107/252 85/115/253 86/101/254
f 77/103/255 78/94/256 90/97/257 89/98/258 87/95/259 88/104/260
s 13
usemtl standardSurface6SG
f 79/112/261 80/105/262 88/104/263 87/95/264
f 80/105/262 79/112/261 81/107/265 82/96/266
s off
f 83/102/267 84/113/268 89/98/269 90/97/270
usemtl standardSurface5SG
f 98/117/271 97/118/272 99/119/273 100/120/274
usemtl standardSurface6SG
f 84/113/275 79/112/276 87/95/277 89/98/278
s 14
f 74/93/279 73/99/280 80/105/281 82/96/282
s off
usemtl standardSurface5SG
f 101/121/283 102/122/284 99/119/285 97/118/286
s 14
usemtl standardSurface6SG
f 73/99/280 77/103/287 88/104/288 80/105/281
s off
f 78/94/289 75/106/290 83/102/291 90/97/292
usemtl initialShadingGroup
f 85/115/293 81/107/294 93/110/295 96/109/296
usemtl standardSurface5SG
f 91/108/297 92/114/298 95/116/299 94/111/300
f 92/114/301 91/108/302 93/110/303 81/107/304
f 94/111/305 95/116/306 85/115/307 96/109/308
f 93/110/309 91/108/310 94/111/311 96/109/312
f 81/107/313 79/112/314 92/114/315
f 79/112/316 84/113/317 95/116/318 92/114/319
f 98/117/320 100/120/321 103/123/322
f 84/113/323 83/102/324 97/118/325 98/117/326
f 86/101/327 85/115/328 100/120/329 99/119/330
usemtl initialShadingGroup
f 75/106/331 76/100/332 102/122/333 101/121/334
usemtl standardSurface5SG
f 76/100/335 86/101/336 99/119/337 102/122/338
f 83/102/339 75/106/340 101/121/341 97/118/342
f 85/115/343 95/116/344 103/123/345 100/120/346
f 95/116/347 84/113/348 98/117/349 103/123/350
g default
v -4.129225 1.602103 19.949566
v -4.424506 1.714032 20.075811
v -1.684047 1.714032 20.075811
v -1.979329 1.602103 19.949566
v -4.424506 2.077310 20.026403
v -4.129225 2.151883 19.864157
v -1.979329 2.151883 19.864157
v -1.684047 2.077310 20.026403
v -4.129225 1.939597 18.942049
v -4.424506 1.806711 18.851001
v -1.979329 1.939597 18.942049
v -1.684047 1.806711 18.851001
v -4.424506 1.674446 18.855815
v -4.129225 1.571047 18.992475
v -1.979329 1.571047 18.992475
v -1.684047 1.674446 18.855815
vt 0.401937 0.973063
vt 0.375000 1.000000
vt 0.401937 0.000000
vt 0.598063 0.000000
vt 0.625000 1.000000
vt 0.598063 0.973063
vt 0.625000 0.712504
vt 0.375000 0.537496
vt 0.401937 0.473063
vt 0.598063 0.776937
vt 0.625000 0.037496
vt 0.375000 0.212504
vt 0.401937 0.276937
vt 0.598063 0.276937
vt 0.598063 0.473063
vt 0.625000 0.537496
vt 0.375000 0.712504
vt 0.401937 0.776937
vt 0.875000 0.037496
vt 0.875000 0.212504
vt 0.625000 0.212504
vt 0.125000 0.037496
vt 0.375000 0.037496
vt 0.125000 0.212504
vn -0.342871 -0.938889 0.030465
vn -0.342871 -0.938889 0.030465
vn -0.342871 -0.938889 0.030465
vn -0.342871 -0.938889 0.030465
vn 0.000000 -0.748255 0.663411
vn 0.000000 -0.748255 0.663411
vn 0.000000 -0.748255 0.663411
vn 0.000000 -0.748255 0.663411
vn 0.342871 -0.938889 0.030465
vn 0.342871 -0.938889 0.030465
vn 0.342871 -0.938889 0.030465
vn 0.342871 -0.938889 0.030465
vn -0.346498 0.914139 -0.210451
vn -0.346498 0.914139 -0.210451
vn -0.346498 0.914139 -0.210451
vn -0.346498 0.914139 -0.210451
vn 0.000000 0.908620 0.417625
vn 0.000000 0.908620 0.417625
vn 0.000000 0.908620 0.417625
vn 0.000000 0.908620 0.417625
vn 0.346498 0.914139 -0.210451
vn 0.346498 0.914139 -0.210451
vn 0.346498 0.914139 -0.210451
vn 0.346498 0.914139 -0.210451
vn 0.000000 0.565220 -0.824940
vn 0.000000 0.565220 -0.824940
vn 0.000000 0.565220 -0.824940
vn 0.000000 0.565220 -0.824940
vn 0.000000 -0.797461 -0.603371
vn 0.000000 -0.797461 -0.603371
vn 0.000000 -0.797461 -0.603371
vn 0.000000 -0.797461 -0.603371
vn 0.000000 0.134765 0.990878
vn 0.000000 0.134765 0.990878
vn 0.000000 0.134765 0.990878
vn 0.000000 0.134765 0.990878
vn 0.000000 0.974509 -0.224350
vn 0.000000 0.974509 -0.224350
vn 0.000000 0.974509 -0.224350
vn 0.000000 0.974509 -0.224350
vn 0.000000 -0.036372 -0.999338
vn 0.000000 -0.036372 -0.999338
vn 0.000000 -0.036372 -0.999338
vn 0.000000 -0.036372 -0.999338
vn 0.000000 -0.999474 0.032431
vn 0.000000 -0.999474 0.032431
vn 0.000000 -0.999474 0.032431
vn 0.000000 -0.999474 0.032431
vn 1.000000 -0.000000 0.000000
vn 1.000000 -0.000000 0.000000
vn 1.000000 -0.000000 0.000000
vn 1.000000 -0.000000 0.000000
vn -1.000000 -0.000000 0.000000
vn -1.000000 -0.000000 0.000000
vn -1.000000 -0.000000 0.000000
vn -1.000000 -0.000000 0.000000
s off
g pCube13
usemtl standardSurface6SG
f 104/124/351 105/125/352 116/140/353 117/141/354
f 105/146/355 104/126/356 107/127/357 106/134/358
f 106/128/359 107/129/360 118/133/361 119/130/362
f 108/135/363 109/136/364 112/132/365 113/131/366
f 109/136/367 108/135/368 111/144/369 110/137/370
f 110/137/371 111/144/372 115/139/373 114/138/374
f 113/131/375 112/132/376 114/138/377 115/139/378
f 117/141/379 116/140/380 119/130/381 118/133/382
f 105/146/383 106/134/384 111/144/385 108/135/386
f 109/136/387 110/137/388 114/138/389 112/132/390
f 113/131/391 115/139/392 119/130/393 116/140/394
f 117/141/395 118/133/396 107/129/397 104/124/398
f 106/134/399 119/142/400 115/143/401 111/144/402
f 116/145/403 105/146/404 108/135/405 113/147/406
g default
v -5.129113 -0.127464 20.088051
v -3.088162 -0.127464 20.088051
v -5.129113 0.813546 20.088051
v -3.088162 0.813546 20.088051
v -5.129113 0.813546 18.203840
v -3.088162 0.813546 18.203840
v -5.129113 -0.127464 18.203840
v -3.088162 -0.127464 18.203840
vt 0.375000 0.000000
vt 0.625000 0.000000
vt 0.375000 0.250000
vt 0.625000 0.250000
vt 0.375000 0.500000
vt 0.625000 0.500000
vt 0.375000 0.750000
vt 0.625000 0.750000
vt 0.375000 1.000000
vt 0.625000 1.000000
vt 0.875000 0.000000
vt 0.875000 0.250000
vt 0.125000 0.000000
vt 0.125000 0.250000
vn 0.000000 0.000000 1.000000
vn 0.000000 0.000000 1.000000
vn 0.000000 0.000000 1.000000
vn 0.000000 0.000000 1.000000
vn 0.000000 1.000000 0.000000
vn 0.000000 1.000000 0.000000
vn 0.000000 1.000000 0.000000
vn 0.000000 1.000000 0.000000
vn 0.000000 0.000000 -1.000000
vn 0.000000 0.000000 -1.000000
vn 0.000000 0.000000 -1.000000
vn 0.000000 0.000000 -1.000000
vn 0.000000 -1.000000 0.000000
vn 0.000000 -1.000000 0.000000
vn 0.000000 -1.000000 0.000000
vn 0.000000 -1.000000 0.000000
vn 1.000000 0.000000 0.000000
vn 1.000000 0.000000 0.000000
vn 1.000000 0.000000 0.000000
vn 1.000000 0.000000 0.000000
vn -1.000000 0.000000 0.000000
vn -1.000000 0.000000 0.000000
vn -1.000000 0.000000 0.000000
vn -1.000000 0.000000 0.000000
s off
g pCube16
usemtl initialShadingGroup
f 120/148/407 121/149/408 123/151/409 122/150/410
f 122/150/411 123/151/412 125/153/413 124/152/414
f 124/152/415 125/153/416 127/155/417 126/154/418
f 126/154/419 127/155/420 121/157/421 120/156/422
f 121/149/423 127/158/424 125/159/425 123/151/426
f 126/160/427 120/148/428 122/150/429 124/161/430
g default
v -4.170328 -0.078153 16.977910
v -2.343278 -0.078153 16.977910
v -4.170328 0.764235 16.977910
v -2.343278 0.764235 16.977910
v -4.170328 0.764235 15.914808
v -2.343278 0.764235 15.914808
v -4.170328 -0.078153 15.914808
v -2.343278 -0.078153 15.914808
vt 0.375000 0.000000
vt 0.625000 0.000000
vt 0.375000 0.250000
vt 0.625000 0.250000
vt 0.375000 0.500000
vt 0.625000 0.500000
vt 0.375000 0.750000
vt 0.625000 0.750000
vt 0.375000 1.000000
vt 0.625000 1.000000
vt 0.875000 0.000000
vt 0.875000 0.250000
vt 0.125000 0.000000
vt 0.125000 0.250000
vn 0.000000 0.000000 1.000000
vn 0.000000 0.000000 1.000000
vn 0.000000 0.000000 1.000000
vn 0.000000 0.000000 1.000000
vn 0.000000 1.000000 0.000000
vn 0.000000 1.000000 0.000000
vn 0.000000 1.000000 0.000000
vn 0.000000 1.000000 0.000000
vn 0.000000 0.000000 -1.000000
vn 0.000000 0.000000 -1.000000
vn 0.000000 0.000000 -1.000000
vn 0.000000 0.000000 -1.000000
vn 0.000000 -1.000000 0.000000
vn 0.000000 -1.000000 0.000000
vn 0.000000 -1.000000 0.000000
vn 0.000000 -1.000000 0.000000
vn 1.000000 0.000000 0.000000
vn 1.000000 0.000000 0.000000
vn 1.000000 0.000000 0.000000
vn 1.000000 0.000000 0.000000
vn -1.000000 0.000000 0.000000
vn -1.000000 0.000000 0.000000
vn -1.000000 0.000000 0.000000
vn -1.000000 0.000000 0.000000
s off
g pCube15
usemtl initialShadingGroup
f 128/162/431 129/163/432 131/165/433 130/164/434
f 130/164/435 131/165/436 133/167/437 132/166/438
f 132/166/439 133/167/440 135/169/441 134/168/442
f 134/168/443 135/169/444 129/171/445 128/170/446
f 129/163/447 135/172/448 133/173/449 131/165/450
f 134/174/451 128/162/452 130/164/453 132/175/454
g default
v -4.761445 -0.078153 15.745115
v -2.934395 -0.078153 15.745115
v -4.761445 0.764235 15.745115
v -2.934395 0.764235 15.745115
v -4.761445 0.764235 13.478447
v -2.934395 0.764235 13.478447
v -4.761445 -0.078153 13.478447
v -2.934395 -0.078153 13.478447
vt 0.375000 0.000000
vt 0.625000 0.000000
vt 0.375000 0.250000
vt 0.625000 0.250000
vt 0.375000 0.500000
vt 0.625000 0.500000
vt 0.375000 0.750000
vt 0.625000 0.750000
vt 0.375000 1.000000
vt 0.625000 1.000000
vt 0.875000 0.000000
vt 0.875000 0.250000
vt 0.125000 0.000000
vt 0.125000 0.250000
vn 0.000000 0.000000 1.000000
vn 0.000000 0.000000 1.000000
vn 0.000000 0.000000 1.000000
vn 0.000000 0.000000 1.000000
vn 0.000000 1.000000 0.000000
vn 0.000000 1.000000 0.000000
vn 0.000000 1.000000 0.000000
vn 0.000000 1.000000 0.000000
vn 0.000000 0.000000 -1.000000
vn 0.000000 0.000000 -1.000000
vn 0.000000 0.000000 -1.000000
vn 0.000000 0.000000 -1.000000
vn 0.000000 -1.000000 0.000000
vn 0.000000 -1.000000 0.000000
vn 0.000000 -1.000000 0.000000
vn 0.000000 -1.000000 0.000000
vn 1.000000 0.000000 0.000000
vn 1.000000 0.000000 0.000000
vn 1.000000 0.000000 0.000000
vn 1.000000 0.000000 0.000000
vn -1.000000 0.000000 0.000000
vn -1.000000 0.000000 0.000000
vn -1.000000 0.000000 0.000000
vn -1.000000 0.000000 0.000000
s off
g pCube14
usemtl initialShadingGroup
f 136/176/455 137/177/456 139/179/457 138/178/458
f 138/178/459 139/179/460 141/181/461 140/180/462
f 140/180/463 141/181/464 143/183/465 142/182/466
f 142/182/467 143/183/468 137/185/469 136/184/470
f 137/177/471 143/186/472 141/187/473 139/179/474
f 142/188/475 136/176/476 138/178/477 140/189/478
