# This file uses centimeters as units for non-parametric coordinates.

mtllib clock_bedroom.mtl
g default
v 9.551745 8.025581 15.576893
v 9.551745 7.824081 15.181430
v 9.551745 7.510238 14.867583
v 9.551745 7.114773 14.666085
v 9.551745 6.676396 14.596653
v 9.551745 6.238019 14.666085
v 9.551745 5.842553 14.867587
v 9.551745 5.528710 15.181430
v 9.551745 5.327210 15.576893
v 9.551745 5.257779 16.015270
v 9.551745 5.327210 16.453649
v 9.551745 5.528710 16.849113
v 9.551745 5.842553 17.162957
v 9.551745 6.238019 17.364455
v 9.551745 6.676396 17.433889
v 9.551745 7.114772 17.364455
v 9.551745 7.510238 17.162956
v 9.551745 7.824080 16.849113
v 9.551745 8.025580 16.453649
v 9.551745 8.095012 16.015270
v 9.398512 8.025581 15.576893
v 9.398512 7.824081 15.181430
v 9.398512 7.510238 14.867583
v 9.398512 7.114773 14.666085
v 9.398512 6.676396 14.596653
v 9.398512 6.238019 14.666085
v 9.398512 5.842553 14.867587
v 9.398512 5.528710 15.181430
v 9.398512 5.327210 15.576893
v 9.398512 5.257779 16.015270
v 9.398512 5.327210 16.453649
v 9.398512 5.528710 16.849113
v 9.398512 5.842553 17.162957
v 9.398512 6.238019 17.364455
v 9.398512 6.676396 17.433889
v 9.398512 7.114772 17.364455
v 9.398512 7.510238 17.162956
v 9.398512 7.824080 16.849113
v 9.398512 8.025580 16.453649
v 9.398512 8.095012 16.015270
v 9.551745 6.676396 16.015270
v 9.398512 6.676396 16.015270
v 9.559891 8.129272 15.543201
v 9.559891 7.912285 15.117343
v 9.559891 7.574322 14.779381
v 9.559891 7.148464 14.562395
v 9.559891 6.676396 14.487627
v 9.559891 6.204328 14.562395
v 9.559891 5.778469 14.779381
v 9.559891 5.440505 15.117343
v 9.559891 5.223520 15.543204
v 9.559891 5.148751 16.015270
v 9.559891 5.223520 16.487340
v 9.559891 5.440505 16.913196
v 9.559891 5.778469 17.251161
v 9.559891 6.204328 17.468143
v 9.559891 6.676396 17.542915
v 9.559891 7.148463 17.468143
v 9.559891 7.574322 17.251161
v 9.559891 7.912285 16.913196
v 9.559891 8.129271 16.487340
v 9.559891 8.204039 16.015270
v 9.365060 7.868189 15.149384
v 9.394994 7.912285 15.117343
v 9.394994 8.129272 15.543201
v 9.365060 8.077432 15.560045
v 9.365060 7.542283 14.823476
v 9.394994 7.574322 14.779381
v 9.365060 7.131620 14.614234
v 9.394994 7.148464 14.562395
v 9.365060 6.676396 14.542132
v 9.394994 6.676396 14.487627
v 9.365060 6.221171 14.614234
v 9.394994 6.204328 14.562395
v 9.365060 5.810507 14.823478
v 9.394994 5.778469 14.779381
v 9.365060 5.484602 15.149384
v 9.394994 5.440505 15.117343
v 9.365060 5.275359 15.560046
v 9.394994 5.223520 15.543204
v 9.365060 5.203258 16.015270
v 9.394994 5.148751 16.015270
v 9.365060 5.275359 16.470497
v 9.394994 5.223520 16.487340
v 9.365060 5.484602 16.881158
v 9.394994 5.440505 16.913196
v 9.365060 5.810507 17.207063
v 9.394995 5.778469 17.251161
v 9.365060 6.221171 17.416305
v 9.394995 6.204328 17.468143
v 9.365060 6.676396 17.488407
v 9.394995 6.676396 17.542915
v 9.365060 7.131619 17.416305
v 9.394995 7.148463 17.468143
v 9.365060 7.542284 17.207063
v 9.394994 7.574322 17.251161
v 9.365060 7.868188 16.881158
v 9.394994 7.912285 16.913196
v 9.365060 8.077432 16.470497
v 9.394994 8.129271 16.487340
v 9.365060 8.149532 16.015270
v 9.394994 8.204039 16.015270
vt 0.648603 0.107966
vt 0.626409 0.064408
vt 0.591842 0.029841
vt 0.548284 0.007647
vt 0.500000 -0.000000
vt 0.451716 0.007647
vt 0.408159 0.029841
vt 0.373591 0.064409
vt 0.351397 0.107966
vt 0.343750 0.156250
vt 0.351397 0.204534
vt 0.373591 0.248091
vt 0.408159 0.282659
vt 0.451716 0.304853
vt 0.500000 0.312500
vt 0.548284 0.304853
vt 0.591841 0.282659
vt 0.626409 0.248091
vt 0.648603 0.204534
vt 0.656250 0.156250
vt 0.375000 0.312500
vt 0.387500 0.312500
vt 0.400000 0.312500
vt 0.412500 0.312500
vt 0.425000 0.312500
vt 0.437500 0.312500
vt 0.450000 0.312500
vt 0.462500 0.312500
vt 0.475000 0.312500
vt 0.487500 0.312500
vt 0.500000 0.312500
vt 0.512500 0.312500
vt 0.525000 0.312500
vt 0.537500 0.312500
vt 0.550000 0.312500
vt 0.562500 0.312500
vt 0.575000 0.312500
vt 0.587500 0.312500
vt 0.600000 0.312500
vt 0.612500 0.312500
vt 0.625000 0.312500
vt 0.648603 0.795466
vt 0.626409 0.751908
vt 0.591842 0.717341
vt 0.548284 0.695147
vt 0.500000 0.687500
vt 0.451716 0.695147
vt 0.408159 0.717341
vt 0.373591 0.751909
vt 0.351397 0.795466
vt 0.343750 0.843750
vt 0.351397 0.892034
vt 0.373591 0.935591
vt 0.408159 0.970159
vt 0.451716 0.992353
vt 0.500000 1.000000
vt 0.548284 0.992353
vt 0.591841 0.970159
vt 0.626409 0.935591
vt 0.648603 0.892034
vt 0.656250 0.843750
vt 0.500000 0.156250
vt 0.500000 0.843750
vt 0.375000 0.312500
vt 0.375000 0.687500
vt 0.625000 0.583385
vt 0.387500 0.312501
vt 0.375000 0.583385
vt 0.400000 0.312501
vt 0.387500 0.583385
vt 0.412500 0.312501
vt 0.400000 0.583385
vt 0.425000 0.312500
vt 0.412500 0.583385
vt 0.437500 0.312500
vt 0.425000 0.583385
vt 0.450000 0.312500
vt 0.437500 0.583385
vt 0.462500 0.312500
vt 0.450000 0.583385
vt 0.475000 0.312500
vt 0.462500 0.583385
vt 0.487500 0.312500
vt 0.475000 0.583385
vt 0.500000 0.312500
vt 0.487500 0.583384
vt 0.512500 0.312500
vt 0.500000 0.583385
vt 0.525000 0.312500
vt 0.512500 0.583385
vt 0.537500 0.312501
vt 0.525000 0.583383
vt 0.550000 0.312500
vt 0.537500 0.583383
vt 0.562500 0.312501
vt 0.550000 0.583383
vt 0.575000 0.312500
vt 0.562500 0.583383
vt 0.587500 0.312500
vt 0.575000 0.583385
vt 0.600000 0.312500
vt 0.587500 0.583385
vt 0.612500 0.312501
vt 0.600000 0.583385
vt 0.625000 0.312501
vt 0.612500 0.583385
vt 0.375000 0.687500
vt 0.387500 0.687500
vt 0.387500 0.687500
vt 0.400000 0.687500
vt 0.400000 0.687500
vt 0.412500 0.687500
vt 0.412500 0.687500
vt 0.425000 0.687500
vt 0.425000 0.687500
vt 0.437500 0.687500
vt 0.437500 0.687500
vt 0.450000 0.687500
vt 0.450000 0.687500
vt 0.462500 0.687500
vt 0.462500 0.687500
vt 0.475000 0.687500
vt 0.475000 0.687500
vt 0.487500 0.687500
vt 0.487500 0.687500
vt 0.500000 0.687500
vt 0.500000 0.687500
vt 0.512500 0.687500
vt 0.512500 0.687500
vt 0.525000 0.687500
vt 0.525000 0.687500
vt 0.537500 0.687500
vt 0.537500 0.687500
vt 0.550000 0.687500
vt 0.550000 0.687500
vt 0.562500 0.687500
vt 0.562500 0.687500
vt 0.575000 0.687500
vt 0.575000 0.687500
vt 0.587500 0.687500
vt 0.587500 0.687500
vt 0.600000 0.687500
vt 0.600000 0.687500
vt 0.612500 0.687500
vt 0.625000 0.687500
vt 0.612500 0.687500
vt 0.625000 0.687500
vn 1.000000 0.000000 0.000000
vn 1.000000 0.000000 0.000000
vn 1.000000 0.000000 0.000000
vn 1.000000 0.000000 0.000000
vn 1.000000 0.000000 0.000000
vn 1.000000 0.000000 0.000000
vn 1.000000 0.000000 0.000000
vn 1.000000 0.000000 0.000000
vn 1.000000 0.000000 -0.000000
vn 1.000000 0.000000 0.000000
vn 1.000000 0.000000 -0.000000
vn 1.000000 0.000000 -0.000000
vn 1.000000 0.000000 0.000000
vn 1.000000 0.000000 0.000000
vn 1.000000 0.000000 -0.000000
vn 1.000000 0.000000 0.000000
vn 1.000000 0.000000 0.000000
vn 1.000000 0.000000 0.000000
vn 1.000000 0.000000 0.000000
vn 1.000000 0.000000 0.000000
vn 1.000000 0.000000 0.000000
vn -1.000000 0.000000 0.000000
vn -1.000000 0.000000 0.000000
vn -1.000000 0.000000 0.000000
vn -1.000000 0.000000 0.000000
vn -1.000000 0.000000 0.000000
vn -1.000000 0.000000 0.000000
vn -1.000000 0.000000 0.000000
vn -1.000000 0.000000 0.000000
vn -1.000000 0.000000 -0.000000
vn -1.000000 0.000000 -0.000000
vn -1.000000 0.000000 0.000000
vn -1.000000 0.000000 0.000000
vn -1.000000 0.000000 0.000000
vn -1.000000 0.000000 -0.000000
vn -1.000000 0.000000 0.000000
vn -1.000000 0.000000 0.000000
vn -1.000000 0.000000 -0.000000
vn -1.000000 0.000000 0.000000
vn -1.000000 0.000000 0.000000
vn -1.000000 0.000000 -0.000000
vn -1.000000 0.000000 0.000000
vn 0.997151 -0.067208 0.034244
vn 0.997151 -0.067208 0.034244
vn 0.997151 -0.067208 0.034244
vn 0.997151 -0.067208 0.034244
vn 0.997151 -0.053337 0.053337
vn 0.997151 -0.053337 0.053337
vn 0.997151 -0.053337 0.053337
vn 0.997151 -0.053337 0.053337
vn 0.997151 -0.034245 0.067209
vn 0.997151 -0.034245 0.067209
vn 0.997151 -0.034245 0.067209
vn 0.997151 -0.034245 0.067209
vn 0.997151 -0.011800 0.074501
vn 0.997151 -0.011800 0.074501
vn 0.997151 -0.011800 0.074501
vn 0.997151 -0.011800 0.074501
vn 0.997151 0.011800 0.074501
vn 0.997151 0.011800 0.074501
vn 0.997151 0.011800 0.074501
vn 0.997151 0.011800 0.074501
vn 0.997151 0.034244 0.067208
vn 0.997151 0.034244 0.067208
vn 0.997151 0.034244 0.067208
vn 0.997151 0.034244 0.067208
vn 0.997151 0.053336 0.053336
vn 0.997151 0.053336 0.053336
vn 0.997151 0.053336 0.053336
vn 0.997151 0.053336 0.053336
vn 0.997151 0.067208 0.034244
vn 0.997151 0.067208 0.034244
vn 0.997151 0.067208 0.034244
vn 0.997151 0.067208 0.034244
vn 0.997151 0.074501 0.011800
vn 0.997151 0.074501 0.011800
vn 0.997151 0.074501 0.011800
vn 0.997151 0.074501 0.011800
vn 0.997151 0.074501 -0.011800
vn 0.997151 0.074501 -0.011800
vn 0.997151 0.074501 -0.011800
vn 0.997151 0.074501 -0.011800
vn 0.997151 0.067208 -0.034245
vn 0.997151 0.067208 -0.034245
vn 0.997151 0.067208 -0.034245
vn 0.997151 0.067208 -0.034245
vn 0.997151 0.053337 -0.053337
vn 0.997151 0.053337 -0.053337
vn 0.997151 0.053337 -0.053337
vn 0.997151 0.053337 -0.053337
vn 0.997151 0.034244 -0.067209
vn 0.997151 0.034244 -0.067210
vn 0.997151 0.034244 -0.067209
vn 0.997151 0.034244 -0.067210
vn 0.997151 0.011800 -0.074502
vn 0.997151 0.011800 -0.074502
vn 0.997151 0.011800 -0.074502
vn 0.997151 0.011800 -0.074502
vn 0.997151 -0.011800 -0.074502
vn 0.997151 -0.011800 -0.074502
vn 0.997151 -0.011800 -0.074502
vn 0.997151 -0.011800 -0.074502
vn 0.997151 -0.034244 -0.067209
vn 0.997151 -0.034244 -0.067209
vn 0.997151 -0.034244 -0.067209
vn 0.997151 -0.034244 -0.067209
vn 0.997151 -0.053337 -0.053337
vn 0.997151 -0.053337 -0.053337
vn 0.997151 -0.053337 -0.053337
vn 0.997151 -0.053337 -0.053337
vn 0.997151 -0.067208 -0.034245
vn 0.997151 -0.067208 -0.034245
vn 0.997151 -0.067208 -0.034245
vn 0.997151 -0.067208 -0.034245
vn 0.997151 -0.074501 -0.011800
vn 0.997151 -0.074501 -0.011800
vn 0.997151 -0.074501 -0.011800
vn 0.997151 -0.074501 -0.011800
vn 0.997151 -0.074501 0.011800
vn 0.997151 -0.074501 0.011800
vn 0.997151 -0.074501 0.011800
vn 0.997151 -0.074501 0.011800
vn -0.876524 0.389427 -0.282934
vn -0.876524 0.389425 -0.282937
vn -0.876522 0.282939 -0.389428
vn -0.876522 0.282936 -0.389430
vn -0.876524 0.457798 -0.148748
vn -0.876524 0.457798 -0.148747
vn -0.876524 0.481358 0.000000
vn -0.876524 0.481358 0.000000
vn -0.876520 0.148750 -0.457805
vn -0.876520 0.148750 -0.457805
vn -0.876520 0.000000 -0.481365
vn -0.876520 0.000000 -0.481365
vn -0.876522 -0.148749 -0.457802
vn -0.876522 -0.148749 -0.457802
vn -0.876525 -0.282934 -0.389426
vn -0.876525 -0.282934 -0.389425
vn -0.876525 -0.389424 -0.282935
vn -0.876525 -0.389426 -0.282932
vn -0.876524 -0.457799 -0.148747
vn -0.876524 -0.457799 -0.148749
vn -0.876524 -0.481358 0.000000
vn -0.876524 -0.481358 -0.000000
vn -0.876524 -0.457799 0.148748
vn -0.876524 -0.457799 0.148748
vn -0.876521 -0.389430 0.282939
vn -0.876521 -0.389430 0.282940
vn -0.876516 -0.282942 0.389440
vn -0.876516 -0.282942 0.389440
vn -0.876513 -0.148754 0.457818
vn -0.876513 -0.148753 0.457818
vn -0.876514 -0.000000 0.481377
vn -0.876514 0.000000 0.481377
vn -0.876515 0.148752 0.457814
vn -0.876515 0.148750 0.457815
vn -0.876520 0.282937 0.389434
vn -0.876520 0.282938 0.389433
vn -0.876523 0.389428 0.282936
vn -0.876523 0.389427 0.282936
vn -0.876524 0.457799 0.148748
vn -0.876524 0.457799 0.148748
vn 0.000000 0.951057 -0.309017
vn 0.000000 0.809016 -0.587787
vn 0.000000 0.809016 -0.587787
vn 0.000000 0.951057 -0.309017
vn 0.000000 0.587785 -0.809017
vn 0.000000 0.587785 -0.809017
vn 0.000000 0.309017 -0.951057
vn 0.000000 0.309017 -0.951057
vn 0.000000 0.000000 -1.000000
vn 0.000000 0.000000 -1.000000
vn -0.000000 -0.309017 -0.951057
vn -0.000000 -0.309017 -0.951057
vn -0.000000 -0.587784 -0.809018
vn -0.000000 -0.587784 -0.809018
vn -0.000000 -0.809018 -0.587784
vn -0.000000 -0.809018 -0.587784
vn -0.000000 -0.951056 -0.309017
vn -0.000000 -0.951056 -0.309017
vn -0.000000 -1.000000 -0.000000
vn -0.000000 -1.000000 -0.000000
vn 0.000000 -0.951056 0.309017
vn 0.000000 -0.951056 0.309017
vn 0.000000 -0.809017 0.587785
vn 0.000000 -0.809017 0.587785
vn 0.000000 -0.587784 0.809018
vn 0.000000 -0.587784 0.809018
vn 0.000000 -0.309017 0.951057
vn 0.000000 -0.309017 0.951057
vn 0.000000 0.000000 1.000000
vn 0.000000 0.000000 1.000000
vn 0.000000 0.309017 0.951056
vn 0.000000 0.309017 0.951056
vn 0.000000 0.587784 0.809018
vn 0.000000 0.587784 0.809018
vn 0.000000 0.809016 0.587786
vn 0.000000 0.809016 0.587786
vn 0.000000 0.951056 0.309017
vn 0.000000 0.951056 0.309017
vn 0.000000 1.000000 0.000001
vn 0.000000 1.000000 0.000001
vn -0.852347 -0.423097 0.307398
vn -0.852348 -0.497379 0.161608
vn -0.852348 -0.497379 0.161608
vn -0.852347 -0.423097 0.307398
vn -0.852346 -0.307400 0.423097
vn -0.852346 -0.307399 0.423098
vn -0.852347 -0.161608 0.497381
vn -0.852347 -0.161608 0.497380
vn -0.852349 0.000000 0.522974
vn -0.852349 0.000000 0.522974
vn -0.852349 0.161608 0.497376
vn -0.852349 0.161609 0.497376
vn -0.852351 0.307395 0.423091
vn -0.852351 0.307395 0.423092
vn -0.852349 0.423094 0.307396
vn -0.852349 0.423094 0.307396
vn -0.852347 0.497379 0.161610
vn -0.852347 0.497380 0.161608
vn -0.852348 0.522975 0.000000
vn -0.852348 0.522975 -0.000000
vn -0.852348 0.497379 -0.161608
vn -0.852348 0.497379 -0.161608
vn -0.852345 0.423099 -0.307401
vn -0.852345 0.423100 -0.307399
vn -0.852343 0.307401 -0.423103
vn -0.852343 0.307402 -0.423102
vn -0.852341 0.161611 -0.497390
vn -0.852341 0.161612 -0.497390
vn -0.852340 -0.000000 -0.522988
vn -0.852340 0.000000 -0.522988
vn -0.852342 -0.161612 -0.497389
vn -0.852342 -0.161612 -0.497389
vn -0.852345 -0.307400 -0.423101
vn -0.852345 -0.307400 -0.423100
vn -0.852346 -0.423098 -0.307400
vn -0.852346 -0.423099 -0.307399
vn -0.852346 -0.497381 -0.161609
vn -0.852347 -0.497381 -0.161609
vn -0.852347 -0.522976 -0.000000
vn -0.852347 -0.522976 -0.000000
s 1
g pCylinder13
usemtl standardSurface16SG
f 2/2/1 1/1/2 41/62/3
f 3/3/4 2/2/1 41/62/3
f 4/4/5 3/3/4 41/62/3
f 5/5/6 4/4/5 41/62/3
f 6/6/7 5/5/6 41/62/3
f 7/7/8 6/6/7 41/62/3
f 8/8/9 7/7/8 41/62/3
f 9/9/10 8/8/9 41/62/3
f 10/10/11 9/9/10 41/62/3
f 11/11/12 10/10/11 41/62/3
f 12/12/13 11/11/12 41/62/3
f 13/13/14 12/12/13 41/62/3
f 14/14/15 13/13/14 41/62/3
f 15/15/16 14/14/15 41/62/3
f 16/16/17 15/15/16 41/62/3
f 17/17/18 16/16/17 41/62/3
f 18/18/19 17/17/18 41/62/3
f 19/19/20 18/18/19 41/62/3
f 20/20/21 19/19/20 41/62/3
f 1/1/2 20/20/21 41/62/3
s 2
f 21/60/22 22/59/23 42/63/24
f 22/59/23 23/58/25 42/63/24
f 23/58/25 24/57/26 42/63/24
f 24/57/26 25/56/27 42/63/24
f 25/56/27 26/55/28 42/63/24
f 26/55/28 27/54/29 42/63/24
f 27/54/29 28/53/30 42/63/24
f 28/53/30 29/52/31 42/63/24
f 29/52/31 30/51/32 42/63/24
f 30/51/32 31/50/33 42/63/24
f 31/50/33 32/49/34 42/63/24
f 32/49/34 33/48/35 42/63/24
f 33/48/35 34/47/36 42/63/24
f 34/47/36 35/46/37 42/63/24
f 35/46/37 36/45/38 42/63/24
f 36/45/38 37/44/39 42/63/24
f 37/44/39 38/43/40 42/63/24
f 38/43/40 39/42/41 42/63/24
f 39/42/41 40/61/42 42/63/24
f 40/61/42 21/60/22 42/63/24
s off
usemtl standardSurface17SG
f 1/21/43 2/22/44 44/67/45 43/64/46
f 2/22/47 3/23/48 45/69/49 44/67/50
f 3/23/51 4/24/52 46/71/53 45/69/54
f 4/24/55 5/25/56 47/73/57 46/71/58
f 5/25/59 6/26/60 48/75/61 47/73/62
f 6/26/63 7/27/64 49/77/65 48/75/66
f 7/27/67 8/28/68 50/79/69 49/77/70
f 8/28/71 9/29/72 51/81/73 50/79/74
f 9/29/75 10/30/76 52/83/77 51/81/78
f 10/30/79 11/31/80 53/85/81 52/83/82
f 11/31/83 12/32/84 54/87/85 53/85/86
f 12/32/87 13/33/88 55/89/89 54/87/90
f 13/33/91 14/34/92 56/91/93 55/89/94
f 14/34/95 15/35/96 57/93/97 56/91/98
f 15/35/99 16/36/100 58/95/101 57/93/102
f 16/36/103 17/37/104 59/97/105 58/95/106
f 17/37/107 18/38/108 60/99/109 59/97/110
f 18/38/111 19/39/112 61/101/113 60/99/114
f 19/39/115 20/40/116 62/103/117 61/101/118
f 20/40/119 1/41/120 43/105/121 62/103/122
s 3
f 63/108/123 64/70/124 68/72/125 67/110/126
f 64/70/124 63/108/123 66/65/127 65/68/128
f 65/66/128 66/147/127 101/144/129 102/106/130
f 67/110/126 68/72/125 70/74/131 69/112/132
f 69/112/132 70/74/131 72/76/133 71/114/134
f 71/114/134 72/76/133 74/78/135 73/116/136
f 73/116/136 74/78/135 76/80/137 75/118/138
f 75/118/138 76/80/137 78/82/139 77/120/140
f 77/120/140 78/82/139 80/84/141 79/122/142
f 79/122/142 80/84/141 82/86/143 81/124/144
f 81/124/144 82/86/143 84/88/145 83/126/146
f 83/126/146 84/88/145 86/90/147 85/128/148
f 85/128/148 86/90/147 88/92/149 87/130/150
f 87/130/150 88/92/149 90/94/151 89/132/152
f 89/132/152 90/94/151 92/96/153 91/134/154
f 91/134/154 92/96/153 94/98/155 93/136/156
f 93/136/156 94/98/155 96/100/157 95/138/158
f 95/138/158 96/100/157 98/102/159 97/140/160
f 97/140/160 98/102/159 100/104/161 99/142/162
f 99/142/162 100/104/161 102/106/130 101/144/129
s 4
f 43/64/163 44/67/164 64/70/165 65/68/166
f 44/67/164 45/69/167 68/72/168 64/70/165
f 45/69/167 46/71/169 70/74/170 68/72/168
f 46/71/169 47/73/171 72/76/172 70/74/170
f 47/73/171 48/75/173 74/78/174 72/76/172
f 48/75/173 49/77/175 76/80/176 74/78/174
f 49/77/175 50/79/177 78/82/178 76/80/176
f 50/79/177 51/81/179 80/84/180 78/82/178
f 51/81/179 52/83/181 82/86/182 80/84/180
f 52/83/181 53/85/183 84/88/184 82/86/182
f 53/85/183 54/87/185 86/90/186 84/88/184
f 54/87/185 55/89/187 88/92/188 86/90/186
f 55/89/187 56/91/189 90/94/190 88/92/188
f 56/91/189 57/93/191 92/96/192 90/94/190
f 57/93/191 58/95/193 94/98/194 92/96/192
f 58/95/193 59/97/195 96/100/196 94/98/194
f 59/97/195 60/99/197 98/102/198 96/100/196
f 60/99/197 61/101/199 100/104/200 98/102/198
f 61/101/199 62/103/201 102/106/202 100/104/200
f 62/103/201 43/105/163 65/66/166 102/106/202
s 5
f 22/109/203 21/107/204 66/65/205 63/108/206
f 23/111/207 22/109/203 63/108/206 67/110/208
f 24/113/209 23/111/207 67/110/208 69/112/210
f 25/115/211 24/113/209 69/112/210 71/114/212
f 26/117/213 25/115/211 71/114/212 73/116/214
f 27/119/215 26/117/213 73/116/214 75/118/216
f 28/121/217 27/119/215 75/118/216 77/120/218
f 29/123/219 28/121/217 77/120/218 79/122/220
f 30/125/221 29/123/219 79/122/220 81/124/222
f 31/127/223 30/125/221 81/124/222 83/126/224
f 32/129/225 31/127/223 83/126/224 85/128/226
f 33/131/227 32/129/225 85/128/226 87/130/228
f 34/133/229 33/131/227 87/130/228 89/132/230
f 35/135/231 34/133/229 89/132/230 91/134/232
f 36/137/233 35/135/231 91/134/232 93/136/234
f 37/139/235 36/137/233 93/136/234 95/138/236
f 38/141/237 37/139/235 95/138/236 97/140/238
f 39/143/239 38/141/237 97/140/238 99/142/240
f 40/146/241 39/143/239 99/142/240 101/144/242
f 21/145/204 40/146/241 101/144/242 66/147/205
