# This file uses centimeters as units for non-parametric coordinates.

mtllib closet_bedroom.mtl
g default
v 37.381727 0.622452 17.127957
v 44.299961 0.622452 17.127957
v 37.381727 9.148548 17.127957
v 44.299961 9.148548 17.127957
v 37.381727 9.148548 14.298336
v 44.299961 9.148548 14.298336
v 37.381727 0.622452 14.298336
v 44.299961 0.622452 14.298336
v 43.927102 0.622452 17.127957
v 43.927102 9.148548 17.127957
v 43.927102 9.148548 14.298336
v 43.927102 0.622452 14.298336
v 37.692183 0.622452 17.127957
v 37.692183 9.148548 17.127957
v 37.692183 9.148548 14.298336
v 37.692183 0.622452 14.298336
v 37.381727 9.148548 16.847925
v 37.381727 0.622452 16.847925
v 37.692183 0.622452 16.847925
v 43.927102 0.622452 16.847925
v 44.299961 0.622452 16.847925
v 44.299961 9.148548 16.847925
v 43.927102 9.148548 16.847925
v 37.692183 9.148548 16.847925
v 37.381727 0.622452 14.568396
v 37.381727 9.148548 14.568396
v 37.692183 9.148548 14.568396
v 43.927102 9.148548 14.568396
v 44.299961 9.148548 14.568396
v 44.299961 0.622452 14.568396
v 43.927102 0.622452 14.568396
v 37.692183 0.622452 14.568396
v 37.842020 0.827351 17.127957
v 37.842020 8.943650 17.127957
v 43.777288 0.827351 17.127957
v 43.777288 8.943650 17.127957
v 40.761647 0.622453 17.127957
v 40.763983 0.827351 17.127957
v 40.763983 8.943650 17.127957
v 40.761647 9.148546 17.127957
v 40.761647 9.148548 16.847925
v 40.761647 9.148546 14.568396
v 40.761647 9.148546 14.298336
v 40.761647 0.622453 14.298336
v 40.761647 0.622452 14.568396
v 40.761647 0.622453 16.847925
v 40.979668 9.148548 16.847925
v 40.979668 9.148546 17.127957
v 40.971497 8.943650 17.127957
v 40.971497 0.827351 17.127957
v 40.979668 0.622453 17.127957
v 40.979668 0.622453 16.847925
v 40.979668 0.622452 14.568396
v 40.979668 0.622453 14.298336
v 40.979668 9.148546 14.298336
v 40.979668 9.148546 14.568396
v 38.031404 0.828664 17.252560
v 38.031404 8.942337 17.252560
v 40.627073 0.828664 17.252560
v 40.627073 8.942337 17.252560
v 41.107536 8.942337 17.252560
v 41.107536 0.828664 17.252560
v 43.587904 0.828664 17.252560
v 43.587904 8.942337 17.252560
v 37.381727 0.032564 16.847925
v 37.692183 0.032564 16.847925
v 37.692183 0.032564 17.127957
v 37.381727 0.032564 17.127957
v 43.927102 0.032564 16.847925
v 43.927102 0.032564 17.127957
v 44.299961 0.032564 16.847925
v 44.299961 0.032564 17.127957
v 37.381727 0.032564 14.298336
v 37.692183 0.032564 14.298336
v 37.692183 0.032564 14.568396
v 37.381727 0.032564 14.568396
v 44.299961 0.032564 14.568396
v 43.927102 0.032564 14.568396
v 43.927102 0.032564 14.298336
v 44.299961 0.032564 14.298336
v 37.381727 4.863153 17.127957
v 37.381727 4.863153 16.847925
v 37.381727 4.863153 14.568396
v 37.381727 4.863153 14.298336
v 37.692183 4.863153 14.298336
v 40.761647 4.863153 14.298336
v 40.979668 4.863153 14.298336
v 43.927102 4.863153 14.298336
v 44.299961 4.863153 14.298336
v 44.299961 4.863153 14.568396
v 44.299961 4.863153 16.847925
v 44.299961 4.863153 17.127957
v 43.927102 4.863153 17.127957
v 43.777288 4.864224 17.127957
v 43.587904 4.864235 17.252560
v 41.107536 4.864235 17.252560
v 40.971497 4.864224 17.127957
v 40.763983 4.864224 17.127957
v 40.627073 4.864235 17.252560
v 38.031404 4.864235 17.252560
v 37.842020 4.864224 17.127957
v 37.692183 4.863153 17.127957
v 37.381727 4.409216 17.127957
v 37.381727 4.409216 16.847925
v 37.381727 4.409216 14.568396
v 37.381727 4.409216 14.298336
v 37.692183 4.409216 14.298336
v 40.761647 4.409215 14.298336
v 40.979668 4.409215 14.298336
v 43.927102 4.409216 14.298336
v 44.299961 4.409216 14.298336
v 44.299961 4.409216 14.568396
v 44.299961 4.409216 16.847925
v 44.299961 4.409216 17.127957
v 43.927102 4.409216 17.127957
v 43.777288 4.432108 17.127957
v 43.587904 4.432255 17.252560
v 41.107536 4.432255 17.252560
v 40.971497 4.432108 17.127957
v 40.763983 4.432108 17.127957
v 40.627073 4.432255 17.252560
v 38.031404 4.432255 17.252560
v 37.842020 4.432108 17.127957
v 37.692183 4.409216 17.127957
v 41.381766 9.148548 16.847925
v 41.381766 9.148546 17.127957
v 41.354248 8.943650 17.127957
v 41.445897 8.942337 17.252560
v 41.445897 4.864235 17.252560
v 41.445897 4.432255 17.252560
v 41.445897 0.828664 17.252560
v 41.354248 0.827351 17.127957
v 41.381766 0.622453 17.127957
v 41.381766 0.622453 16.847925
v 41.381766 0.622452 14.568396
v 41.381766 0.622453 14.298336
v 41.381766 4.409215 14.298336
v 41.381766 4.863153 14.298336
v 41.381766 9.148546 14.298336
v 41.381766 9.148546 14.568396
v 40.354305 0.622453 17.127957
v 40.376199 0.827351 17.127957
v 40.282589 0.828664 17.252560
v 40.282589 4.432255 17.252560
v 40.282589 4.864235 17.252560
v 40.282589 8.942337 17.252560
v 40.376199 8.943650 17.127957
v 40.354305 9.148546 17.127957
v 40.354305 9.148548 16.847925
v 40.354305 9.148546 14.568396
v 40.354305 9.148546 14.298336
v 40.354305 4.863153 14.298336
v 40.354305 4.409215 14.298336
v 40.354305 0.622453 14.298336
v 40.354305 0.622452 14.568396
v 40.354305 0.622453 16.847925
v 41.395264 4.744076 17.252560
v 41.395264 4.552413 17.252560
v 41.160588 4.744076 17.252560
v 41.160588 4.552413 17.252560
v 40.573773 4.745163 17.252560
v 40.332151 4.745163 17.252560
v 40.332151 4.551326 17.252560
v 40.573773 4.551326 17.252560
v 41.395264 4.744076 17.395034
v 41.395264 4.552413 17.395034
v 41.160588 4.744076 17.395034
v 41.160588 4.552413 17.395034
v 40.573773 4.745163 17.395034
v 40.332151 4.745163 17.395034
v 40.332151 4.551326 17.395034
v 40.573773 4.551326 17.395034
v 41.756973 4.744076 17.395034
v 41.756973 4.552413 17.395034
v 39.970442 4.551326 17.395034
v 39.970442 4.745163 17.395034
v 41.501940 4.744076 17.547987
v 41.529345 4.696165 17.587286
v 41.235467 4.700260 17.587286
v 41.218401 4.744076 17.543468
v 41.529345 4.600324 17.587286
v 41.501940 4.552413 17.547987
v 41.235467 4.596230 17.587286
v 41.218401 4.552413 17.543468
v 40.500648 4.701346 17.587286
v 40.517320 4.745163 17.543468
v 40.198066 4.697252 17.587286
v 40.225475 4.745163 17.547989
v 40.225475 4.551326 17.547989
v 40.198066 4.599237 17.587286
v 40.500648 4.595142 17.587286
v 40.517320 4.551326 17.543468
v 41.982286 4.700260 17.587286
v 41.930932 4.744076 17.543468
v 41.930932 4.552413 17.543468
v 41.982286 4.596230 17.587286
v 39.745125 4.595142 17.587286
v 39.796483 4.551326 17.543468
v 39.796483 4.745163 17.543468
v 39.745125 4.701346 17.587286
vt 0.375000 0.000000
vt 0.625000 0.000000
vt 0.375000 0.250000
vt 0.625000 0.250000
vt 0.375000 0.500000
vt 0.625000 0.500000
vt 0.375000 0.750000
vt 0.625000 0.750000
vt 0.375000 1.000000
vt 0.625000 1.000000
vt 0.875000 0.000000
vt 0.875000 0.250000
vt 0.125000 0.000000
vt 0.125000 0.250000
vt 0.611526 0.000000
vt 0.611526 1.000000
vt 0.611526 0.250000
vt 0.611526 0.500000
vt 0.611526 0.750000
vt 0.386219 0.000000
vt 0.386219 1.000000
vt 0.386219 0.250000
vt 0.386219 0.500000
vt 0.386219 0.750000
vt 0.350259 0.250000
vt 0.375000 0.274741
vt 0.350259 0.000000
vt 0.375000 0.975259
vt 0.386219 0.975259
vt 0.611526 0.975259
vt 0.625000 0.975259
vt 0.649741 0.000000
vt 0.625000 0.274741
vt 0.649741 0.250000
vt 0.611526 0.274741
vt 0.386219 0.274741
vt 0.148860 0.000000
vt 0.375000 0.773860
vt 0.148860 0.250000
vt 0.375000 0.476140
vt 0.386219 0.476140
vt 0.611526 0.476140
vt 0.625000 0.476140
vt 0.851140 0.250000
vt 0.625000 0.773860
vt 0.851140 0.000000
vt 0.611526 0.773860
vt 0.386219 0.773860
vt 0.386219 0.250000
vt 0.386219 0.000000
vt 0.611526 0.000000
vt 0.611526 0.250000
vt 0.497139 0.000000
vt 0.497139 1.000000
vt 0.497139 0.000000
vt 0.497139 0.250000
vt 0.497139 0.250000
vt 0.497139 0.274741
vt 0.497139 0.476140
vt 0.497139 0.500000
vt 0.497139 0.750000
vt 0.497139 0.773860
vt 0.497139 0.975259
vt 0.505017 0.274741
vt 0.505017 0.250000
vt 0.505017 0.250000
vt 0.505017 0.000000
vt 0.505017 0.000000
vt 0.505017 1.000000
vt 0.505017 0.975259
vt 0.505017 0.773860
vt 0.505017 0.750000
vt 0.505017 0.500000
vt 0.505017 0.476140
vt 0.386219 0.250000
vt 0.386219 0.000000
vt 0.497139 0.000000
vt 0.497139 0.250000
vt 0.505017 0.250000
vt 0.505017 0.000000
vt 0.611526 0.000000
vt 0.611526 0.250000
vt 0.375000 0.975259
vt 0.386219 0.975259
vt 0.386219 1.000000
vt 0.375000 1.000000
vt 0.611526 1.000000
vt 0.611526 0.975259
vt 0.625000 0.975259
vt 0.625000 1.000000
vt 0.375000 0.750000
vt 0.386219 0.750000
vt 0.386219 0.773860
vt 0.375000 0.773860
vt 0.625000 0.773860
vt 0.611526 0.773860
vt 0.611526 0.750000
vt 0.625000 0.750000
vt 0.375000 0.124345
vt 0.350259 0.124345
vt 0.148860 0.124345
vt 0.125000 0.124345
vt 0.375000 0.625655
vt 0.386219 0.625655
vt 0.497139 0.625655
vt 0.505017 0.625655
vt 0.611526 0.625655
vt 0.625000 0.625655
vt 0.875000 0.124345
vt 0.851140 0.124345
vt 0.649741 0.124345
vt 0.625000 0.124345
vt 0.611526 0.124345
vt 0.611526 0.124345
vt 0.611526 0.124345
vt 0.505017 0.124345
vt 0.505017 0.124345
vt 0.497139 0.124345
vt 0.497139 0.124345
vt 0.386219 0.124345
vt 0.386219 0.124345
vt 0.386219 0.124345
vt 0.375000 0.111035
vt 0.350259 0.111035
vt 0.148860 0.111035
vt 0.125000 0.111035
vt 0.375000 0.638966
vt 0.386219 0.638966
vt 0.497139 0.638966
vt 0.505017 0.638966
vt 0.611526 0.638966
vt 0.625000 0.638966
vt 0.875000 0.111035
vt 0.851140 0.111035
vt 0.649741 0.111035
vt 0.625000 0.111035
vt 0.611526 0.111035
vt 0.611526 0.111035
vt 0.611526 0.111035
vt 0.505017 0.111035
vt 0.505017 0.111035
vt 0.497139 0.111035
vt 0.497139 0.111035
vt 0.386219 0.111035
vt 0.386219 0.111035
vt 0.386219 0.111035
vt 0.519547 0.274741
vt 0.519547 0.250000
vt 0.519547 0.250000
vt 0.519547 0.250000
vt 0.519547 0.124345
vt 0.519547 0.111035
vt 0.519547 0.000000
vt 0.519547 0.000000
vt 0.519547 0.000000
vt 0.519547 1.000000
vt 0.519547 0.975259
vt 0.519547 0.773860
vt 0.519547 0.750000
vt 0.519547 0.638966
vt 0.519547 0.625655
vt 0.519547 0.500000
vt 0.519547 0.476140
vt 0.482419 0.000000
vt 0.482419 1.000000
vt 0.482419 0.000000
vt 0.482419 0.000000
vt 0.482419 0.111035
vt 0.482419 0.124345
vt 0.482419 0.250000
vt 0.482419 0.250000
vt 0.482419 0.250000
vt 0.482419 0.274741
vt 0.482419 0.476140
vt 0.482419 0.500000
vt 0.482419 0.625655
vt 0.482419 0.638966
vt 0.482419 0.750000
vt 0.482419 0.773860
vt 0.482419 0.975259
vt 0.519547 0.111035
vt 0.519547 0.124345
vt 0.505017 0.124345
vt 0.505017 0.111035
vt 0.497139 0.124345
vt 0.482419 0.124345
vt 0.482419 0.111035
vt 0.497139 0.111035
vt 0.505017 0.111035
vt 0.497139 0.124345
vt 0.519547 0.124345
vt 0.482419 0.111035
vt 0.519547 0.124345
vt 0.505017 0.121302
vt 0.519547 0.114077
vt 0.505017 0.111035
vt 0.497139 0.124345
vt 0.482419 0.121336
vt 0.482419 0.111035
vt 0.497139 0.114043
vt 0.519547 0.114362
vt 0.505017 0.114077
vt 0.497139 0.121336
vt 0.482419 0.121055
vt 0.505017 0.124345
vt 0.505017 0.124345
vt 0.519547 0.124345
vt 0.519547 0.111035
vt 0.482419 0.124345
vt 0.497139 0.111035
vt 0.497139 0.111035
vt 0.482419 0.111035
vt 0.519547 0.124345
vt 0.519547 0.121018
vt 0.519547 0.121302
vt 0.519547 0.111035
vt 0.519547 0.111035
vt 0.519547 0.111035
vt 0.482419 0.111035
vt 0.482419 0.114324
vt 0.482419 0.114043
vt 0.482419 0.124345
vt 0.482419 0.124345
vt 0.482419 0.124345
vn 0.000000 0.000000 1.000000
vn 0.000000 0.000000 1.000000
vn 0.000000 0.000000 1.000000
vn 0.000000 0.000000 1.000000
vn 0.000000 1.000000 0.000000
vn 0.000000 1.000000 0.000003
vn 0.000000 1.000000 0.000000
vn 0.000000 1.000000 0.000000
vn 0.000000 0.000000 -1.000000
vn 0.000000 0.000000 -1.000000
vn 0.000000 0.000000 -1.000000
vn 0.000000 0.000000 -1.000000
vn 0.000000 -1.000000 0.000000
vn 0.000000 -1.000000 0.000000
vn 0.000000 -1.000000 0.000000
vn 0.000000 -1.000000 0.000000
vn 1.000000 0.000000 0.000000
vn 1.000000 0.000000 0.000000
vn 1.000000 0.000000 0.000000
vn 1.000000 0.000000 0.000000
vn -1.000000 0.000000 0.000000
vn -1.000000 0.000000 0.000000
vn -1.000000 0.000000 0.000000
vn -1.000000 0.000000 0.000000
vn 0.000000 0.000000 1.000000
vn 0.000000 0.000000 1.000000
vn 0.000000 0.000000 1.000000
vn 0.000000 0.000000 1.000000
vn 0.000000 1.000000 0.000000
vn -0.000000 1.000000 0.000000
vn -0.000000 1.000000 0.000002
vn 0.000000 1.000000 0.000000
vn -0.000000 0.000000 -1.000000
vn -0.000000 0.000000 -1.000000
vn 0.000000 0.000000 -1.000000
vn 0.000000 0.000000 -1.000000
vn 0.000000 -1.000000 0.000000
vn 0.000000 -1.000000 0.000000
vn 0.000000 -1.000000 0.000000
vn 0.000000 -1.000000 0.000000
vn 0.000000 0.000000 1.000000
vn 0.000000 0.000000 1.000000
vn 0.000000 0.000000 1.000000
vn 0.000000 0.000000 1.000000
vn 0.000000 1.000000 0.000004
vn 0.000000 1.000000 0.000000
vn 0.000000 0.000000 -1.000000
vn 0.000000 0.000000 -1.000000
vn 0.000000 -1.000000 0.000000
vn 0.000000 -1.000000 0.000000
vn 0.000000 -1.000000 0.000000
vn 0.000000 -1.000000 0.000000
vn -1.000000 0.000000 0.000000
vn -1.000000 0.000000 0.000000
vn -1.000000 0.000000 0.000000
vn -1.000000 0.000000 0.000000
vn 0.000000 -1.000000 0.000000
vn 0.000000 -1.000000 0.000000
vn 0.000000 -1.000000 0.000000
vn 0.000000 -1.000000 0.000000
vn 0.000000 -1.000000 -0.000001
vn 0.000000 -1.000000 -0.000000
vn 0.000000 -1.000000 -0.000000
vn 0.000000 -1.000000 -0.000001
vn 0.000000 -1.000000 0.000000
vn 0.000000 -1.000000 0.000000
vn 0.000000 -1.000000 0.000000
vn 0.000000 -1.000000 0.000000
vn 1.000000 0.000000 0.000000
vn 1.000000 0.000000 0.000000
vn 1.000000 0.000000 0.000000
vn 1.000000 0.000000 0.000000
vn -0.000001 1.000000 0.000000
vn -0.000000 1.000000 -0.000000
vn 0.000000 1.000000 0.000000
vn 0.000000 1.000000 0.000000
vn 0.000001 1.000000 0.000000
vn 0.000000 1.000000 -0.000000
vn 0.000000 1.000000 -0.000000
vn 0.000001 1.000000 0.000000
vn 0.000000 1.000000 0.000000
vn 0.000000 1.000000 0.000000
vn 0.000000 -1.000000 0.000000
vn -0.000000 -1.000000 0.000000
vn -0.000000 -1.000000 -0.000000
vn 0.000000 -1.000000 0.000000
vn 0.000000 -1.000000 0.000000
vn 0.000000 -1.000000 0.000000
vn 0.000000 0.000000 1.000000
vn 0.000000 0.000000 1.000000
vn 0.000000 0.000000 1.000000
vn 0.000000 0.000000 1.000000
vn 0.000000 0.000000 1.000000
vn 0.000000 0.000000 1.000000
vn 0.000000 0.000000 1.000000
vn 0.000000 0.000000 1.000000
vn 0.000000 0.000000 1.000000
vn 0.000000 0.000000 1.000000
vn 0.000000 0.000000 1.000000
vn 0.000000 0.000000 1.000000
vn 0.000000 0.000000 1.000000
vn 0.000000 0.000000 1.000000
vn 0.000000 0.000000 1.000000
vn 0.000000 0.000000 1.000000
vn 0.000000 0.000000 1.000000
vn 0.000000 0.000000 1.000000
vn 0.000000 0.000000 1.000000
vn 0.000000 0.000000 1.000000
vn 0.000000 0.000000 1.000000
vn 0.000000 0.000000 1.000000
vn 0.000000 0.000000 1.000000
vn 0.000000 0.000000 1.000000
vn 0.000000 0.000000 1.000000
vn 0.000000 0.000000 1.000000
vn 0.000000 0.000000 1.000000
vn 0.000000 0.000000 1.000000
vn -0.000000 1.000000 0.000000
vn -0.000000 1.000000 0.000003
vn -0.000000 1.000000 -0.000000
vn -0.000001 1.000000 0.000000
vn -0.000000 0.000000 -1.000000
vn -0.000000 0.000000 -1.000000
vn -0.000000 -1.000000 -0.000000
vn -0.000000 -1.000000 -0.000001
vn -0.000000 -1.000000 -0.000001
vn -0.000000 -1.000000 0.000000
vn -0.000000 -1.000000 0.000000
vn -0.000000 -1.000000 0.000000
vn 0.000000 1.000000 0.000007
vn 0.000000 1.000000 -0.000000
vn 0.000000 1.000000 0.000000
vn 0.000000 1.000000 0.000006
vn 0.000000 0.000000 1.000000
vn 0.000000 0.000000 1.000000
vn 0.000000 0.000000 1.000000
vn 0.000000 0.000000 1.000000
vn 0.000000 0.000000 1.000000
vn 0.000000 0.000000 1.000000
vn 0.000000 0.000000 1.000000
vn 0.000000 0.000000 1.000000
vn 0.000000 0.000000 1.000000
vn 0.000000 0.000000 1.000000
vn 0.000000 0.000000 1.000000
vn 0.000000 0.000000 1.000000
vn 0.000000 -1.000000 0.000000
vn 0.000000 -1.000000 0.000000
vn 0.000000 -1.000000 0.000000
vn 0.000000 -1.000000 0.000000
vn 0.000000 -1.000000 0.000000
vn 0.000000 -1.000000 0.000000
vn 0.000000 -1.000000 -0.000002
vn 0.000000 -1.000000 -0.000001
vn 0.000000 0.000000 -1.000000
vn 0.000000 0.000000 -1.000000
vn 0.000000 0.000000 -1.000000
vn 0.000000 0.000000 -1.000000
vn 0.000000 1.000000 0.000000
vn 0.000000 1.000000 -0.000001
vn 0.000000 1.000000 -0.000001
vn 0.000000 1.000000 0.000000
vn -0.549642 0.000000 0.835400
vn -0.549642 0.000000 0.835400
vn -0.549642 0.000000 0.835400
vn -0.549642 0.000000 0.835400
vn 0.000000 -0.999944 0.010535
vn 0.000000 -0.999944 0.010537
vn 0.000000 -0.999944 0.010536
vn 0.000000 -0.999944 0.010535
vn 0.673085 0.000000 0.739565
vn 0.673085 0.000000 0.739565
vn 0.673085 0.000000 0.739565
vn 0.673085 0.000000 0.739565
vn 0.000000 0.999945 0.010529
vn 0.000000 0.999945 0.010529
vn 0.000000 0.999945 0.010529
vn 0.000000 0.999945 0.010529
vn -0.675433 0.000000 0.737421
vn -0.675433 0.000000 0.737421
vn -0.675433 0.000000 0.737421
vn -0.675433 0.000000 0.737421
vn 0.000000 -0.999944 0.010539
vn 0.000000 -0.999944 0.010539
vn 0.000000 -0.999944 0.010539
vn 0.000000 -0.999944 0.010539
vn 0.549642 0.000000 0.835400
vn 0.549642 0.000000 0.835400
vn 0.549642 0.000000 0.835400
vn 0.549642 0.000000 0.835400
vn 0.000000 0.999945 0.010530
vn 0.000000 0.999945 0.010529
vn 0.000000 0.999945 0.010530
vn 0.000000 0.999945 0.010530
vn 0.000000 0.000000 -1.000000
vn 0.000000 0.000000 -1.000000
vn 0.000000 0.000000 -1.000000
vn 0.000000 0.000000 -1.000000
vn 1.000000 0.000000 0.000000
vn 1.000000 0.000000 0.000000
vn 1.000000 0.000000 0.000000
vn 1.000000 0.000000 0.000000
vn 0.000000 0.000000 1.000000
vn 0.000000 0.000000 1.000000
vn 0.000000 0.000000 1.000000
vn 0.000000 0.000000 1.000000
vn -1.000000 0.000000 0.000000
vn -1.000000 0.000000 0.000000
vn -1.000000 0.000000 0.000000
vn -1.000000 0.000000 0.000000
vn -1.000000 0.000000 0.000000
vn -1.000000 0.000000 0.000000
vn -1.000000 0.000000 0.000000
vn -1.000000 0.000000 0.000000
vn 0.000000 0.000000 -1.000000
vn 0.000000 0.000000 -1.000000
vn 0.000000 0.000000 -1.000000
vn 0.000000 0.000000 -1.000000
vn 1.000000 0.000000 0.000000
vn 1.000000 0.000000 0.000000
vn 1.000000 0.000000 0.000000
vn 1.000000 0.000000 0.000000
vn 0.000000 0.000000 1.000000
vn 0.000000 0.000000 1.000000
vn 0.000000 0.000000 1.000000
vn 0.000000 0.000000 1.000000
vn 0.000000 0.000000 -1.000000
vn 0.000000 0.000000 -1.000000
vn 0.000000 0.000000 -1.000000
vn 0.000000 0.000000 -1.000000
vn 1.000000 0.000000 0.000000
vn 1.000000 0.000000 0.000000
vn 1.000000 0.000000 0.000000
vn 1.000000 0.000000 0.000000
vn 0.000000 0.000000 1.000000
vn 0.000000 0.000000 1.000000
vn 0.000000 0.000000 1.000000
vn 0.000000 0.000000 1.000000
vn -1.000000 0.000000 0.000000
vn -1.000000 0.000000 0.000000
vn -1.000000 0.000000 0.000000
vn -1.000000 0.000000 0.000000
vn 0.000000 0.000000 1.000000
vn 0.000000 0.000000 1.000000
vn 0.000000 0.000000 1.000000
vn 0.000000 0.000000 1.000000
vn -1.000000 0.000000 0.000000
vn -1.000000 0.000000 0.000000
vn -1.000000 0.000000 0.000000
vn -1.000000 0.000000 0.000000
vn 0.000000 0.000000 -1.000000
vn 0.000000 0.000000 -1.000000
vn 0.000000 0.000000 -1.000000
vn 0.000000 0.000000 -1.000000
vn 1.000000 0.000000 0.000000
vn 1.000000 0.000000 0.000000
vn 1.000000 0.000000 0.000000
vn 1.000000 0.000000 0.000000
vn -1.000000 0.000000 0.000000
vn -1.000000 0.000000 0.000000
vn -1.000000 0.000000 0.000000
vn -1.000000 0.000000 0.000000
vn -1.000000 0.000000 0.000000
vn -1.000000 0.000000 0.000000
vn -1.000000 0.000000 0.000000
vn -1.000000 0.000000 0.000000
vn 0.000000 0.000000 -1.000000
vn 0.000000 0.000000 -1.000000
vn 0.000000 0.000000 -1.000000
vn 0.000000 0.000000 -1.000000
vn 0.000000 0.000000 -1.000000
vn 0.000000 0.000000 -1.000000
vn 0.000000 0.000000 -1.000000
vn 0.000000 0.000000 -1.000000
vn 0.000000 0.000000 -1.000000
vn 0.000000 0.000000 -1.000000
vn 0.000000 0.000000 -1.000000
vn 0.000000 0.000000 -1.000000
vn 0.000000 0.000000 -1.000000
vn 0.000000 0.000000 -1.000000
vn 0.000000 0.000000 -1.000000
vn 0.000000 0.000000 -1.000000
vn 1.000000 0.000000 0.000000
vn 1.000000 0.000000 0.000000
vn 1.000000 0.000000 0.000000
vn 1.000000 0.000000 0.000000
vn 1.000000 0.000000 0.000000
vn 1.000000 0.000000 0.000000
vn 1.000000 0.000000 0.000000
vn 1.000000 0.000000 0.000000
vn 0.000000 0.000000 1.000000
vn 0.000000 0.000000 1.000000
vn 0.000000 0.000000 1.000000
vn 0.000000 0.000000 1.000000
vn 0.000000 0.000000 1.000000
vn 0.000000 0.000000 1.000000
vn 0.000000 0.000000 1.000000
vn 0.000000 0.000000 1.000000
vn 0.549642 0.000000 0.835400
vn 0.549642 0.000000 0.835400
vn 0.549642 0.000000 0.835400
vn 0.549642 0.000000 0.835400
vn 0.000000 0.000000 1.000000
vn 0.000000 0.000000 1.000000
vn 0.000000 0.000000 1.000000
vn 0.000000 0.000000 1.000000
vn -0.675433 0.000000 0.737421
vn -0.675433 0.000000 0.737421
vn -0.675433 0.000000 0.737421
vn -0.675433 0.000000 0.737421
vn 0.000000 0.000000 1.000000
vn 0.000000 0.000000 1.000000
vn 0.000000 0.000000 1.000000
vn 0.000000 0.000000 1.000000
vn 0.673085 0.000000 0.739565
vn 0.673085 0.000000 0.739565
vn 0.673085 0.000000 0.739565
vn 0.673085 0.000000 0.739565
vn 0.000000 0.000000 1.000000
vn 0.000000 0.000000 1.000000
vn 0.000000 0.000000 1.000000
vn 0.000000 0.000000 1.000000
vn -0.549642 0.000000 0.835400
vn -0.549642 0.000000 0.835400
vn -0.549642 0.000000 0.835400
vn -0.549642 0.000000 0.835400
vn -0.000000 0.000000 1.000000
vn -0.000000 0.000000 1.000000
vn -0.000000 0.000000 1.000000
vn -0.000000 0.000000 1.000000
vn 0.000000 0.000000 1.000000
vn 0.000000 0.000000 1.000000
vn 0.000000 0.000000 1.000000
vn 0.000000 0.000000 1.000000
vn 0.000000 0.999945 0.010527
vn 0.000000 0.999945 0.010527
vn 0.000000 0.000000 1.000000
vn 0.000000 0.000000 1.000000
vn 0.000000 0.000000 1.000000
vn 0.000000 0.000000 1.000000
vn 0.000000 -0.999944 0.010538
vn 0.000000 -0.999944 0.010538
vn 0.000000 -0.999944 0.010542
vn 0.000000 -0.999944 0.010542
vn 0.000000 0.000000 1.000000
vn 0.000000 0.000000 1.000000
vn 0.000000 0.000000 1.000000
vn 0.000000 0.000000 1.000000
vn 0.000000 0.999945 0.010532
vn 0.000000 0.999945 0.010532
vn 0.000002 0.000000 1.000000
vn 0.000002 0.000000 1.000000
vn 0.000002 0.000000 1.000000
vn 0.000002 0.000000 1.000000
vn 0.000000 0.000000 1.000000
vn 0.000000 0.000000 1.000000
vn 0.000000 0.000000 1.000000
vn 0.000000 0.000000 1.000000
vn -0.000002 0.000000 1.000000
vn -0.000002 0.000000 1.000000
vn -0.000002 0.000000 1.000000
vn -0.000002 0.000000 1.000000
vn 0.000000 0.000000 1.000000
vn 0.000000 0.000000 1.000000
vn 0.000000 0.000000 1.000000
vn 0.000000 0.000000 1.000000
vn 0.000000 0.000000 1.000000
vn 0.000000 0.000000 1.000000
vn 0.000000 0.000000 1.000000
vn 0.000000 0.000000 1.000000
vn 0.000000 0.000000 1.000000
vn 0.000000 0.000000 1.000000
vn 0.000000 0.000000 1.000000
vn 0.000000 0.000000 1.000000
vn 0.000000 0.000000 1.000000
vn 0.000000 0.000000 1.000000
vn 0.000000 0.000000 1.000000
vn 0.000000 0.000000 1.000000
vn 0.000000 0.000000 1.000000
vn 0.000000 0.000000 1.000000
vn 0.000000 0.000000 1.000000
vn 0.000000 0.000000 1.000000
vn 1.000000 0.000000 0.000000
vn 1.000000 0.000000 0.000000
vn 1.000000 0.000000 0.000000
vn 1.000000 0.000000 0.000000
vn 0.000000 1.000000 0.000000
vn 0.000000 1.000000 0.000000
vn 0.000000 1.000000 0.000000
vn 0.000000 1.000000 0.000000
vn -1.000000 0.000000 0.000000
vn -1.000000 0.000000 0.000000
vn -1.000000 0.000000 0.000000
vn -1.000000 0.000000 0.000000
vn 0.000000 -1.000000 0.000000
vn 0.000000 -1.000000 0.000000
vn 0.000000 -1.000000 0.000000
vn 0.000000 -1.000000 0.000000
vn 0.000000 1.000000 0.000000
vn 0.000000 1.000000 0.000000
vn 0.000000 1.000000 0.000000
vn 0.000000 1.000000 0.000000
vn -1.000000 0.000000 0.000000
vn -1.000000 0.000000 0.000000
vn -1.000000 0.000000 0.000000
vn -1.000000 0.000000 0.000000
vn 0.000000 -1.000000 0.000000
vn 0.000000 -1.000000 0.000000
vn 0.000000 -1.000000 0.000000
vn 0.000000 -1.000000 0.000000
vn 1.000000 0.000000 0.000000
vn 1.000000 0.000000 0.000000
vn 1.000000 0.000000 0.000000
vn 1.000000 0.000000 0.000000
vn 0.649090 0.000000 -0.760712
vn 0.649090 0.000000 -0.760712
vn 0.649090 0.000000 -0.760712
vn 0.649090 0.000000 -0.760712
vn 0.649090 0.000000 -0.760712
vn 0.649090 0.000000 -0.760712
vn -0.931818 0.000000 0.362927
vn -0.931818 0.000000 0.362927
vn -0.931818 0.000000 0.362927
vn -0.931818 0.000000 0.362927
vn -0.931818 0.000000 0.362927
vn -0.931818 0.000000 0.362927
vn -0.649085 0.000000 -0.760716
vn -0.649085 0.000000 -0.760716
vn -0.649085 0.000000 -0.760716
vn -0.649085 0.000000 -0.760716
vn -0.649085 0.000000 -0.760716
vn -0.649085 0.000000 -0.760716
vn 0.934675 0.000000 0.355504
vn 0.934675 0.000000 0.355504
vn 0.934675 0.000000 0.355504
vn 0.934675 0.000000 0.355504
vn 0.934675 0.000000 0.355504
vn 0.934675 0.000000 0.355504
vn 0.000000 0.000000 -1.000000
vn 0.000000 0.000000 -1.000000
vn 0.000000 0.000000 -1.000000
vn 0.000000 0.000000 -1.000000
vn 0.000000 0.000000 -1.000000
vn 0.000000 0.000000 -1.000000
vn 0.000000 0.000000 -1.000000
vn 0.000000 0.000000 -1.000000
vn -0.000230 0.671477 0.741025
vn 0.000208 0.671629 0.740887
vn 0.000677 0.671792 0.740740
vn 0.000677 0.671792 0.740740
vn -0.001043 0.671195 0.741280
vn -0.001043 0.671195 0.741280
vn 0.000208 -0.671629 0.740887
vn -0.000230 -0.671477 0.741025
vn 0.000677 -0.671792 0.740740
vn 0.000677 -0.671792 0.740740
vn -0.001043 -0.671195 0.741280
vn -0.001043 -0.671195 0.741280
vn 0.001016 0.671194 0.741281
vn 0.001016 0.671194 0.741281
vn 0.000227 0.671468 0.741033
vn -0.000207 0.671619 0.740897
vn -0.000679 0.671783 0.740748
vn -0.000679 0.671783 0.740748
vn 0.000227 -0.671470 0.741032
vn -0.000207 -0.671621 0.740895
vn -0.000679 -0.671784 0.740746
vn -0.000679 -0.671784 0.740746
vn 0.001015 -0.671196 0.741279
vn 0.001015 -0.671196 0.741279
vn 0.000000 0.000000 1.000000
vn 0.000000 0.000000 1.000000
vn 0.000000 0.000000 1.000000
vn 0.000000 0.000000 1.000000
vn 0.000000 0.000000 1.000000
vn 0.000000 0.000000 1.000000
vn 0.000000 0.000000 1.000000
vn 0.000000 0.000000 1.000000
vn 0.000000 1.000000 0.000000
vn 0.000000 1.000000 0.000000
vn 0.000000 -1.000000 0.000000
vn 0.000000 -1.000000 0.000000
vn 0.000000 1.000000 0.000000
vn 0.000000 1.000000 0.000000
vn 0.000000 -1.000000 0.000000
vn 0.000000 -1.000000 -0.000000
vn 0.000000 1.000000 0.000000
vn 0.000000 1.000000 0.000000
vn -0.000000 0.000000 1.000000
vn -0.000000 0.000000 1.000000
vn 0.000000 -1.000000 0.000000
vn 0.000000 -1.000000 0.000000
vn 0.000000 -1.000000 -0.000000
vn 0.000000 -1.000000 -0.000000
vn 0.000000 0.000000 1.000000
vn 0.000000 0.000000 1.000000
vn 0.000000 1.000000 0.000000
vn 0.000000 1.000000 0.000000
s 1
g pCube52
usemtl initialShadingGroup
f 1/1/1 13/20/2 124/146/3 103/123/4
s 2
f 3/3/5 14/22/6 24/36/7 17/26/8
s 3
f 106/127/9 107/128/10 16/24/11 7/7/12
s off
f 65/83/13 66/84/14 67/85/15 68/86/16
s 4
f 2/2/17 21/32/18 113/135/19 114/136/20
s 5
f 103/123/21 104/124/22 18/27/23 1/1/24
s 6
f 114/136/25 115/137/26 9/15/27 2/2/28
s 2
f 22/33/29 23/35/30 10/17/31 4/4/32
s 3
f 12/19/33 110/131/34 111/132/35 8/8/36
s off
f 70/87/37 69/88/38 71/89/39 72/90/40
s 9
f 143/167/41 144/168/42 122/144/43 57/76/44
s 2
f 148/172/45 149/173/46 24/36/7 14/22/6
s 3
f 16/24/11 107/128/10 153/177/47 154/178/48
s 10
f 13/21/49 19/29/50 156/180/51 141/165/52
s 5
f 7/13/53 25/37/54 105/125/55 106/126/56
s off
f 73/91/57 74/92/58 75/93/59 76/94/60
s 10
f 154/178/61 155/179/62 32/48/63 16/24/64
s off
f 77/95/65 78/96/66 79/97/67 80/98/68
s 4
f 111/133/69 112/134/70 30/46/71 8/11/72
s 2
f 11/18/73 28/42/74 29/43/75 6/6/76
f 15/23/77 27/41/78 150/174/79 151/175/80
f 26/40/81 27/41/78 15/23/77 5/5/82
s 5
f 104/124/22 105/125/55 25/37/54 18/27/23
s 2
f 17/26/8 24/36/7 27/41/78 26/40/81
f 149/173/46 150/174/79 27/41/78 24/36/7
f 29/43/75 28/42/74 23/35/30 22/33/29
s 4
f 112/134/70 113/135/19 21/32/18 30/46/71
s 10
f 21/31/83 20/30/84 31/47/85 30/45/86
f 155/179/62 156/180/51 19/29/50 32/48/63
f 25/38/87 32/48/63 19/29/50 18/28/88
s 16
f 123/145/89 124/146/90 13/20/91 33/50/92
s 17
f 13/20/93 141/164/94 142/166/95 33/50/96
s 18
f 9/15/97 115/137/98 116/138/99 35/51/100
s 19
f 147/171/101 148/172/102 14/22/103 34/49/104
s 17
f 132/154/105 133/155/106 9/15/107 35/51/108
s 21
f 117/139/109 130/152/110 131/153/111 63/81/112
s 19
f 10/17/113 126/148/114 127/149/115 36/52/116
s 2
f 23/35/30 125/147/117 126/148/118 10/17/31
f 28/42/74 140/163/119 125/147/117 23/35/30
f 139/162/120 140/163/119 28/42/74 11/18/73
s 3
f 136/159/121 137/160/122 110/131/34 12/19/33
s 10
f 31/47/85 135/158/123 136/159/124 12/19/125
f 20/30/84 134/157/126 135/158/123 31/47/85
f 133/156/127 134/157/126 20/30/84 9/16/128
s 2
f 48/65/129 47/64/130 41/58/131 40/57/132
s 19
f 49/66/133 48/65/134 40/57/135 39/56/136
s 23
f 119/141/137 120/142/138 38/55/139 50/67/140
s 17
f 38/55/141 37/53/142 51/68/143 50/67/144
s 10
f 37/54/145 46/63/146 52/70/147 51/69/148
f 53/71/149 52/70/147 46/63/146 45/62/150
f 54/72/151 53/71/149 45/62/150 44/61/152
s 3
f 44/61/153 108/129/154 109/130/155 54/72/156
s 2
f 43/60/157 42/59/158 56/74/159 55/73/160
f 47/64/130 56/74/159 42/59/158 41/58/131
s 24
f 122/144/161 123/145/162 33/50/163 57/76/164
s 25
f 33/50/165 142/166/166 143/167/167 57/76/168
s 26
f 38/55/169 120/142/170 121/143/171 59/77/172
s 27
f 146/170/173 147/171/174 34/49/175 58/75/176
s 28
f 118/140/177 119/141/178 50/67/179 62/80/180
s 29
f 131/153/181 132/154/182 35/51/183 63/81/184
s 30
f 35/51/185 116/138/186 117/139/187 63/81/188
s 31
f 36/52/189 127/149/190 128/150/191 64/82/192
s off
f 18/28/193 19/29/194 66/84/195 65/83/196
f 19/29/197 13/21/198 67/85/199 66/84/200
f 13/21/201 1/9/202 68/86/203 67/85/204
f 1/9/205 18/28/206 65/83/207 68/86/208
f 9/16/209 20/30/210 69/88/211 70/87/212
f 20/30/213 21/31/214 71/89/215 69/88/216
f 21/31/217 2/10/218 72/90/219 71/89/220
f 2/10/221 9/16/222 70/87/223 72/90/224
f 7/7/225 16/24/226 74/92/227 73/91/228
f 16/24/229 32/48/230 75/93/231 74/92/232
f 32/48/233 25/38/234 76/94/235 75/93/236
f 25/38/237 7/7/238 73/91/239 76/94/240
f 30/45/241 31/47/242 78/96/243 77/95/244
f 31/47/245 12/19/246 79/97/247 78/96/248
f 12/19/249 8/8/250 80/98/251 79/97/252
f 8/8/253 30/45/254 77/95/255 80/98/256
s 5
f 17/25/257 82/100/258 81/99/259 3/3/260
f 26/39/261 83/101/262 82/100/258 17/25/257
f 84/102/263 83/101/262 26/39/261 5/14/264
s 3
f 5/5/265 15/23/266 85/104/267 84/103/268
f 151/175/269 152/176/270 85/104/267 15/23/266
f 87/106/271 86/105/272 43/60/273 55/73/274
f 88/107/275 138/161/276 139/162/277 11/18/278
f 89/108/279 88/107/275 11/18/278 6/6/280
s 4
f 29/44/281 90/110/282 89/109/283 6/12/284
f 22/34/285 91/111/286 90/110/282 29/44/281
f 92/112/287 91/111/286 22/34/285 4/4/288
s 6
f 10/17/289 93/113/290 92/112/291 4/4/292
s 18
f 94/114/293 93/113/294 10/17/295 36/52/296
s 30
f 95/115/297 94/114/298 36/52/299 64/82/300
s 21
f 128/150/301 129/151/302 95/115/303 64/82/304
s 28
f 49/66/305 97/117/306 96/116/307 61/79/308
s 23
f 39/56/309 98/118/310 97/117/311 49/66/312
s 26
f 99/119/313 98/118/314 39/56/315 60/78/316
s 9
f 58/75/317 100/120/318 145/169/319 146/170/320
s 24
f 34/49/321 101/121/322 100/120/323 58/75/324
s 16
f 14/22/325 102/122/326 101/121/327 34/49/328
s 1
f 81/99/329 102/122/330 14/22/331 3/3/332
s 5
f 81/99/259 82/100/258 104/124/22 103/123/21
f 82/100/258 83/101/262 105/125/55 104/124/22
f 106/126/56 105/125/55 83/101/262 84/102/263
s 3
f 84/103/268 85/104/267 107/128/10 106/127/9
f 152/176/270 153/177/47 107/128/10 85/104/267
f 109/130/155 108/129/154 86/105/272 87/106/271
f 110/131/34 137/160/122 138/161/276 88/107/275
f 111/132/35 110/131/34 88/107/275 89/108/279
s 4
f 89/109/283 90/110/282 112/134/70 111/133/69
f 90/110/282 91/111/286 113/135/19 112/134/70
f 114/136/20 113/135/19 91/111/286 92/112/287
s 6
f 92/112/291 93/113/290 115/137/26 114/136/25
s 18
f 116/138/99 115/137/98 93/113/294 94/114/293
s 30
f 117/139/187 116/138/186 94/114/298 95/115/297
s 21
f 95/115/303 129/151/302 130/152/110 117/139/109
s 28
f 96/116/307 97/117/306 119/141/178 118/140/177
s 23
f 97/117/311 98/118/310 120/142/138 119/141/137
s 26
f 121/143/171 120/142/170 98/118/314 99/119/313
s 9
f 144/168/42 145/169/319 100/120/318 122/144/43
s 24
f 100/120/323 101/121/322 123/145/162 122/144/161
s 16
f 101/121/327 102/122/326 124/146/90 123/145/89
s 1
f 103/123/4 124/146/3 102/122/330 81/99/329
s 2
f 126/148/118 125/147/117 47/64/130 48/65/129
s 19
f 127/149/115 126/148/114 48/65/134 49/66/133
s 31
f 128/150/191 127/149/190 49/66/333 61/79/334
s 21
f 61/79/335 96/116/336 129/151/302 128/150/301
f 131/153/111 130/152/110 118/140/337 62/80/338
s 29
f 50/67/339 132/154/182 131/153/181 62/80/340
s 17
f 50/67/144 51/68/143 133/155/106 132/154/105
s 10
f 51/69/148 52/70/147 134/157/126 133/156/127
f 135/158/123 134/157/126 52/70/147 53/71/149
f 136/159/124 135/158/123 53/71/149 54/72/151
s 3
f 54/72/156 109/130/155 137/160/122 136/159/121
f 138/161/276 137/160/122 109/130/155 87/106/271
f 139/162/277 138/161/276 87/106/271 55/73/274
s 2
f 55/73/160 56/74/159 140/163/119 139/162/120
f 125/147/117 140/163/119 56/74/159 47/64/130
s 17
f 142/166/95 141/164/94 37/53/142 38/55/141
s 25
f 143/167/167 142/166/166 38/55/341 59/77/342
s 9
f 121/143/343 144/168/42 143/167/41 59/77/344
f 146/170/320 145/169/319 99/119/345 60/78/346
s 27
f 39/56/347 147/171/174 146/170/173 60/78/348
s 19
f 39/56/136 40/57/135 148/172/102 147/171/101
s 2
f 40/57/132 41/58/131 149/173/46 148/172/45
f 41/58/131 42/59/158 150/174/79 149/173/46
f 151/175/80 150/174/79 42/59/158 43/60/157
s 3
f 86/105/272 152/176/270 151/175/269 43/60/273
f 108/129/154 153/177/47 152/176/270 86/105/272
f 154/178/48 153/177/47 108/129/154 44/61/153
s 10
f 44/61/152 45/62/150 155/179/62 154/178/61
f 45/62/150 46/63/146 156/180/51 155/179/62
f 141/165/52 156/180/51 46/63/146 37/54/145
s off
f 130/152/349 129/151/350 157/182/351 158/181/352
f 129/151/353 96/116/354 159/183/355 157/182/356
f 96/116/357 118/140/358 160/184/359 159/183/360
f 118/140/361 130/152/362 158/181/363 160/184/364
f 99/119/365 145/169/366 162/186/367 161/185/368
f 145/169/369 144/168/370 163/187/371 162/186/372
f 144/168/373 121/143/374 164/188/375 163/187/376
f 121/143/377 99/119/378 161/185/379 164/188/380
f 158/181/381 157/182/382 165/213/383 166/208/384
s 36
f 157/182/385 159/183/386 167/205/387 165/213/388
s off
f 159/183/389 160/184/390 168/189/391 167/205/392
s 37
f 160/184/393 158/181/394 166/208/395 168/189/396
s 38
f 161/185/397 162/186/398 170/209/399 169/190/400
s off
f 162/186/401 163/187/402 171/219/403 170/209/404
s 39
f 163/187/405 164/188/406 172/210/407 171/219/408
s off
f 164/188/409 161/185/410 169/190/411 172/210/412
f 174/217/413 173/191/414 194/193/415 193/215/416 196/195/417 195/218/418
f 167/205/419 168/189/420 184/196/421 183/202/422 179/194/423 180/206/424
f 176/223/425 175/192/426 198/199/427 197/221/428 200/198/429 199/224/430
f 172/210/431 169/190/432 186/197/433 185/203/434 191/200/435 192/211/436
f 166/208/437 165/213/438 173/191/439 174/217/440
f 170/209/441 171/219/442 175/192/443 176/223/444
s 40
f 177/207/445 178/214/446 193/215/447 194/193/448
f 178/214/446 177/207/445 180/206/449 179/194/450
s 41
f 181/201/451 182/216/452 195/218/453 196/195/454
f 182/216/452 181/201/451 183/202/455 184/196/456
s 42
f 185/203/457 186/197/458 188/222/459 187/204/460
f 187/204/460 188/222/459 199/224/461 200/198/462
s 43
f 189/212/463 190/220/464 197/221/465 198/199/466
f 190/220/464 189/212/463 192/211/467 191/200/468
s 44
f 181/201/469 178/214/470 179/194/471 183/202/472
s 45
f 185/203/473 187/204/474 190/220/475 191/200/476
s 36
f 165/213/388 167/205/387 180/206/477 177/207/478
s 37
f 168/189/396 166/208/395 182/216/479 184/196/480
s 38
f 169/190/400 170/209/399 188/222/481 186/197/482
s 39
f 171/219/408 172/210/407 192/211/483 189/212/484
s 36
f 165/213/388 177/207/478 194/193/485 173/191/486
s 44
f 178/214/470 181/201/469 196/195/487 193/215/488
s 37
f 182/216/479 166/208/395 174/217/489 195/218/490
s 39
f 171/219/408 189/212/484 198/199/491 175/192/492
s 45
f 190/220/475 187/204/474 200/198/493 197/221/494
s 38
f 188/222/481 170/209/399 176/223/495 199/224/496
