# This file uses centimeters as units for non-parametric coordinates.

mtllib couch_livingroom.mtl
g default
v 42.139899 1.666499 -21.923829
v 42.418793 1.592498 -22.012536
v 42.418793 1.525191 -21.805947
v 42.418793 1.645314 -21.542960
v 42.139899 1.703845 -21.591788
v 42.024378 1.845154 -21.709670
v 45.148482 1.666499 -21.923829
v 45.264003 1.845154 -21.709670
v 45.148482 1.703845 -21.591788
v 44.869588 1.645314 -21.542960
v 44.869588 1.525191 -21.805947
v 44.869588 1.592498 -22.012536
v 42.139899 2.453703 -20.980184
v 42.024378 2.275048 -21.194343
v 42.139899 2.133740 -21.076461
v 42.418793 2.075208 -21.027633
v 42.418793 2.312395 -20.862302
v 42.418793 2.527705 -20.891476
v 45.148482 2.453703 -20.980184
v 44.869588 2.527705 -20.891476
v 44.869588 2.312395 -20.862302
v 44.869588 2.075208 -21.027633
v 45.148482 2.133740 -21.076461
v 45.264003 2.275048 -21.194343
v 42.139899 2.587706 -21.455166
v 42.024378 2.446397 -21.337285
v 42.139899 2.625052 -21.123126
v 42.418793 2.699053 -21.034418
v 42.418793 2.766360 -21.241008
v 42.418793 2.646237 -21.503995
v 45.148482 2.587706 -21.455166
v 44.869588 2.646237 -21.503995
v 44.869588 2.766360 -21.241008
v 44.869588 2.699053 -21.034418
v 45.148482 2.625052 -21.123126
v 45.264003 2.446397 -21.337285
v 42.139899 1.837848 -22.066771
v 42.024378 2.016503 -21.852612
v 42.139899 2.157811 -21.970494
v 42.418793 2.216343 -22.019322
v 42.418793 1.979156 -22.184653
v 42.418793 1.763846 -22.155478
v 45.148482 1.837848 -22.066771
v 44.869588 1.763846 -22.155478
v 44.869588 1.979156 -22.184653
v 44.869588 2.216343 -22.019322
v 45.148482 2.157811 -21.970494
v 45.264003 2.016503 -21.852612
v 42.191158 1.583997 -21.788253
v 45.097223 1.583997 -21.788253
v 42.191158 2.305532 -20.923328
v 45.097223 2.305532 -20.923328
v 42.191158 2.707554 -21.258702
v 45.097223 2.707554 -21.258702
v 42.191158 1.986019 -22.123627
v 45.097223 1.986019 -22.123627
vt 0.405437 0.912509
vt 0.405437 0.067540
vt 0.594563 0.912509
vt 0.712491 0.067540
vt 0.405437 0.182460
vt 0.594563 0.182460
vt 0.712491 0.182460
vt 0.212491 0.067540
vt 0.405437 0.412509
vt 0.594563 0.412509
vt 0.787509 0.182460
vt 0.787509 0.067540
vt 0.594563 0.837491
vt 0.405437 0.682460
vt 0.594563 0.682460
vt 0.594563 0.067540
vt 0.405437 0.337491
vt 0.594563 0.337491
vt 0.405437 0.567540
vt 0.594563 0.567540
vt 0.405437 0.837491
vt 0.287509 0.067540
vt 0.287509 0.182460
vt 0.212491 0.182460
vt 0.375000 0.926806
vt 0.301806 0.000000
vt 0.395394 0.000000
vt 0.395394 1.000000
vt 0.354594 0.062228
vt 0.698194 0.000000
vt 0.625000 0.926806
vt 0.645406 0.062228
vt 0.604606 1.000000
vt 0.604606 0.000000
vt 0.301806 0.250000
vt 0.375000 0.323194
vt 0.354594 0.187772
vt 0.404273 0.258818
vt 0.625000 0.323194
vt 0.698194 0.250000
vt 0.595727 0.258818
vt 0.645406 0.187772
vt 0.125000 0.198015
vt 0.375000 0.551985
vt 0.375000 0.426806
vt 0.198194 0.250000
vt 0.404273 0.491182
vt 0.625000 0.551985
vt 0.875000 0.198015
vt 0.595727 0.491182
vt 0.801806 0.250000
vt 0.625000 0.426806
vt 0.198194 0.000000
vt 0.375000 0.823194
vt 0.375000 0.698015
vt 0.125000 0.051985
vt 0.404273 0.758818
vt 0.625000 0.823194
vt 0.801806 0.000000
vt 0.595727 0.758818
vt 0.875000 0.051985
vt 0.625000 0.698015
vt 0.375000 1.000000
vt 0.375000 0.000000
vt 0.625000 0.000000
vt 0.625000 1.000000
vt 0.375000 0.250000
vt 0.625000 0.250000
vt 0.125000 0.250000
vt 0.375000 0.500000
vt 0.625000 0.500000
vt 0.875000 0.250000
vt 0.125000 0.000000
vt 0.375000 0.750000
vt 0.625000 0.750000
vt 0.875000 0.000000
vn -0.034366 -0.821647 -0.568960
vn -0.361634 -0.730795 -0.578930
vn -0.361634 -0.438514 -0.822755
vn -0.034366 -0.412416 -0.910347
vn -0.912688 -0.377799 -0.155781
vn -0.962185 -0.259031 0.084279
vn -0.962185 0.129358 -0.239722
vn -0.912688 -0.085516 -0.399609
vn -0.025465 -0.815233 0.578572
vn -0.017811 -0.908525 0.417450
vn 0.017811 -0.908525 0.417450
vn 0.025465 -0.815233 0.578572
vn -0.026341 -0.949102 -0.313866
vn 0.034366 -0.821647 -0.568960
vn 0.026341 -0.949102 -0.313866
vn -0.851267 -0.448826 0.271846
vn -0.851267 -0.347916 0.392810
vn -0.962185 -0.129358 0.239722
vn -0.256671 -0.775648 0.576620
vn -0.025465 -0.715369 0.698282
vn -0.256671 -0.706351 0.659688
vn 0.962185 -0.259031 0.084279
vn 0.912688 -0.377799 -0.155781
vn 0.912688 -0.085516 -0.399609
vn 0.962185 0.129358 -0.239722
vn 0.361634 -0.730795 -0.578930
vn 0.034366 -0.412416 -0.910347
vn 0.361634 -0.438514 -0.822755
vn 0.256671 -0.775648 0.576620
vn 0.256671 -0.706351 0.659688
vn 0.025465 -0.715369 0.698282
vn 0.851267 -0.448826 0.271846
vn 0.962185 -0.129358 0.239722
vn 0.851267 -0.347916 0.392810
vn -0.912688 0.085516 0.399609
vn -0.912688 0.377799 0.155781
vn -0.962185 0.259031 -0.084279
vn -0.361634 0.438514 0.822755
vn -0.034366 0.412416 0.910347
vn -0.034366 0.821647 0.568960
vn -0.361634 0.730795 0.578930
vn -0.026341 0.138604 0.989998
vn 0.026341 0.138604 0.989998
vn 0.034366 0.412416 0.910347
vn -0.017811 -0.573586 0.818952
vn 0.017811 -0.573586 0.818952
vn 0.361634 0.438514 0.822755
vn 0.361634 0.730795 0.578930
vn 0.034366 0.821647 0.568960
vn 0.912688 0.085516 0.399609
vn 0.962185 0.259031 -0.084279
vn 0.912688 0.377799 0.155781
vn -0.851267 0.448826 -0.271846
vn -0.851267 0.347916 -0.392810
vn -0.256670 0.775648 -0.576620
vn -0.025465 0.815233 -0.578573
vn -0.025465 0.715370 -0.698282
vn -0.256670 0.706351 -0.659688
vn -0.017811 0.908525 -0.417451
vn 0.017811 0.908525 -0.417451
vn 0.025465 0.815233 -0.578573
vn -0.026341 0.949102 0.313866
vn 0.026341 0.949102 0.313867
vn 0.256670 0.775648 -0.576620
vn 0.256670 0.706351 -0.659688
vn 0.025465 0.715370 -0.698282
vn 0.851267 0.448826 -0.271846
vn 0.851267 0.347916 -0.392809
vn -0.026341 -0.138604 -0.989998
vn 0.026341 -0.138604 -0.989998
vn -0.017811 0.573586 -0.818952
vn 0.017811 0.573586 -0.818952
vn -0.832629 -0.550361 0.061902
vn -0.305017 -0.888339 -0.343245
vn -0.228722 -0.873123 0.430514
vn 0.305018 -0.888340 -0.343245
vn 0.832629 -0.550361 0.061902
vn 0.228723 -0.873123 0.430515
vn -0.305018 0.178401 0.935488
vn -0.832629 -0.159580 0.530343
vn -0.228723 -0.580091 0.781781
vn 0.832629 -0.159580 0.530342
vn 0.305017 0.178401 0.935488
vn 0.228722 -0.580091 0.781781
vn -0.228722 0.873123 -0.430515
vn -0.832629 0.550361 -0.061902
vn -0.305018 0.888340 0.343245
vn 0.832629 0.550361 -0.061902
vn 0.228722 0.873123 -0.430515
vn 0.305018 0.888340 0.343245
vn -0.305018 -0.178401 -0.935488
vn -0.832629 0.159580 -0.530343
vn -0.228722 0.580091 -0.781780
vn 0.832629 0.159580 -0.530342
vn 0.305018 -0.178401 -0.935488
vn 0.228722 0.580091 -0.781780
s 1
g pCube19
usemtl initialShadingGroup
f 2/1/1 1/25/2 37/54/3 42/21/4
s 2
f 1/26/5 6/22/6 38/8/7 37/53/8
s 3
f 4/2/9 3/27/10 11/34/11 10/16/12
s 1
f 3/28/13 2/1/1 12/3/14 11/33/15
s 2
f 6/22/6 5/29/16 15/37/17 14/23/18
s 3
f 5/29/19 4/2/9 16/5/20 15/37/21
s 4
f 8/4/22 7/30/23 43/59/24 48/12/25
s 1
f 7/31/26 12/3/14 44/13/27 43/58/28
s 3
f 10/16/12 9/32/29 23/42/30 22/6/31
s 4
f 9/32/32 8/4/22 24/7/33 23/42/34
s 2
f 14/23/18 13/35/35 27/46/36 26/24/37
s 5
f 13/36/38 18/17/39 28/9/40 27/45/41
f 18/17/39 17/38/42 21/41/43 20/18/44
s 3
f 17/38/45 16/5/20 22/6/31 21/41/46
s 5
f 20/18/44 19/39/47 35/52/48 34/10/49
s 4
f 19/40/50 24/7/33 36/11/51 35/51/52
s 2
f 26/24/37 25/43/53 39/56/54 38/8/7
s 6
f 25/44/55 30/19/56 40/14/57 39/55/58
f 30/19/56 29/47/59 33/50/60 32/20/61
s 5
f 29/47/62 28/9/40 34/10/49 33/50/63
s 6
f 32/20/61 31/48/64 47/62/65 46/15/66
s 4
f 31/49/67 36/11/51 48/12/25 47/61/68
s 1
f 42/21/4 41/57/69 45/60/70 44/13/27
s 6
f 41/57/71 40/14/57 46/15/66 45/60/72
s 3
f 4/2/9 10/16/12 22/6/31 16/5/20
s 5
f 18/17/39 20/18/44 34/10/49 28/9/40
s 6
f 30/19/56 32/20/61 46/15/66 40/14/57
s 1
f 42/21/4 44/13/27 12/3/14 2/1/1
s 4
f 8/4/22 48/12/25 36/11/51 24/7/33
s 2
f 38/8/7 6/22/6 14/23/18 26/24/37
f 5/29/16 6/22/6 1/26/5 49/64/73
s 1
f 1/25/2 2/1/1 3/28/13 49/63/74
s 3
f 3/27/10 4/2/9 5/29/19 49/64/75
s 1
f 11/33/15 12/3/14 7/31/26 50/66/76
s 4
f 7/30/23 8/4/22 9/32/32 50/65/77
s 3
f 9/32/29 10/16/12 11/34/11 50/65/78
s 5
f 17/38/42 18/17/39 13/36/38 51/67/79
s 2
f 13/35/35 14/23/18 15/37/17 51/67/80
s 3
f 15/37/21 16/5/20 17/38/45 51/67/81
s 4
f 23/42/34 24/7/33 19/40/50 52/68/82
s 5
f 19/39/47 20/18/44 21/41/43 52/68/83
s 3
f 21/41/46 22/6/31 23/42/30 52/68/84
s 6
f 29/47/59 30/19/56 25/44/55 53/70/85
s 2
f 25/43/53 26/24/37 27/46/36 53/69/86
s 5
f 27/45/41 28/9/40 29/47/62 53/70/87
s 4
f 35/51/52 36/11/51 31/49/67 54/72/88
s 6
f 31/48/64 32/20/61 33/50/60 54/71/89
s 5
f 33/50/63 34/10/49 35/52/48 54/71/90
s 1
f 41/57/69 42/21/4 37/54/3 55/74/91
s 2
f 37/53/8 38/8/7 39/56/54 55/73/92
s 6
f 39/55/58 40/14/57 41/57/71 55/74/93
s 4
f 47/61/68 48/12/25 43/59/24 56/76/94
s 1
f 43/58/28 44/13/27 45/60/70 56/75/95
s 6
f 45/60/72 46/15/66 47/62/65 56/75/96
g default
v 36.460436 1.644590 -20.977355
v 36.610422 1.644590 -20.967801
v 36.610422 1.766676 -21.050086
v 45.253138 1.766676 -21.050086
v 45.253138 1.644590 -20.967801
v 45.403124 1.644590 -20.973781
v 36.460436 1.644590 -23.722946
v 36.610422 1.766676 -23.722946
v 36.610422 1.644590 -23.872930
v 45.253138 1.644590 -23.872930
v 45.253138 1.766676 -23.722946
v 45.403124 1.644590 -23.722946
v 36.460436 1.074772 -23.722946
v 36.610422 1.074772 -23.872930
v 36.610422 0.952686 -23.722946
v 45.253138 0.952686 -23.722946
v 45.253138 1.074772 -23.872930
v 45.403124 1.074772 -23.722946
v 36.388491 0.694320 -20.981450
v 36.230799 1.063275 -20.981450
v 36.230799 1.063275 -23.791581
v 36.388491 0.694320 -23.791581
v 45.632761 1.063275 -20.981450
v 45.475069 0.694320 -20.981450
v 45.475069 0.694320 -23.791581
v 45.632761 1.063275 -23.791581
v 45.632761 1.662357 -23.791581
v 45.632761 1.662357 -20.979457
v 36.230799 1.662357 -20.981450
v 36.230799 1.662357 -23.791581
v 36.610422 1.074772 -20.203945
v 36.610422 0.952686 -20.211501
v 45.253138 0.952686 -20.211501
v 45.253138 1.074772 -20.203945
v 36.460436 1.074772 -20.208612
v 36.610422 1.644590 -20.203945
v 36.460436 1.644590 -20.213498
v 45.403124 1.074772 -20.214387
v 45.403124 1.644590 -20.209924
v 45.253138 1.644590 -20.203945
v 36.230799 1.063275 -20.607837
v 36.388491 0.694320 -20.521278
v 45.475069 0.694320 -20.521278
v 45.632761 1.063275 -20.607837
v 45.632761 1.662357 -20.605844
v 36.230799 1.662357 -20.607837
v 45.403124 2.932240 -20.973781
v 45.403124 2.932240 -23.722946
v 45.632761 2.950007 -20.979457
v 45.632761 2.950007 -23.791581
v 36.460436 2.932240 -23.722946
v 36.460436 2.932240 -20.977355
v 36.230799 2.950007 -23.791581
v 36.230799 2.950007 -20.981450
v 36.610422 2.932240 -20.967801
v 36.460436 2.932240 -20.213498
v 36.610422 2.932240 -20.203945
v 45.253138 2.932240 -20.967801
v 45.253138 2.932240 -20.203945
v 45.403124 2.932240 -20.209924
v 45.632761 2.950007 -20.605844
v 36.230799 2.950007 -20.607837
v 36.648611 3.845133 -20.929612
v 36.610422 3.806944 -20.967801
v 45.253138 3.806944 -20.967801
v 45.214949 3.845133 -20.929612
v 36.648611 3.845133 -20.242133
v 36.610422 3.806944 -20.203945
v 45.214949 3.845133 -20.242133
v 45.253138 3.806944 -20.203945
v 37.131800 1.644590 -20.967801
v 37.131803 1.766676 -21.050086
v 37.131800 1.766676 -23.722946
v 37.131803 1.644590 -23.872930
v 37.131800 1.074772 -23.872930
v 37.131803 0.952686 -23.722946
v 36.936647 0.694320 -23.791581
v 36.936647 0.694320 -20.981450
v 36.936647 0.694320 -20.521278
v 37.131800 0.952686 -20.211501
v 37.131803 1.074772 -20.203945
v 37.131800 1.644590 -20.203945
v 37.131800 2.932240 -20.203945
v 37.131800 3.806944 -20.203945
v 37.165384 3.845133 -20.242133
v 37.165384 3.845133 -20.929612
v 37.131803 3.806944 -20.967801
v 37.131800 2.932240 -20.967801
v 44.851641 1.766676 -21.050086
v 44.851644 1.644590 -20.967801
v 44.851644 2.932240 -20.967801
v 44.851641 3.806944 -20.967801
v 44.817003 3.845133 -20.929612
v 44.817003 3.845133 -20.242133
v 44.851644 3.806944 -20.203945
v 44.851644 2.932240 -20.203945
v 44.851644 1.644590 -20.203945
v 44.851641 1.074772 -20.203945
v 44.851644 0.952686 -20.211501
v 45.052954 0.694320 -20.521278
v 45.052954 0.694320 -20.981450
v 45.052954 0.694320 -23.791581
v 44.851641 0.952686 -23.722946
v 44.851644 1.074772 -23.872930
v 44.851641 1.644590 -23.872930
v 44.851644 1.766676 -23.722946
v 36.610422 1.766676 -23.263610
v 36.460436 1.644590 -23.251109
v 36.460436 2.932240 -23.251109
v 36.230799 2.950007 -23.308654
v 36.230799 1.662357 -23.308654
v 36.230799 1.063275 -23.308654
v 36.388491 0.694320 -23.308654
v 36.936647 0.694320 -23.308654
v 45.052954 0.694320 -23.308654
v 45.475069 0.694320 -23.308654
v 45.632761 1.063275 -23.308654
v 45.632761 1.662357 -23.308313
v 45.632761 2.950007 -23.308313
v 45.403124 2.932240 -23.250495
v 45.403124 1.644590 -23.250495
v 45.253138 1.766676 -23.263610
v 44.851644 1.766676 -23.263610
v 37.131800 1.766676 -23.263610
v 36.388491 0.428643 -20.981450
v 36.936647 0.428643 -20.981450
v 36.936647 0.428643 -20.521278
v 36.388491 0.428643 -20.521278
v 45.052954 0.428643 -20.521278
v 45.052954 0.428643 -20.981450
v 45.475069 0.428643 -20.981450
v 45.475069 0.428643 -20.521278
v 36.936647 0.428643 -23.791581
v 36.388491 0.428643 -23.791581
v 36.936647 0.428643 -23.308654
v 36.388491 0.428643 -23.308654
v 45.052954 0.428643 -23.308654
v 45.475069 0.428643 -23.308654
v 45.052954 0.428643 -23.791581
v 45.475069 0.428643 -23.791581
vt 0.379193 0.987387
vt 0.375000 0.987387
vt 0.375000 0.762613
vt 0.379193 0.000000
vt 0.379193 0.037496
vt 0.625000 0.987387
vt 0.620807 0.987387
vt 0.625000 0.762613
vt 0.637613 0.037496
vt 0.375000 0.262613
vt 0.375000 0.487387
vt 0.379193 0.212504
vt 0.620807 0.212504
vt 0.625000 0.262613
vt 0.375000 0.537496
vt 0.375000 0.712504
vt 0.379193 0.487387
vt 0.620807 0.487387
vt 0.625000 0.537496
vt 0.625000 0.712504
vt 0.379193 0.712504
vt 0.620807 0.712504
vt 0.620807 0.762613
vt 0.620807 0.037496
vt 0.379193 0.262613
vt 0.620807 0.262613
vt 0.379193 0.537496
vt 0.620807 0.537496
vt 0.379193 0.762613
vt 0.862387 0.037496
vt 0.862387 0.212504
vt 0.137613 0.037496
vt 0.362387 0.037496
vt 0.362387 0.212504
vt 0.137613 0.212504
vt 0.620807 -0.000000
vt 0.637613 0.212504
vt 0.625000 0.487387
vt 0.379193 0.987387
vt 0.375000 0.987387
vt 0.375000 0.762613
vt 0.379193 0.762613
vt 0.625000 0.987387
vt 0.620807 0.987387
vt 0.620807 0.762613
vt 0.625000 0.762613
vt 0.862387 0.037496
vt 0.862387 0.212504
vt 0.637613 0.212504
vt 0.637613 0.037496
vt 0.362387 0.037496
vt 0.362387 0.212504
vt 0.137613 0.212504
vt 0.137613 0.037496
vt 0.379193 0.212504
vt 0.362387 0.212504
vt 0.637613 0.212504
vt 0.620807 0.212504
vt 0.375000 0.987387
vt 0.379193 0.987387
vt 0.620807 0.987387
vt 0.625000 0.987387
vt 0.637613 0.037496
vt 0.637613 0.212504
vt 0.362387 0.212504
vt 0.362387 0.037496
vt 0.862387 0.212504
vt 0.637613 0.212504
vt 0.637613 0.212504
vt 0.862387 0.212504
vt 0.362387 0.212504
vt 0.137613 0.212504
vt 0.137613 0.212504
vt 0.362387 0.212504
vt 0.362387 0.212504
vt 0.637613 0.212504
vt 0.637613 0.212504
vt 0.362387 0.212504
vt 0.380261 0.212504
vt 0.619739 0.212504
vt 0.619739 0.212504
vt 0.380261 0.212504
vt 0.379193 0.212504
vt 0.620807 0.212504
vt 0.379193 0.212504
vt 0.379193 0.212504
vt 0.620807 0.212504
vt 0.379193 0.212504
vt 0.620807 0.212504
vt 0.620807 0.212504
vt 0.393769 0.212504
vt 0.393769 0.262613
vt 0.393769 0.487387
vt 0.393769 0.537496
vt 0.393769 0.712504
vt 0.393769 0.762613
vt 0.393769 0.762613
vt 0.393769 0.987387
vt 0.393769 0.987387
vt 0.393769 0.000000
vt 0.393769 0.987387
vt 0.393769 0.037496
vt 0.393769 0.212504
vt 0.393769 0.212504
vt 0.393769 0.212504
vt 0.394707 0.212504
vt 0.394707 0.212504
vt 0.393769 0.212504
vt 0.393769 0.212504
vt 0.609583 0.262613
vt 0.609583 0.212504
vt 0.609583 0.212504
vt 0.609583 0.212504
vt 0.608614 0.212504
vt 0.608614 0.212504
vt 0.609583 0.212504
vt 0.609583 0.212504
vt 0.609583 0.212504
vt 0.609583 0.037496
vt 0.609583 0.000000
vt 0.609583 0.987387
vt 0.609583 0.987387
vt 0.609583 0.987387
vt 0.609583 0.762613
vt 0.609583 0.762613
vt 0.609583 0.712504
vt 0.609583 0.537496
vt 0.609583 0.487387
vt 0.379193 0.448759
vt 0.375000 0.448759
vt 0.176241 0.212504
vt 0.176241 0.212504
vt 0.176241 0.212504
vt 0.176241 0.212504
vt 0.375000 0.801241
vt 0.176241 0.037496
vt 0.379193 0.801241
vt 0.393769 0.801241
vt 0.609583 0.801241
vt 0.620807 0.801241
vt 0.625000 0.801241
vt 0.823759 0.037496
vt 0.823759 0.212504
vt 0.823759 0.212504
vt 0.823759 0.212504
vt 0.625000 0.448759
vt 0.823759 0.212504
vt 0.620807 0.448759
vt 0.609583 0.448759
vt 0.393769 0.448759
vt 0.379193 0.987387
vt 0.393769 0.987387
vt 0.393769 0.987387
vt 0.379193 0.987387
vt 0.609583 0.987387
vt 0.609583 0.987387
vt 0.620807 0.987387
vt 0.620807 0.987387
vt 0.379193 0.762613
vt 0.393769 0.762613
vt 0.393769 0.801241
vt 0.379193 0.801241
vt 0.620807 0.801241
vt 0.609583 0.801241
vt 0.609583 0.762613
vt 0.620807 0.762613
vn -0.919534 -0.393011 0.000000
vn -0.919534 -0.393011 0.000000
vn -0.919534 -0.393011 0.000000
vn -0.919534 -0.393011 0.000000
vn 0.000000 -0.061780 0.998090
vn 0.000000 -0.061780 0.998090
vn 0.000000 -0.061780 0.998090
vn 0.000000 -0.061780 0.998090
vn -0.047354 0.004283 0.998869
vn -0.047354 0.004283 0.998869
vn -0.047354 0.004283 0.998869
vn -0.047354 0.004283 0.998869
vn 0.919534 -0.393011 0.000000
vn 0.919534 -0.393011 0.000000
vn 0.919534 -0.393011 0.000000
vn 0.919534 -0.393011 0.000000
vn 0.054664 -0.003910 0.998497
vn 0.054664 -0.003910 0.998497
vn 0.054664 -0.003910 0.998497
vn 0.054664 -0.003910 0.998497
vn -0.631286 0.775550 0.000000
vn -0.631286 0.775550 0.000000
vn -0.631286 0.775550 0.000000
vn -0.631286 0.775550 0.000000
vn 0.000000 0.558897 0.829237
vn 0.000000 0.558897 0.829237
vn 0.000000 0.558897 0.829237
vn 0.000000 0.558897 0.829237
vn 0.631286 0.775551 0.000000
vn 0.631286 0.775551 0.000000
vn 0.631285 0.775551 0.000000
vn 0.631285 0.775551 0.000000
vn -0.707102 0.000000 -0.707111
vn -0.707102 0.000000 -0.707111
vn -0.707102 0.000000 -0.707111
vn -0.707102 0.000000 -0.707111
vn 0.000000 0.775547 -0.631290
vn 0.000000 0.775547 -0.631290
vn 0.000000 0.775547 -0.631290
vn 0.000000 0.775547 -0.631290
vn 0.707102 0.000000 -0.707111
vn 0.707102 0.000000 -0.707111
vn 0.707102 0.000000 -0.707111
vn 0.707102 0.000000 -0.707111
vn 0.000000 -0.775547 -0.631290
vn 0.000000 -0.775547 -0.631290
vn 0.000000 -0.775547 -0.631290
vn 0.000000 -0.775547 -0.631290
vn 0.000000 0.000000 1.000000
vn 0.000000 0.000000 1.000000
vn 0.000000 0.000000 1.000000
vn 0.000000 0.000000 1.000000
vn 0.000000 1.000000 0.000000
vn 0.000000 1.000000 -0.000000
vn 0.000000 1.000000 -0.000000
vn 0.000000 1.000000 0.000000
vn 0.000000 0.000000 -1.000000
vn 0.000000 0.000000 -1.000000
vn 0.000000 0.000000 -1.000000
vn 0.000000 0.000000 -1.000000
vn 0.000000 -1.000000 0.000000
vn 0.000000 -1.000000 0.000000
vn 0.000000 -1.000000 0.000000
vn 0.000000 -1.000000 0.000000
vn 1.000000 0.000000 0.000000
vn 1.000000 0.000000 0.000000
vn 1.000000 0.000000 0.000000
vn 1.000000 0.000000 0.000000
vn -1.000000 0.000000 0.000000
vn -1.000000 0.000000 0.000000
vn -1.000000 0.000000 0.000000
vn -1.000000 0.000000 0.000000
vn -0.031044 -0.061750 0.997609
vn -0.031044 -0.061750 0.997609
vn -0.031044 -0.061750 0.997609
vn 0.069326 -0.061632 0.995688
vn 0.069326 -0.061632 0.995688
vn 0.069326 -0.061632 0.995688
vn -0.052748 0.558121 0.828081
vn -0.052748 0.558122 0.828081
vn -0.052748 0.558121 0.828081
vn 0.033041 0.558593 0.828784
vn 0.033041 0.558593 0.828784
vn 0.033041 0.558593 0.828784
vn -0.533813 0.655805 -0.533820
vn -0.533813 0.655805 -0.533820
vn -0.533813 0.655805 -0.533820
vn 0.533813 0.655805 -0.533820
vn 0.533813 0.655805 -0.533820
vn 0.533813 0.655805 -0.533820
vn -0.533813 -0.655805 -0.533820
vn -0.533813 -0.655805 -0.533820
vn -0.533813 -0.655805 -0.533820
vn 0.533813 -0.655805 -0.533820
vn 0.533813 -0.655805 -0.533820
vn 0.533813 -0.655805 -0.533820
vn -0.723100 -0.351793 0.594448
vn -0.723100 -0.351793 0.594448
vn -0.723100 -0.351793 0.594448
vn -0.723100 -0.351793 0.594448
vn 0.214002 0.134090 -0.967586
vn 0.214002 0.134090 -0.967586
vn 0.214002 0.134090 -0.967586
vn 0.214002 0.134090 -0.967586
vn 0.724071 -0.344889 0.597305
vn 0.724071 -0.344889 0.597305
vn 0.724071 -0.344889 0.597305
vn 0.724071 -0.344889 0.597305
vn -0.214002 0.134090 -0.967586
vn -0.214002 0.134090 -0.967586
vn -0.214002 0.134090 -0.967586
vn -0.214002 0.134090 -0.967586
vn 0.000000 0.256749 -0.966478
vn 0.000000 0.256749 -0.966478
vn 0.000000 0.256749 -0.966478
vn 0.000000 0.256749 -0.966478
vn 0.000000 -0.767955 0.640504
vn 0.000000 -0.767955 0.640504
vn 0.000000 -0.767955 0.640504
vn 0.000000 -0.767955 0.640504
vn -0.286371 0.000000 -0.958119
vn -0.286371 0.000000 -0.958119
vn -0.286371 0.000000 -0.958119
vn -0.286371 0.000000 -0.958119
vn -0.077140 0.997020 0.000000
vn -0.077140 0.997020 0.000000
vn -0.077140 0.997020 0.000000
vn -0.077140 0.997020 0.000000
vn 0.864352 -0.002777 0.502879
vn 0.864352 -0.002777 0.502879
vn 0.864352 -0.002777 0.502879
vn 0.864352 -0.002777 0.502879
vn -0.865492 0.002094 0.500919
vn -0.865492 0.002094 0.500919
vn -0.865492 0.002094 0.500919
vn -0.865492 0.002094 0.500919
vn 0.077140 0.997020 0.000000
vn 0.077140 0.997020 0.000000
vn 0.077140 0.997020 0.000000
vn 0.077140 0.997020 0.000000
vn 0.286371 0.000000 -0.958119
vn 0.286371 0.000000 -0.958119
vn 0.286371 0.000000 -0.958119
vn 0.286371 0.000000 -0.958119
vn 0.000000 1.000000 0.000000
vn 0.000000 1.000000 0.000000
vn 0.000000 1.000000 0.000000
vn 0.000000 1.000000 0.000000
vn 0.000000 1.000000 0.000000
vn 0.000000 1.000000 0.000000
vn 0.000000 1.000000 0.000000
vn 0.000000 1.000000 0.000000
vn -0.919534 -0.393010 0.000000
vn -0.919534 -0.393010 0.000000
vn -0.919534 -0.393010 0.000000
vn -0.919534 -0.393010 0.000000
vn 0.919534 -0.393010 0.000000
vn 0.919534 -0.393010 0.000000
vn 0.919534 -0.393010 0.000000
vn 0.919534 -0.393010 0.000000
vn 0.000000 -1.000000 0.000000
vn 0.000000 -1.000000 0.000000
vn 0.000000 -1.000000 0.000000
vn 0.000000 -1.000000 0.000000
vn 1.000000 0.000000 0.000000
vn 1.000000 0.000000 0.000000
vn 1.000000 0.000000 0.000000
vn 1.000000 0.000000 0.000000
vn -0.077140 0.997020 0.000000
vn -0.077140 0.997020 0.000000
vn -0.077140 0.997020 0.000000
vn -0.077140 0.997020 0.000000
vn 0.077140 0.997020 0.000000
vn 0.077140 0.997020 0.000000
vn 0.077140 0.997020 0.000000
vn 0.077140 0.997020 0.000000
vn -1.000000 0.000000 0.000000
vn -1.000000 0.000000 0.000000
vn -1.000000 0.000000 0.000000
vn -1.000000 0.000000 0.000000
vn -1.000000 0.000000 0.000000
vn -1.000000 0.000000 0.000000
vn -1.000000 0.000000 0.000000
vn -1.000000 0.000000 0.000000
vn 1.000000 0.000000 0.000000
vn 1.000000 0.000000 0.000000
vn 1.000000 0.000000 0.000000
vn 1.000000 0.000000 0.000000
vn -0.286371 0.000000 -0.958119
vn -0.286371 0.000000 -0.958119
vn -0.286371 0.000000 -0.958119
vn -0.286371 0.000000 -0.958119
vn 1.000000 0.000000 0.000000
vn 1.000000 0.000000 0.000000
vn 1.000000 0.000000 0.000000
vn 1.000000 0.000000 0.000000
vn 0.286371 0.000000 -0.958119
vn 0.286371 0.000000 -0.958119
vn 0.286371 0.000000 -0.958119
vn 0.286371 0.000000 -0.958119
vn -1.000000 0.000000 0.000000
vn -1.000000 0.000000 0.000000
vn -1.000000 0.000000 0.000000
vn -1.000000 0.000000 0.000000
vn 0.063569 0.000000 -0.997977
vn 0.063569 0.000000 -0.997977
vn 0.063569 0.000000 -0.997977
vn 0.063569 0.000000 -0.997977
vn -0.063569 0.000000 0.997977
vn -0.063569 0.000000 0.997977
vn -0.063569 0.000000 0.997977
vn -0.063569 0.000000 0.997977
vn -0.039835 0.000000 -0.999206
vn -0.039835 0.000000 -0.999206
vn -0.039835 0.000000 -0.999206
vn -0.039835 0.000000 -0.999206
vn 0.039835 0.000000 0.999206
vn 0.039835 0.000000 0.999206
vn 0.039835 0.000000 0.999206
vn 0.039835 0.000000 0.999206
vn 0.000000 0.000000 -1.000000
vn 0.000000 0.000000 -1.000000
vn 0.000000 0.000000 -1.000000
vn 0.000000 0.000000 -1.000000
vn 0.000000 0.000000 1.000000
vn 0.000000 0.000000 1.000000
vn 0.000000 0.000000 1.000000
vn 0.000000 0.000000 1.000000
vn 0.865028 0.000000 0.501724
vn 0.865028 0.000000 0.501724
vn 0.865028 0.000000 0.501724
vn 0.865028 0.000000 0.501724
vn 1.000000 0.000000 0.000000
vn 1.000000 0.000000 0.000000
vn 1.000000 0.000000 0.000000
vn 1.000000 0.000000 0.000000
vn -1.000000 0.000000 0.000000
vn -1.000000 0.000000 0.000000
vn -1.000000 0.000000 0.000000
vn -1.000000 0.000000 0.000000
vn -0.864154 0.000000 0.503227
vn -0.864154 0.000000 0.503227
vn -0.864154 0.000000 0.503227
vn -0.864154 0.000000 0.503227
vn -0.707106 0.707108 0.000000
vn -0.707106 0.707108 0.000000
vn -0.707106 0.707108 0.000000
vn -0.707106 0.707108 0.000000
vn 0.000000 0.707105 -0.707108
vn 0.000000 0.707105 -0.707108
vn 0.000000 0.707106 -0.707108
vn 0.000000 0.707106 -0.707108
vn 0.707106 0.707108 0.000000
vn 0.707106 0.707108 0.000000
vn 0.707106 0.707108 0.000000
vn 0.707106 0.707108 0.000000
vn 0.000000 0.707107 0.707107
vn 0.000000 0.707107 0.707107
vn 0.000000 0.707106 0.707107
vn 0.000000 0.707106 0.707107
vn 0.000000 1.000000 0.000000
vn 0.000000 1.000000 0.000000
vn 0.000000 1.000000 0.000000
vn 0.000000 1.000000 0.000000
vn 0.000000 0.000000 -1.000000
vn 0.000000 0.000000 -1.000000
vn -1.000000 0.000000 0.000000
vn -1.000000 0.000000 0.000000
vn -1.000000 0.000000 0.000000
vn -1.000000 0.000000 0.000000
vn 0.000000 0.000000 1.000000
vn 0.000000 0.000000 1.000000
vn 1.000000 0.000000 0.000000
vn 1.000000 0.000000 0.000000
vn 1.000000 0.000000 0.000000
vn 1.000000 0.000000 0.000000
vn 0.000000 0.558897 0.829237
vn 0.000000 0.558897 0.829237
vn 0.000000 0.558897 0.829237
vn 0.000000 0.558897 0.829237
vn 0.000000 1.000000 0.000000
vn 0.000000 1.000000 -0.000000
vn 0.000000 1.000000 -0.000000
vn 0.000000 1.000000 0.000000
vn 0.000000 0.775547 -0.631290
vn 0.000000 0.775547 -0.631290
vn 0.000000 0.775547 -0.631290
vn 0.000000 0.775547 -0.631290
vn 0.000000 0.000000 -1.000000
vn 0.000000 0.000000 -1.000000
vn 0.000000 0.000000 -1.000000
vn 0.000000 0.000000 -1.000000
vn 0.000000 -0.775547 -0.631290
vn 0.000000 -0.775547 -0.631290
vn 0.000000 -0.775547 -0.631290
vn 0.000000 -0.775547 -0.631290
vn 0.000000 0.256749 -0.966478
vn 0.000000 0.256749 -0.966478
vn 0.000000 0.256749 -0.966478
vn 0.000000 0.256749 -0.966478
vn 0.000000 -1.000000 0.000000
vn 0.000000 -1.000000 0.000000
vn 0.000000 -1.000000 0.000000
vn 0.000000 -1.000000 0.000000
vn 0.000000 -1.000000 0.000000
vn 0.000000 -1.000000 0.000000
vn 0.000000 -1.000000 0.000000
vn 0.000000 -1.000000 0.000000
vn 0.000000 -0.767955 0.640504
vn 0.000000 -0.767955 0.640504
vn 0.000000 -0.767955 0.640504
vn 0.000000 -0.767955 0.640504
vn 0.000000 -0.061780 0.998090
vn 0.000000 -0.061780 0.998090
vn 0.000000 -0.061780 0.998090
vn 0.000000 -0.061780 0.998090
vn 0.000000 0.000000 1.000000
vn 0.000000 0.000000 1.000000
vn 0.000000 0.000000 1.000000
vn 0.000000 0.000000 1.000000
vn 0.000000 0.000000 1.000000
vn 0.000000 0.000000 1.000000
vn 0.000000 0.000000 1.000000
vn 0.000000 0.000000 1.000000
vn 0.000000 0.000000 1.000000
vn 0.000000 0.000000 1.000000
vn 0.000000 0.707106 0.707107
vn 0.000000 0.707106 0.707107
vn 0.000000 0.707106 0.707107
vn 0.000000 0.707106 0.707107
vn 0.000000 1.000000 0.000000
vn 0.000000 1.000000 0.000000
vn 0.000000 1.000000 0.000000
vn 0.000000 1.000000 0.000000
vn 0.000000 0.707106 -0.707107
vn 0.000000 0.707106 -0.707108
vn 0.000000 0.707107 -0.707107
vn 0.000000 0.707107 -0.707107
vn 0.000000 0.000000 -1.000000
vn 0.000000 0.000000 -1.000000
vn 0.000000 0.000000 -1.000000
vn 0.000000 0.000000 -1.000000
vn 0.000000 0.000000 -1.000000
vn 0.000000 0.000000 -1.000000
vn 0.000000 -1.000000 0.000000
vn 0.000000 -1.000000 0.000000
vn 0.000000 -1.000000 0.000000
vn 0.000000 -1.000000 0.000000
vn -0.631284 0.775551 0.000000
vn -0.631284 0.775551 0.000000
vn 1.000000 0.000000 0.000000
vn 1.000000 0.000000 0.000000
vn 0.077140 0.997020 0.000000
vn 0.077140 0.997020 0.000000
vn -1.000000 0.000000 0.000000
vn -1.000000 0.000000 0.000000
vn -1.000000 0.000000 0.000000
vn -1.000000 0.000000 0.000000
vn -0.919534 -0.393011 0.000000
vn -0.919534 -0.393011 0.000000
vn 0.000000 -1.000000 0.000000
vn 0.000000 -1.000000 0.000000
vn 0.000000 -1.000000 0.000000
vn 0.000000 -1.000000 0.000000
vn 0.000000 -1.000000 0.000000
vn 0.000000 -1.000000 0.000000
vn 0.000000 -1.000000 0.000000
vn 0.000000 -1.000000 0.000000
vn 0.000000 -1.000000 0.000000
vn 0.000000 -1.000000 0.000000
vn 0.919534 -0.393011 0.000000
vn 0.919534 -0.393011 0.000000
vn 1.000000 0.000000 0.000000
vn 1.000000 0.000000 0.000000
vn 1.000000 0.000000 0.000000
vn 1.000000 0.000000 0.000000
vn -0.077140 0.997020 0.000000
vn -0.077140 0.997020 0.000000
vn -1.000000 0.000000 0.000000
vn -1.000000 0.000000 0.000000
vn 0.631285 0.775551 0.000000
vn 0.631285 0.775551 0.000000
vn 0.000000 1.000000 0.000000
vn 0.000000 1.000000 0.000000
vn 0.000000 1.000000 0.000000
vn 0.000000 1.000000 0.000000
vn 0.000000 0.000000 -1.000000
vn 0.000000 0.000000 -1.000000
vn 0.000000 0.000000 -1.000000
vn 0.000000 0.000000 -1.000000
vn 1.000000 0.000000 0.000000
vn 1.000000 0.000000 0.000000
vn 1.000000 0.000000 0.000000
vn 1.000000 0.000000 0.000000
vn 0.000000 0.000000 1.000000
vn 0.000000 0.000000 1.000000
vn 0.000000 0.000000 1.000000
vn 0.000000 0.000000 1.000000
vn -1.000000 0.000000 0.000000
vn -1.000000 0.000000 0.000000
vn -1.000000 0.000000 0.000000
vn -1.000000 0.000000 0.000000
vn -1.000000 0.000000 0.000000
vn -1.000000 0.000000 0.000000
vn -1.000000 0.000000 0.000000
vn -1.000000 0.000000 0.000000
vn 0.000000 0.000000 -1.000000
vn 0.000000 0.000000 -1.000000
vn 0.000000 0.000000 -1.000000
vn 0.000000 0.000000 -1.000000
vn 1.000000 0.000000 0.000000
vn 1.000000 0.000000 0.000000
vn 1.000000 0.000000 0.000000
vn 1.000000 0.000000 0.000000
vn 0.000000 0.000000 1.000000
vn 0.000000 0.000000 1.000000
vn 0.000000 0.000000 1.000000
vn 0.000000 0.000000 1.000000
vn 0.000000 0.000000 -1.000000
vn 0.000000 0.000000 -1.000000
vn 0.000000 0.000000 -1.000000
vn 0.000000 0.000000 -1.000000
vn 1.000000 0.000000 0.000000
vn 1.000000 0.000000 0.000000
vn 1.000000 0.000000 0.000000
vn 1.000000 0.000000 0.000000
vn 0.000000 0.000000 1.000000
vn 0.000000 0.000000 1.000000
vn 0.000000 0.000000 1.000000
vn 0.000000 0.000000 1.000000
vn -1.000000 0.000000 0.000000
vn -1.000000 0.000000 0.000000
vn -1.000000 0.000000 0.000000
vn -1.000000 0.000000 0.000000
vn 0.000000 0.000000 1.000000
vn 0.000000 0.000000 1.000000
vn 0.000000 0.000000 1.000000
vn 0.000000 0.000000 1.000000
vn -1.000000 0.000000 0.000000
vn -1.000000 0.000000 0.000000
vn -1.000000 0.000000 0.000000
vn -1.000000 0.000000 0.000000
vn 0.000000 0.000000 -1.000000
vn 0.000000 0.000000 -1.000000
vn 0.000000 0.000000 -1.000000
vn 0.000000 0.000000 -1.000000
vn 1.000000 0.000000 0.000000
vn 1.000000 0.000000 0.000000
vn 1.000000 0.000000 0.000000
vn 1.000000 0.000000 0.000000
s 1
g pCube17
usemtl initialShadingGroup
f 75/115/97 76/116/98 168/211/99 169/213/100
s 2
f 87/81/101 88/80/102 136/176/103 137/178/104
s off
f 91/109/105 87/81/106 92/131/107 93/132/108
s 3
f 79/119/109 80/120/110 172/216/111 173/217/112
s off
f 90/100/113 94/85/114 95/133/115 96/134/116
s 4
f 57/86/117 59/101/118 163/205/119 164/206/120
s 5
f 59/101/121 58/88/122 127/167/123 128/168/124
s 6
f 60/102/125 62/90/126 177/222/127 178/224/128
s off
f 63/91/129 65/103/130 70/97/131 69/92/132
s 7
f 65/103/133 64/93/134 129/169/135 130/170/136
s off
f 66/104/137 68/95/138 74/96/139 73/98/140
s 8
f 71/105/141 70/97/142 131/171/143 132/172/144
s 9
f 87/81/145 137/178/146 138/179/147 92/131/148
s 10
f 59/101/149 128/168/150 180/226/151 163/205/152
s 11
f 65/103/153 130/170/154 131/171/155 70/97/156
s 12
f 169/213/157 170/214/158 134/174/159 75/115/160
s 13
f 79/126/161 173/218/162 174/219/163 84/125/164
s 14
f 167/210/165 168/212/166 76/127/167 85/128/168
s off
f 88/80/169 87/81/170 91/109/171
f 94/85/172 90/100/173 89/112/174
f 57/110/175 58/88/176 59/101/177
f 60/102/178 61/89/179 62/113/180
f 63/87/181 64/93/182 65/103/183
f 66/104/184 67/94/185 68/114/186
f 69/92/187 70/97/188 71/105/189
f 72/99/190 73/98/191 74/96/192
f 88/77/193 91/78/194 97/135/195 98/136/196
f 69/79/197 71/105/198 78/118/199 77/117/200
f 94/82/201 89/83/202 99/137/203 100/138/204
f 72/99/205 74/84/206 82/122/207 81/121/208
s 15
f 71/105/209 132/172/210 133/173/211 78/118/212
s 16
f 135/175/213 136/177/214 88/77/215 98/136/216
s off
f 74/106/217 68/107/218 83/124/219 82/123/220
s 17
f 175/220/221 176/221/222 103/144/223 105/145/224
s off
f 95/133/225 94/85/226 100/139/227 101/140/228
f 91/109/229 93/132/230 102/141/231 97/142/232
s 18
f 108/147/233 165/208/234 166/209/235 110/150/236
s off
f 63/111/237 69/108/238 77/130/239 86/129/240
f 111/159/241 108/147/242 112/151/243 113/161/244
f 103/144/245 114/165/246 115/163/247 116/152/248
f 76/116/249 75/115/250 98/136/251 97/135/252
f 80/120/253 79/119/254 100/138/255 99/137/256
f 181/227/257 182/228/258 183/229/259 184/230/260
f 79/126/261 84/125/262 101/140/263 100/139/264
f 105/145/265 103/144/266 116/152/267 117/153/268
f 108/147/269 110/150/270 118/154/271 112/151/272
f 85/128/273 76/127/274 97/142/275 102/141/276
s 19
f 176/221/277 177/223/278 62/113/279 103/144/280
s 20
f 84/125/281 174/219/282 175/220/283 105/145/284
s off
f 83/124/285 68/107/286 104/143/287 106/146/288
s 21
f 57/110/289 164/207/290 165/208/291 108/147/292
s off
f 63/111/293 86/129/294 109/149/295 107/148/296
s 22
f 166/209/297 167/210/298 85/128/299 110/150/300
s off
f 58/88/301 57/110/302 108/147/303 111/159/304
f 93/132/305 92/131/306 113/161/307 112/151/308
f 62/113/309 61/89/310 114/165/311 103/144/312
f 96/134/313 95/133/314 116/152/315 115/163/316
s 23
f 144/185/317 127/167/318 58/88/319 111/159/320
s 24
f 92/131/321 138/179/322 139/180/323 113/161/324
s off
f 95/133/325 101/140/326 117/153/327 116/152/328
f 101/140/329 84/125/330 105/145/331 117/153/332
f 85/128/333 102/141/334 118/154/335 110/150/336
f 102/141/337 93/132/338 112/151/339 118/154/340
f 119/155/341 120/162/342 124/164/343 123/158/344
s 25
f 120/162/345 119/155/346 142/183/347 143/184/348
s off
f 121/160/349 122/156/350 125/157/351 126/166/352
s 26
f 123/158/353 124/164/354 140/181/355 141/182/356
s 27
f 141/182/357 142/183/358 119/155/359 123/158/360
s 23
f 143/184/361 144/185/317 111/159/320 120/162/362
s off
f 111/159/363 113/161/364 124/164/365 120/162/366
s 24
f 113/161/324 139/180/323 140/181/367 124/164/368
s off
f 115/163/369 114/165/370 121/160/371 126/166/372
s 5
f 145/186/373 146/187/374 61/89/375 60/102/376
s 10
f 178/224/377 179/225/378 145/186/379 60/102/380
s 7
f 161/203/381 162/204/382 67/94/383 66/104/384
s 11
f 160/202/385 161/203/386 66/104/387 73/98/388
s 8
f 159/201/389 160/202/390 73/98/391 72/99/392
s 15
f 158/200/393 159/201/394 72/99/395 81/121/396
s 12
f 157/199/397 171/215/398 172/216/399 80/120/400
s off
f 185/231/401 186/232/402 187/233/403 188/234/404
s 16
f 89/83/405 155/197/406 156/198/407 99/137/408
s 2
f 154/195/409 155/196/410 89/112/411 90/100/412
s 9
f 153/194/413 154/195/414 90/100/415 96/134/416
s 24
f 152/193/417 153/194/418 96/134/419 115/163/420
f 151/192/421 152/193/417 115/163/420 126/166/422
s 26
f 150/191/423 151/192/424 126/166/425 125/157/426
s 27
f 122/156/427 149/190/428 150/191/429 125/157/430
s 25
f 148/189/431 149/190/432 122/156/433 121/160/434
s 23
f 114/165/435 147/188/436 148/189/437 121/160/438
f 61/89/439 146/187/440 147/188/436 114/165/435
s 5
f 128/168/124 127/167/123 146/187/374 145/186/373
s 23
f 147/188/436 146/187/440 127/167/318 144/185/317
f 148/189/437 147/188/436 144/185/317 143/184/361
s 25
f 143/184/348 142/183/347 149/190/432 148/189/431
s 27
f 150/191/429 149/190/428 142/183/358 141/182/357
s 26
f 141/182/356 140/181/355 151/192/424 150/191/423
s 24
f 140/181/367 139/180/323 152/193/417 151/192/421
f 139/180/323 138/179/322 153/194/418 152/193/417
s 9
f 138/179/147 137/178/146 154/195/414 153/194/413
s 2
f 137/178/104 136/176/103 155/196/410 154/195/409
s 16
f 156/198/407 155/197/406 136/177/214 135/175/213
s off
f 135/175/441 134/174/442 157/199/443 156/198/444
s 12
f 134/174/159 170/214/158 171/215/398 157/199/397
s 15
f 133/173/211 132/172/210 159/201/394 158/200/393
s 8
f 132/172/144 131/171/143 160/202/390 159/201/389
s 11
f 131/171/155 130/170/154 161/203/386 160/202/385
s 7
f 130/170/136 129/169/135 162/204/382 161/203/381
s 10
f 179/225/378 180/226/151 128/168/150 145/186/379
s 4
f 164/206/120 163/205/119 64/93/445 63/87/446
s 21
f 165/208/291 164/207/290 63/111/447 107/148/448
s 18
f 166/209/235 165/208/234 107/148/449 109/149/450
s 22
f 86/129/451 167/210/298 166/209/297 109/149/452
s 14
f 77/130/453 168/212/166 167/210/165 86/129/454
s 1
f 169/213/100 168/211/99 77/117/455 78/118/456
s off
f 190/235/457 189/236/458 191/237/459 192/238/460
s 12
f 171/215/398 170/214/158 133/173/461 158/200/462
s off
f 194/239/463 193/240/464 195/241/465 196/242/466
s 3
f 173/217/112 172/216/111 81/121/467 82/122/468
s 13
f 174/219/163 173/218/162 82/123/469 83/124/470
s 20
f 175/220/283 174/219/282 83/124/471 106/146/472
s 17
f 104/143/473 176/221/222 175/220/221 106/146/474
s 19
f 68/107/475 177/223/278 176/221/277 104/143/476
s 6
f 178/224/128 177/222/127 68/114/477 67/94/478
s 10
f 162/204/479 179/225/378 178/224/377 67/94/480
f 129/169/481 180/226/151 179/225/378 162/204/479
f 163/205/152 180/226/151 129/169/481 64/93/482
s off
f 75/115/483 134/174/484 182/228/485 181/227/486
f 134/174/487 135/175/488 183/229/489 182/228/490
f 135/175/491 98/136/492 184/230/493 183/229/494
f 98/136/495 75/115/496 181/227/497 184/230/498
f 156/198/499 157/199/500 186/232/501 185/231/502
f 157/199/503 80/120/504 187/233/505 186/232/506
f 80/120/507 99/137/508 188/234/509 187/233/510
f 99/137/511 156/198/512 185/231/513 188/234/514
f 78/118/515 133/173/516 189/236/517 190/235/518
f 133/173/519 170/214/520 191/237/521 189/236/522
f 170/214/523 169/213/524 192/238/525 191/237/526
f 169/213/527 78/118/528 190/235/529 192/238/530
f 172/216/531 171/215/532 193/240/533 194/239/534
f 171/215/535 158/200/536 195/241/537 193/240/538
f 158/200/539 81/121/540 196/242/541 195/241/542
f 81/121/543 172/216/544 194/239/545 196/242/546
g default
v 36.691001 1.767500 -21.764814
v 36.969895 1.672861 -21.831061
v 36.969895 1.661969 -21.614057
v 36.969895 1.846735 -21.391676
v 36.691001 1.890448 -21.454122
v 36.575480 1.995978 -21.604878
v 39.699584 1.767500 -21.764814
v 39.815105 1.995978 -21.604878
v 39.699584 1.890448 -21.454122
v 39.420690 1.846735 -21.391676
v 39.420690 1.661969 -21.614057
v 39.420690 1.672861 -21.831061
v 36.691001 2.774239 -21.060093
v 36.575480 2.545761 -21.220028
v 36.691001 2.440231 -21.069272
v 36.969895 2.396519 -21.006826
v 36.969895 2.668709 -20.909336
v 36.969895 2.868878 -20.993845
v 39.699584 2.774239 -21.060093
v 39.420690 2.868878 -20.993845
v 39.420690 2.668709 -20.909336
v 39.420690 2.396519 -21.006826
v 39.699584 2.440231 -21.069272
v 39.815105 2.545761 -21.220028
v 36.691001 2.779256 -21.553590
v 36.575480 2.673726 -21.402834
v 36.691001 2.902204 -21.242898
v 36.969895 2.996843 -21.176651
v 36.969895 3.007734 -21.393655
v 36.969895 2.822968 -21.616036
v 39.699584 2.779256 -21.553590
v 39.420690 2.822968 -21.616036
v 39.420690 3.007734 -21.393655
v 39.420690 2.996843 -21.176651
v 39.699584 2.902204 -21.242898
v 39.815105 2.673726 -21.402834
v 36.691001 1.895464 -21.947619
v 36.575480 2.123942 -21.787684
v 36.691001 2.229472 -21.938441
v 36.969895 2.273184 -22.000886
v 36.969895 2.000994 -22.098376
v 36.969895 1.800825 -22.013867
v 39.699584 1.895464 -21.947619
v 39.420690 1.800825 -22.013867
v 39.420690 2.000994 -22.098376
v 39.420690 2.273184 -22.000886
v 39.699584 2.229472 -21.938441
v 39.815105 2.123942 -21.787684
v 36.742260 1.723357 -21.612371
v 39.648325 1.723357 -21.612371
v 36.742260 2.646113 -20.966438
v 39.648325 2.646113 -20.966438
v 36.742260 2.946347 -21.395341
v 39.648325 2.946347 -21.395341
v 36.742260 2.023590 -22.041274
v 39.648325 2.023590 -22.041274
vt 0.405437 0.912509
vt 0.405437 0.067540
vt 0.594563 0.912509
vt 0.712491 0.067540
vt 0.405437 0.182460
vt 0.594563 0.182460
vt 0.712491 0.182460
vt 0.212491 0.067540
vt 0.405437 0.412509
vt 0.594563 0.412509
vt 0.787509 0.182460
vt 0.787509 0.067540
vt 0.594563 0.837491
vt 0.405437 0.682460
vt 0.594563 0.682460
vt 0.594563 0.067540
vt 0.405437 0.337491
vt 0.594563 0.337491
vt 0.405437 0.567540
vt 0.594563 0.567540
vt 0.405437 0.837491
vt 0.287509 0.067540
vt 0.287509 0.182460
vt 0.212491 0.182460
vt 0.375000 0.926806
vt 0.301806 0.000000
vt 0.395394 0.000000
vt 0.395394 1.000000
vt 0.354594 0.062228
vt 0.698194 0.000000
vt 0.625000 0.926806
vt 0.645406 0.062228
vt 0.604606 1.000000
vt 0.604606 0.000000
vt 0.301806 0.250000
vt 0.375000 0.323194
vt 0.354594 0.187772
vt 0.404273 0.258818
vt 0.625000 0.323194
vt 0.698194 0.250000
vt 0.595727 0.258818
vt 0.645406 0.187772
vt 0.125000 0.198015
vt 0.375000 0.551985
vt 0.375000 0.426806
vt 0.198194 0.250000
vt 0.404273 0.491182
vt 0.625000 0.551985
vt 0.875000 0.198015
vt 0.595727 0.491182
vt 0.801806 0.250000
vt 0.625000 0.426806
vt 0.198194 0.000000
vt 0.375000 0.823194
vt 0.375000 0.698015
vt 0.125000 0.051985
vt 0.404273 0.758818
vt 0.625000 0.823194
vt 0.801806 0.000000
vt 0.595727 0.758818
vt 0.875000 0.051985
vt 0.625000 0.698015
vt 0.375000 1.000000
vt 0.375000 0.000000
vt 0.625000 0.000000
vt 0.625000 1.000000
vt 0.375000 0.250000
vt 0.625000 0.250000
vt 0.125000 0.250000
vt 0.375000 0.500000
vt 0.625000 0.500000
vt 0.875000 0.250000
vt 0.125000 0.000000
vt 0.375000 0.750000
vt 0.625000 0.750000
vt 0.875000 0.000000
vn -0.034366 -0.941917 -0.334082
vn -0.361634 -0.856841 -0.367483
vn -0.361634 -0.638564 -0.679306
vn -0.034366 -0.636301 -0.770675
vn -0.912688 -0.405402 -0.051471
vn -0.962185 -0.227944 0.149136
vn -0.962185 0.062108 -0.265222
vn -0.912688 -0.187122 -0.363298
vn -0.025465 -0.635390 0.771772
vn -0.017811 -0.767599 0.640683
vn 0.017811 -0.767599 0.640683
vn 0.025465 -0.635390 0.771772
vn -0.026341 -0.998165 -0.054522
vn 0.034366 -0.941917 -0.334082
vn 0.026341 -0.998165 -0.054522
vn -0.851267 -0.362032 0.379839
vn -0.851267 -0.232980 0.470175
vn -0.962185 -0.062108 0.265222
vn -0.256671 -0.597695 0.759527
vn -0.025465 -0.507676 0.861172
vn -0.256671 -0.509073 0.821563
vn 0.962185 -0.227944 0.149136
vn 0.912688 -0.405402 -0.051471
vn 0.912688 -0.187122 -0.363298
vn 0.962185 0.062108 -0.265222
vn 0.361634 -0.856841 -0.367483
vn 0.034366 -0.636301 -0.770675
vn 0.361634 -0.638564 -0.679306
vn 0.256671 -0.597695 0.759527
vn 0.256671 -0.509073 0.821563
vn 0.025465 -0.507676 0.861172
vn 0.851267 -0.362032 0.379839
vn 0.962185 -0.062108 0.265222
vn 0.851267 -0.232980 0.470175
vn -0.912688 0.187122 0.363298
vn -0.912688 0.405402 0.051471
vn -0.962185 0.227944 -0.149136
vn -0.361634 0.638564 0.679306
vn -0.034366 0.636301 0.770675
vn -0.034366 0.941917 0.334082
vn -0.361634 0.856841 0.367483
vn -0.026341 0.392879 0.919213
vn 0.026341 0.392879 0.919213
vn 0.034366 0.636301 0.770675
vn -0.017811 -0.339252 0.940527
vn 0.017811 -0.339252 0.940527
vn 0.361634 0.638564 0.679306
vn 0.361634 0.856841 0.367483
vn 0.034366 0.941917 0.334082
vn 0.912688 0.187122 0.363298
vn 0.962185 0.227944 -0.149136
vn 0.912688 0.405402 0.051471
vn -0.851267 0.362032 -0.379839
vn -0.851267 0.232980 -0.470175
vn -0.256670 0.597695 -0.759527
vn -0.025464 0.635390 -0.771772
vn -0.025465 0.507676 -0.861172
vn -0.256670 0.509073 -0.821563
vn -0.017811 0.767599 -0.640683
vn 0.017811 0.767599 -0.640683
vn 0.025464 0.635390 -0.771772
vn -0.026341 0.998165 0.054522
vn 0.026341 0.998165 0.054522
vn 0.256670 0.597695 -0.759527
vn 0.256670 0.509073 -0.821563
vn 0.025465 0.507676 -0.861172
vn 0.851267 0.362032 -0.379839
vn 0.851267 0.232980 -0.470175
vn -0.026341 -0.392879 -0.919213
vn 0.026341 -0.392879 -0.919213
vn -0.017811 0.339253 -0.940527
vn 0.017811 0.339253 -0.940527
vn -0.832629 -0.514975 0.203788
vn -0.305017 -0.947210 -0.098780
vn -0.228722 -0.730012 0.644026
vn 0.305017 -0.947210 -0.098780
vn 0.832629 -0.514975 0.203788
vn 0.228723 -0.730012 0.644026
vn -0.305018 0.417023 0.856187
vn -0.832629 -0.015214 0.553622
vn -0.228723 -0.355259 0.906354
vn 0.832629 -0.015214 0.553622
vn 0.305017 0.417023 0.856187
vn 0.228722 -0.355259 0.906354
vn -0.228722 0.730011 -0.644026
vn -0.832629 0.514976 -0.203787
vn -0.305018 0.947210 0.098780
vn 0.832629 0.514975 -0.203787
vn 0.228722 0.730011 -0.644026
vn 0.305018 0.947210 0.098780
vn -0.305018 -0.417023 -0.856187
vn -0.832629 0.015214 -0.553622
vn -0.228722 0.355259 -0.906354
vn 0.832629 0.015214 -0.553622
vn 0.305018 -0.417023 -0.856187
vn 0.228722 0.355259 -0.906354
s 1
g pCube18
usemtl initialShadingGroup
f 198/243/547 197/267/548 233/296/549 238/263/550
s 2
f 197/268/551 202/264/552 234/250/553 233/295/554
s 3
f 200/244/555 199/269/556 207/276/557 206/258/558
s 1
f 199/270/559 198/243/547 208/245/560 207/275/561
s 2
f 202/264/552 201/271/562 211/279/563 210/265/564
s 3
f 201/271/565 200/244/555 212/247/566 211/279/567
s 4
f 204/246/568 203/272/569 239/301/570 244/254/571
s 1
f 203/273/572 208/245/560 240/255/573 239/300/574
s 3
f 206/258/558 205/274/575 219/284/576 218/248/577
s 4
f 205/274/578 204/246/568 220/249/579 219/284/580
s 2
f 210/265/564 209/277/581 223/288/582 222/266/583
s 5
f 209/278/584 214/259/585 224/251/586 223/287/587
f 214/259/585 213/280/588 217/283/589 216/260/590
s 3
f 213/280/591 212/247/566 218/248/577 217/283/592
s 5
f 216/260/590 215/281/593 231/294/594 230/252/595
s 4
f 215/282/596 220/249/579 232/253/597 231/293/598
s 2
f 222/266/583 221/285/599 235/298/600 234/250/553
s 6
f 221/286/601 226/261/602 236/256/603 235/297/604
f 226/261/602 225/289/605 229/292/606 228/262/607
s 5
f 225/289/608 224/251/586 230/252/595 229/292/609
s 6
f 228/262/607 227/290/610 243/304/611 242/257/612
s 4
f 227/291/613 232/253/597 244/254/571 243/303/614
s 1
f 238/263/550 237/299/615 241/302/616 240/255/573
s 6
f 237/299/617 236/256/603 242/257/612 241/302/618
s 3
f 200/244/555 206/258/558 218/248/577 212/247/566
s 5
f 214/259/585 216/260/590 230/252/595 224/251/586
s 6
f 226/261/602 228/262/607 242/257/612 236/256/603
s 1
f 238/263/550 240/255/573 208/245/560 198/243/547
s 4
f 204/246/568 244/254/571 232/253/597 220/249/579
s 2
f 234/250/553 202/264/552 210/265/564 222/266/583
f 201/271/562 202/264/552 197/268/551 245/306/619
s 1
f 197/267/548 198/243/547 199/270/559 245/305/620
s 3
f 199/269/556 200/244/555 201/271/565 245/306/621
s 1
f 207/275/561 208/245/560 203/273/572 246/308/622
s 4
f 203/272/569 204/246/568 205/274/578 246/307/623
s 3
f 205/274/575 206/258/558 207/276/557 246/307/624
s 5
f 213/280/588 214/259/585 209/278/584 247/309/625
s 2
f 209/277/581 210/265/564 211/279/563 247/309/626
s 3
f 211/279/567 212/247/566 213/280/591 247/309/627
s 4
f 219/284/580 220/249/579 215/282/596 248/310/628
s 5
f 215/281/593 216/260/590 217/283/589 248/310/629
s 3
f 217/283/592 218/248/577 219/284/576 248/310/630
s 6
f 225/289/605 226/261/602 221/286/601 249/312/631
s 2
f 221/285/599 222/266/583 223/288/582 249/311/632
s 5
f 223/287/587 224/251/586 225/289/608 249/312/633
s 4
f 231/293/598 232/253/597 227/291/613 250/314/634
s 6
f 227/290/610 228/262/607 229/292/606 250/313/635
s 5
f 229/292/609 230/252/595 231/294/594 250/313/636
s 1
f 237/299/615 238/263/550 233/296/549 251/316/637
s 2
f 233/295/554 234/250/553 235/298/600 251/315/638
s 6
f 235/297/604 236/256/603 237/299/617 251/316/639
s 4
f 243/303/614 244/254/571 239/301/570 252/318/640
s 1
f 239/300/574 240/255/573 241/302/616 252/317/641
s 6
f 241/302/618 242/257/612 243/304/611 252/317/642
