# This file uses centimeters as units for non-parametric coordinates.

mtllib dresser_bedroom.mtl
g default
v -3.055833 2.652644 23.808634
v 3.055833 2.652644 23.808634
v -3.055833 2.767954 23.808634
v 3.055833 2.767954 23.808634
v -3.055833 2.767954 21.217371
v 3.055833 2.767954 21.217371
v -3.055833 2.652644 21.217371
v 3.055833 2.652644 21.217371
v -2.892387 2.554209 21.286669
v 2.892387 2.554209 21.286669
v 2.892387 2.554209 23.739336
v -2.892387 2.554209 23.739336
v -2.892387 0.413875 21.286669
v 2.892387 0.413875 21.286669
v 2.892387 0.413875 23.739336
v -2.892387 0.413875 23.739336
v -2.841129 2.652644 23.808634
v -2.841129 2.767954 23.808634
v -2.841129 2.767954 21.217371
v -2.841129 2.652644 21.217371
v -2.689168 2.554209 21.286669
v -2.689168 0.413875 21.286669
v -2.689168 0.413875 23.739336
v -2.689168 2.554209 23.739336
v 2.852724 2.652644 23.808634
v 2.852724 2.767954 23.808634
v 2.852724 2.767954 21.217371
v 2.852724 2.652644 21.217371
v 2.700142 2.554209 21.286669
v 2.700142 0.413875 21.286669
v 2.700142 0.413875 23.739336
v 2.700142 2.554209 23.739336
v -3.055833 2.767954 21.408033
v -3.055833 2.652644 21.408035
v -2.892387 2.554209 21.467135
v -2.892387 0.413875 21.467135
v -2.689168 0.413875 21.467135
v 2.700142 0.413875 21.467135
v 2.892387 0.413875 21.467135
v 2.892387 2.554209 21.467135
v 3.055833 2.652644 21.408035
v 3.055833 2.767954 21.408033
v 2.852724 2.767954 21.408033
v -2.841129 2.767954 21.408033
v -3.055833 2.767954 23.592062
v -3.055833 2.652644 23.592062
v -2.892387 2.554209 23.534348
v -2.892387 0.413875 23.534348
v -2.689168 0.413875 23.534348
v 2.700142 0.413875 23.534348
v 2.892387 0.413875 23.534348
v 2.892387 2.554209 23.534348
v 3.055833 2.652644 23.592062
v 3.055833 2.767954 23.592062
v 2.852724 2.767954 23.592062
v -2.841129 2.767954 23.592062
v -2.892387 1.545702 21.286669
v -2.892387 1.545702 21.467135
v -2.892387 1.545702 23.534348
v -2.892387 1.545702 23.739336
v -2.689168 1.545702 23.739336
v 2.700142 1.545702 23.739336
v 2.892387 1.545702 23.739336
v 2.892387 1.545702 23.534348
v 2.892387 1.545702 21.467135
v 2.892387 1.545702 21.286669
v 2.700142 1.545702 21.286669
v -2.689168 1.545702 21.286669
v -2.892387 -0.298125 23.534348
v -2.689168 -0.298125 23.534348
v -2.689168 -0.298125 23.739336
v -2.892387 -0.298125 23.739336
v 2.700142 -0.298125 23.534348
v 2.700142 -0.298125 23.739336
v 2.892387 -0.298125 23.534348
v 2.892387 -0.298125 23.739336
v -2.892387 -0.298125 21.286669
v -2.689168 -0.298125 21.286669
v -2.689168 -0.298125 21.467135
v -2.892387 -0.298125 21.467135
v 2.700142 -0.298125 21.467135
v 2.892387 -0.298125 21.467135
v 2.700142 -0.298125 21.286669
v 2.892387 -0.298125 21.286669
v 2.520028 1.647653 21.286669
v -2.509054 1.647653 21.286669
v -2.509054 2.431862 21.286669
v 2.520028 2.431862 21.286669
v -2.486418 1.391626 21.286669
v -2.486418 0.542342 21.286669
v 2.497392 1.391626 21.286669
v 2.497392 0.542342 21.286669
v 2.422071 1.641399 21.193426
v -2.411097 1.641399 21.193426
v -2.411097 2.395058 21.193426
v 2.422071 2.395058 21.193426
v -2.389343 1.395345 21.193426
v -2.389343 0.579146 21.193426
v 2.400317 1.395345 21.193426
v 2.400317 0.579146 21.193426
v -0.344147 2.652644 23.808634
v -0.344147 2.767954 23.808634
v -0.344147 2.767954 23.592062
v -0.344147 2.767954 21.408033
v -0.344147 2.767954 21.217371
v -0.344147 2.652644 21.217371
v -0.325740 2.554209 21.286669
v -0.303600 2.431862 21.286669
v -0.291559 2.395058 21.193426
v -0.291560 1.641399 21.193426
v -0.303600 1.647653 21.286669
v -0.325740 1.545702 21.286669
v -0.300818 1.391626 21.286669
v -0.288885 1.395345 21.193426
v -0.288885 0.579146 21.193426
v -0.300818 0.542342 21.286669
v -0.325740 0.413875 21.286669
v -0.325740 0.413875 21.467135
v -0.325740 0.413875 23.534348
v -0.325740 0.413875 23.739336
v -0.325740 1.545702 23.739336
v -0.325740 2.554209 23.739336
v 0.365622 2.767954 21.408033
v 0.365622 2.767954 23.592062
v 0.365622 2.767954 23.808634
v 0.365622 2.652644 23.808634
v 0.346066 2.554209 23.739336
v 0.346066 1.545702 23.739336
v 0.346066 0.413875 23.739336
v 0.346066 0.413875 23.534348
v 0.346066 0.413875 21.467135
v 0.346066 0.413875 21.286669
v 0.320441 0.542342 21.286669
v 0.308171 0.579146 21.193426
v 0.308171 1.395345 21.193426
v 0.320441 1.391626 21.286669
v 0.346066 1.545702 21.286669
v 0.323301 1.647653 21.286669
v 0.310921 1.641399 21.193426
v 0.310921 2.395058 21.193426
v 0.323302 2.431862 21.286669
v 0.346066 2.554209 21.286669
v 0.365622 2.652644 21.217371
v 0.365622 2.767954 21.217371
v -2.892387 2.436775 21.286669
v -2.892387 2.436775 21.467135
v -2.892387 2.436775 23.534348
v -2.892387 2.436775 23.739336
v -2.689168 2.436775 23.739336
v -0.325740 2.436775 23.739336
v 0.346066 2.436775 23.739336
v 2.700142 2.436775 23.739336
v 2.892387 2.436775 23.739336
v 2.892387 2.436775 23.534348
v 2.892387 2.436775 21.467135
v 2.892387 2.436775 21.286669
v 2.700142 2.436775 21.286669
v 2.520028 2.340547 21.286669
v 2.422071 2.307300 21.193426
v 0.310921 2.307300 21.193426
v -0.291559 2.307300 21.193426
v -2.411098 2.307300 21.193426
v -2.509054 2.340547 21.286669
v -2.689168 2.436775 21.286669
v -2.689168 2.279750 23.739336
v -2.892387 2.279749 23.739336
v -2.892387 2.279750 23.534348
v -2.892387 2.279749 21.467135
v -2.892387 2.279750 21.286669
v -2.689168 2.279750 21.286669
v -2.509054 2.218444 21.286669
v -2.411097 2.189954 21.193426
v -0.291559 2.189954 21.193426
v 0.310921 2.189954 21.193426
v 2.422071 2.189954 21.193426
v 2.520028 2.218444 21.286669
v 2.700142 2.279750 21.286669
v 2.892387 2.279750 21.286669
v 2.892387 2.279750 21.467135
v 2.892387 2.279750 23.534348
v 2.892387 2.279750 23.739336
v 2.700142 2.279750 23.739336
v 0.346066 2.279750 23.739336
v -0.325740 2.279750 23.739336
v -2.689168 1.368952 23.739336
v -2.892388 1.368952 23.739336
v -2.892388 1.368952 23.534348
v -2.892388 1.368952 21.467135
v -2.892388 1.368952 21.286669
v -2.689168 1.368952 21.286669
v -2.486418 1.258999 21.286669
v -2.389343 1.267885 21.193426
v -0.288885 1.267885 21.193426
v 0.308171 1.267885 21.193426
v 2.400317 1.267885 21.193426
v 2.497392 1.258999 21.286669
v 2.700142 1.368952 21.286669
v 2.892388 1.368952 21.286669
v 2.892387 1.368952 21.467135
v 2.892387 1.368952 23.534348
v 2.892388 1.368952 23.739336
v 2.700142 1.368952 23.739336
v 0.346066 1.368952 23.739336
v -0.325740 1.368952 23.739336
v -2.689168 1.238115 23.739336
v -2.892387 1.238115 23.739336
v -2.892387 1.238115 23.534348
v -2.892387 1.238115 21.467135
v -2.892387 1.238115 21.286669
v -2.689168 1.238115 21.286669
v -2.486418 1.160823 21.286669
v -2.389343 1.173534 21.193426
v -0.288885 1.173534 21.193426
v 0.308171 1.173534 21.193426
v 2.400317 1.173534 21.193426
v 2.497392 1.160823 21.286669
v 2.700142 1.238115 21.286669
v 2.892387 1.238115 21.286669
v 2.892387 1.238115 21.467135
v 2.892387 1.238115 23.534348
v 2.892387 1.238115 23.739336
v 2.700142 1.238115 23.739336
v 0.346066 1.238115 23.739336
v -0.325740 1.238115 23.739336
v 0.310921 2.307300 21.053868
v -0.291559 2.307300 21.053868
v 0.310921 2.189954 21.053868
v -0.291559 2.189954 21.053868
v -0.288885 1.173534 21.053868
v 0.308171 1.173534 21.053868
v -0.288885 1.267885 21.053868
v 0.308171 1.267885 21.053868
vt 0.375000 0.000000
vt 0.625000 0.000000
vt 0.375000 0.250000
vt 0.625000 0.250000
vt 0.375000 0.500000
vt 0.625000 0.500000
vt 0.375000 0.750000
vt 0.625000 0.750000
vt 0.375000 1.000000
vt 0.625000 1.000000
vt 0.875000 0.000000
vt 0.875000 0.250000
vt 0.125000 0.000000
vt 0.125000 0.250000
vt 0.375000 0.750000
vt 0.625000 0.750000
vt 0.625000 1.000000
vt 0.375000 1.000000
vt 0.375000 0.750000
vt 0.625000 0.750000
vt 0.625000 1.000000
vt 0.375000 1.000000
vt 0.383783 0.000000
vt 0.383783 1.000000
vt 0.383783 0.250000
vt 0.383783 0.500000
vt 0.383783 0.750000
vt 0.383783 0.750000
vt 0.383783 0.750000
vt 0.383783 1.000000
vt 0.383783 1.000000
vt 0.616692 0.000000
vt 0.616692 1.000000
vt 0.616692 0.250000
vt 0.616692 0.500000
vt 0.616692 0.750000
vt 0.616692 0.750000
vt 0.616692 0.750000
vt 0.616692 1.000000
vt 0.616692 1.000000
vt 0.143395 0.250000
vt 0.375000 0.481605
vt 0.143395 0.000000
vt 0.375000 0.768395
vt 0.375000 0.768395
vt 0.375000 0.768395
vt 0.383783 0.768395
vt 0.616692 0.768395
vt 0.625000 0.768395
vt 0.625000 0.768395
vt 0.625000 0.768395
vt 0.856605 0.000000
vt 0.625000 0.481605
vt 0.856605 0.250000
vt 0.616692 0.481605
vt 0.383783 0.481605
vt 0.354106 0.250000
vt 0.375000 0.270894
vt 0.354106 0.000000
vt 0.375000 0.979106
vt 0.375000 0.979106
vt 0.375000 0.979106
vt 0.383783 0.979106
vt 0.616692 0.979106
vt 0.625000 0.979106
vt 0.625000 0.979106
vt 0.625000 0.979106
vt 0.645894 0.000000
vt 0.625000 0.270894
vt 0.645895 0.250000
vt 0.616692 0.270894
vt 0.383783 0.270894
vt 0.375000 0.750000
vt 0.375000 0.768395
vt 0.375000 0.979106
vt 0.375000 1.000000
vt 0.383783 1.000000
vt 0.616692 1.000000
vt 0.625000 1.000000
vt 0.625000 0.979106
vt 0.625000 0.768395
vt 0.625000 0.750000
vt 0.616692 0.750000
vt 0.383783 0.750000
vt 0.375000 0.979106
vt 0.383783 0.979106
vt 0.383783 1.000000
vt 0.375000 1.000000
vt 0.616692 1.000000
vt 0.616692 0.979106
vt 0.625000 0.979106
vt 0.625000 1.000000
vt 0.375000 0.750000
vt 0.383783 0.750000
vt 0.383783 0.768395
vt 0.375000 0.768395
vt 0.625000 0.768395
vt 0.616692 0.768395
vt 0.616692 0.750000
vt 0.625000 0.750000
vt 0.616692 0.750000
vt 0.383783 0.750000
vt 0.383783 0.750000
vt 0.616692 0.750000
vt 0.383783 0.750000
vt 0.383783 0.750000
vt 0.616692 0.750000
vt 0.616692 0.750000
vt 0.616692 0.750000
vt 0.383783 0.750000
vt 0.383783 0.750000
vt 0.616692 0.750000
vt 0.383783 0.750000
vt 0.383783 0.750000
vt 0.616692 0.750000
vt 0.616692 0.750000
vt 0.485923 0.000000
vt 0.485923 1.000000
vt 0.485923 0.250000
vt 0.485923 0.270894
vt 0.485923 0.481605
vt 0.485923 0.500000
vt 0.485923 0.750000
vt 0.485923 0.750000
vt 0.485923 0.750000
vt 0.485923 0.750000
vt 0.485923 0.750000
vt 0.485923 0.750000
vt 0.485923 0.750000
vt 0.485923 0.750000
vt 0.485923 0.750000
vt 0.485923 0.750000
vt 0.485923 0.750000
vt 0.485923 0.750000
vt 0.485923 0.768395
vt 0.485923 0.979106
vt 0.485923 1.000000
vt 0.485923 1.000000
vt 0.485923 1.000000
vt 0.514956 0.481605
vt 0.514956 0.270894
vt 0.514956 0.250000
vt 0.514956 0.000000
vt 0.514956 1.000000
vt 0.514956 1.000000
vt 0.514956 1.000000
vt 0.514956 1.000000
vt 0.514956 0.979106
vt 0.514956 0.768395
vt 0.514956 0.750000
vt 0.514956 0.750000
vt 0.514956 0.750000
vt 0.514956 0.750000
vt 0.514956 0.750000
vt 0.514956 0.750000
vt 0.514956 0.750000
vt 0.514956 0.750000
vt 0.514956 0.750000
vt 0.514956 0.750000
vt 0.514956 0.750000
vt 0.514956 0.750000
vt 0.514956 0.500000
vt 0.375000 0.750000
vt 0.375000 0.768395
vt 0.375000 0.979106
vt 0.375000 1.000000
vt 0.383783 1.000000
vt 0.485923 1.000000
vt 0.514956 1.000000
vt 0.616692 1.000000
vt 0.625000 1.000000
vt 0.625000 0.979106
vt 0.625000 0.768395
vt 0.625000 0.750000
vt 0.616692 0.750000
vt 0.616692 0.750000
vt 0.616692 0.750000
vt 0.514956 0.750000
vt 0.485923 0.750000
vt 0.383783 0.750000
vt 0.383783 0.750000
vt 0.383783 0.750000
vt 0.383783 1.000000
vt 0.375000 1.000000
vt 0.375000 0.979105
vt 0.375000 0.768395
vt 0.375000 0.750000
vt 0.383783 0.750000
vt 0.383783 0.750000
vt 0.383783 0.750000
vt 0.485923 0.750000
vt 0.514956 0.750000
vt 0.616692 0.750000
vt 0.616692 0.750000
vt 0.616692 0.750000
vt 0.625000 0.750000
vt 0.625000 0.768395
vt 0.625000 0.979106
vt 0.625000 1.000000
vt 0.616692 1.000000
vt 0.514956 1.000000
vt 0.485923 1.000000
vt 0.383783 1.000000
vt 0.375000 1.000000
vt 0.375000 0.979106
vt 0.375000 0.768395
vt 0.375000 0.750000
vt 0.383783 0.750000
vt 0.383783 0.750000
vt 0.383783 0.750000
vt 0.485923 0.750000
vt 0.514956 0.750000
vt 0.616692 0.750000
vt 0.616692 0.750000
vt 0.616692 0.750000
vt 0.625000 0.750000
vt 0.625000 0.768395
vt 0.625000 0.979106
vt 0.625000 1.000000
vt 0.616692 1.000000
vt 0.514956 1.000000
vt 0.485923 1.000000
vt 0.383783 1.000000
vt 0.375000 1.000000
vt 0.375000 0.979106
vt 0.375000 0.768395
vt 0.375000 0.750000
vt 0.383783 0.750000
vt 0.383783 0.750000
vt 0.383783 0.750000
vt 0.485923 0.750000
vt 0.514956 0.750000
vt 0.616692 0.750000
vt 0.616692 0.750000
vt 0.616692 0.750000
vt 0.625000 0.750000
vt 0.625000 0.768395
vt 0.625000 0.979106
vt 0.625000 1.000000
vt 0.616692 1.000000
vt 0.514956 1.000000
vt 0.485923 1.000000
vt 0.485923 0.750000
vt 0.514956 0.750000
vt 0.514956 0.750000
vt 0.485923 0.750000
vt 0.514956 0.750000
vt 0.485923 0.750000
vt 0.485923 0.750000
vt 0.514956 0.750000
vn 0.000000 0.000000 1.000000
vn 0.000000 0.000000 1.000000
vn 0.000000 0.000000 1.000000
vn 0.000000 0.000000 1.000000
vn 0.000000 1.000000 0.000000
vn 0.000000 1.000000 0.000000
vn 0.000000 1.000000 -0.000000
vn 0.000000 1.000000 0.000000
vn 0.000000 0.000000 -1.000000
vn 0.000000 0.000000 -1.000000
vn 0.000000 0.000000 -1.000000
vn 0.000000 0.000000 -1.000000
vn 0.000000 -1.000000 0.000000
vn 0.000000 -1.000000 0.000000
vn 0.000000 -1.000000 0.000000
vn 0.000000 -1.000000 0.000000
vn 1.000000 0.000000 0.000000
vn 1.000000 0.000000 0.000000
vn 1.000000 0.000000 0.000000
vn 1.000000 0.000000 0.000000
vn -1.000000 0.000000 0.000000
vn -1.000000 0.000000 0.000000
vn -1.000000 0.000000 0.000000
vn -1.000000 0.000000 0.000000
vn 0.000000 -0.575651 -0.817696
vn 0.000000 -0.575651 -0.817695
vn 0.000000 -0.575651 -0.817695
vn 0.000000 -0.575651 -0.817696
vn 0.515913 -0.856641 0.000000
vn 0.515913 -0.856641 0.000000
vn 0.515914 -0.856640 0.000000
vn 0.515914 -0.856640 0.000000
vn 0.000000 -0.575651 0.817695
vn 0.000000 -0.575651 0.817695
vn 0.000000 -0.575651 0.817695
vn 0.000000 -0.575651 0.817695
vn -0.515914 -0.856640 0.000000
vn -0.515913 -0.856641 0.000000
vn -0.515913 -0.856641 0.000000
vn -0.515914 -0.856640 0.000000
vn 0.000000 0.000000 -1.000000
vn 0.000000 0.000000 -1.000000
vn 0.000000 0.000000 -1.000000
vn 0.000000 0.000000 -1.000000
vn 1.000000 0.000000 0.000000
vn 1.000000 0.000000 0.000000
vn 1.000000 0.000000 0.000000
vn 1.000000 0.000000 0.000000
vn -0.000000 0.000000 1.000000
vn -0.000000 0.000000 1.000000
vn 0.000000 0.000000 1.000000
vn 0.000000 0.000000 1.000000
vn -1.000000 0.000000 0.000000
vn -1.000000 0.000000 0.000000
vn -1.000000 0.000000 0.000000
vn -1.000000 0.000000 0.000000
vn 0.000000 0.000000 1.000000
vn 0.000000 0.000000 1.000000
vn 0.000000 1.000000 0.000000
vn 0.000000 1.000000 -0.000000
vn 0.000000 0.000000 -1.000000
vn 0.000000 0.000000 -1.000000
vn 0.000000 -0.575651 -0.817695
vn 0.000000 -0.575651 -0.817695
vn 0.000000 0.000000 -1.000000
vn 0.000000 0.000000 -1.000000
vn 0.000000 0.000000 -1.000000
vn 0.000000 0.000000 -1.000000
vn -0.000000 -1.000000 0.000000
vn -0.000000 -1.000000 0.000000
vn -0.000000 -1.000000 0.000000
vn -0.000000 -1.000000 0.000000
vn 0.000000 0.000000 1.000000
vn 0.000000 0.000000 1.000000
vn 0.000000 -0.575651 0.817695
vn 0.000000 -0.575651 0.817695
vn 0.000000 0.000000 1.000000
vn 0.000000 0.000000 1.000000
vn 0.000000 0.000000 1.000000
vn 0.000000 0.000000 1.000000
vn 0.000000 1.000000 0.000000
vn 0.000000 1.000000 0.000000
vn 0.000000 1.000000 0.000000
vn 0.000000 1.000000 0.000000
vn 0.000000 0.000000 -1.000000
vn 0.000000 0.000000 -1.000000
vn 0.000000 0.000000 -1.000000
vn 0.000000 0.000000 -1.000000
vn 0.000000 -0.575651 -0.817695
vn 0.000000 -0.575651 -0.817695
vn 0.000000 -0.575651 -0.817696
vn 0.000000 -0.575651 -0.817696
vn 0.000000 0.000000 -1.000000
vn 0.000000 0.000000 -1.000000
vn 0.000000 0.000000 -1.000000
vn 0.000000 0.000000 -1.000000
vn 0.000000 -1.000000 0.000000
vn 0.000000 -1.000000 0.000000
vn 0.000000 -1.000000 0.000000
vn 0.000000 -1.000000 0.000000
vn 0.000000 0.000000 1.000000
vn 0.000000 0.000000 1.000000
vn 0.000000 0.000000 1.000000
vn 0.000000 0.000000 1.000000
vn 0.000000 -0.575651 0.817696
vn 0.000000 -0.575651 0.817695
vn 0.000000 -0.575651 0.817695
vn 0.000000 -0.575651 0.817696
vn -1.000000 0.000000 0.000000
vn -1.000000 0.000000 0.000000
vn -1.000000 0.000000 0.000000
vn -1.000000 0.000000 0.000000
vn -0.515913 -0.856641 0.000000
vn -0.515913 -0.856641 0.000000
vn -0.515914 -0.856641 0.000000
vn -0.515914 -0.856641 0.000000
vn -1.000000 0.000000 0.000000
vn -1.000000 0.000000 0.000000
vn -1.000000 0.000000 0.000000
vn -1.000000 0.000000 0.000000
vn 0.000000 -1.000000 0.000000
vn 0.000000 -1.000000 0.000000
vn 0.000000 -1.000000 0.000000
vn 0.000000 -1.000000 0.000000
vn -0.000000 -1.000000 0.000000
vn -0.000000 -1.000000 0.000000
vn -0.000000 -1.000000 0.000000
vn -0.000000 -1.000000 0.000000
vn 0.000000 -1.000000 0.000000
vn 0.000000 -1.000000 0.000000
vn 0.000000 -1.000000 0.000000
vn 0.000000 -1.000000 0.000000
vn 1.000000 0.000000 0.000000
vn 1.000000 0.000000 0.000000
vn 1.000000 0.000000 0.000000
vn 1.000000 0.000000 0.000000
vn 0.515914 -0.856641 0.000000
vn 0.515913 -0.856641 0.000000
vn 0.515913 -0.856641 0.000000
vn 0.515914 -0.856641 0.000000
vn 1.000000 0.000000 0.000000
vn 1.000000 0.000000 0.000000
vn 1.000000 0.000000 0.000000
vn 1.000000 0.000000 0.000000
vn 0.000000 1.000000 0.000000
vn 0.000000 1.000000 0.000000
vn 0.000000 1.000000 0.000000
vn 0.000000 1.000000 0.000000
vn 0.000000 1.000000 0.000000
vn 0.000000 1.000000 -0.000000
vn 0.000000 1.000000 -0.000000
vn 0.000000 1.000000 0.000000
vn 0.000000 1.000000 0.000000
vn 0.000000 1.000000 0.000000
vn 0.000000 -1.000000 0.000000
vn 0.000000 -1.000000 0.000000
vn 0.000000 -1.000000 0.000000
vn 0.000000 -1.000000 0.000000
vn 0.000000 -1.000000 0.000000
vn 0.000000 -1.000000 0.000000
vn -1.000000 0.000000 0.000000
vn -1.000000 -0.000000 0.000000
vn -1.000000 -0.000000 -0.000000
vn -1.000000 0.000000 0.000000
vn -1.000000 0.000000 0.000000
vn -1.000000 -0.000000 -0.000000
vn -1.000000 0.000000 -0.000000
vn -1.000000 0.000000 0.000000
vn 0.000000 0.000000 1.000000
vn 0.000000 0.000000 1.000000
vn 0.000000 0.000000 1.000000
vn 0.000000 0.000000 1.000000
vn 0.000000 0.000000 1.000000
vn 0.000000 0.000000 1.000000
vn -0.000000 0.000000 1.000000
vn -0.000000 0.000000 1.000000
vn -0.000000 0.000000 1.000000
vn 0.000000 0.000000 1.000000
vn 1.000000 0.000000 0.000000
vn 1.000000 0.000000 -0.000000
vn 1.000000 0.000000 -0.000000
vn 1.000000 0.000000 0.000000
vn 1.000000 0.000000 0.000000
vn 1.000000 0.000000 0.000000
vn 1.000000 0.000000 0.000000
vn 1.000000 0.000000 0.000000
vn 0.000000 0.000000 -1.000000
vn 0.000000 0.000000 -1.000000
vn 0.000000 0.000000 -1.000000
vn 0.000000 0.000000 -1.000000
vn 0.000000 0.000000 -1.000000
vn 0.000000 0.000000 -1.000000
vn 0.000000 0.000000 -1.000000
vn 0.000000 0.000000 -1.000000
vn 0.000000 0.000000 -1.000000
vn 0.000000 0.000000 -1.000000
vn 0.000000 0.000000 -1.000000
vn 0.000000 0.000000 -1.000000
vn 0.000000 0.000000 -1.000000
vn 0.000000 0.000000 -1.000000
vn 0.000000 0.000000 -1.000000
vn 0.000000 0.000000 -1.000000
vn 1.000000 0.000000 0.000000
vn 1.000000 0.000000 0.000000
vn 1.000000 0.000000 0.000000
vn 1.000000 0.000000 0.000000
vn 0.000000 0.000000 1.000000
vn 0.000000 0.000000 1.000000
vn 0.000000 0.000000 1.000000
vn 0.000000 0.000000 1.000000
vn -1.000000 0.000000 0.000000
vn -1.000000 0.000000 0.000000
vn -1.000000 0.000000 0.000000
vn -1.000000 0.000000 0.000000
vn -1.000000 0.000000 0.000000
vn -1.000000 0.000000 0.000000
vn -1.000000 0.000000 0.000000
vn -1.000000 0.000000 0.000000
vn 0.000000 0.000000 -1.000000
vn 0.000000 0.000000 -1.000000
vn 0.000000 0.000000 -1.000000
vn 0.000000 0.000000 -1.000000
vn 1.000000 0.000000 0.000000
vn 1.000000 0.000000 0.000000
vn 1.000000 0.000000 0.000000
vn 1.000000 0.000000 0.000000
vn 0.000000 0.000000 1.000000
vn 0.000000 0.000000 1.000000
vn 0.000000 0.000000 1.000000
vn 0.000000 0.000000 1.000000
vn 0.000000 0.000000 -1.000000
vn 0.000000 0.000000 -1.000000
vn 0.000000 0.000000 -1.000000
vn 0.000000 0.000000 -1.000000
vn 1.000000 0.000000 0.000000
vn 1.000000 0.000000 0.000000
vn 1.000000 0.000000 0.000000
vn 1.000000 0.000000 0.000000
vn 0.000000 0.000000 1.000000
vn 0.000000 0.000000 1.000000
vn 0.000000 0.000000 1.000000
vn 0.000000 0.000000 1.000000
vn -1.000000 0.000000 0.000000
vn -1.000000 0.000000 0.000000
vn -1.000000 0.000000 0.000000
vn -1.000000 0.000000 0.000000
vn 0.000000 0.000000 1.000000
vn 0.000000 0.000000 1.000000
vn 0.000000 0.000000 1.000000
vn 0.000000 0.000000 1.000000
vn -1.000000 0.000000 0.000000
vn -1.000000 0.000000 0.000000
vn -1.000000 0.000000 0.000000
vn -1.000000 0.000000 0.000000
vn 0.000000 0.000000 -1.000000
vn 0.000000 0.000000 -1.000000
vn 0.000000 0.000000 -1.000000
vn 0.000000 0.000000 -1.000000
vn 1.000000 0.000000 0.000000
vn 1.000000 0.000000 0.000000
vn 1.000000 0.000000 0.000000
vn 1.000000 0.000000 0.000000
vn 0.000000 0.000000 -1.000000
vn 0.000000 0.000000 -1.000000
vn 0.000000 0.000000 -1.000000
vn 0.000000 0.000000 -1.000000
vn -0.000000 0.000000 -1.000000
vn -0.000000 0.000000 -1.000000
vn -0.000001 0.000000 -1.000000
vn -0.000001 0.000000 -1.000000
vn 0.000000 0.000000 -1.000000
vn 0.000000 0.000000 -1.000000
vn 0.000000 0.000000 -1.000000
vn 0.000000 0.000000 -1.000000
vn 0.000001 0.000000 -1.000000
vn 0.000000 0.000000 -1.000000
vn 0.000000 0.000000 -1.000000
vn 0.000001 0.000000 -1.000000
vn -0.000000 0.000000 -1.000000
vn -0.000000 0.000000 -1.000000
vn -0.000000 0.000000 -1.000000
vn -0.000000 0.000000 -1.000000
vn 0.000000 0.000000 -1.000000
vn 0.000000 0.000000 -1.000000
vn 0.000000 0.000000 -1.000000
vn 0.000000 0.000000 -1.000000
vn 0.000000 0.000000 -1.000000
vn 0.000000 0.000000 -1.000000
vn 0.000000 0.000000 -1.000000
vn 0.000000 0.000000 -1.000000
vn 0.000000 0.000000 -1.000000
vn 0.000000 0.000000 -1.000000
vn 0.000000 0.000000 -1.000000
vn 0.000000 0.000000 -1.000000
vn 0.000000 -0.997758 0.066927
vn 0.000000 -0.997758 0.066927
vn 0.000000 -0.997758 0.066927
vn 0.000000 -0.997758 0.066927
vn -0.689464 -0.000000 -0.724320
vn -0.689464 0.000000 -0.724320
vn -0.689464 0.000001 -0.724320
vn -0.689464 0.000001 -0.724320
vn 0.000000 0.930162 -0.367148
vn 0.000000 0.930162 -0.367148
vn 0.000000 0.930162 -0.367148
vn 0.000000 0.930162 -0.367148
vn 0.689464 0.000000 -0.724320
vn 0.689464 0.000000 -0.724320
vn 0.689464 0.000000 -0.724320
vn 0.689464 0.000000 -0.724320
vn -0.692728 0.000000 -0.721199
vn -0.692728 0.000000 -0.721199
vn -0.692728 0.000000 -0.721199
vn -0.692728 0.000000 -0.721199
vn 0.000000 0.999205 0.039856
vn 0.000000 0.999205 0.039856
vn 0.000000 0.999205 0.039856
vn 0.000000 0.999205 0.039856
vn 0.692728 -0.000000 -0.721199
vn 0.692728 -0.000000 -0.721199
vn 0.692728 0.000000 -0.721199
vn 0.692728 0.000000 -0.721199
vn -0.000000 -0.930163 -0.367147
vn -0.000000 -0.930163 -0.367147
vn -0.000000 -0.930163 -0.367146
vn -0.000000 -0.930163 -0.367146
vn 0.000000 0.000000 1.000000
vn 0.000000 0.000000 1.000000
vn 0.000000 1.000000 -0.000000
vn 0.000000 1.000000 0.000000
vn 0.000000 1.000000 -0.000000
vn 0.000000 1.000000 0.000000
vn 0.000000 0.000000 -1.000000
vn 0.000000 0.000000 -1.000000
vn 0.000000 -0.575651 -0.817695
vn 0.000000 -0.575651 -0.817695
vn 0.000000 0.000000 -1.000000
vn 0.000000 0.000000 -1.000000
vn 0.000000 0.000000 -1.000000
vn 0.000000 0.000000 -1.000000
vn 0.000000 0.930162 -0.367148
vn 0.000000 0.930162 -0.367148
vn 0.000000 0.930162 -0.367148
vn 0.000000 0.930162 -0.367148
vn 0.000000 0.000000 -1.000000
vn 0.000000 0.000000 -1.000000
vn 0.000000 0.000000 -1.000000
vn 0.000000 0.000000 -1.000000
vn 0.000000 -0.997758 0.066926
vn 0.000000 -0.997758 0.066926
vn 0.000000 -0.997758 0.066927
vn 0.000000 -0.997758 0.066926
vn 0.000000 0.000000 -1.000000
vn 0.000000 0.000000 -1.000000
vn 0.000000 0.000000 -1.000000
vn 0.000000 0.000000 -1.000000
vn 0.000000 0.000000 -1.000000
vn 0.000000 0.000000 -1.000000
vn 0.000000 0.000000 -1.000000
vn 0.000000 0.000000 -1.000000
vn 0.000000 0.999205 0.039858
vn 0.000000 0.999205 0.039858
vn 0.000000 0.999205 0.039858
vn 0.000000 0.999205 0.039858
vn 0.000000 0.000000 -1.000000
vn 0.000000 0.000000 -1.000000
vn 0.000000 0.000000 -1.000000
vn 0.000000 0.000000 -1.000000
vn 0.000000 -0.930163 -0.367148
vn 0.000000 -0.930163 -0.367148
vn 0.000000 -0.930162 -0.367148
vn 0.000000 -0.930163 -0.367148
vn 0.000000 0.000000 -1.000000
vn 0.000000 0.000000 -1.000000
vn 0.000000 0.000000 -1.000000
vn 0.000000 0.000000 -1.000000
vn 0.000000 -1.000000 0.000000
vn 0.000000 -1.000000 0.000000
vn 0.000000 -1.000000 0.000000
vn 0.000000 -1.000000 0.000000
vn 0.000000 -1.000000 0.000000
vn 0.000000 -1.000000 0.000000
vn -0.000000 0.000000 1.000000
vn -0.000000 0.000000 1.000000
vn 0.000000 0.000000 1.000000
vn 0.000000 0.000000 1.000000
vn 0.000000 -0.575651 0.817695
vn 0.000000 -0.575651 0.817695
vn -1.000000 0.000000 0.000000
vn -1.000000 0.000000 0.000000
vn -1.000000 0.000000 0.000000
vn -1.000000 0.000000 0.000000
vn -1.000000 0.000000 -0.000000
vn -1.000000 0.000000 0.000000
vn -1.000000 0.000000 0.000000
vn -1.000000 0.000000 0.000000
vn 0.000000 0.000000 1.000000
vn 0.000000 0.000000 1.000000
vn 0.000000 0.000000 1.000000
vn 0.000000 0.000000 1.000000
vn 0.000000 0.000000 1.000000
vn 0.000000 0.000000 1.000000
vn 0.000000 0.000000 1.000000
vn 0.000000 0.000000 1.000000
vn 0.000000 0.000000 1.000000
vn 0.000000 0.000000 1.000000
vn 0.000000 0.000000 1.000000
vn 0.000000 0.000000 1.000000
vn 1.000000 0.000000 -0.000000
vn 1.000000 0.000000 -0.000000
vn 1.000000 0.000000 0.000000
vn 1.000000 0.000000 0.000000
vn 1.000000 0.000000 0.000000
vn 1.000000 0.000000 0.000000
vn 1.000000 0.000000 0.000000
vn 1.000000 0.000000 0.000000
vn 0.000000 0.000000 -1.000000
vn 0.000000 0.000000 -1.000000
vn 0.000000 0.000000 -1.000000
vn 0.000000 0.000000 -1.000000
vn 0.000000 0.000000 -1.000000
vn 0.000000 0.000000 -1.000000
vn 0.000001 0.000000 -1.000000
vn 0.000001 0.000000 -1.000000
vn 0.689464 0.000000 -0.724320
vn 0.689464 0.000000 -0.724320
vn 0.689464 0.000000 -0.724320
vn 0.689464 0.000000 -0.724320
vn 0.000000 0.000000 -1.000000
vn 0.000000 0.000000 -1.000000
vn 0.000000 0.000000 -1.000000
vn 0.000000 0.000000 -1.000000
vn 0.000000 0.000000 -1.000000
vn 0.000000 0.000000 -1.000000
vn 0.000000 0.000000 -1.000000
vn 0.000000 0.000000 -1.000000
vn -0.689463 0.000000 -0.724321
vn -0.689464 -0.000000 -0.724320
vn -0.689463 -0.000000 -0.724320
vn -0.689463 0.000000 -0.724321
vn -0.000001 0.000000 -1.000000
vn -0.000000 0.000000 -1.000000
vn -0.000000 0.000000 -1.000000
vn -0.000001 0.000000 -1.000000
vn 0.000000 0.000000 -1.000000
vn 0.000000 0.000000 -1.000000
vn 0.000000 0.000000 -1.000000
vn 0.000000 0.000000 -1.000000
vn 0.000000 0.000000 -1.000000
vn 0.000000 0.000000 -1.000000
vn 0.000000 0.000000 -1.000000
vn 0.000000 0.000000 -1.000000
vn 0.000000 0.000000 1.000000
vn 0.000000 0.000000 1.000000
vn -1.000000 0.000000 0.000000
vn -1.000000 0.000000 -0.000000
vn -1.000000 -0.000000 -0.000000
vn -1.000000 0.000000 0.000000
vn 0.000000 0.000000 -1.000000
vn 0.000000 0.000000 -1.000000
vn 0.000000 0.000000 -1.000000
vn 0.000000 0.000000 -1.000000
vn 0.000000 0.000000 -1.000000
vn 0.000000 0.000000 -1.000000
vn -0.692728 0.000000 -0.721199
vn -0.692728 0.000000 -0.721199
vn -0.692728 0.000000 -0.721199
vn -0.692728 0.000000 -0.721199
vn 0.000000 0.000000 -1.000000
vn 0.000000 0.000000 -1.000000
vn 0.000000 0.000000 -1.000000
vn 0.000000 0.000000 -1.000000
vn 0.000000 0.000000 -1.000000
vn 0.000000 0.000000 -1.000000
vn 0.000000 0.000000 -1.000000
vn 0.000000 0.000000 -1.000000
vn 0.692728 0.000002 -0.721199
vn 0.692728 -0.000000 -0.721199
vn 0.692728 0.000000 -0.721199
vn 0.692728 0.000002 -0.721199
vn 0.000000 0.000000 -1.000000
vn 0.000000 0.000000 -1.000000
vn 0.000000 0.000000 -1.000000
vn 0.000000 0.000000 -1.000000
vn 0.000000 0.000000 -1.000000
vn 0.000000 0.000000 -1.000000
vn 1.000000 0.000000 0.000000
vn 1.000000 0.000000 0.000001
vn 1.000000 0.000000 -0.000000
vn 1.000000 0.000000 -0.000001
vn 0.000000 0.000000 1.000000
vn -0.000000 0.000000 1.000000
vn -0.000000 0.000000 1.000000
vn -0.000000 0.000000 1.000000
vn 0.000000 0.000000 -1.000000
vn 0.000000 0.000000 -1.000000
vn 0.000000 0.000000 -1.000000
vn 0.000000 0.000000 -1.000000
vn 0.000000 1.000000 0.000000
vn 0.000000 1.000000 0.000000
vn 0.000000 1.000000 0.000000
vn 0.000000 1.000000 0.000000
vn 1.000000 -0.000000 0.000000
vn 1.000000 -0.000000 0.000000
vn 1.000000 -0.000000 0.000000
vn 1.000000 -0.000000 0.000000
vn 0.000000 -1.000000 0.000000
vn 0.000000 -1.000000 0.000000
vn 0.000000 -1.000000 0.000000
vn 0.000000 -1.000000 0.000000
vn -1.000000 0.000000 0.000000
vn -1.000000 0.000000 0.000000
vn -1.000000 0.000000 0.000000
vn -1.000000 0.000000 0.000000
vn -0.000000 -1.000000 0.000000
vn -0.000000 -1.000000 0.000000
vn -0.000000 -1.000000 0.000000
vn -0.000000 -1.000000 0.000000
vn -1.000000 0.000000 0.000000
vn -1.000000 0.000000 0.000000
vn -1.000000 0.000000 0.000000
vn -1.000000 0.000000 0.000000
vn 0.000000 1.000000 0.000000
vn 0.000000 1.000000 0.000000
vn 0.000000 1.000000 0.000000
vn 0.000000 1.000000 0.000000
vn 1.000000 0.000000 0.000000
vn 1.000000 0.000000 0.000000
vn 1.000000 0.000000 0.000000
vn 1.000000 0.000000 0.000000
s 1
g pCube53
usemtl initialShadingGroup
f 1/1/1 17/23/2 18/25/3 3/3/4
s 2
f 3/3/5 18/25/6 56/72/7 45/58/8
s 3
f 5/5/9 19/26/10 20/27/11 7/7/12
s off
f 69/85/13 70/86/14 71/87/15 72/88/16
s 4
f 2/2/17 53/68/18 54/70/19 4/4/20
s 5
f 45/57/21 46/59/22 1/1/23 3/3/24
s 6
f 7/7/25 20/27/26 21/28/27 9/15/28
s 7
f 52/66/29 53/67/30 2/10/31 11/17/32
s 8
f 24/31/33 17/24/34 1/9/35 12/18/36
s 9
f 1/9/37 46/60/38 47/61/39 12/18/40
s 10
f 9/15/41 21/28/42 164/182/43 145/163/44
s 11
f 153/171/45 154/172/46 52/66/47 11/17/48
s 12
f 148/166/49 149/167/50 24/31/51 12/18/52
s 13
f 12/18/53 47/61/54 147/165/55 148/166/56
s 1
f 18/25/3 17/23/2 101/117/57 102/119/58
s 2
f 102/119/59 103/120/60 56/72/7 18/25/6
s 3
f 20/27/11 19/26/10 105/122/61 106/123/62
s 6
f 21/28/27 20/27/26 106/123/63 107/124/64
s 14
f 109/126/65 161/179/66 162/180/67 95/111/68
s 15
f 23/30/69 49/63/70 119/136/71 120/137/72
s 12
f 149/167/50 150/168/73 122/139/74 24/31/51
s 8
f 122/139/75 101/118/76 17/24/34 24/31/33
s 1
f 26/34/77 25/32/78 2/2/79 4/4/80
s 2
f 54/69/81 55/71/82 26/34/83 4/4/84
s 3
f 28/36/85 27/35/86 6/6/87 8/8/88
s 6
f 29/37/89 28/36/90 8/8/91 10/16/92
s 20
f 156/174/93 157/175/94 29/37/95 10/16/96
s off
f 74/89/97 73/90/98 75/91/99 76/92/100
s 12
f 11/17/101 32/40/102 152/170/103 153/171/104
s 8
f 2/10/105 25/33/106 32/40/107 11/17/108
s 5
f 7/13/109 34/43/110 33/41/111 5/14/112
s 9
f 35/45/113 34/44/114 7/7/115 9/15/116
s 13
f 145/163/117 146/164/118 35/45/119 9/15/120
s off
f 77/93/121 78/94/122 79/95/123 80/96/124
s 15
f 117/134/125 118/135/126 37/47/127 22/29/128
s off
f 82/97/129 81/98/130 83/99/131 84/100/132
s 11
f 10/16/133 40/50/134 155/173/135 156/174/136
s 7
f 8/8/137 41/51/138 40/50/139 10/16/140
s 4
f 42/54/141 41/52/142 8/11/143 6/12/144
s 2
f 27/35/145 43/55/146 42/53/147 6/6/148
f 19/26/149 44/56/150 104/121/151 105/122/152
f 33/42/153 44/56/150 19/26/149 5/5/154
s 5
f 33/41/111 34/43/110 46/59/22 45/57/21
s 9
f 47/61/39 46/60/38 34/44/114 35/45/113
s 13
f 146/164/118 147/165/55 47/61/54 35/45/119
s 15
f 36/46/155 37/47/127 49/63/70 48/62/156
f 118/135/126 119/136/71 49/63/70 37/47/127
f 51/65/157 50/64/158 38/48/159 39/49/160
s 11
f 154/172/46 155/173/135 40/50/134 52/66/47
s 7
f 40/50/139 41/51/138 53/67/30 52/66/29
s 4
f 54/70/19 53/68/18 41/52/142 42/54/141
s 2
f 42/53/147 43/55/146 55/71/82 54/69/81
f 103/120/60 104/121/151 44/56/150 56/72/7
f 45/58/8 56/72/7 44/56/150 33/42/153
s 13
f 36/46/161 208/226/162 209/227/163 13/19/164
f 48/62/165 207/225/166 208/226/162 36/46/161
f 206/224/167 207/225/166 48/62/165 16/22/168
s 12
f 23/30/169 205/223/170 206/224/171 16/22/172
f 120/137/173 224/242/174 205/223/170 23/30/169
f 221/239/175 222/240/176 31/39/177 15/21/178
s 11
f 51/65/179 220/238/180 221/239/181 15/21/182
f 39/49/183 219/237/184 220/238/180 51/65/179
f 218/236/185 219/237/184 39/49/183 14/20/186
s 20
f 30/38/187 217/235/188 218/236/189 14/20/190
s 33
f 98/113/191 212/230/192 213/231/193 115/132/194
s 10
f 209/227/195 210/228/196 22/29/197 13/19/198
s off
f 48/62/199 49/63/200 70/86/201 69/85/202
f 49/63/203 23/30/204 71/87/205 70/86/206
f 23/30/207 16/22/208 72/88/209 71/87/210
f 16/22/211 48/62/212 69/85/213 72/88/214
f 31/39/215 50/64/216 73/90/217 74/89/218
f 50/64/219 51/65/220 75/91/221 73/90/222
f 51/65/223 15/21/224 76/92/225 75/91/226
f 15/21/227 31/39/228 74/89/229 76/92/230
f 13/19/231 22/29/232 78/94/233 77/93/234
f 22/29/235 37/47/236 79/95/237 78/94/238
f 37/47/239 36/46/240 80/96/241 79/95/242
f 36/46/243 13/19/244 77/93/245 80/96/246
f 39/49/247 38/48/248 81/98/249 82/97/250
f 38/48/251 30/38/252 83/99/253 81/98/254
f 30/38/255 14/20/256 84/100/257 83/99/258
f 14/20/259 39/49/260 82/97/261 84/100/262
s 35
f 111/128/263 112/129/264 68/84/265 86/102/266
s 36
f 163/181/267 164/182/268 21/28/269 87/103/270
s 37
f 21/28/271 107/124/272 108/125/273 87/103/274
s 38
f 29/37/275 157/175/276 158/176/277 88/104/278
s 39
f 22/29/279 210/228/280 211/229/281 90/105/282
s 40
f 68/84/283 112/129/284 113/130/285 89/106/286
s 41
f 216/234/287 217/235/288 30/38/289 92/108/290
s 42
f 116/133/291 117/134/292 22/29/293 90/105/294
s 43
f 110/127/295 111/128/296 86/102/297 94/110/298
s 44
f 162/180/299 163/181/300 87/103/301 95/111/302
s 45
f 87/103/303 108/125/304 109/126/305 95/111/306
s 46
f 88/104/307 158/176/308 159/177/309 96/112/310
s 47
f 90/105/311 211/229/312 212/230/313 98/113/314
s 48
f 89/106/315 113/130/316 114/131/317 97/114/318
s 49
f 215/233/319 216/234/320 92/108/321 100/116/322
s 50
f 115/132/323 116/133/324 90/105/325 98/113/326
s 1
f 125/142/327 126/143/328 25/32/78 26/34/77
s 2
f 55/71/82 124/141/329 125/142/330 26/34/83
f 43/55/146 123/140/331 124/141/329 55/71/82
f 144/162/332 123/140/331 43/55/146 27/35/145
s 3
f 143/161/333 144/162/334 27/35/86 28/36/85
s 6
f 142/160/335 143/161/336 28/36/90 29/37/89
s 37
f 141/159/337 142/160/338 29/37/339 88/104/340
s 45
f 140/158/341 141/159/342 88/104/343 96/112/344
s 14
f 159/177/345 160/178/346 140/158/347 96/112/348
s 43
f 85/101/349 138/156/350 139/157/351 93/109/352
s 35
f 67/83/353 137/155/354 138/156/355 85/101/356
s 40
f 136/154/357 137/155/358 67/83/359 91/107/360
s 48
f 135/153/361 136/154/362 91/107/363 99/115/364
s 33
f 134/152/365 214/232/366 215/233/367 100/116/368
s 50
f 92/108/369 133/151/370 134/152/371 100/116/372
s 42
f 30/38/373 132/150/374 133/151/375 92/108/376
s 15
f 38/48/159 131/149/377 132/150/378 30/38/379
f 50/64/158 130/148/380 131/149/377 38/48/159
f 129/147/381 130/148/380 50/64/158 31/39/382
s 12
f 31/39/177 222/240/176 223/241/383 129/147/384
f 127/145/385 151/169/386 152/170/103 32/40/102
s 8
f 32/40/107 25/33/106 126/144/387 127/145/388
s 2
f 124/141/329 123/140/331 104/121/151 103/120/60
f 125/142/330 124/141/329 103/120/60 102/119/59
s 1
f 102/119/58 101/117/57 126/143/328 125/142/327
s 8
f 127/145/388 126/144/387 101/118/76 122/139/75
s 12
f 122/139/74 150/168/73 151/169/386 127/145/385
f 129/147/384 223/241/383 224/242/174 120/137/173
s 15
f 120/137/72 119/136/71 130/148/380 129/147/381
f 131/149/377 130/148/380 119/136/71 118/135/126
f 132/150/378 131/149/377 118/135/126 117/134/125
s 42
f 133/151/375 132/150/374 117/134/292 116/133/291
s 50
f 134/152/371 133/151/370 116/133/324 115/132/323
s 33
f 115/132/194 213/231/193 214/232/366 134/152/365
s 48
f 114/131/317 113/130/316 136/154/362 135/153/361
s 40
f 113/130/285 112/129/284 137/155/358 136/154/357
s 35
f 138/156/355 137/155/354 112/129/264 111/128/263
s 43
f 139/157/351 138/156/350 111/128/296 110/127/295
s 14
f 140/158/347 160/178/346 161/179/66 109/126/65
s 45
f 109/126/305 108/125/304 141/159/342 140/158/341
s 37
f 108/125/273 107/124/272 142/160/338 141/159/337
s 6
f 107/124/64 106/123/63 143/161/336 142/160/335
s 3
f 106/123/62 105/122/61 144/162/334 143/161/333
s 2
f 105/122/152 104/121/151 123/140/331 144/162/332
s 13
f 57/73/389 58/74/390 168/186/391 169/187/392
f 58/74/390 59/75/393 167/185/394 168/186/391
f 166/184/395 167/185/394 59/75/393 60/76/396
s 12
f 60/76/397 61/77/398 165/183/399 166/184/400
f 61/77/398 121/138/401 184/202/402 165/183/399
f 183/201/403 184/202/402 121/138/401 128/146/404
f 182/200/405 183/201/403 128/146/404 62/78/406
f 181/199/407 182/200/405 62/78/406 63/79/408
s 11
f 63/79/409 64/80/410 180/198/411 181/199/412
f 64/80/410 65/81/413 179/197/414 180/198/411
f 178/196/415 179/197/414 65/81/413 66/82/416
s 20
f 66/82/417 67/83/418 177/195/419 178/196/420
s 38
f 176/194/421 177/195/422 67/83/423 85/101/424
s 46
f 175/193/425 176/194/426 85/101/427 93/109/428
s 14
f 93/109/429 139/157/430 174/192/431 175/193/432
f 173/191/433 174/192/431 139/157/430 110/127/434
f 172/190/435 173/191/433 110/127/434 94/110/436
s 44
f 86/102/437 171/189/438 172/190/439 94/110/440
s 36
f 68/84/441 170/188/442 171/189/443 86/102/444
s 10
f 169/187/445 170/188/446 68/84/447 57/73/448
s 12
f 166/184/400 165/183/399 149/167/50 148/166/49
s 13
f 148/166/56 147/165/55 167/185/394 166/184/395
f 168/186/391 167/185/394 147/165/55 146/164/118
f 169/187/392 168/186/391 146/164/118 145/163/117
s 10
f 145/163/44 164/182/43 170/188/446 169/187/445
s 36
f 171/189/443 170/188/442 164/182/268 163/181/267
s 44
f 172/190/439 171/189/438 163/181/300 162/180/299
s 14
f 162/180/67 161/179/66 173/191/433 172/190/435
s off
f 226/243/449 225/244/450 227/245/451 228/246/452
s 14
f 175/193/432 174/192/431 160/178/346 159/177/345
s 46
f 159/177/309 158/176/308 176/194/426 175/193/425
s 38
f 158/176/277 157/175/276 177/195/422 176/194/421
s 20
f 178/196/420 177/195/419 157/175/94 156/174/93
s 11
f 156/174/136 155/173/135 179/197/414 178/196/415
f 180/198/411 179/197/414 155/173/135 154/172/46
f 181/199/412 180/198/411 154/172/46 153/171/45
s 12
f 153/171/104 152/170/103 182/200/405 181/199/407
f 152/170/103 151/169/386 183/201/403 182/200/405
f 151/169/386 150/168/73 184/202/402 183/201/403
f 165/183/399 184/202/402 150/168/73 149/167/50
f 186/204/453 185/203/454 61/77/398 60/76/397
s 13
f 60/76/396 59/75/393 187/205/455 186/204/456
f 188/206/457 187/205/455 59/75/393 58/74/390
f 189/207/458 188/206/457 58/74/390 57/73/389
s 10
f 57/73/448 68/84/447 190/208/459 189/207/460
s 39
f 191/209/461 190/208/462 68/84/463 89/106/464
s 47
f 192/210/465 191/209/466 89/106/467 97/114/468
s 33
f 193/211/469 192/210/470 97/114/471 114/131/472
f 194/212/473 193/211/469 114/131/472 135/153/474
f 195/213/475 194/212/473 135/153/474 99/115/476
s 49
f 91/107/477 196/214/478 195/213/479 99/115/480
s 41
f 67/83/481 197/215/482 196/214/483 91/107/484
s 20
f 198/216/485 197/215/486 67/83/418 66/82/417
s 11
f 66/82/416 65/81/413 199/217/487 198/216/488
f 200/218/489 199/217/487 65/81/413 64/80/410
f 201/219/490 200/218/489 64/80/410 63/79/409
s 12
f 63/79/408 62/78/406 202/220/491 201/219/492
f 203/221/493 202/220/491 62/78/406 128/146/404
f 204/222/494 203/221/493 128/146/404 121/138/401
f 185/203/454 204/222/494 121/138/401 61/77/398
f 206/224/171 205/223/170 185/203/454 186/204/453
s 13
f 186/204/456 187/205/455 207/225/166 206/224/167
f 208/226/162 207/225/166 187/205/455 188/206/457
f 209/227/163 208/226/162 188/206/457 189/207/458
s 10
f 189/207/460 190/208/459 210/228/196 209/227/195
s 39
f 211/229/281 210/228/280 190/208/462 191/209/461
s 47
f 212/230/313 211/229/312 191/209/466 192/210/465
s 33
f 213/231/193 212/230/192 192/210/470 193/211/469
s off
f 230/247/495 229/248/496 231/249/497 232/250/498
s 33
f 215/233/367 214/232/366 194/212/473 195/213/475
s 49
f 195/213/479 196/214/478 216/234/320 215/233/319
s 41
f 196/214/483 197/215/482 217/235/288 216/234/287
s 20
f 218/236/189 217/235/188 197/215/486 198/216/485
s 11
f 198/216/488 199/217/487 219/237/184 218/236/185
f 220/238/180 219/237/184 199/217/487 200/218/489
f 221/239/181 220/238/180 200/218/489 201/219/490
s 12
f 201/219/492 202/220/491 222/240/176 221/239/175
f 223/241/383 222/240/176 202/220/491 203/221/493
f 224/242/174 223/241/383 203/221/493 204/222/494
f 205/223/170 224/242/174 204/222/494 185/203/454
s off
f 161/179/499 160/178/500 225/244/501 226/243/502
f 160/178/503 174/192/504 227/245/505 225/244/506
f 174/192/507 173/191/508 228/246/509 227/245/510
f 173/191/511 161/179/512 226/243/513 228/246/514
f 214/232/515 213/231/516 229/248/517 230/247/518
f 213/231/519 193/211/520 231/249/521 229/248/522
f 193/211/523 194/212/524 232/250/525 231/249/526
f 194/212/527 214/232/528 230/247/529 232/250/530
