# This file uses centimeters as units for non-parametric coordinates.

mtllib lamp_bedroom_livingroom.mtl
g default
v 51.478438 6.138281 15.897123
v 50.582672 6.138281 15.526085
v 49.686906 6.138281 15.897123
v 49.315868 6.138281 16.792887
v 49.686906 6.138281 17.688651
v 50.582672 6.138281 18.059691
v 51.478438 6.138281 17.688651
v 51.849475 6.138281 16.792887
v 51.478438 8.239506 15.897123
v 50.582672 8.239506 15.526085
v 49.686906 8.239506 15.897123
v 49.315868 8.239506 16.792887
v 49.686906 8.239506 17.688651
v 50.582672 8.239506 18.059691
v 51.478438 8.239506 17.688651
v 51.849475 8.239506 16.792887
v 51.575291 6.217854 15.800272
v 50.582672 6.217854 15.389115
v 50.582672 8.159933 15.389115
v 51.575291 8.159933 15.800272
v 49.590052 6.217854 15.800272
v 49.590052 8.159933 15.800272
v 49.178897 6.217854 16.792887
v 49.178897 8.159933 16.792887
v 49.590052 6.217854 17.785505
v 49.590052 8.159933 17.785505
v 50.582672 6.217854 18.196664
v 50.582672 8.159933 18.196664
v 51.575291 6.217854 17.785505
v 51.575291 8.159933 17.785505
v 51.986446 6.217854 16.792887
v 51.986446 8.159933 16.792887
vt 0.500000 0.312500
vt 0.406250 0.312500
vt 0.437500 0.312500
vt 0.468750 0.312500
vt 0.500000 0.312500
vt 0.531250 0.312500
vt 0.562500 0.312500
vt 0.593750 0.312500
vt 0.500000 0.687500
vt 0.406250 0.687500
vt 0.437500 0.687500
vt 0.468750 0.687500
vt 0.500000 0.687500
vt 0.531250 0.687500
vt 0.562500 0.687500
vt 0.593750 0.687500
vt 0.375000 0.312500
vt 0.406250 0.312500
vt 0.406250 0.687500
vt 0.375000 0.687500
vt 0.437500 0.312500
vt 0.437500 0.687500
vt 0.468750 0.312500
vt 0.468750 0.687500
vt 0.500000 0.312500
vt 0.500000 0.687500
vt 0.531250 0.312500
vt 0.531250 0.687500
vt 0.562500 0.312500
vt 0.562500 0.687500
vt 0.593750 0.312500
vt 0.593750 0.687500
vt 0.625000 0.312500
vt 0.625000 0.687500
vn 0.382684 0.000000 -0.923879
vn 0.382684 0.000000 -0.923879
vn 0.382684 0.000000 -0.923879
vn 0.382684 0.000000 -0.923879
vn -0.382684 0.000000 -0.923879
vn -0.382684 0.000000 -0.923879
vn -0.382684 0.000000 -0.923879
vn -0.382684 0.000000 -0.923879
vn -0.923880 0.000000 -0.382683
vn -0.923880 0.000000 -0.382683
vn -0.923880 0.000000 -0.382683
vn -0.923880 0.000000 -0.382683
vn -0.923880 0.000000 0.382682
vn -0.923880 0.000000 0.382682
vn -0.923880 0.000000 0.382682
vn -0.923880 0.000000 0.382682
vn -0.382686 0.000000 0.923879
vn -0.382686 0.000000 0.923879
vn -0.382686 0.000000 0.923879
vn -0.382686 0.000000 0.923879
vn 0.382686 0.000000 0.923879
vn 0.382686 0.000000 0.923879
vn 0.382686 0.000000 0.923879
vn 0.382686 0.000000 0.923879
vn 0.923880 0.000000 0.382682
vn 0.923880 0.000000 0.382682
vn 0.923880 0.000000 0.382682
vn 0.923880 0.000000 0.382682
vn 0.923880 0.000000 -0.382683
vn 0.923880 0.000000 -0.382683
vn 0.923880 0.000000 -0.382683
vn 0.923880 0.000000 -0.382683
vn 0.203710 -0.846543 -0.491799
vn 0.203710 -0.846543 -0.491799
vn 0.203710 -0.846543 -0.491799
vn 0.203710 -0.846543 -0.491799
vn 0.203710 0.846543 -0.491800
vn 0.203710 0.846543 -0.491800
vn 0.203710 0.846543 -0.491800
vn 0.203710 0.846543 -0.491800
vn -0.203710 -0.846543 -0.491799
vn -0.203710 -0.846543 -0.491799
vn -0.203710 -0.846543 -0.491799
vn -0.203710 -0.846543 -0.491799
vn -0.203710 0.846543 -0.491800
vn -0.203710 0.846543 -0.491800
vn -0.203710 0.846543 -0.491800
vn -0.203710 0.846543 -0.491800
vn -0.491796 -0.846546 -0.203709
vn -0.491796 -0.846546 -0.203709
vn -0.491796 -0.846546 -0.203709
vn -0.491796 -0.846546 -0.203709
vn -0.491797 0.846545 -0.203709
vn -0.491797 0.846545 -0.203709
vn -0.491797 0.846545 -0.203709
vn -0.491797 0.846545 -0.203709
vn -0.491795 -0.846546 0.203708
vn -0.491795 -0.846546 0.203708
vn -0.491795 -0.846547 0.203708
vn -0.491795 -0.846546 0.203708
vn -0.491796 0.846546 0.203708
vn -0.491796 0.846546 0.203708
vn -0.491796 0.846546 0.203708
vn -0.491796 0.846546 0.203708
vn -0.203708 -0.846548 0.491792
vn -0.203708 -0.846548 0.491792
vn -0.203708 -0.846548 0.491792
vn -0.203708 -0.846548 0.491792
vn -0.203708 0.846548 0.491792
vn -0.203708 0.846548 0.491792
vn -0.203708 0.846548 0.491792
vn -0.203708 0.846548 0.491792
vn 0.203708 -0.846548 0.491792
vn 0.203708 -0.846548 0.491791
vn 0.203708 -0.846548 0.491792
vn 0.203708 -0.846548 0.491792
vn 0.203708 0.846548 0.491792
vn 0.203708 0.846548 0.491792
vn 0.203708 0.846548 0.491792
vn 0.203708 0.846548 0.491792
vn 0.491795 -0.846547 0.203708
vn 0.491795 -0.846546 0.203708
vn 0.491795 -0.846546 0.203708
vn 0.491795 -0.846547 0.203708
vn 0.491796 0.846546 0.203708
vn 0.491796 0.846546 0.203708
vn 0.491796 0.846546 0.203708
vn 0.491796 0.846546 0.203708
vn 0.491796 -0.846546 -0.203709
vn 0.491796 -0.846546 -0.203709
vn 0.491796 -0.846546 -0.203709
vn 0.491796 -0.846546 -0.203709
vn 0.491797 0.846545 -0.203709
vn 0.491797 0.846545 -0.203709
vn 0.491797 0.846545 -0.203709
vn 0.491797 0.846545 -0.203709
vn -0.382683 0.000000 0.923880
vn -0.382683 0.000000 0.923880
vn -0.382683 0.000000 0.923880
vn -0.382683 0.000000 0.923880
vn 0.382683 0.000000 0.923880
vn 0.382683 0.000000 0.923880
vn 0.382683 0.000000 0.923880
vn 0.382683 0.000000 0.923880
vn -0.923880 0.000000 0.382683
vn -0.923880 0.000000 0.382683
vn -0.923880 0.000000 0.382683
vn -0.923880 0.000000 0.382683
vn 0.923880 0.000000 0.382683
vn 0.923880 0.000000 0.382683
vn 0.923880 0.000000 0.382683
vn 0.923880 0.000000 0.382683
vn 0.923880 0.000000 -0.382683
vn 0.923880 0.000000 -0.382683
vn 0.923880 0.000000 -0.382683
vn 0.923880 0.000000 -0.382683
vn 0.382684 0.000000 -0.923879
vn 0.382684 0.000000 -0.923879
vn 0.382684 0.000000 -0.923879
vn 0.382684 0.000000 -0.923879
vn -0.382684 0.000000 -0.923879
vn -0.382684 0.000000 -0.923879
vn -0.382684 0.000000 -0.923879
vn -0.382684 0.000000 -0.923879
vn -0.923880 0.000000 -0.382683
vn -0.923880 0.000000 -0.382683
vn -0.923880 0.000000 -0.382683
vn -0.923880 0.000000 -0.382683
s off
g pCylinder20
usemtl initialShadingGroup
f 17/17/1 18/18/2 19/19/3 20/20/4
f 18/18/5 21/21/6 22/22/7 19/19/8
f 21/21/9 23/23/10 24/24/11 22/22/12
f 23/23/13 25/25/14 26/26/15 24/24/16
f 25/25/17 27/27/18 28/28/19 26/26/20
f 27/27/21 29/29/22 30/30/23 28/28/24
f 29/29/25 31/31/26 32/32/27 30/30/28
f 31/31/29 17/33/30 20/34/31 32/32/32
f 1/1/33 2/2/34 18/18/35 17/17/36
f 10/10/37 9/9/38 20/20/39 19/19/40
f 2/2/41 3/3/42 21/21/43 18/18/44
f 11/11/45 10/10/46 19/19/47 22/22/48
f 3/3/49 4/4/50 23/23/51 21/21/52
f 12/12/53 11/11/54 22/22/55 24/24/56
f 4/4/57 5/5/58 25/25/59 23/23/60
f 13/13/61 12/12/62 24/24/63 26/26/64
f 5/5/65 6/6/66 27/27/67 25/25/68
f 14/14/69 13/13/70 26/26/71 28/28/72
f 6/6/73 7/7/74 29/29/75 27/27/76
f 15/15/77 14/14/78 28/28/79 30/30/80
f 7/7/81 8/8/82 31/31/83 29/29/84
f 16/16/85 15/15/86 30/30/87 32/32/88
f 8/8/89 1/1/90 17/33/91 31/31/92
f 9/9/93 16/16/94 32/32/95 20/34/96
f 2/2/97 1/1/98 9/9/99 10/10/100
f 3/3/101 2/2/102 10/10/103 11/11/104
f 1/1/105 8/8/106 16/16/107 9/9/108
f 4/4/109 3/3/110 11/11/111 12/12/112
f 5/5/113 4/4/114 12/12/115 13/13/116
f 6/6/117 5/5/118 13/13/119 14/14/120
f 7/7/121 6/6/122 14/14/123 15/15/124
f 8/8/125 7/7/126 15/15/127 16/16/128
g default
v 51.379994 0.449030 16.018443
v 50.590093 0.449030 15.691257
v 49.800192 0.449030 16.018443
v 49.473005 0.449030 16.808345
v 49.800192 0.449030 17.598246
v 50.590093 0.449030 17.925434
v 51.379994 0.449030 17.598246
v 51.707181 0.449030 16.808345
v 50.689233 0.699807 16.709203
v 50.590093 0.699807 16.668139
v 50.490953 0.699807 16.709203
v 50.449886 0.699807 16.808345
v 50.490953 0.699807 16.907486
v 50.590093 0.699807 16.948554
v 50.689233 0.699807 16.907486
v 50.730300 0.699807 16.808345
v 50.590093 0.449030 16.808345
v 51.500254 0.421170 15.898183
v 50.590093 0.421170 15.521182
v 50.590093 0.641237 15.521182
v 51.500254 0.641237 15.898183
v 49.679932 0.421170 15.898183
v 49.679932 0.641237 15.898183
v 49.302930 0.421170 16.808345
v 49.302930 0.641237 16.808345
v 49.679932 0.421170 17.718504
v 49.679932 0.641237 17.718504
v 50.590093 0.421170 18.095507
v 50.590093 0.641237 18.095507
v 51.500254 0.421170 17.718504
v 51.500254 0.641237 17.718504
v 51.877256 0.421170 16.808345
v 51.877256 0.641237 16.808345
v 50.689233 6.190924 16.709203
v 50.590093 6.190924 16.668139
v 50.490953 6.190924 16.709203
v 50.449886 6.190924 16.808345
v 50.490953 6.190924 16.907486
v 50.590093 6.190924 16.948554
v 50.689233 6.190924 16.907486
v 50.730300 6.190924 16.808345
v 51.203210 6.837530 16.195212
v 50.590093 6.837530 15.941255
v 50.590093 6.837530 16.808336
v 49.976976 6.837530 16.195212
v 49.723005 6.837530 16.808336
v 49.976976 6.837530 17.421461
v 50.590093 6.837530 17.675438
v 51.203210 6.837530 17.421461
v 51.457181 6.837530 16.808336
vt 0.610485 0.045765
vt 0.500000 0.000000
vt 0.389515 0.045765
vt 0.343750 0.156250
vt 0.389515 0.266735
vt 0.500000 0.312500
vt 0.610485 0.266735
vt 0.656250 0.156250
vt 0.375000 0.312500
vt 0.406250 0.312500
vt 0.437500 0.312500
vt 0.468750 0.312500
vt 0.500000 0.312500
vt 0.531250 0.312500
vt 0.562500 0.312500
vt 0.593750 0.312500
vt 0.625000 0.312500
vt 0.375000 0.687500
vt 0.406250 0.687500
vt 0.437500 0.687500
vt 0.468750 0.687500
vt 0.500000 0.687500
vt 0.531250 0.687500
vt 0.562500 0.687500
vt 0.593750 0.687500
vt 0.625000 0.687500
vt 0.610485 0.733265
vt 0.500000 0.687500
vt 0.389515 0.733265
vt 0.343750 0.843750
vt 0.389515 0.954235
vt 0.500000 1.000000
vt 0.610485 0.954235
vt 0.656250 0.843750
vt 0.500000 0.156250
vt 0.500000 0.843750
vt 0.375000 0.312500
vt 0.406250 0.312500
vt 0.406250 0.687500
vt 0.375000 0.687500
vt 0.437500 0.312500
vt 0.437500 0.687500
vt 0.468750 0.312500
vt 0.468750 0.687500
vt 0.500000 0.312500
vt 0.500000 0.687500
vt 0.531250 0.312500
vt 0.531250 0.687500
vt 0.562500 0.312500
vt 0.562500 0.687500
vt 0.593750 0.312500
vt 0.593750 0.687500
vt 0.625000 0.312500
vt 0.625000 0.687500
vt 0.610485 0.954235
vt 0.500000 1.000000
vt 0.389515 0.954235
vt 0.343750 0.843750
vt 0.389515 0.733265
vt 0.500000 0.687500
vt 0.610485 0.733265
vt 0.656250 0.843750
vt 0.610485 0.954235
vt 0.500000 1.000000
vt 0.389515 0.954235
vt 0.343750 0.843750
vt 0.389515 0.733265
vt 0.500000 0.687500
vt 0.610485 0.733265
vt 0.656250 0.843750
vn 0.382683 0.000000 -0.923880
vn 0.382683 0.000000 -0.923880
vn 0.382683 0.000000 -0.923880
vn 0.382683 0.000000 -0.923880
vn -0.382683 0.000000 -0.923880
vn -0.382683 0.000000 -0.923880
vn -0.382683 0.000000 -0.923880
vn -0.382683 0.000000 -0.923880
vn -0.923879 0.000000 -0.382684
vn -0.923879 0.000000 -0.382684
vn -0.923879 0.000000 -0.382684
vn -0.923879 0.000000 -0.382684
vn -0.923879 0.000000 0.382685
vn -0.923879 0.000000 0.382685
vn -0.923879 0.000000 0.382685
vn -0.923879 0.000000 0.382685
vn -0.382685 0.000000 0.923879
vn -0.382685 0.000000 0.923879
vn -0.382685 0.000000 0.923879
vn -0.382685 0.000000 0.923879
vn 0.382685 0.000000 0.923879
vn 0.382685 0.000000 0.923879
vn 0.382685 0.000000 0.923879
vn 0.382685 0.000000 0.923879
vn 0.923879 0.000000 0.382685
vn 0.923879 0.000000 0.382685
vn 0.923879 0.000000 0.382685
vn 0.923879 0.000000 0.382685
vn 0.923879 0.000000 -0.382684
vn 0.923879 0.000000 -0.382684
vn 0.923879 0.000000 -0.382684
vn 0.923879 0.000000 -0.382684
vn 0.000000 -1.000000 0.000000
vn 0.000000 -1.000000 0.000000
vn 0.000000 -1.000000 0.000000
vn 0.000000 -1.000000 0.000000
vn 0.000000 -1.000000 0.000000
vn 0.000000 -1.000000 0.000000
vn 0.000000 -1.000000 0.000000
vn 0.000000 -1.000000 0.000000
vn 0.000000 -1.000000 0.000000
vn 0.000000 1.000000 0.000000
vn 0.000000 1.000000 0.000000
vn 0.000000 1.000000 0.000000
vn 0.000000 1.000000 -0.000001
vn 0.000000 1.000000 -0.000001
vn 0.000000 1.000000 0.000000
vn 0.000000 1.000000 0.000000
vn 0.000000 1.000000 0.000001
vn 0.000000 1.000000 0.000001
vn -0.066811 -0.984642 0.161296
vn -0.066811 -0.984642 0.161296
vn -0.066811 -0.984642 0.161296
vn -0.066811 -0.984642 0.161296
vn 0.021120 0.998476 -0.050988
vn 0.021120 0.998476 -0.050988
vn 0.021120 0.998476 -0.050988
vn 0.021120 0.998476 -0.050988
vn 0.066811 -0.984642 0.161296
vn 0.066811 -0.984642 0.161296
vn 0.066811 -0.984642 0.161296
vn 0.066811 -0.984642 0.161296
vn -0.021120 0.998476 -0.050988
vn -0.021120 0.998476 -0.050988
vn -0.021120 0.998476 -0.050988
vn -0.021120 0.998476 -0.050988
vn 0.161296 -0.984642 0.066811
vn 0.161296 -0.984642 0.066811
vn 0.161296 -0.984642 0.066811
vn 0.161296 -0.984642 0.066811
vn -0.050988 0.998476 -0.021120
vn -0.050988 0.998476 -0.021120
vn -0.050988 0.998476 -0.021120
vn -0.050988 0.998476 -0.021120
vn 0.161297 -0.984642 -0.066811
vn 0.161297 -0.984642 -0.066811
vn 0.161297 -0.984642 -0.066811
vn 0.161297 -0.984642 -0.066811
vn -0.050988 0.998476 0.021120
vn -0.050988 0.998476 0.021120
vn -0.050988 0.998476 0.021120
vn -0.050988 0.998476 0.021120
vn 0.066812 -0.984642 -0.161298
vn 0.066812 -0.984642 -0.161298
vn 0.066812 -0.984642 -0.161298
vn 0.066812 -0.984642 -0.161298
vn -0.021120 0.998476 0.050988
vn -0.021120 0.998476 0.050988
vn -0.021120 0.998476 0.050988
vn -0.021120 0.998476 0.050988
vn -0.066812 -0.984642 -0.161298
vn -0.066812 -0.984642 -0.161298
vn -0.066812 -0.984642 -0.161298
vn -0.066812 -0.984642 -0.161298
vn 0.021120 0.998476 0.050988
vn 0.021120 0.998476 0.050988
vn 0.021120 0.998476 0.050988
vn 0.021120 0.998476 0.050988
vn -0.161297 -0.984642 -0.066811
vn -0.161297 -0.984642 -0.066811
vn -0.161297 -0.984642 -0.066811
vn -0.161297 -0.984642 -0.066811
vn 0.050988 0.998476 0.021120
vn 0.050988 0.998476 0.021120
vn 0.050988 0.998476 0.021120
vn 0.050988 0.998476 0.021120
vn -0.161296 -0.984642 0.066811
vn -0.161296 -0.984642 0.066811
vn -0.161296 -0.984642 0.066811
vn -0.161296 -0.984642 0.066811
vn 0.050988 0.998476 -0.021120
vn 0.050988 0.998476 -0.021120
vn 0.050988 0.998476 -0.021120
vn 0.050988 0.998476 -0.021120
vn 0.382677 0.000000 -0.923882
vn 0.382677 0.000000 -0.923882
vn 0.382677 0.000000 -0.923882
vn 0.382677 0.000000 -0.923882
vn -0.382677 0.000000 -0.923882
vn -0.382677 0.000000 -0.923882
vn -0.382677 0.000000 -0.923882
vn -0.382677 0.000000 -0.923882
vn -0.923876 0.000000 -0.382691
vn -0.923876 0.000000 -0.382691
vn -0.923876 0.000000 -0.382691
vn -0.923876 0.000000 -0.382691
vn -0.923876 0.000000 0.382691
vn -0.923876 0.000000 0.382691
vn -0.923876 0.000000 0.382691
vn -0.923876 0.000000 0.382691
vn -0.382703 0.000000 0.923872
vn -0.382703 0.000000 0.923872
vn -0.382703 0.000000 0.923872
vn -0.382703 0.000000 0.923872
vn 0.382703 0.000000 0.923872
vn 0.382703 0.000000 0.923872
vn 0.382703 0.000000 0.923872
vn 0.382703 0.000000 0.923872
vn 0.923876 0.000000 0.382691
vn 0.923876 0.000000 0.382691
vn 0.923876 0.000000 0.382691
vn 0.923876 0.000000 0.382691
vn 0.923876 0.000000 -0.382691
vn 0.923876 0.000000 -0.382691
vn 0.923876 0.000000 -0.382691
vn 0.923876 0.000000 -0.382691
vn 0.265425 -0.720361 -0.640804
vn 0.265425 -0.720361 -0.640804
vn 0.265425 -0.720361 -0.640804
vn 0.265425 -0.720361 -0.640804
vn -0.265425 -0.720361 -0.640804
vn -0.265425 -0.720361 -0.640804
vn -0.265425 -0.720361 -0.640804
vn -0.265425 -0.720361 -0.640804
vn -0.640801 -0.720359 -0.265435
vn -0.640801 -0.720359 -0.265435
vn -0.640802 -0.720359 -0.265435
vn -0.640802 -0.720359 -0.265435
vn -0.640805 -0.720356 0.265436
vn -0.640805 -0.720356 0.265436
vn -0.640805 -0.720356 0.265436
vn -0.640805 -0.720356 0.265436
vn -0.265444 -0.720357 0.640800
vn -0.265444 -0.720357 0.640800
vn -0.265444 -0.720357 0.640800
vn -0.265444 -0.720357 0.640800
vn 0.265444 -0.720357 0.640800
vn 0.265444 -0.720357 0.640800
vn 0.265444 -0.720357 0.640800
vn 0.265444 -0.720357 0.640800
vn 0.640805 -0.720356 0.265436
vn 0.640805 -0.720356 0.265436
vn 0.640805 -0.720356 0.265436
vn 0.640805 -0.720356 0.265436
vn 0.640802 -0.720359 -0.265434
vn 0.640802 -0.720360 -0.265434
vn 0.640802 -0.720360 -0.265434
vn 0.640802 -0.720360 -0.265434
s off
g pCylinder21
usemtl initialShadingGroup
f 50/71/129 51/72/130 52/73/131 53/74/132
f 51/72/133 54/75/134 55/76/135 52/73/136
f 54/75/137 56/77/138 57/78/139 55/76/140
f 56/77/141 58/79/142 59/80/143 57/78/144
f 58/79/145 60/81/146 61/82/147 59/80/148
f 60/81/149 62/83/150 63/84/151 61/82/152
f 62/83/153 64/85/154 65/86/155 63/84/156
f 64/85/157 50/87/158 53/88/159 65/86/160
s 1
f 34/36/161 33/35/162 49/69/163
f 35/37/164 34/36/161 49/69/163
f 36/38/165 35/37/164 49/69/163
f 37/39/166 36/38/165 49/69/163
f 38/40/167 37/39/166 49/69/163
f 39/41/168 38/40/167 49/69/163
f 40/42/169 39/41/168 49/69/163
f 33/35/162 40/42/169 49/69/163
s 2
f 74/97/170 75/98/171 76/70/172
f 75/98/171 77/99/173 76/70/172
f 77/99/173 78/100/174 76/70/172
f 78/100/174 79/101/175 76/70/172
f 79/101/175 80/102/176 76/70/172
f 80/102/176 81/103/177 76/70/172
f 81/103/177 82/104/178 76/70/172
f 82/104/178 74/97/170 76/70/172
s off
f 33/43/179 34/44/180 51/72/181 50/71/182
f 42/53/183 41/52/184 53/74/185 52/73/186
f 34/44/187 35/45/188 54/75/189 51/72/190
f 43/54/191 42/53/192 52/73/193 55/76/194
f 35/45/195 36/46/196 56/77/197 54/75/198
f 44/55/199 43/54/200 55/76/201 57/78/202
f 36/46/203 37/47/204 58/79/205 56/77/206
f 45/56/207 44/55/208 57/78/209 59/80/210
f 37/47/211 38/48/212 60/81/213 58/79/214
f 46/57/215 45/56/216 59/80/217 61/82/218
f 38/48/219 39/49/220 62/83/221 60/81/222
f 47/58/223 46/57/224 61/82/225 63/84/226
f 39/49/227 40/50/228 64/85/229 62/83/230
f 48/59/231 47/58/232 63/84/233 65/86/234
f 40/50/235 33/51/236 50/87/237 64/85/238
f 41/60/239 48/59/240 65/86/241 53/88/242
f 41/67/243 42/66/244 67/90/245 66/89/246
f 42/66/247 43/65/248 68/91/249 67/90/250
f 43/65/251 44/64/252 69/92/253 68/91/254
f 44/64/255 45/63/256 70/93/257 69/92/258
f 45/63/259 46/62/260 71/94/261 70/93/262
f 46/62/263 47/61/264 72/95/265 71/94/266
f 47/61/267 48/68/268 73/96/269 72/95/270
f 48/68/271 41/67/272 66/89/273 73/96/274
f 66/89/275 67/90/276 75/98/277 74/97/278
f 67/90/279 68/91/280 77/99/281 75/98/282
f 68/91/283 69/92/284 78/100/285 77/99/286
f 69/92/287 70/93/288 79/101/289 78/100/290
f 70/93/291 71/94/292 80/102/293 79/101/294
f 71/94/295 72/95/296 81/103/297 80/102/298
f 72/95/299 73/96/300 82/104/301 81/103/302
f 73/96/303 66/89/304 74/97/305 82/104/306
