# This file uses centimeters as units for non-parametric coordinates.

mtllib tvdesk_livingroom.mtl
g default
v 48.918814 2.298282 -34.369284
v 48.918814 2.476917 -34.369284
v 49.917551 2.298282 -33.499177
v 49.917551 2.476917 -33.499177
v 49.290000 2.298282 -32.778855
v 49.260667 2.342937 -32.745185
v 48.291263 2.298282 -33.648962
v 48.261930 2.342937 -33.615292
v 49.290000 2.476917 -32.778855
v 49.260667 2.432262 -32.745185
v 48.291263 2.476917 -33.648962
v 48.261930 2.432262 -33.615292
v 48.219582 2.329873 -33.604298
v 49.255578 2.329873 -32.701730
v 49.255578 2.445326 -32.701730
v 48.219582 2.445326 -33.604298
v 48.251034 2.503042 -33.640398
v 49.287029 2.503042 -32.737831
v 49.959899 2.503042 -33.510172
v 48.923903 2.503042 -34.412740
v 49.959899 2.272157 -33.510172
v 49.287029 2.272157 -32.737831
v 48.251034 2.272157 -33.640398
v 48.923903 2.272157 -34.412740
vt 0.625000 0.500000
vt 0.375000 0.750000
vt 0.625000 0.750000
vt 0.625000 0.988836
vt 0.562506 1.000000
vt 0.437494 1.000000
vt 0.375000 0.988835
vt 0.375000 0.261164
vt 0.625000 0.261165
vt 0.375000 0.500000
vt 0.125000 0.000000
vt 0.363836 -0.000000
vt 0.125000 0.250000
vt 0.437494 0.250000
vt 0.562507 -0.000000
vt 0.636164 0.250000
vt 0.875000 0.000000
vt 0.875000 0.250000
vt 0.437493 -0.000000
vt 0.363836 0.250000
vt 0.636164 -0.000000
vt 0.562506 0.250000
vt 0.437493 -0.000000
vt 0.562507 -0.000000
vt 0.562506 0.250000
vt 0.437494 0.250000
vt 0.636164 -0.000000
vt 0.875000 0.000000
vt 0.875000 0.250000
vt 0.636164 0.250000
vt 0.125000 0.000000
vt 0.363836 -0.000000
vt 0.363836 0.250000
vt 0.125000 0.250000
vn -0.656884 0.000000 0.753992
vn -0.656884 0.000000 0.753992
vn -0.656884 0.000000 0.753992
vn -0.656884 0.000000 0.753992
vn 0.656884 0.000000 -0.753992
vn 0.656884 0.000000 -0.753992
vn 0.656884 0.000000 -0.753992
vn 0.656884 0.000000 -0.753992
vn 0.753992 0.000000 0.656884
vn 0.753992 0.000000 0.656884
vn 0.753992 0.000000 0.656884
vn 0.753992 0.000000 0.656884
vn 0.753992 0.000000 0.656884
vn 0.753992 0.000000 0.656884
vn 0.000000 1.000000 0.000000
vn 0.000000 1.000000 0.000000
vn 0.000000 1.000000 0.000000
vn 0.000000 1.000000 0.000000
vn -0.000000 -1.000000 0.000000
vn -0.000000 -1.000000 0.000000
vn -0.000000 -1.000000 0.000000
vn -0.000000 -1.000000 0.000000
vn -0.753992 0.000000 -0.656884
vn -0.753992 0.000000 -0.656884
vn -0.753992 0.000000 -0.656884
vn -0.753992 0.000000 -0.656884
vn -0.753992 0.000000 -0.656884
vn -0.753992 0.000000 -0.656884
vn -0.505567 -0.638472 0.580306
vn -0.505567 -0.638472 0.580306
vn -0.505567 -0.638472 0.580306
vn -0.505567 -0.638472 0.580306
vn -0.505567 0.638472 0.580306
vn -0.505567 0.638472 0.580306
vn -0.505567 0.638472 0.580306
vn -0.505567 0.638472 0.580306
vn 0.993212 0.000000 0.116319
vn 0.993212 0.000000 0.116319
vn 0.993212 0.000000 0.116319
vn 0.993212 0.000000 0.116319
vn -0.251301 0.000000 -0.967909
vn -0.251301 0.000000 -0.967909
vn -0.251301 0.000000 -0.967909
vn -0.251301 0.000000 -0.967909
vn 0.547808 -0.687120 0.477255
vn 0.547808 -0.687120 0.477255
vn 0.547808 -0.687120 0.477255
vn 0.547808 -0.687120 0.477255
vn 0.385059 -0.810174 -0.441983
vn 0.385059 -0.810174 -0.441983
vn 0.385059 -0.810174 -0.441983
vn 0.385059 -0.810174 -0.441983
vn -0.547808 -0.687120 -0.477255
vn -0.547808 -0.687120 -0.477255
vn -0.547808 -0.687120 -0.477255
vn -0.547808 -0.687120 -0.477255
vn 0.547808 0.687120 0.477255
vn 0.547808 0.687120 0.477255
vn 0.547808 0.687120 0.477255
vn 0.547808 0.687120 0.477255
vn -0.547808 0.687120 -0.477255
vn -0.547808 0.687120 -0.477255
vn -0.547808 0.687120 -0.477255
vn -0.547808 0.687120 -0.477255
vn 0.385059 0.810174 -0.441983
vn 0.385059 0.810174 -0.441983
vn 0.385059 0.810174 -0.441983
vn 0.385059 0.810174 -0.441983
vn 0.897745 0.360649 0.252957
vn 0.897745 0.360649 0.252957
vn 0.897745 0.360649 0.252957
vn 0.897745 0.360649 0.252957
vn -0.373570 0.360649 -0.854622
vn -0.373569 0.360649 -0.854622
vn -0.373570 0.360649 -0.854622
vn -0.373570 0.360649 -0.854622
vn 0.897745 -0.360649 0.252957
vn 0.897745 -0.360649 0.252957
vn 0.897745 -0.360649 0.252957
vn 0.897745 -0.360649 0.252957
vn -0.373569 -0.360649 -0.854622
vn -0.373569 -0.360649 -0.854622
vn -0.373569 -0.360649 -0.854622
vn -0.373569 -0.360649 -0.854622
s off
g pCube65
usemtl initialShadingGroup
f 13/26/1 14/23/2 15/24/3 16/25/4
f 1/10/5 2/1/6 4/3/7 3/2/8
f 3/2/9 4/3/10 9/4/11 10/5/12 6/6/13 5/7/14
f 17/30/15 18/27/16 19/28/17 20/29/18
f 21/31/19 22/32/20 23/33/21 24/34/22
f 7/8/23 8/14/24 12/22/25 11/9/26 2/1/27 1/10/28
f 22/32/29 14/23/30 13/26/31 23/33/32
f 15/24/33 18/27/34 17/30/35 16/25/36
f 6/19/37 10/15/38 15/24/39 14/23/40
f 12/22/41 8/14/42 13/26/43 16/25/44
f 9/21/45 4/17/46 19/28/47 18/27/48
f 4/17/49 2/18/50 20/29/51 19/28/52
f 2/18/53 11/16/54 17/30/55 20/29/56
f 3/11/57 5/12/58 22/32/59 21/31/60
f 7/20/61 1/13/62 24/34/63 23/33/64
f 1/13/65 3/11/66 21/31/67 24/34/68
f 5/12/69 6/19/70 14/23/71 22/32/72
f 8/14/73 7/20/74 23/33/75 13/26/76
f 10/15/77 9/21/78 18/27/79 15/24/80
f 11/16/81 12/22/82 16/25/83 17/30/84
g default
v 53.475332 0.849813 -33.100305
v 53.633989 0.849813 -33.100305
v 53.475332 1.757505 -33.100305
v 53.633989 1.757505 -33.100305
v 53.475332 1.757505 -33.719110
v 53.633989 1.757505 -33.719110
v 53.475332 0.849813 -33.719110
v 53.633989 0.849813 -33.719110
v 53.475332 1.645148 -33.100305
v 53.475332 1.645148 -33.719110
v 53.633989 1.645148 -33.719110
v 53.633989 1.645148 -33.100305
v 53.326940 0.849813 -33.719110
v 53.326940 0.849813 -33.100305
v 53.326940 1.645148 -33.100305
v 53.326940 1.645148 -33.719110
v 52.799687 0.849813 -33.719110
v 52.799687 0.849813 -33.100305
v 52.799687 1.645148 -33.100305
v 52.799687 1.645148 -33.719110
v 53.326940 1.700192 -33.100305
v 53.326940 1.700192 -33.719110
v 52.799687 1.700192 -33.719110
v 52.799687 1.700192 -33.100305
v 52.707387 0.849813 -33.719110
v 52.707387 0.849813 -33.100305
v 52.707387 1.645148 -33.100305
v 52.707387 1.645148 -33.719110
v 53.475332 1.451243 -33.100305
v 53.326940 1.451243 -33.100305
v 52.799687 1.451243 -33.100305
v 52.707387 1.451243 -33.100305
v 52.707387 1.451243 -33.719110
v 52.799687 1.451243 -33.719110
v 53.326940 1.451243 -33.719110
v 53.475332 1.451243 -33.719110
v 53.633989 1.451243 -33.719110
v 53.633989 1.451243 -33.100305
v 52.571108 0.849813 -33.719110
v 52.571108 0.849813 -33.100305
v 52.571108 1.451243 -33.100305
v 52.571108 1.451243 -33.719110
v 52.385913 0.849813 -33.719110
v 52.385913 0.849813 -33.100305
v 52.385913 1.451243 -33.100305
v 52.385913 1.451243 -33.719110
v 52.571108 1.685663 -33.100305
v 52.571108 1.685663 -33.719110
v 52.385913 1.685663 -33.719110
v 52.385913 1.685663 -33.100305
v 53.475332 0.849813 -33.047203
v 53.633989 0.849813 -33.047203
v 53.633989 1.451243 -33.047203
v 53.475332 1.451243 -33.047203
v 53.633989 1.645148 -33.047203
v 53.475332 1.645148 -33.047203
v 53.633989 1.757505 -33.047203
v 53.475332 1.757505 -33.047203
v 53.326940 0.849813 -33.042463
v 53.326940 1.451243 -33.042463
v 52.799687 1.451243 -33.042463
v 52.799687 0.849813 -33.042463
v 53.326940 1.645148 -33.042463
v 52.799687 1.645148 -33.042463
v 53.326940 1.700192 -33.042463
v 52.799687 1.700192 -33.042463
v 52.571108 0.849813 -33.051564
v 52.571108 1.451243 -33.051564
v 52.385913 1.451243 -33.051564
v 52.385913 0.849813 -33.051564
v 52.571108 1.685663 -33.051564
v 52.385913 1.685663 -33.051564
vt 0.375000 0.000000
vt 0.625000 0.000000
vt 0.375000 0.250000
vt 0.625000 0.250000
vt 0.375000 0.500000
vt 0.625000 0.500000
vt 0.375000 0.750000
vt 0.625000 0.750000
vt 0.375000 1.000000
vt 0.625000 1.000000
vt 0.875000 0.000000
vt 0.875000 0.250000
vt 0.125000 0.000000
vt 0.125000 0.250000
vt 0.375000 0.219054
vt 0.125000 0.219054
vt 0.375000 0.530946
vt 0.625000 0.530946
vt 0.875000 0.219054
vt 0.625000 0.219054
vt 0.125000 0.000000
vt 0.375000 0.000000
vt 0.375000 0.219054
vt 0.125000 0.219054
vt 0.125000 0.000000
vt 0.375000 0.000000
vt 0.375000 0.219054
vt 0.125000 0.219054
vt 0.375000 0.219054
vt 0.125000 0.219054
vt 0.125000 0.219054
vt 0.375000 0.219054
vt 0.125000 0.000000
vt 0.375000 0.000000
vt 0.375000 0.219054
vt 0.125000 0.219054
vt 0.375000 0.165648
vt 0.375000 0.165648
vt 0.375000 0.165648
vt 0.375000 0.165648
vt 0.125000 0.165648
vt 0.125000 0.165648
vt 0.125000 0.165648
vt 0.125000 0.165648
vt 0.375000 0.584352
vt 0.625000 0.584352
vt 0.875000 0.165648
vt 0.625000 0.165648
vt 0.125000 0.000000
vt 0.375000 0.000000
vt 0.375000 0.165648
vt 0.125000 0.165648
vt 0.125000 0.000000
vt 0.375000 0.000000
vt 0.375000 0.165648
vt 0.125000 0.165648
vt 0.375000 0.165648
vt 0.125000 0.165648
vt 0.125000 0.165648
vt 0.375000 0.165648
vt 0.375000 0.000000
vt 0.625000 0.000000
vt 0.625000 0.165648
vt 0.375000 0.165648
vt 0.625000 0.219054
vt 0.625000 0.250000
vt 0.375000 0.250000
vt 0.375000 0.219054
vt 0.375000 0.000000
vt 0.375000 0.165648
vt 0.375000 0.165648
vt 0.375000 0.000000
vt 0.375000 0.219054
vt 0.375000 0.219054
vt 0.375000 0.219054
vt 0.375000 0.219054
vt 0.375000 0.000000
vt 0.375000 0.165648
vt 0.375000 0.165648
vt 0.375000 0.000000
vt 0.375000 0.165648
vt 0.375000 0.165648
vn 0.000000 0.000000 1.000000
vn 0.000000 0.000000 1.000000
vn 0.000000 0.000000 1.000000
vn 0.000000 0.000000 1.000000
vn 0.000000 1.000000 0.000000
vn 0.000000 1.000000 0.000000
vn 0.000000 1.000000 0.000000
vn 0.000000 1.000000 0.000000
vn 0.000000 0.000000 -1.000000
vn 0.000000 0.000000 -1.000000
vn 0.000000 0.000000 -1.000000
vn 0.000000 0.000000 -1.000000
vn 0.000000 -1.000000 0.000000
vn 0.000000 -1.000000 0.000000
vn 0.000000 -1.000000 0.000000
vn 0.000000 -1.000000 0.000000
vn 1.000000 0.000000 0.000000
vn 1.000000 0.000000 0.000000
vn 1.000000 0.000000 0.000000
vn 1.000000 0.000000 0.000000
vn -1.000000 0.000000 0.000000
vn -1.000000 0.000000 0.000000
vn -1.000000 0.000000 0.000000
vn -1.000000 0.000000 0.000000
vn -1.000000 0.000000 0.000000
vn -1.000000 0.000000 0.000000
vn -1.000000 0.000000 0.000000
vn -1.000000 0.000000 0.000000
vn 0.000000 0.000000 -1.000000
vn 0.000000 0.000000 -1.000000
vn 0.000000 0.000000 -1.000000
vn 0.000000 0.000000 -1.000000
vn 1.000000 0.000000 0.000000
vn 1.000000 0.000000 0.000000
vn 1.000000 0.000000 0.000000
vn 1.000000 0.000000 0.000000
vn 0.000000 0.000000 1.000000
vn 0.000000 0.000000 1.000000
vn 0.000000 0.000000 1.000000
vn 0.000000 0.000000 1.000000
vn 0.000000 -1.000000 0.000000
vn 0.000000 -1.000000 0.000000
vn 0.000000 -1.000000 0.000000
vn 0.000000 -1.000000 0.000000
vn 0.000000 0.000000 1.000000
vn 0.000000 0.000000 1.000000
vn 0.000000 0.000000 1.000000
vn 0.000000 0.000000 1.000000
vn 0.000000 1.000000 0.000000
vn 0.000000 1.000000 0.000000
vn 0.000000 1.000000 0.000000
vn 0.000000 1.000000 0.000000
vn 0.000000 0.000000 -1.000000
vn 0.000000 0.000000 -1.000000
vn 0.000000 0.000000 -1.000000
vn 0.000000 0.000000 -1.000000
vn 0.000000 -1.000000 0.000000
vn 0.000000 -1.000000 0.000000
vn 0.000000 -1.000000 0.000000
vn 0.000000 -1.000000 0.000000
vn 0.000000 0.000000 1.000000
vn 0.000000 0.000000 1.000000
vn 0.000000 0.000000 1.000000
vn 0.000000 0.000000 1.000000
vn 0.000000 1.000000 0.000000
vn 0.000000 1.000000 0.000000
vn 0.000000 1.000000 0.000000
vn 0.000000 1.000000 0.000000
vn 0.000000 0.000000 -1.000000
vn 0.000000 0.000000 -1.000000
vn 0.000000 0.000000 -1.000000
vn 0.000000 0.000000 -1.000000
vn 1.000000 0.000000 0.000000
vn 1.000000 0.000000 0.000000
vn 1.000000 0.000000 0.000000
vn 1.000000 0.000000 0.000000
vn 0.000000 0.000000 -1.000000
vn 0.000000 0.000000 -1.000000
vn 0.000000 0.000000 -1.000000
vn 0.000000 0.000000 -1.000000
vn -1.000000 0.000000 0.000000
vn -1.000000 0.000000 0.000000
vn -1.000000 0.000000 0.000000
vn -1.000000 0.000000 0.000000
vn 0.000000 0.000000 1.000000
vn 0.000000 0.000000 1.000000
vn 0.000000 0.000000 1.000000
vn 0.000000 0.000000 1.000000
vn 0.000000 -1.000000 0.000000
vn 0.000000 -1.000000 0.000000
vn 0.000000 -1.000000 0.000000
vn 0.000000 -1.000000 0.000000
vn 0.000000 0.000000 1.000000
vn 0.000000 0.000000 1.000000
vn 0.000000 0.000000 1.000000
vn 0.000000 0.000000 1.000000
vn 0.000000 1.000000 0.000000
vn 0.000000 1.000000 0.000000
vn 0.000000 1.000000 0.000000
vn 0.000000 1.000000 0.000000
vn 0.000000 0.000000 -1.000000
vn 0.000000 0.000000 -1.000000
vn 0.000000 0.000000 -1.000000
vn 0.000000 0.000000 -1.000000
vn 0.000000 0.000000 1.000000
vn 0.000000 0.000000 1.000000
vn 0.000000 0.000000 1.000000
vn 0.000000 0.000000 1.000000
vn 0.000000 0.000000 1.000000
vn 0.000000 0.000000 1.000000
vn -1.000000 0.000000 0.000000
vn -1.000000 0.000000 0.000000
vn -1.000000 0.000000 0.000000
vn -1.000000 0.000000 0.000000
vn 0.000000 0.000000 -1.000000
vn 0.000000 0.000000 -1.000000
vn 0.000000 0.000000 -1.000000
vn 0.000000 0.000000 -1.000000
vn 0.000000 0.000000 -1.000000
vn 0.000000 0.000000 -1.000000
vn 0.000000 -1.000000 0.000000
vn 0.000000 -1.000000 0.000000
vn 0.000000 -1.000000 0.000000
vn 0.000000 -1.000000 0.000000
vn 0.000000 0.000000 1.000000
vn 0.000000 0.000000 1.000000
vn 0.000000 0.000000 1.000000
vn 0.000000 0.000000 1.000000
vn 0.000000 1.000000 0.000000
vn 0.000000 1.000000 0.000000
vn 0.000000 1.000000 0.000000
vn 0.000000 1.000000 0.000000
vn 0.000000 0.000000 -1.000000
vn 0.000000 0.000000 -1.000000
vn 0.000000 0.000000 -1.000000
vn 0.000000 0.000000 -1.000000
vn 0.000000 -1.000000 0.000000
vn 0.000000 -1.000000 0.000000
vn 0.000000 -1.000000 0.000000
vn 0.000000 -1.000000 0.000000
vn 0.000000 0.000000 1.000000
vn 0.000000 0.000000 1.000000
vn 0.000000 0.000000 1.000000
vn 0.000000 0.000000 1.000000
vn 0.000000 1.000000 0.000000
vn 0.000000 1.000000 0.000000
vn 0.000000 1.000000 0.000000
vn 0.000000 1.000000 0.000000
vn 0.000000 0.000000 -1.000000
vn 0.000000 0.000000 -1.000000
vn 0.000000 0.000000 -1.000000
vn 0.000000 0.000000 -1.000000
vn 1.000000 0.000000 0.000000
vn 1.000000 0.000000 0.000000
vn 1.000000 0.000000 0.000000
vn 1.000000 0.000000 0.000000
vn 0.000000 0.000000 -1.000000
vn 0.000000 0.000000 -1.000000
vn 0.000000 0.000000 -1.000000
vn 0.000000 0.000000 -1.000000
vn -1.000000 0.000000 0.000000
vn -1.000000 0.000000 0.000000
vn -1.000000 0.000000 0.000000
vn -1.000000 0.000000 0.000000
vn 0.000000 0.000000 1.000000
vn 0.000000 0.000000 1.000000
vn 0.000000 0.000000 1.000000
vn 0.000000 0.000000 1.000000
vn 0.000000 -1.000000 0.000000
vn 0.000000 -1.000000 0.000000
vn 0.000000 -1.000000 0.000000
vn 0.000000 -1.000000 0.000000
vn 1.000000 0.000000 0.000000
vn 1.000000 0.000000 0.000000
vn 1.000000 0.000000 0.000000
vn 1.000000 0.000000 0.000000
vn -1.000000 0.000000 0.000000
vn -1.000000 0.000000 0.000000
vn -1.000000 0.000000 0.000000
vn -1.000000 0.000000 0.000000
vn 1.000000 0.000000 0.000000
vn 1.000000 0.000000 0.000000
vn 1.000000 0.000000 0.000000
vn 1.000000 0.000000 0.000000
vn 0.000000 1.000000 0.000000
vn 0.000000 1.000000 0.000000
vn 0.000000 1.000000 0.000000
vn 0.000000 1.000000 0.000000
vn -1.000000 0.000000 0.000000
vn -1.000000 0.000000 0.000000
vn -1.000000 0.000000 0.000000
vn -1.000000 0.000000 0.000000
vn 1.000000 0.000000 0.000000
vn 1.000000 0.000000 0.000000
vn 1.000000 0.000000 0.000000
vn 1.000000 0.000000 0.000000
vn -1.000000 0.000000 0.000000
vn -1.000000 0.000000 0.000000
vn -1.000000 0.000000 0.000000
vn -1.000000 0.000000 0.000000
vn 1.000000 0.000000 0.000000
vn 1.000000 0.000000 0.000000
vn 1.000000 0.000000 0.000000
vn 1.000000 0.000000 0.000000
vn -1.000000 0.000000 0.000000
vn -1.000000 0.000000 0.000000
vn -1.000000 0.000000 0.000000
vn -1.000000 0.000000 0.000000
vn 0.000000 -1.000000 0.000000
vn 0.000000 -1.000000 0.000000
vn 0.000000 -1.000000 0.000000
vn 0.000000 -1.000000 0.000000
vn 1.000000 0.000000 0.000000
vn 1.000000 0.000000 0.000000
vn 1.000000 0.000000 0.000000
vn 1.000000 0.000000 0.000000
vn 0.000000 1.000000 0.000000
vn 0.000000 1.000000 0.000000
vn 0.000000 1.000000 0.000000
vn 0.000000 1.000000 0.000000
vn -1.000000 0.000000 0.000000
vn -1.000000 0.000000 0.000000
vn -1.000000 0.000000 0.000000
vn -1.000000 0.000000 0.000000
vn 1.000000 0.000000 0.000000
vn 1.000000 0.000000 0.000000
vn 1.000000 0.000000 0.000000
vn 1.000000 0.000000 0.000000
vn -1.000000 0.000000 0.000000
vn -1.000000 0.000000 0.000000
vn -1.000000 0.000000 0.000000
vn -1.000000 0.000000 0.000000
vn 1.000000 0.000000 0.000000
vn 1.000000 0.000000 0.000000
vn 1.000000 0.000000 0.000000
vn 1.000000 0.000000 0.000000
vn -1.000000 0.000000 0.000000
vn -1.000000 0.000000 0.000000
vn -1.000000 0.000000 0.000000
vn -1.000000 0.000000 0.000000
vn 0.000000 -1.000000 0.000000
vn 0.000000 -1.000000 0.000000
vn 0.000000 -1.000000 0.000000
vn 0.000000 -1.000000 0.000000
vn 1.000000 0.000000 0.000000
vn 1.000000 0.000000 0.000000
vn 1.000000 0.000000 0.000000
vn 1.000000 0.000000 0.000000
vn 0.000000 1.000000 0.000000
vn 0.000000 1.000000 0.000000
vn 0.000000 1.000000 0.000000
vn 0.000000 1.000000 0.000000
vn -1.000000 0.000000 0.000000
vn -1.000000 0.000000 0.000000
vn -1.000000 0.000000 0.000000
vn -1.000000 0.000000 0.000000
s 1
g pCube63
usemtl initialShadingGroup
f 75/95/85 76/96/86 77/97/87 78/98/88
s off
f 27/37/89 28/38/90 30/40/91 29/39/92
s 2
f 60/79/93 61/80/94 32/42/95 31/41/96
s off
f 31/41/97 32/42/98 26/44/99 25/43/100
s 3
f 26/36/101 32/45/102 61/81/103 62/82/104
s off
usemtl standardSurface11SG
f 67/87/105 68/88/106 69/89/107 70/90/108
usemtl initialShadingGroup
f 34/50/109 33/49/110 27/37/111 29/48/112
s 2
f 29/39/113 30/40/114 35/52/115 34/51/116
s 3
f 36/54/117 35/53/118 30/46/119 28/38/120
s 1
f 80/102/121 79/99/122 81/100/123 82/101/124
s off
usemtl standardSurface11SG
f 31/47/125 25/35/126 38/56/127 37/55/128
s 4
f 25/35/129 53/71/130 54/72/131 38/56/132
s off
f 33/49/133 34/50/134 40/58/135 39/57/136
s 5
f 59/77/137 60/78/138 31/47/139 37/55/140
s off
usemtl standardSurface9SG
f 37/55/141 38/56/142 42/60/143 41/59/144
s 6
f 83/103/145 84/104/146 85/105/147 86/106/148
s off
f 45/63/149 46/64/150 47/65/151 48/66/152
s 7
f 58/76/153 59/77/154 37/55/155 41/59/156
s off
f 39/57/157 40/58/158 46/64/159 45/63/160
f 40/58/161 44/62/162 47/65/163 46/64/164
f 44/62/165 43/61/166 48/66/167 47/65/168
f 88/110/169 87/107/170 89/108/171 90/109/172
f 41/59/173 42/60/174 50/68/175 49/67/176
s 8
usemtl initialShadingGroup
f 42/60/177 55/73/178 56/74/179 50/68/180
s off
f 43/61/181 44/62/182 52/70/183 51/69/184
s 9
f 57/75/185 58/76/186 41/59/187 49/67/188
s 4
usemtl standardSurface11SG
f 54/72/131 53/71/130 33/49/189 39/57/190
s 6
usemtl standardSurface9SG
f 85/105/147 84/104/146 87/107/191 88/110/192
s 8
usemtl initialShadingGroup
f 56/74/179 55/73/178 43/61/193 51/69/194
s off
f 57/75/195 56/74/196 51/69/197 52/70/198
s 9
f 44/62/199 58/76/186 57/75/185 52/70/200
s 7
usemtl standardSurface9SG
f 40/58/201 59/77/154 58/76/153 44/62/202
s 5
usemtl standardSurface11SG
f 34/50/203 60/78/138 59/77/137 40/58/204
s 2
usemtl initialShadingGroup
f 34/51/116 35/52/115 61/80/94 60/79/93
s 3
f 62/82/104 61/81/103 35/53/118 36/54/117
s 1
f 78/98/88 77/97/87 79/99/122 80/102/121
s off
f 49/67/205 50/68/206 64/84/207 63/83/208
f 50/68/209 56/74/210 65/85/211 64/84/212
f 56/74/213 57/75/214 66/86/215 65/85/216
f 57/75/217 49/67/218 63/83/219 66/86/220
usemtl standardSurface11SG
f 63/83/221 64/84/222 68/88/223 67/87/224
f 91/111/225 92/112/226 93/113/227 94/114/228
f 71/91/229 72/92/230 73/93/231 74/94/232
f 66/86/233 63/83/234 67/87/235 70/90/236
f 65/85/237 66/86/238 72/92/239 71/91/240
f 66/86/241 70/90/242 73/93/243 72/92/244
f 70/90/245 69/89/246 74/94/247 73/93/248
f 93/113/249 92/112/250 95/115/251 96/116/252
usemtl initialShadingGroup
f 25/35/253 26/36/254 76/96/255 75/95/256
f 26/36/257 62/82/258 77/97/259 76/96/260
f 53/71/261 25/35/262 75/95/263 78/98/264
f 36/54/265 28/38/266 81/100/267 79/99/268
f 28/38/269 27/37/270 82/101/271 81/100/272
f 27/37/273 33/49/274 80/102/275 82/101/276
f 62/82/277 36/54/278 79/99/279 77/97/280
f 33/49/281 53/71/282 78/98/283 80/102/284
usemtl standardSurface9SG
f 38/56/285 54/72/286 84/104/287 83/103/288
f 55/73/289 42/60/290 86/106/291 85/105/292
f 42/60/293 38/56/294 83/103/295 86/106/296
f 39/57/297 45/63/298 89/108/299 87/107/300
f 45/63/301 48/66/302 90/109/303 89/108/304
f 48/66/305 43/61/306 88/110/307 90/109/308
f 54/72/309 39/57/310 87/107/311 84/104/312
f 43/61/313 55/73/314 85/105/315 88/110/316
usemtl standardSurface11SG
f 64/84/317 65/85/318 92/112/319 91/111/320
f 69/89/321 68/88/322 94/114/323 93/113/324
f 68/88/325 64/84/326 91/111/327 94/114/328
f 65/85/329 71/91/330 95/115/331 92/112/332
f 71/91/333 74/94/334 96/116/335 95/115/336
f 74/94/337 69/89/338 93/113/339 96/116/340
g default
v 47.946106 2.128439 -32.550229
v 54.156273 2.128439 -32.550229
v 47.946106 2.273949 -32.550229
v 54.156273 2.273949 -32.550229
v 47.946106 2.273949 -34.457914
v 54.156273 2.273949 -34.457914
v 47.946106 2.128439 -34.457914
v 54.156273 2.128439 -34.457914
v 48.106544 2.034551 -34.309060
v 53.995834 2.034551 -34.309060
v 53.995834 2.034551 -32.670575
v 48.106544 2.034551 -32.670575
v 48.106544 0.712101 -34.309060
v 53.995834 0.712101 -34.309060
v 53.995834 0.712101 -32.670575
v 48.106544 0.712101 -32.670575
v 53.957870 2.128439 -32.550229
v 53.957870 2.273949 -32.550229
v 53.957870 2.273949 -34.457914
v 53.957870 2.128439 -34.457914
v 53.807682 2.034551 -34.309060
v 53.807682 0.712101 -34.309060
v 53.807682 0.712101 -32.670575
v 53.807682 2.034551 -32.670575
v 47.946106 2.273949 -32.757432
v 47.946106 2.128439 -32.757432
v 48.106544 2.034551 -32.850103
v 48.106544 0.712101 -32.850103
v 53.807682 0.712101 -32.850103
v 53.995834 0.712101 -32.850103
v 53.995834 2.034551 -32.850103
v 54.156273 2.128439 -32.757432
v 54.156273 2.273949 -32.757432
v 53.957870 2.273949 -32.757432
v 48.113380 2.128439 -32.550229
v 48.113380 2.273949 -32.550229
v 48.113384 2.273949 -32.757432
v 48.113380 2.273949 -34.457914
v 48.113380 2.128439 -34.457914
v 48.265178 2.034551 -34.309060
v 48.265178 0.712101 -34.309060
v 48.265178 0.712101 -32.850103
v 48.265178 0.712101 -32.670575
v 48.265178 2.034551 -32.670575
v 47.946106 2.128439 -34.126023
v 47.946106 2.273949 -34.126023
v 48.113380 2.273949 -34.126023
v 53.957870 2.273949 -34.126023
v 54.156273 2.273949 -34.126023
v 54.156273 2.128439 -34.126023
v 53.995834 2.034551 -34.123433
v 53.995834 0.712101 -34.123433
v 53.807682 0.712101 -34.123433
v 48.265178 0.712101 -34.123433
v 48.106544 0.712101 -34.123433
v 48.106544 2.034551 -34.123433
v 48.106544 0.445754 -32.850103
v 48.265178 0.445754 -32.850103
v 48.265178 0.445754 -32.670575
v 48.106544 0.445754 -32.670575
v 53.807682 0.445754 -32.850103
v 53.807682 0.445754 -32.670575
v 53.995834 0.445754 -32.850103
v 53.995834 0.445754 -32.670575
v 48.106544 0.445754 -34.309060
v 48.265178 0.445754 -34.309060
v 48.265178 0.445754 -34.123433
v 48.106544 0.445754 -34.123433
v 53.995834 0.445754 -34.123433
v 53.807682 0.445754 -34.123433
v 53.807682 0.445754 -34.309060
v 53.995834 0.445754 -34.309060
v 53.659221 0.850721 -32.670575
v 53.659221 1.895931 -32.670575
v 48.413639 1.895931 -32.670575
v 48.413639 0.850721 -32.670575
v 53.659221 0.850721 -33.950547
v 53.659221 1.895931 -33.950547
v 48.413639 1.895931 -33.950547
v 48.413639 0.850721 -33.950547
vt 0.375000 0.000000
vt 0.625000 0.000000
vt 0.375000 0.250000
vt 0.625000 0.250000
vt 0.375000 0.500000
vt 0.625000 0.500000
vt 0.375000 0.750000
vt 0.625000 0.750000
vt 0.375000 1.000000
vt 0.625000 1.000000
vt 0.875000 0.000000
vt 0.875000 0.250000
vt 0.125000 0.000000
vt 0.125000 0.250000
vt 0.375000 0.750000
vt 0.625000 0.750000
vt 0.625000 1.000000
vt 0.375000 1.000000
vt 0.375000 0.750000
vt 0.625000 0.750000
vt 0.625000 1.000000
vt 0.375000 1.000000
vt 0.617013 0.000000
vt 0.617013 1.000000
vt 0.617013 0.250000
vt 0.617013 0.500000
vt 0.617013 0.750000
vt 0.617013 0.750000
vt 0.617013 0.750000
vt 0.617013 1.000000
vt 0.617013 1.000000
vt 0.327672 0.250000
vt 0.375000 0.297328
vt 0.327672 0.000000
vt 0.375000 0.952672
vt 0.375000 0.952672
vt 0.375000 0.952672
vt 0.617013 0.952672
vt 0.625000 0.952672
vt 0.625000 0.952672
vt 0.625000 0.952672
vt 0.672328 0.000000
vt 0.625000 0.297328
vt 0.672328 0.250000
vt 0.617013 0.297328
vt 0.381734 0.000000
vt 0.381734 1.000000
vt 0.381734 0.250000
vt 0.381734 0.297328
vt 0.381734 0.500000
vt 0.381734 0.750000
vt 0.381734 0.750000
vt 0.381734 0.750000
vt 0.381734 0.952672
vt 0.381734 1.000000
vt 0.381734 1.000000
vt 0.164753 0.000000
vt 0.375000 0.789753
vt 0.164753 0.250000
vt 0.375000 0.460247
vt 0.381734 0.460247
vt 0.617013 0.460247
vt 0.625000 0.460247
vt 0.835247 0.250000
vt 0.625000 0.789753
vt 0.835247 0.000000
vt 0.625000 0.789753
vt 0.625000 0.789753
vt 0.617013 0.789753
vt 0.381734 0.789753
vt 0.375000 0.789753
vt 0.375000 0.789753
vt 0.375000 0.952672
vt 0.381734 0.952672
vt 0.381734 1.000000
vt 0.375000 1.000000
vt 0.617013 1.000000
vt 0.617013 0.952672
vt 0.625000 0.952672
vt 0.625000 1.000000
vt 0.375000 0.750000
vt 0.381734 0.750000
vt 0.381734 0.789753
vt 0.375000 0.789753
vt 0.625000 0.789753
vt 0.617013 0.789753
vt 0.617013 0.750000
vt 0.625000 0.750000
vt 0.617013 1.000000
vt 0.617013 1.000000
vt 0.381734 1.000000
vt 0.381734 1.000000
vt 0.617013 1.000000
vt 0.617013 1.000000
vt 0.381734 1.000000
vt 0.381734 1.000000
vn 0.000000 0.000000 1.000000
vn 0.000000 0.000000 1.000000
vn 0.000000 0.000000 1.000000
vn 0.000000 0.000000 1.000000
vn 0.000000 1.000000 0.000000
vn 0.000000 1.000000 0.000000
vn 0.000000 1.000000 0.000000
vn 0.000000 1.000000 0.000000
vn 0.000000 0.000000 -1.000000
vn 0.000000 0.000000 -1.000000
vn 0.000000 0.000000 -1.000000
vn 0.000000 0.000000 -1.000000
vn 0.000000 -1.000000 0.000000
vn 0.000000 -1.000000 0.000000
vn 0.000000 -1.000000 0.000000
vn 0.000000 -1.000000 0.000000
vn 1.000000 0.000000 0.000000
vn 1.000000 0.000000 0.000000
vn 1.000000 0.000000 0.000000
vn 1.000000 0.000000 0.000000
vn -1.000000 0.000000 0.000000
vn -1.000000 0.000000 0.000000
vn -1.000000 0.000000 0.000000
vn -1.000000 0.000000 0.000000
vn 0.000000 -0.845809 -0.533486
vn 0.000000 -0.845809 -0.533486
vn 0.000000 -0.845809 -0.533486
vn 0.000000 -0.845809 -0.533486
vn 0.505069 -0.863079 0.000000
vn 0.505069 -0.863079 0.000000
vn 0.505069 -0.863079 0.000000
vn 0.505069 -0.863079 0.000000
vn 0.000000 -0.788446 0.615105
vn 0.000000 -0.788445 0.615105
vn 0.000000 -0.788446 0.615105
vn 0.000000 -0.788446 0.615105
vn -0.505069 -0.863079 0.000000
vn -0.505069 -0.863079 0.000000
vn -0.505069 -0.863079 0.000000
vn -0.505069 -0.863079 0.000000
vn 0.000000 0.000000 -1.000000
vn 0.000000 0.000000 -1.000000
vn 0.000000 0.000000 -1.000000
vn 0.000000 0.000000 -1.000000
vn 1.000000 0.000000 0.000000
vn 1.000000 0.000000 0.000000
vn 1.000000 0.000000 0.000000
vn 1.000000 0.000000 0.000000
vn 0.000000 0.000000 1.000000
vn 0.000000 0.000000 1.000000
vn 0.000000 0.000000 1.000000
vn 0.000000 0.000000 1.000000
vn -1.000000 0.000000 0.000000
vn -1.000000 0.000000 0.000000
vn -1.000000 0.000000 0.000000
vn -1.000000 0.000000 0.000000
vn 0.000000 0.000000 1.000000
vn 0.000000 0.000000 1.000000
vn 0.000000 0.000000 1.000000
vn 0.000000 0.000000 1.000000
vn 0.000000 1.000000 0.000000
vn 0.000000 1.000000 0.000000
vn 0.000000 1.000000 0.000000
vn 0.000000 1.000000 0.000000
vn 0.000000 0.000000 -1.000000
vn 0.000000 0.000000 -1.000000
vn 0.000000 0.000000 -1.000000
vn 0.000000 0.000000 -1.000000
vn 0.000000 -0.845809 -0.533486
vn 0.000000 -0.845809 -0.533486
vn 0.000000 -0.845809 -0.533486
vn 0.000000 -0.845809 -0.533486
vn 0.000000 0.000000 -1.000000
vn 0.000000 0.000000 -1.000000
vn 0.000000 0.000000 -1.000000
vn 0.000000 0.000000 -1.000000
vn 0.000000 -1.000000 0.000000
vn 0.000000 -1.000000 0.000000
vn 0.000000 -1.000000 0.000000
vn 0.000000 -1.000000 0.000000
vn 0.000000 0.000000 1.000000
vn 0.000000 0.000000 1.000000
vn 0.000000 0.000000 1.000000
vn 0.000000 0.000000 1.000000
vn 0.000000 -0.788446 0.615104
vn 0.000000 -0.788446 0.615105
vn 0.000000 -0.788446 0.615105
vn 0.000000 -0.788446 0.615104
vn -1.000000 0.000000 0.000000
vn -1.000000 0.000000 0.000000
vn -1.000000 0.000000 0.000000
vn -1.000000 0.000000 0.000000
vn -0.505069 -0.863079 0.000000
vn -0.505069 -0.863079 0.000000
vn -0.505070 -0.863079 0.000000
vn -0.505070 -0.863079 0.000000
vn -1.000000 0.000000 0.000000
vn -1.000000 0.000000 0.000000
vn -1.000000 0.000000 0.000000
vn -1.000000 0.000000 0.000000
vn 0.000000 -1.000000 0.000000
vn 0.000000 -1.000000 0.000000
vn 0.000000 -1.000000 0.000000
vn 0.000000 -1.000000 0.000000
vn 0.000000 -1.000000 0.000000
vn 0.000000 -1.000000 0.000000
vn 0.000000 -1.000000 0.000000
vn 0.000000 -1.000000 0.000000
vn 1.000000 0.000000 0.000000
vn 1.000000 0.000000 0.000000
vn 1.000000 0.000000 0.000000
vn 1.000000 0.000000 0.000000
vn 0.505070 -0.863079 0.000000
vn 0.505069 -0.863079 0.000000
vn 0.505069 -0.863079 0.000000
vn 0.505070 -0.863079 0.000000
vn 1.000000 0.000000 0.000000
vn 1.000000 0.000000 0.000000
vn 1.000000 0.000000 0.000000
vn 1.000000 0.000000 0.000000
vn 0.000000 1.000000 0.000000
vn 0.000000 1.000000 0.000000
vn 0.000000 1.000000 0.000000
vn 0.000000 1.000000 0.000000
vn 0.000000 1.000000 0.000000
vn 0.000000 1.000000 0.000000
vn 0.000000 1.000000 0.000000
vn 0.000000 1.000000 0.000000
vn 0.000000 -1.000000 0.000000
vn 0.000000 -1.000000 0.000000
vn 0.000000 -1.000000 0.000000
vn 0.000000 -1.000000 0.000000
vn 0.000000 -1.000000 0.000000
vn 0.000000 -1.000000 0.000000
vn 0.000000 -1.000000 0.000000
vn 0.000000 -1.000000 0.000000
vn 0.000000 0.000000 1.000000
vn 0.000000 0.000000 1.000000
vn 0.000000 0.000000 1.000000
vn 0.000000 0.000000 1.000000
vn 0.000000 -1.000000 0.000000
vn 0.000000 -1.000000 0.000000
vn 0.000000 -1.000000 0.000000
vn 0.000000 -1.000000 0.000000
vn 0.000000 0.000000 -1.000000
vn 0.000000 0.000000 -1.000000
vn 0.000000 0.000000 -1.000000
vn 0.000000 0.000000 -1.000000
vn 1.000000 0.000000 0.000000
vn 1.000000 0.000000 0.000000
vn 1.000000 0.000000 0.000000
vn 1.000000 0.000000 0.000000
vn 0.000000 0.000000 1.000000
vn 0.000000 0.000000 1.000000
vn 0.000000 0.000000 1.000000
vn 0.000000 0.000000 1.000000
vn -1.000000 0.000000 0.000000
vn -1.000000 0.000000 0.000000
vn -1.000000 0.000000 0.000000
vn -1.000000 0.000000 0.000000
vn -1.000000 0.000000 0.000000
vn -1.000000 0.000000 0.000000
vn -1.000000 0.000000 0.000000
vn -1.000000 0.000000 0.000000
vn 0.000000 0.000000 -1.000000
vn 0.000000 0.000000 -1.000000
vn 0.000000 0.000000 -1.000000
vn 0.000000 0.000000 -1.000000
vn 1.000000 0.000000 0.000000
vn 1.000000 0.000000 0.000000
vn 1.000000 0.000000 0.000000
vn 1.000000 0.000000 0.000000
vn 0.000000 0.000000 1.000000
vn 0.000000 0.000000 1.000000
vn 0.000000 0.000000 1.000000
vn 0.000000 0.000000 1.000000
vn 0.000000 0.000000 -1.000000
vn 0.000000 0.000000 -1.000000
vn 0.000000 0.000000 -1.000000
vn 0.000000 0.000000 -1.000000
vn 1.000000 0.000000 0.000000
vn 1.000000 0.000000 0.000000
vn 1.000000 0.000000 0.000000
vn 1.000000 0.000000 0.000000
vn 0.000000 0.000000 1.000000
vn 0.000000 0.000000 1.000000
vn 0.000000 0.000000 1.000000
vn 0.000000 0.000000 1.000000
vn -1.000000 0.000000 0.000000
vn -1.000000 0.000000 0.000000
vn -1.000000 0.000000 0.000000
vn -1.000000 0.000000 0.000000
vn 0.000000 0.000000 1.000000
vn 0.000000 0.000000 1.000000
vn 0.000000 0.000000 1.000000
vn 0.000000 0.000000 1.000000
vn -1.000000 0.000000 0.000000
vn -1.000000 0.000000 0.000000
vn -1.000000 0.000000 0.000000
vn -1.000000 0.000000 0.000000
vn 0.000000 0.000000 -1.000000
vn 0.000000 0.000000 -1.000000
vn 0.000000 0.000000 -1.000000
vn 0.000000 0.000000 -1.000000
vn 1.000000 0.000000 0.000000
vn 1.000000 0.000000 0.000000
vn 1.000000 0.000000 0.000000
vn 1.000000 0.000000 0.000000
vn -0.000000 0.000000 1.000000
vn -0.000000 0.000000 1.000000
vn -0.000000 0.000000 1.000000
vn -0.000000 0.000000 1.000000
vn 0.000000 0.000000 1.000000
vn 0.000000 0.000000 1.000000
vn 0.000000 0.000000 1.000000
vn 0.000000 0.000000 1.000000
vn 0.000000 0.000000 1.000000
vn 0.000000 0.000000 1.000000
vn 0.000000 0.000000 1.000000
vn 0.000000 0.000000 1.000000
vn 0.000000 0.000000 1.000000
vn 0.000000 0.000000 1.000000
vn 0.000000 0.000000 1.000000
vn 0.000000 0.000000 1.000000
vn -1.000000 0.000000 0.000000
vn -1.000000 0.000000 0.000000
vn -1.000000 0.000000 0.000000
vn -1.000000 0.000000 0.000000
vn 0.000000 -1.000000 0.000000
vn 0.000000 -1.000000 0.000000
vn 0.000000 -1.000000 0.000000
vn 0.000000 -1.000000 0.000000
vn 1.000000 0.000000 0.000000
vn 1.000000 0.000000 0.000000
vn 1.000000 0.000000 0.000000
vn 1.000000 0.000000 0.000000
vn 0.000000 1.000000 0.000000
vn 0.000000 1.000000 0.000000
vn 0.000000 1.000000 0.000000
vn 0.000000 1.000000 0.000000
s 1
g pCube62
usemtl initialShadingGroup
f 97/117/341 131/162/342 132/164/343 99/119/344
s 2
f 99/119/345 132/164/346 133/165/347 121/149/348
s 3
f 101/121/349 134/166/350 135/167/351 103/123/352
s off
f 153/189/353 154/190/354 155/191/355 156/192/356
s 4
f 98/118/357 128/158/358 129/160/359 100/120/360
s 5
f 121/148/361 122/150/362 97/117/363 99/119/364
s 6
f 103/123/365 135/167/366 136/168/367 105/131/368
s 7
f 127/156/369 128/157/370 98/126/371 107/133/372
s 8
f 140/172/373 131/163/374 97/125/375 108/134/376
s 9
f 97/125/377 122/151/378 123/152/379 108/134/380
s 10
f 105/131/381 136/168/382 137/169/383 109/135/384
s 11
f 126/155/385 127/156/386 107/133/387 111/137/388
s off
f 139/171/389 140/172/390 108/134/391 112/138/392
s 12
f 108/134/393 123/152/394 124/153/395 112/138/396
s 1
f 114/141/397 113/139/398 98/118/399 100/120/400
s 2
f 129/159/401 130/161/402 114/141/403 100/120/404
s 3
f 116/143/405 115/142/406 102/122/407 104/124/408
s 6
f 117/144/409 116/143/410 104/124/411 106/132/412
s 10
f 118/145/413 117/144/414 106/132/415 110/136/416
s off
f 158/193/417 157/194/418 159/195/419 160/196/420
f 107/133/421 120/147/422 119/146/423 111/137/424
s 8
f 98/126/425 113/140/426 120/147/427 107/133/428
s 5
f 103/129/429 141/173/430 142/175/431 101/130/432
s 9
f 152/188/433 141/174/434 103/123/435 105/131/436
s 12
f 151/187/437 152/188/438 105/131/439 109/135/440
s off
f 161/197/441 162/198/442 163/199/443 164/200/444
f 165/201/445 166/202/446 167/203/447 168/204/448
s 11
f 106/132/449 147/183/450 148/184/451 110/136/452
s 7
f 104/124/453 146/181/454 147/183/455 106/132/456
s 4
f 145/180/457 146/182/458 104/127/459 102/128/460
s 2
f 115/142/461 144/178/462 145/179/463 102/122/464
f 142/176/465 143/177/466 134/166/467 101/121/468
s 1
f 132/164/343 131/162/342 113/139/398 114/141/397
s 2
f 133/165/347 132/164/346 114/141/403 130/161/402
f 134/166/467 143/177/466 144/178/462 115/142/461
s 3
f 135/167/351 134/166/350 115/142/406 116/143/405
s 6
f 136/168/367 135/167/366 116/143/410 117/144/409
s 10
f 137/169/383 136/168/382 117/144/414 118/145/413
s 15
f 149/185/469 150/186/470 137/169/471 118/145/472
f 139/171/473 138/170/474 125/154/475 119/146/476
s off
f 173/209/477 174/210/478 175/211/479 176/212/480
s 8
f 120/147/427 113/140/426 131/163/374 140/172/373
s 5
f 142/175/431 141/173/430 122/150/362 121/148/361
s 2
f 121/149/348 133/165/347 143/177/466 142/176/465
f 144/178/462 143/177/466 133/165/347 130/161/402
f 145/179/463 144/178/462 130/161/402 129/159/401
s 4
f 129/160/359 128/158/358 146/182/458 145/180/457
s 7
f 147/183/455 146/181/454 128/157/370 127/156/369
s 11
f 148/184/451 147/183/450 127/156/386 126/155/385
s 15
f 126/155/481 125/154/475 149/185/469 148/184/482
f 138/170/474 150/186/470 149/185/469 125/154/475
f 151/187/483 150/186/470 138/170/474 124/153/484
s 12
f 124/153/395 123/152/394 152/188/438 151/187/437
s 9
f 123/152/379 122/151/378 141/174/434 152/188/433
s off
f 124/153/485 138/170/486 154/190/487 153/189/488
f 138/170/489 139/171/490 155/191/491 154/190/492
f 139/171/493 112/138/494 156/192/495 155/191/496
f 112/138/497 124/153/498 153/189/499 156/192/500
f 119/146/501 125/154/502 157/194/503 158/193/504
f 125/154/505 126/155/506 159/195/507 157/194/508
f 126/155/509 111/137/510 160/196/511 159/195/512
f 111/137/513 119/146/514 158/193/515 160/196/516
f 109/135/517 137/169/518 162/198/519 161/197/520
f 137/169/521 150/186/522 163/199/523 162/198/524
f 150/186/525 151/187/526 164/200/527 163/199/528
f 151/187/529 109/135/530 161/197/531 164/200/532
f 148/184/533 149/185/534 166/202/535 165/201/536
f 149/185/537 118/145/538 167/203/539 166/202/540
f 118/145/541 110/136/542 168/204/543 167/203/544
f 110/136/545 148/184/546 165/201/547 168/204/548
f 119/146/549 120/147/550 170/206/551 169/205/552
f 120/147/553 140/172/554 171/207/555 170/206/556
f 140/172/557 139/171/558 172/208/559 171/207/560
f 139/171/561 119/146/562 169/205/563 172/208/564
f 169/205/565 170/206/566 174/210/567 173/209/568
f 170/206/569 171/207/570 175/211/571 174/210/572
f 171/207/573 172/208/574 176/212/575 175/211/576
f 172/208/577 169/205/578 173/209/579 176/212/580
