# This file uses centimeters as units for non-parametric coordinates.

mtllib windows_bedroom_frozen.mtl
g default
v 45.344734 2.364295 34.907616
v 48.459751 2.364295 34.907616
v 45.344734 7.551950 34.907616
v 48.459751 7.551950 34.907616
v 45.344734 7.551950 34.735275
v 48.459751 7.551950 34.735275
v 45.344734 2.364295 34.735275
v 48.459751 2.364295 34.735275
v 45.587975 2.693995 34.896667
v 48.216511 2.693995 34.896667
v 48.216511 7.222250 34.896667
v 45.587975 7.222250 34.896667
v 45.587975 7.222251 34.746223
v 48.216511 7.222251 34.746223
v 48.216511 2.693992 34.746223
v 45.587975 2.693992 34.746223
v 45.646297 2.721001 34.844028
v 48.158184 2.721001 34.844028
v 48.158184 7.195243 34.844028
v 45.646297 7.195243 34.844028
v 45.646297 7.195245 34.798855
v 48.158184 7.195245 34.798855
v 48.158184 2.720999 34.798855
v 45.646297 2.720999 34.798855
v 45.344734 5.185756 34.735275
v 45.344734 4.731392 34.735275
v 45.587975 5.182926 34.746223
v 45.587975 4.731914 34.746223
v 45.398048 5.010810 34.698570
v 45.395248 5.032264 34.700493
v 45.411007 5.023735 34.699604
v 45.398048 5.010716 34.647083
v 45.411053 5.023735 34.647209
v 45.411007 4.892508 34.699604
v 45.395248 4.883979 34.700493
v 45.398048 4.905433 34.698570
v 45.411049 4.892508 34.647209
v 45.398048 4.905580 34.647778
v 45.521740 5.023457 34.708477
v 45.537476 5.031915 34.711449
v 45.534660 5.010499 34.709518
v 45.521801 5.023457 34.656082
v 45.534660 5.010522 34.657661
v 45.534660 4.905744 34.709518
v 45.537476 4.884329 34.711449
v 45.521740 4.892787 34.708477
v 45.534660 4.905582 34.659470
v 45.521847 4.892787 34.656086
v 45.398048 4.993677 34.527645
v 45.410965 5.006414 34.520180
v 45.411087 4.904260 34.602554
v 45.398048 4.918478 34.594707
v 45.521690 5.011767 34.527267
v 45.534660 5.000259 34.535786
v 45.534660 4.927273 34.603573
v 45.521862 4.910051 34.609303
v 45.398048 4.929264 34.491638
v 45.411224 4.933674 34.479187
v 45.410706 4.841695 34.572792
v 45.398048 4.843374 34.559307
v 45.521988 4.939814 34.485622
v 45.534660 4.936806 34.498775
v 45.534660 4.851874 34.566078
v 45.521481 4.848226 34.578812
v 45.398048 4.814025 34.488010
v 45.411240 4.814318 34.475227
v 45.410805 4.748538 34.578812
v 45.398048 4.749220 34.565357
v 45.521999 4.821861 34.479519
v 45.534660 4.823159 34.492710
v 45.534660 4.758733 34.569981
v 45.521568 4.756362 34.582657
v 45.411289 4.370598 34.498688
v 45.398048 4.377325 34.510578
v 45.410664 4.399987 34.548779
v 45.398048 4.389750 34.531582
v 45.534660 4.383049 34.515697
v 45.522026 4.375936 34.503242
v 45.521385 4.404924 34.556080
v 45.534660 4.396770 34.540905
v 45.420799 4.730962 34.738697
v 45.540073 4.731545 34.744064
v 45.587975 4.905754 34.746223
v 45.587975 5.008649 34.746223
v 45.494778 5.184919 34.742023
v 45.414402 5.185312 34.738403
v 45.344734 5.008393 34.735275
v 45.344734 4.902683 34.735275
v 45.646297 4.763264 34.798855
v 48.158184 4.763264 34.798855
v 48.216511 4.760911 34.746223
v 48.459751 4.732194 34.735275
v 48.459751 4.732194 34.907616
v 48.216511 4.760911 34.896667
v 48.158184 4.763264 34.844028
v 45.646297 4.763264 34.844028
v 45.587975 4.760911 34.896667
v 45.344734 4.732194 34.907616
v 45.344734 5.185859 34.907616
v 45.587975 5.156912 34.896667
v 45.646297 5.154540 34.844028
v 48.158184 5.154540 34.844028
v 48.216511 5.156912 34.896667
v 48.459751 5.185859 34.907616
v 48.459751 5.185859 34.735275
v 48.216511 5.156911 34.746223
v 48.158184 5.154541 34.798855
v 45.646297 5.154541 34.798855
v 45.646297 5.001631 34.798855
v 48.158184 5.001631 34.798855
v 48.216511 5.002156 34.746223
v 48.459751 5.008569 34.735275
v 48.459751 5.008569 34.907616
v 48.216511 5.002157 34.896667
v 48.158184 5.001631 34.844028
v 45.646297 5.001631 34.844028
v 45.587975 5.002157 34.896667
v 45.344734 5.008569 34.907616
v 45.646297 4.910452 34.798855
v 48.158184 4.910452 34.798855
v 48.216511 4.909877 34.746223
v 48.459751 4.902853 34.735275
v 48.459751 4.902853 34.907616
v 48.216511 4.909878 34.896667
v 48.158184 4.910452 34.844028
v 45.646297 4.910452 34.844028
v 45.587975 4.909878 34.896667
v 45.344734 4.902853 34.907616
vt 0.375000 0.000000
vt 0.625000 0.000000
vt 0.625000 0.114112
vt 0.375000 0.114112
vt 0.375000 0.250000
vt 0.625000 0.250000
vt 0.625000 0.500000
vt 0.375000 0.500000
vt 0.375000 0.635888
vt 0.625000 0.635888
vt 0.625000 0.750000
vt 0.375000 0.750000
vt 0.375000 0.750000
vt 0.625000 0.750000
vt 0.625000 1.000000
vt 0.375000 1.000000
vt 0.625000 0.000000
vt 0.875000 0.000000
vt 0.875000 0.114112
vt 0.625000 0.114112
vt 0.125000 0.000000
vt 0.375000 0.000000
vt 0.375000 0.114112
vt 0.125000 0.114112
vt 0.625000 0.000000
vt 0.375000 0.000000
vt 0.625000 0.114112
vt 0.375000 0.250000
vt 0.625000 0.250000
vt 0.375000 0.114112
vt 0.625000 0.500000
vt 0.375000 0.500000
vt 0.625000 0.635888
vt 0.625000 0.635888
vt 0.625000 0.750000
vt 0.375000 0.750000
vt 0.375000 0.250000
vt 0.625000 0.250000
vt 0.625000 0.500000
vt 0.375000 0.500000
vt 0.375000 0.692944
vt 0.375000 0.557012
vt 0.375000 0.500000
vt 0.375000 0.500000
vt 0.375000 0.557012
vt 0.375000 0.692944
vt 0.375000 0.750000
vt 0.375000 0.750000
vt 0.375000 0.524674
vt 0.375000 0.610024
vt 0.375000 0.500000
vt 0.375000 0.500000
vt 0.375000 0.500000
vt 0.375000 0.725261
vt 0.375000 0.641931
vt 0.375000 0.750000
vt 0.375000 0.750000
vt 0.375000 0.750000
vt 0.375000 0.750000
vt 0.375000 0.667879
vt 0.375000 0.562479
vt 0.375000 0.500000
vt 0.375000 0.500000
vt 0.375000 0.556102
vt 0.375000 0.674510
vt 0.375000 0.750000
vt 0.375000 0.500000
vt 0.375000 0.500000
vt 0.375000 0.524851
vt 0.375000 0.500000
vt 0.375000 0.526796
vt 0.375000 0.725330
vt 0.375000 0.725047
vt 0.375000 0.750000
vt 0.375000 0.715104
vt 0.375000 0.750000
vt 0.375000 0.524739
vt 0.375000 0.524696
vt 0.375000 0.500000
vt 0.375000 0.525883
vt 0.375000 0.500000
vt 0.375000 0.750000
vt 0.375000 0.750000
vt 0.375000 0.725570
vt 0.375000 0.750000
vt 0.375000 0.710653
vt 0.375000 0.500000
vt 0.375000 0.526289
vt 0.375000 0.716696
vt 0.375000 0.750000
vt 0.375000 0.524911
vt 0.375000 0.500000
vt 0.375000 0.750000
vt 0.375000 0.712758
vt 0.375000 0.500000
vt 0.375000 0.533577
vt 0.375000 0.722864
vt 0.375000 0.750000
vt 0.375000 0.529719
vt 0.375000 0.500000
vt 0.375000 0.750000
vt 0.375000 0.721962
vt 0.375000 0.608039
vt 0.375000 0.641607
vt 0.375000 0.614025
vt 0.625000 0.614025
vt 0.625000 0.614025
vt 0.625000 0.614025
vt 0.625000 0.135975
vt 0.875000 0.135975
vt 0.875000 0.250000
vt 0.625000 0.135975
vt 0.625000 0.135975
vt 0.375000 0.135975
vt 0.375000 0.135975
vt 0.375000 0.135975
vt 0.125000 0.135975
vt 0.125000 0.250000
vt 0.375000 0.122336
vt 0.125000 0.122336
vt 0.375000 0.122336
vt 0.375000 0.122336
vt 0.625000 0.122336
vt 0.625000 0.122336
vt 0.625000 0.122336
vt 0.875000 0.122336
vt 0.625000 0.627663
vt 0.625000 0.627663
vt 0.625000 0.627663
vt 0.375000 0.627663
vt 0.375000 0.622569
vt 0.625000 0.622569
vt 0.625000 0.622569
vt 0.625000 0.622569
vt 0.625000 0.127431
vt 0.875000 0.127431
vt 0.625000 0.127431
vt 0.625000 0.127431
vt 0.375000 0.127431
vt 0.375000 0.127431
vt 0.375000 0.127431
vt 0.125000 0.127431
vn 0.000000 0.000000 1.000000
vn 0.000000 0.000000 1.000000
vn 0.000000 0.000000 1.000000
vn 0.000000 0.000000 1.000000
vn 0.000000 1.000000 0.000000
vn 0.000000 1.000000 0.000000
vn 0.000000 1.000000 0.000000
vn 0.000000 1.000000 0.000000
vn 0.000000 0.000000 -1.000000
vn 0.000000 0.000000 -1.000000
vn 0.000000 0.000000 -1.000000
vn 0.000000 0.000000 -1.000000
vn 0.000000 -1.000000 0.000000
vn 0.000000 -1.000000 0.000000
vn 0.000000 -1.000000 0.000000
vn 0.000000 -1.000000 0.000000
vn 1.000000 0.000000 0.000000
vn 1.000000 0.000000 0.000000
vn 1.000000 0.000000 0.000000
vn 1.000000 0.000000 0.000000
vn -1.000000 0.000000 0.000000
vn -1.000000 0.000000 0.000000
vn -1.000000 0.000000 0.000000
vn -1.000000 0.000000 0.000000
vn 0.000000 0.033188 0.999449
vn 0.000000 0.033188 0.999449
vn 0.000000 0.033188 0.999449
vn 0.000000 0.033188 0.999449
vn -0.044972 0.000000 0.998988
vn -0.044971 0.000000 0.998988
vn -0.044971 0.000000 0.998988
vn -0.044972 0.000000 0.998988
vn 0.000000 -0.033188 0.999449
vn 0.000000 -0.033188 0.999449
vn 0.000000 -0.033188 0.999449
vn 0.000000 -0.033188 0.999449
vn 0.044977 0.000000 0.998988
vn 0.044978 0.000000 0.998988
vn 0.044979 0.000000 0.998988
vn 0.044979 0.000000 0.998988
vn 0.000000 -0.033188 -0.999449
vn 0.000000 -0.033188 -0.999449
vn 0.000000 -0.033188 -0.999449
vn 0.000000 -0.033188 -0.999449
vn -0.044964 0.000000 -0.998989
vn -0.044964 0.000000 -0.998989
vn -0.044964 0.000000 -0.998989
vn -0.044964 0.000000 -0.998989
vn 0.000000 0.033188 -0.999449
vn 0.000000 0.033188 -0.999449
vn 0.000000 0.033188 -0.999449
vn 0.000000 0.033188 -0.999449
vn 0.000000 0.889738 0.456472
vn 0.000000 0.889738 0.456472
vn 0.000000 0.889738 0.456472
vn 0.000000 0.889738 0.456472
vn -0.669961 0.000000 0.742396
vn -0.669963 0.000000 0.742394
vn -0.669963 0.000000 0.742394
vn -0.669961 0.000000 0.742396
vn 0.000000 -0.889732 0.456483
vn 0.000000 -0.889732 0.456483
vn 0.000000 -0.889732 0.456483
vn 0.000000 -0.889732 0.456483
vn 0.669993 0.000000 0.742368
vn 0.669993 0.000000 0.742368
vn 0.669991 0.000000 0.742369
vn 0.669991 0.000000 0.742369
vn 0.000000 -0.889718 -0.456510
vn 0.000000 -0.889718 -0.456510
vn 0.000000 -0.889718 -0.456510
vn 0.000000 -0.889718 -0.456510
vn -0.669917 0.000000 -0.742436
vn -0.669916 0.000000 -0.742437
vn -0.669914 0.000000 -0.742439
vn -0.669914 0.000000 -0.742439
vn 0.000000 0.889708 -0.456530
vn 0.000000 0.889708 -0.456530
vn 0.000000 0.889708 -0.456530
vn 0.000000 0.889708 -0.456530
vn 0.669943 0.000000 -0.742412
vn 0.669943 0.000000 -0.742413
vn 0.669942 0.000000 -0.742413
vn 0.669943 0.000000 -0.742412
vn 0.044974 0.000002 -0.998988
vn 0.044974 0.000002 -0.998988
vn 0.044974 0.000002 -0.998988
vn 0.044974 0.000002 -0.998988
vn 0.044974 0.000002 -0.998988
vn 0.044974 0.000002 -0.998988
vn 0.044948 -0.000001 -0.998989
vn 0.044948 -0.000001 -0.998989
vn 0.044948 -0.000001 -0.998989
vn 0.044948 -0.000001 -0.998989
vn 0.044948 -0.000001 -0.998989
vn 0.044948 -0.000001 -0.998989
vn -0.567089 -0.000008 -0.823657
vn -0.567089 -0.000008 -0.823656
vn -0.567133 -0.000017 -0.823626
vn -0.567133 -0.000017 -0.823626
vn 0.060924 0.217538 -0.974149
vn 0.060539 0.218585 -0.973938
vn 0.051843 0.209588 -0.976415
vn 0.299964 0.118369 -0.946578
vn 0.564369 -0.000512 -0.825523
vn 0.567127 0.000019 -0.823631
vn 0.567165 0.000040 -0.823604
vn 0.373379 -0.087303 -0.923562
vn 0.057674 -0.222509 -0.973223
vn 0.057567 -0.223731 -0.972949
vn 0.047488 -0.234478 -0.970961
vn 0.047021 -0.233266 -0.971276
vn 0.013961 -0.869700 0.493383
vn 0.013961 -0.869700 0.493383
vn 0.013961 -0.869700 0.493383
vn 0.013961 -0.869700 0.493383
vn 0.013961 -0.869700 0.493383
vn 0.013961 -0.869700 0.493383
vn 0.013961 -0.869700 0.493383
vn 0.013961 -0.869700 0.493383
vn -0.706712 0.707501 -0.000953
vn -0.706712 0.707501 -0.000953
vn -0.713268 0.697680 -0.067021
vn -0.713477 0.697190 -0.069836
vn -0.715149 0.692313 -0.096252
vn -0.715149 0.692313 -0.096252
vn -0.707593 -0.706619 -0.001292
vn -0.707593 -0.706619 -0.001292
vn -0.700430 -0.707930 -0.090736
vn -0.701142 -0.708027 -0.084249
vn -0.687915 -0.703674 -0.177808
vn -0.687915 -0.703674 -0.177808
vn 0.708529 0.705682 0.000564
vn 0.708529 0.705682 0.000564
vn 0.702082 0.710792 -0.043084
vn 0.701776 0.710979 -0.044942
vn 0.698728 0.712634 -0.062702
vn 0.698728 0.712634 -0.062702
vn 0.707175 -0.707036 0.001862
vn 0.707175 -0.707036 0.001862
vn 0.724575 -0.676378 -0.132303
vn 0.723860 -0.678793 -0.123561
vn 0.728425 -0.640623 -0.242898
vn 0.728425 -0.640623 -0.242898
vn -0.702485 0.347357 -0.621174
vn -0.702485 0.347357 -0.621174
vn -0.707116 0.160851 -0.688560
vn -0.706609 0.151212 -0.691259
vn -0.712207 -0.298747 0.635226
vn -0.712207 -0.298747 0.635226
vn -0.730211 -0.104912 0.675119
vn -0.729976 -0.115461 0.673649
vn 0.712326 0.353746 -0.606182
vn 0.712326 0.353746 -0.606182
vn 0.727252 0.170596 -0.664832
vn 0.727289 0.161455 -0.667071
vn 0.705190 -0.316357 0.634528
vn 0.705190 -0.316357 0.634527
vn 0.708657 -0.123982 0.694574
vn 0.709239 -0.135188 0.691885
vn -0.688481 -0.024743 -0.724832
vn -0.688411 -0.025335 -0.724878
vn -0.753627 -0.037308 0.656243
vn -0.753990 -0.038456 0.655760
vn 0.718738 -0.020341 -0.694984
vn 0.718589 -0.022511 -0.695071
vn 0.714976 -0.039361 0.698040
vn 0.713732 -0.035356 0.699526
vn -0.686855 -0.037969 -0.725802
vn -0.686855 -0.037969 -0.725802
vn -0.760035 -0.058181 0.647272
vn -0.760035 -0.058181 0.647272
vn 0.717535 -0.036640 -0.695558
vn 0.717535 -0.036640 -0.695558
vn 0.719466 -0.054199 0.692410
vn 0.719466 -0.054199 0.692410
vn -1.000000 0.000015 0.000000
vn -1.000000 -0.000005 0.000000
vn -1.000000 -0.000005 0.000000
vn -1.000000 0.000015 0.000000
vn -0.010044 0.996544 -0.082458
vn 0.002510 0.999997 0.000000
vn 0.002510 0.999997 0.000000
vn -0.009331 0.996927 -0.077774
vn 1.000000 -0.000002 0.000000
vn 1.000000 -0.000006 0.000000
vn 1.000000 -0.000006 0.000000
vn 1.000000 -0.000003 0.000000
vn 0.023177 -0.990039 -0.138874
vn 0.002518 -0.999997 0.000010
vn 0.002518 -0.999997 0.000010
vn 0.025392 -0.987778 -0.153786
vn -1.000000 0.000014 0.000000
vn -1.000000 0.000017 0.000000
vn -0.014645 0.993527 -0.112648
vn -0.014645 0.993527 -0.112648
vn 1.000000 -0.000006 0.000000
vn 1.000000 -0.000009 0.000000
vn 0.047392 -0.952094 -0.302111
vn 0.047392 -0.952094 -0.302112
vn -1.000000 0.000007 0.000000
vn -1.000000 0.000019 0.000000
vn 0.027296 0.495828 -0.867992
vn 0.027296 0.495828 -0.867992
vn 0.038838 0.245261 -0.968679
vn 0.039572 0.226216 -0.973273
vn 1.000000 0.000001 0.000000
vn 1.000000 -0.000009 0.000000
vn -0.027594 -0.435635 0.899701
vn -0.027594 -0.435635 0.899701
vn -0.040891 -0.149732 0.987881
vn -0.040032 -0.171378 0.984392
vn -1.000000 0.000017 0.000000
vn -1.000000 0.000009 0.000000
vn 0.043585 -0.031485 -0.998554
vn 0.043501 -0.034210 -0.998468
vn 1.000000 0.000006 0.000000
vn 1.000000 0.000007 0.000000
vn -0.045984 -0.054596 0.997449
vn -0.046063 -0.050631 0.997655
vn -1.000000 0.000006 0.000000
vn -1.000000 0.000006 0.000000
vn 0.042915 -0.052910 -0.997677
vn 0.042915 -0.052910 -0.997677
vn 1.000000 0.000006 0.000000
vn 1.000000 0.000006 0.000000
vn -0.045448 -0.080505 0.995718
vn -0.045448 -0.080505 0.995718
vn -0.008314 0.088175 -0.996070
vn 0.049454 0.232918 -0.971238
vn 0.060560 0.224455 -0.972601
vn -0.008314 -0.088171 -0.996071
vn 0.564341 0.000512 -0.825541
vn 0.060487 -0.217582 -0.974166
vn 0.059082 -0.217089 -0.974362
vn 0.052331 -0.207621 -0.976809
vn 0.567097 -0.000018 -0.823651
vn 0.567102 -0.000039 -0.823648
vn 0.060149 0.225991 -0.972271
vn 0.049979 0.234220 -0.970898
vn -0.567093 0.000009 -0.823654
vn -0.567098 0.000010 -0.823651
vn -0.567148 0.000020 -0.823616
vn -0.567148 0.000020 -0.823616
vn 0.669977 0.000000 -0.742382
vn 0.669978 0.000000 -0.742381
vn 0.669979 0.000000 -0.742380
vn 0.669979 0.000000 -0.742380
vn 0.000000 0.000000 -1.000000
vn 0.000000 0.000000 -1.000000
vn 0.000000 0.000000 -1.000000
vn 0.000000 0.000000 -1.000000
vn -0.669960 0.000000 -0.742398
vn -0.669957 0.000000 -0.742400
vn -0.669957 0.000000 -0.742400
vn -0.669960 0.000000 -0.742398
vn -0.044965 0.000000 -0.998989
vn -0.044966 0.000000 -0.998989
vn -0.044966 0.000000 -0.998989
vn -0.044965 0.000000 -0.998989
vn 1.000000 0.000000 0.000000
vn 1.000000 0.000000 0.000000
vn 1.000000 0.000000 0.000000
vn 1.000000 0.000000 0.000000
vn -0.044969 0.000000 0.998988
vn -0.044970 0.000000 0.998988
vn -0.044971 0.000000 0.998988
vn -0.044971 0.000000 0.998988
vn -0.669964 0.000000 0.742394
vn -0.669964 0.000000 0.742394
vn -0.669962 0.000000 0.742395
vn -0.669962 0.000000 0.742395
vn 0.000000 0.000000 1.000000
vn 0.000000 0.000000 1.000000
vn 0.000000 0.000000 1.000000
vn 0.000000 0.000000 1.000000
vn 0.669995 0.000000 0.742366
vn 0.669996 0.000000 0.742364
vn 0.669996 0.000000 0.742364
vn 0.669995 0.000000 0.742366
vn 0.044965 0.000000 0.998989
vn 0.044965 0.000000 0.998989
vn 0.044965 0.000000 0.998989
vn 0.044965 0.000000 0.998989
vn -1.000000 0.000000 0.000000
vn -1.000000 0.000000 0.000000
vn -1.000000 0.000000 0.000000
vn -1.000000 0.000000 0.000000
vn -1.000000 0.000000 0.000000
vn -1.000000 0.000000 0.000000
vn 0.044958 0.000000 0.998989
vn 0.044958 0.000000 0.998989
vn 0.670012 0.000000 0.742350
vn 0.670012 0.000000 0.742350
vn 0.000000 0.000000 1.000000
vn 0.000000 0.000000 1.000000
vn -0.669987 0.000000 0.742372
vn -0.669987 0.000000 0.742372
vn -0.044958 0.000000 0.998989
vn -0.044958 0.000000 0.998989
vn 1.000000 0.000000 0.000000
vn 1.000000 0.000000 0.000000
vn -0.044966 0.000000 -0.998989
vn -0.044966 0.000000 -0.998989
vn -0.669939 0.000000 -0.742416
vn -0.669939 0.000000 -0.742416
vn 0.000000 0.000000 -1.000000
vn 0.000000 0.000000 -1.000000
vn 0.669941 0.000000 -0.742414
vn 0.669942 0.000000 -0.742414
vn 0.669956 0.000000 -0.742401
vn 0.669956 0.000000 -0.742401
vn 0.000000 0.000000 -1.000000
vn 0.000000 0.000000 -1.000000
vn -0.669924 0.000000 -0.742430
vn -0.669924 0.000000 -0.742430
vn -0.044976 0.000000 -0.998988
vn -0.044976 0.000000 -0.998988
vn 1.000000 0.000000 0.000000
vn 1.000000 0.000000 0.000000
vn -0.044954 0.000000 0.998989
vn -0.044954 0.000000 0.998989
vn -0.669985 0.000000 0.742375
vn -0.669985 0.000000 0.742375
vn 0.000000 0.000000 1.000000
vn 0.000000 0.000000 1.000000
vn 0.670008 0.000000 0.742354
vn 0.670008 0.000000 0.742354
vn 0.044962 0.000000 0.998989
vn 0.044961 0.000000 0.998989
vn -1.000000 0.000000 0.000000
vn -1.000000 0.000000 0.000000
s 1
g polySurface1
usemtl standardSurface2SG
f 17/1/1 18/2/2 95/3/3 96/4/4
s off
usemtl standardSurface3SG
f 3/5/5 4/6/6 6/7/7 5/8/8
s 2
usemtl standardSurface2SG
f 89/9/9 90/10/10 23/11/11 24/12/12
s off
usemtl standardSurface3SG
f 7/13/13 8/14/14 2/15/15 1/16/16
s 3
f 2/17/17 8/18/18 92/19/19 93/20/20
s 4
f 7/21/21 1/22/22 98/23/23 26/24/24
s off
f 1/22/25 2/17/26 10/25/27 9/26/28
s 5
f 2/17/29 93/20/30 94/27/31 10/25/32
s off
f 4/6/33 3/5/34 12/28/35 11/29/36
s 6
f 97/30/37 98/23/38 1/22/39 9/26/40
s off
f 5/8/41 6/7/42 14/31/43 13/32/44
s 7
f 91/33/45 92/34/46 8/14/47 15/35/48
s off
f 8/14/49 7/13/50 16/36/51 15/35/52
f 9/26/53 10/25/54 18/2/55 17/1/56
s 8
f 10/25/57 94/27/58 95/3/59 18/2/60
s off
f 11/29/61 12/28/62 20/37/63 19/38/64
s 9
f 96/4/65 97/30/66 9/26/67 17/1/68
s off
f 13/32/69 14/31/70 22/39/71 21/40/72
s 10
f 90/10/73 91/33/74 15/35/75 23/11/76
s off
f 15/35/77 16/36/78 24/12/79 23/11/80
s 11
f 16/36/81 28/41/82 89/9/83 24/12/84
s off
f 5/8/85 13/32/86 27/42/87 85/43/88 86/44/89 25/45/90
f 16/36/91 7/13/92 26/46/93 81/47/94 82/48/95 28/41/96
s 12
f 29/49/97 87/50/98 25/45/99 30/51/100
s 13
f 39/52/101 85/43/102 27/42/103 40/53/104
f 44/54/105 83/55/106 28/41/107 45/56/108
f 34/57/109 81/47/110 26/46/111 35/58/112
s off
f 75/59/113 76/60/114 74/61/115 73/62/116 78/63/117 77/64/118 80/65/119 79/66/120
s 16
f 29/49/121 31/67/122 33/68/123 32/69/124
f 32/69/124 33/68/123 50/70/125 49/71/126
s 17
f 34/57/127 36/72/128 38/73/129 37/74/130
f 37/74/130 38/73/129 52/75/131 51/76/132
s 18
f 39/52/133 41/77/134 43/78/135 42/79/136
f 42/79/136 43/78/135 54/80/137 53/81/138
s 19
f 44/54/139 46/82/140 48/83/141 47/84/142
f 47/84/142 48/83/141 56/85/143 55/86/144
s 20
f 49/71/145 50/70/146 58/87/147 57/88/148
s 21
f 51/76/149 52/75/150 60/89/151 59/90/152
s 22
f 53/81/153 54/80/154 62/91/155 61/92/156
s 23
f 55/86/157 56/85/158 64/93/159 63/94/160
s 20
f 57/88/148 58/87/147 66/95/161 65/96/162
s 21
f 59/90/152 60/89/151 68/97/163 67/98/164
s 22
f 61/92/156 62/91/155 70/99/165 69/100/166
s 23
f 63/94/160 64/93/159 72/101/167 71/102/168
s 20
f 65/96/162 66/95/161 73/62/169 74/61/170
s 21
f 67/98/164 68/97/163 76/60/171 75/59/172
s 22
f 69/100/166 70/99/165 77/64/173 78/63/174
s 23
f 71/102/168 72/101/167 79/66/175 80/65/176
s 24
f 38/73/177 36/72/178 29/49/179 32/69/180
s 25
f 33/68/181 31/67/182 39/52/183 42/79/184
s 26
f 43/78/185 41/77/186 44/54/187 47/84/188
s 27
f 48/83/189 46/82/190 34/57/191 37/74/192
s 24
f 38/73/177 32/69/180 49/71/193 52/75/194
s 25
f 33/68/181 42/79/184 53/81/195 50/70/196
s 26
f 43/78/185 47/84/188 55/86/197 54/80/198
s 27
f 48/83/189 37/74/192 51/76/199 56/85/200
s 24
f 52/75/194 49/71/193 57/88/201 60/89/202
s 28
f 50/70/203 53/81/204 61/92/205 58/87/206
s 26
f 54/80/198 55/86/197 63/94/207 62/91/208
s 29
f 56/85/209 51/76/210 59/90/211 64/93/212
s 24
f 60/89/202 57/88/201 65/96/213 68/97/214
s 28
f 58/87/206 61/92/205 69/100/215 66/95/216
s 26
f 62/91/208 63/94/207 71/102/217 70/99/218
s 29
f 64/93/212 59/90/211 67/98/219 72/101/220
s 24
f 68/97/214 65/96/213 74/61/221 76/60/222
s 28
f 66/95/216 69/100/215 78/63/223 73/62/224
s 26
f 70/99/218 71/102/217 80/65/225 77/64/226
s 29
f 72/101/220 67/98/219 75/59/227 79/66/228
s 13
f 29/49/229 30/51/230 31/67/231
f 34/57/109 35/58/112 36/72/232
f 39/52/101 40/53/104 41/77/233
f 44/54/105 45/56/108 46/82/234
f 46/82/234 82/48/235 81/47/110 34/57/109
f 28/41/236 82/48/235 46/82/234 45/56/108
f 41/77/233 84/103/237 83/55/106 44/54/105
f 27/42/238 84/103/237 41/77/233 40/53/104
f 31/67/231 86/44/239 85/43/102 39/52/101
f 25/45/240 86/44/239 31/67/231 30/51/230
s 12
f 36/72/241 88/104/242 87/50/98 29/49/97
f 26/46/243 88/104/242 36/72/241 35/58/244
s 11
f 108/105/245 27/42/246 13/32/247 21/40/248
s 2
usemtl standardSurface2SG
f 21/40/249 22/39/250 107/106/251 108/105/252
s 10
usemtl standardSurface3SG
f 14/31/253 106/107/254 107/106/255 22/39/256
s 7
f 6/7/257 105/108/258 106/107/259 14/31/260
s 3
f 104/109/261 105/110/262 6/111/263 4/6/264
s 5
f 103/112/265 104/109/266 4/6/267 11/29/268
s 8
f 102/113/269 103/112/270 11/29/271 19/38/272
s 1
usemtl standardSurface2SG
f 101/114/273 102/113/274 19/38/275 20/37/276
s 9
usemtl standardSurface3SG
f 12/28/277 100/115/278 101/114/279 20/37/280
s 6
f 3/5/281 99/116/282 100/115/283 12/28/284
s 4
f 25/117/285 99/116/286 3/5/287 5/118/288
f 26/24/24 98/23/23 128/119/289 88/120/290
s 6
f 127/121/291 128/119/292 98/23/38 97/30/37
s 9
f 126/122/293 127/121/294 97/30/66 96/4/65
s 1
usemtl standardSurface2SG
f 96/4/4 95/3/3 125/123/295 126/122/296
s 8
usemtl standardSurface3SG
f 95/3/59 94/27/58 124/124/297 125/123/298
s 5
f 94/27/31 93/20/30 123/125/299 124/124/300
s 3
f 93/20/20 92/19/19 122/126/301 123/125/302
s 7
f 121/127/303 122/128/304 92/34/46 91/33/45
s 10
f 120/129/305 121/127/306 91/33/74 90/10/73
s 2
usemtl standardSurface2SG
f 119/130/307 120/129/308 90/10/10 89/9/9
s 11
usemtl standardSurface3SG
f 89/9/83 28/41/82 83/55/309 119/130/310
f 109/131/311 84/103/312 27/42/246 108/105/245
s 2
usemtl standardSurface2SG
f 108/105/252 107/106/251 110/132/313 109/131/314
s 10
usemtl standardSurface3SG
f 107/106/255 106/107/254 111/133/315 110/132/316
s 7
f 106/107/259 105/108/258 112/134/317 111/133/318
s 3
f 113/135/319 112/136/320 105/110/262 104/109/261
s 5
f 114/137/321 113/135/322 104/109/266 103/112/265
s 8
f 115/138/323 114/137/324 103/112/270 102/113/269
s 1
usemtl standardSurface2SG
f 116/139/325 115/138/326 102/113/274 101/114/273
s 9
usemtl standardSurface3SG
f 101/114/279 100/115/278 117/140/327 116/139/328
s 6
f 100/115/283 99/116/282 118/141/329 117/140/330
s 4
f 87/142/331 118/141/332 99/116/286 25/117/285
s 11
f 119/130/310 83/55/309 84/103/312 109/131/311
s 2
usemtl standardSurface2SG
f 109/131/314 110/132/313 120/129/308 119/130/307
s 10
usemtl standardSurface3SG
f 110/132/316 111/133/315 121/127/306 120/129/305
s 7
f 111/133/318 112/134/317 122/128/304 121/127/303
s 3
f 123/125/302 122/126/301 112/136/320 113/135/319
s 5
f 124/124/300 123/125/299 113/135/322 114/137/321
s 8
f 125/123/298 124/124/297 114/137/324 115/138/323
s 1
usemtl standardSurface2SG
f 126/122/296 125/123/295 115/138/326 116/139/325
s 9
usemtl standardSurface3SG
f 116/139/328 117/140/327 127/121/294 126/122/293
s 6
f 117/140/330 118/141/329 128/119/292 127/121/291
s 4
f 88/120/290 128/119/289 118/141/332 87/142/331
g default
v 45.144737 2.364295 34.907616
v 42.029724 2.364295 34.907616
v 45.144737 7.551950 34.907616
v 42.029724 7.551950 34.907616
v 45.144737 7.551950 34.735275
v 42.029724 7.551950 34.735275
v 45.144737 2.364295 34.735275
v 42.029724 2.364295 34.735275
v 44.901501 2.693995 34.896667
v 42.272961 2.693995 34.896667
v 42.272961 7.222250 34.896667
v 44.901501 7.222250 34.896667
v 44.901501 7.222251 34.746223
v 42.272961 7.222251 34.746223
v 42.272961 2.693992 34.746223
v 44.901501 2.693992 34.746223
v 44.843174 2.721001 34.844028
v 42.331291 2.721001 34.844028
v 42.331291 7.195243 34.844028
v 44.843174 7.195243 34.844028
v 44.843174 7.195245 34.798855
v 42.331291 7.195245 34.798855
v 42.331291 2.720999 34.798855
v 44.843174 2.720999 34.798855
v 45.144737 5.185756 34.735275
v 45.144737 4.731392 34.735275
v 44.901501 5.182926 34.746223
v 44.901501 4.731914 34.746223
v 45.091427 5.010810 34.698570
v 45.094223 5.032264 34.700493
v 45.078468 5.023735 34.699604
v 45.091427 5.010716 34.647083
v 45.078419 5.023735 34.647209
v 45.078468 4.892508 34.699604
v 45.094223 4.883979 34.700493
v 45.091427 4.905433 34.698570
v 45.078426 4.892508 34.647209
v 45.091427 4.905580 34.647778
v 44.967739 5.023457 34.708477
v 44.952003 5.031915 34.711449
v 44.954811 5.010499 34.709518
v 44.967670 5.023457 34.656082
v 44.954811 5.010522 34.657661
v 44.954811 4.905744 34.709518
v 44.952003 4.884329 34.711449
v 44.967739 4.892787 34.708477
v 44.954811 4.905582 34.659470
v 44.967628 4.892787 34.656086
v 45.091427 4.993677 34.527645
v 45.078510 5.006414 34.520180
v 45.078392 4.904260 34.602554
v 45.091427 4.918478 34.594707
v 44.967789 5.011767 34.527267
v 44.954811 5.000259 34.535786
v 44.954811 4.927273 34.603573
v 44.967613 4.910051 34.609303
v 45.091427 4.929264 34.491638
v 45.078247 4.933674 34.479187
v 45.078770 4.841695 34.572792
v 45.091427 4.843374 34.559307
v 44.967484 4.939814 34.485622
v 44.954811 4.936806 34.498775
v 44.954811 4.851874 34.566078
v 44.967991 4.848226 34.578812
v 45.091427 4.814025 34.488010
v 45.078239 4.814318 34.475227
v 45.078674 4.748538 34.578812
v 45.091427 4.749220 34.565357
v 44.967476 4.821861 34.479519
v 44.954811 4.823159 34.492710
v 44.954811 4.758733 34.569981
v 44.967907 4.756362 34.582657
v 45.078190 4.370598 34.498688
v 45.091427 4.377325 34.510578
v 45.078808 4.399987 34.548779
v 45.091427 4.389750 34.531582
v 44.954811 4.383049 34.515697
v 44.967445 4.375936 34.503242
v 44.968086 4.404924 34.556080
v 44.954811 4.396770 34.540905
v 45.068672 4.730962 34.738697
v 44.949402 4.731545 34.744064
v 44.901501 4.905754 34.746223
v 44.901501 5.008649 34.746223
v 44.994698 5.184919 34.742023
v 45.075077 5.185312 34.738403
v 45.144737 5.008393 34.735275
v 45.144737 4.902683 34.735275
v 44.843174 4.763264 34.798855
v 42.331291 4.763264 34.798855
v 42.272961 4.760911 34.746223
v 42.029724 4.732194 34.735275
v 42.029724 4.732194 34.907616
v 42.272961 4.760911 34.896667
v 42.331291 4.763264 34.844028
v 44.843174 4.763264 34.844028
v 44.901501 4.760911 34.896667
v 45.144737 4.732194 34.907616
v 45.144737 5.185859 34.907616
v 44.901501 5.156912 34.896667
v 44.843174 5.154540 34.844028
v 42.331291 5.154540 34.844028
v 42.272961 5.156912 34.896667
v 42.029724 5.185859 34.907616
v 42.029724 5.185859 34.735275
v 42.272961 5.156911 34.746223
v 42.331291 5.154541 34.798855
v 44.843174 5.154541 34.798855
v 44.843174 5.001631 34.798855
v 42.331291 5.001631 34.798855
v 42.272961 5.002156 34.746223
v 42.029724 5.008569 34.735275
v 42.029724 5.008569 34.907616
v 42.272961 5.002157 34.896667
v 42.331291 5.001631 34.844028
v 44.843174 5.001631 34.844028
v 44.901501 5.002157 34.896667
v 45.144737 5.008569 34.907616
v 44.843174 4.910452 34.798855
v 42.331291 4.910452 34.798855
v 42.272961 4.909877 34.746223
v 42.029724 4.902853 34.735275
v 42.029724 4.902853 34.907616
v 42.272961 4.909878 34.896667
v 42.331291 4.910452 34.844028
v 44.843174 4.910452 34.844028
v 44.901501 4.909878 34.896667
v 45.144737 4.902853 34.907616
vt 0.375000 0.000000
vt 0.375000 0.114112
vt 0.625000 0.114112
vt 0.625000 0.000000
vt 0.375000 0.250000
vt 0.375000 0.500000
vt 0.625000 0.500000
vt 0.625000 0.250000
vt 0.375000 0.635888
vt 0.375000 0.750000
vt 0.625000 0.750000
vt 0.625000 0.635888
vt 0.375000 0.750000
vt 0.375000 1.000000
vt 0.625000 1.000000
vt 0.625000 0.750000
vt 0.625000 0.000000
vt 0.625000 0.114112
vt 0.875000 0.114112
vt 0.875000 0.000000
vt 0.125000 0.000000
vt 0.125000 0.114112
vt 0.375000 0.114112
vt 0.375000 0.000000
vt 0.375000 0.000000
vt 0.625000 0.000000
vt 0.625000 0.114112
vt 0.625000 0.250000
vt 0.375000 0.250000
vt 0.375000 0.114112
vt 0.375000 0.500000
vt 0.625000 0.500000
vt 0.625000 0.635888
vt 0.625000 0.750000
vt 0.625000 0.635888
vt 0.375000 0.750000
vt 0.625000 0.250000
vt 0.375000 0.250000
vt 0.375000 0.500000
vt 0.625000 0.500000
vt 0.375000 0.692944
vt 0.375000 0.557012
vt 0.375000 0.500000
vt 0.375000 0.500000
vt 0.375000 0.557012
vt 0.375000 0.750000
vt 0.375000 0.750000
vt 0.375000 0.692944
vt 0.375000 0.524674
vt 0.375000 0.500000
vt 0.375000 0.610024
vt 0.375000 0.500000
vt 0.375000 0.500000
vt 0.375000 0.725261
vt 0.375000 0.750000
vt 0.375000 0.641931
vt 0.375000 0.750000
vt 0.375000 0.750000
vt 0.375000 0.750000
vt 0.375000 0.750000
vt 0.375000 0.674510
vt 0.375000 0.556102
vt 0.375000 0.500000
vt 0.375000 0.500000
vt 0.375000 0.562479
vt 0.375000 0.667879
vt 0.375000 0.524851
vt 0.375000 0.500000
vt 0.375000 0.500000
vt 0.375000 0.526796
vt 0.375000 0.500000
vt 0.375000 0.750000
vt 0.375000 0.725047
vt 0.375000 0.725330
vt 0.375000 0.750000
vt 0.375000 0.715104
vt 0.375000 0.500000
vt 0.375000 0.524696
vt 0.375000 0.524739
vt 0.375000 0.500000
vt 0.375000 0.525883
vt 0.375000 0.725570
vt 0.375000 0.750000
vt 0.375000 0.750000
vt 0.375000 0.710653
vt 0.375000 0.750000
vt 0.375000 0.526289
vt 0.375000 0.500000
vt 0.375000 0.750000
vt 0.375000 0.716696
vt 0.375000 0.500000
vt 0.375000 0.524911
vt 0.375000 0.712758
vt 0.375000 0.750000
vt 0.375000 0.533577
vt 0.375000 0.500000
vt 0.375000 0.750000
vt 0.375000 0.722864
vt 0.375000 0.500000
vt 0.375000 0.529719
vt 0.375000 0.721962
vt 0.375000 0.750000
vt 0.375000 0.608039
vt 0.375000 0.641607
vt 0.375000 0.614025
vt 0.625000 0.614025
vt 0.625000 0.614025
vt 0.625000 0.614025
vt 0.625000 0.135975
vt 0.875000 0.250000
vt 0.875000 0.135975
vt 0.625000 0.135975
vt 0.625000 0.135975
vt 0.375000 0.135975
vt 0.375000 0.135975
vt 0.375000 0.135975
vt 0.125000 0.135975
vt 0.125000 0.250000
vt 0.125000 0.122336
vt 0.375000 0.122336
vt 0.375000 0.122336
vt 0.375000 0.122336
vt 0.625000 0.122336
vt 0.625000 0.122336
vt 0.625000 0.122336
vt 0.875000 0.122336
vt 0.625000 0.627663
vt 0.625000 0.627663
vt 0.625000 0.627663
vt 0.375000 0.627663
vt 0.375000 0.622569
vt 0.625000 0.622569
vt 0.625000 0.622569
vt 0.625000 0.622569
vt 0.625000 0.127431
vt 0.875000 0.127431
vt 0.625000 0.127431
vt 0.625000 0.127431
vt 0.375000 0.127431
vt 0.375000 0.127431
vt 0.375000 0.127431
vt 0.125000 0.127431
vn 0.000000 0.000000 1.000000
vn 0.000000 0.000000 1.000000
vn 0.000000 0.000000 1.000000
vn 0.000000 0.000000 1.000000
vn 0.000000 1.000000 0.000000
vn 0.000000 1.000000 0.000000
vn 0.000000 1.000000 0.000000
vn 0.000000 1.000000 0.000000
vn 0.000000 0.000000 -1.000000
vn 0.000000 0.000000 -1.000000
vn 0.000000 0.000000 -1.000000
vn 0.000000 0.000000 -1.000000
vn 0.000000 -1.000000 0.000000
vn 0.000000 -1.000000 0.000000
vn 0.000000 -1.000000 0.000000
vn 0.000000 -1.000000 0.000000
vn -1.000000 0.000000 0.000000
vn -1.000000 0.000000 0.000000
vn -1.000000 0.000000 0.000000
vn -1.000000 0.000000 0.000000
vn 1.000000 0.000000 0.000000
vn 1.000000 0.000000 0.000000
vn 1.000000 0.000000 0.000000
vn 1.000000 0.000000 0.000000
vn 0.000000 0.033188 0.999449
vn 0.000000 0.033188 0.999449
vn 0.000000 0.033188 0.999449
vn 0.000000 0.033188 0.999449
vn 0.044979 0.000000 0.998988
vn 0.044979 0.000000 0.998988
vn 0.044978 0.000000 0.998988
vn 0.044979 0.000000 0.998988
vn 0.000000 -0.033188 0.999449
vn 0.000000 -0.033188 0.999449
vn 0.000000 -0.033188 0.999449
vn 0.000000 -0.033188 0.999449
vn -0.044974 0.000000 0.998988
vn -0.044974 0.000000 0.998988
vn -0.044974 0.000000 0.998988
vn -0.044974 0.000000 0.998988
vn 0.000000 -0.033188 -0.999449
vn 0.000000 -0.033188 -0.999449
vn 0.000000 -0.033188 -0.999449
vn 0.000000 -0.033188 -0.999449
vn 0.044965 0.000000 -0.998989
vn 0.044965 0.000000 -0.998989
vn 0.044965 0.000000 -0.998989
vn 0.044965 0.000000 -0.998989
vn 0.000000 0.033188 -0.999449
vn 0.000000 0.033188 -0.999449
vn 0.000000 0.033188 -0.999449
vn 0.000000 0.033188 -0.999449
vn 0.000000 0.889739 0.456470
vn 0.000000 0.889739 0.456470
vn 0.000000 0.889739 0.456470
vn 0.000000 0.889739 0.456470
vn 0.669942 0.000000 0.742413
vn 0.669942 0.000000 0.742413
vn 0.669944 0.000000 0.742412
vn 0.669944 0.000000 0.742412
vn 0.000000 -0.889730 0.456488
vn 0.000000 -0.889730 0.456488
vn 0.000000 -0.889730 0.456488
vn 0.000000 -0.889730 0.456488
vn -0.669972 0.000000 0.742387
vn -0.669970 0.000000 0.742388
vn -0.669970 0.000000 0.742388
vn -0.669972 0.000000 0.742387
vn 0.000000 -0.889713 -0.456520
vn 0.000000 -0.889713 -0.456520
vn 0.000000 -0.889713 -0.456520
vn 0.000000 -0.889713 -0.456520
vn 0.669892 0.000000 -0.742458
vn 0.669891 0.000000 -0.742460
vn 0.669891 0.000000 -0.742460
vn 0.669892 0.000000 -0.742459
vn 0.000000 0.889709 -0.456528
vn 0.000000 0.889709 -0.456528
vn 0.000000 0.889709 -0.456528
vn 0.000000 0.889709 -0.456528
vn -0.669915 0.000000 -0.742438
vn -0.669915 0.000000 -0.742438
vn -0.669915 0.000000 -0.742438
vn -0.669915 0.000000 -0.742438
vn -0.044969 0.000002 -0.998988
vn -0.044969 0.000002 -0.998988
vn -0.044969 0.000002 -0.998988
vn -0.044969 0.000002 -0.998988
vn -0.044969 0.000002 -0.998988
vn -0.044969 0.000002 -0.998988
vn -0.044951 -0.000001 -0.998989
vn -0.044951 -0.000001 -0.998989
vn -0.044951 -0.000001 -0.998989
vn -0.044951 -0.000001 -0.998989
vn -0.044951 -0.000001 -0.998989
vn -0.044951 -0.000001 -0.998989
vn 0.567112 -0.000009 -0.823641
vn 0.567150 -0.000019 -0.823615
vn 0.567150 -0.000019 -0.823615
vn 0.567112 -0.000009 -0.823641
vn -0.060927 0.217543 -0.974147
vn -0.299961 0.118384 -0.946577
vn -0.051827 0.209574 -0.976418
vn -0.060543 0.218591 -0.973937
vn -0.564373 -0.000531 -0.825520
vn -0.373360 -0.087349 -0.923565
vn -0.567153 0.000000 -0.823613
vn -0.567132 0.000000 -0.823627
vn -0.057671 -0.222501 -0.973225
vn -0.047011 -0.233286 -0.971271
vn -0.047478 -0.234498 -0.970957
vn -0.057563 -0.223724 -0.972951
vn -0.013967 -0.869698 0.493386
vn -0.013967 -0.869698 0.493386
vn -0.013967 -0.869698 0.493386
vn -0.013967 -0.869698 0.493386
vn -0.013967 -0.869698 0.493386
vn -0.013967 -0.869698 0.493386
vn -0.013967 -0.869698 0.493386
vn -0.013967 -0.869698 0.493386
vn 0.706800 0.707413 -0.000977
vn 0.713469 0.697197 -0.069844
vn 0.713264 0.697682 -0.067031
vn 0.706800 0.707413 -0.000977
vn 0.715106 0.692358 -0.096253
vn 0.715106 0.692358 -0.096253
vn 0.707552 -0.706660 -0.001289
vn 0.701081 -0.708091 -0.084215
vn 0.700368 -0.707996 -0.090700
vn 0.707552 -0.706660 -0.001289
vn 0.687837 -0.703768 -0.177737
vn 0.687837 -0.703768 -0.177737
vn -0.708423 0.705787 0.000618
vn -0.701778 0.710976 -0.044957
vn -0.702079 0.710794 -0.043096
vn -0.708423 0.705788 0.000618
vn -0.698771 0.712589 -0.062745
vn -0.698771 0.712589 -0.062745
vn -0.707189 -0.707022 0.001878
vn -0.723887 -0.678758 -0.123594
vn -0.724602 -0.676342 -0.132336
vn -0.707189 -0.707022 0.001878
vn -0.728454 -0.640562 -0.242973
vn -0.728454 -0.640562 -0.242973
vn 0.702451 0.347393 -0.621193
vn 0.706604 0.151244 -0.691257
vn 0.707109 0.160883 -0.688559
vn 0.702451 0.347393 -0.621193
vn 0.712303 -0.298608 0.635183
vn 0.730045 -0.115380 0.673589
vn 0.730279 -0.104835 0.675058
vn 0.712303 -0.298608 0.635183
vn -0.712188 0.353854 -0.606280
vn -0.727227 0.161510 -0.667125
vn -0.727187 0.170652 -0.664889
vn -0.712188 0.353854 -0.606280
vn -0.705095 -0.316374 0.634625
vn -0.709150 -0.135236 0.691967
vn -0.708569 -0.124032 0.694655
vn -0.705095 -0.316374 0.634625
vn 0.688478 -0.025328 -0.724815
vn 0.688547 -0.024735 -0.724770
vn 0.754015 -0.038472 0.655730
vn 0.753652 -0.037324 0.656213
vn -0.718561 -0.022500 -0.695100
vn -0.718710 -0.020331 -0.695013
vn -0.713662 -0.035379 0.699596
vn -0.714907 -0.039380 0.698110
vn 0.686936 -0.037968 -0.725726
vn 0.686936 -0.037968 -0.725726
vn 0.760052 -0.058205 0.647251
vn 0.760052 -0.058205 0.647251
vn -0.717505 -0.036629 -0.695589
vn -0.717505 -0.036629 -0.695589
vn -0.719398 -0.054205 0.692480
vn -0.719398 -0.054205 0.692480
vn 1.000000 -0.000004 0.000000
vn 1.000000 -0.000004 0.000000
vn 1.000000 0.000000 0.000000
vn 1.000000 0.000000 0.000000
vn 0.010046 0.996544 -0.082455
vn 0.009333 0.996927 -0.077774
vn -0.002510 0.999997 -0.000003
vn -0.002510 0.999997 -0.000003
vn -1.000000 -0.000013 0.000000
vn -1.000000 -0.000012 0.000000
vn -1.000000 0.000000 0.000000
vn -1.000000 0.000000 0.000000
vn -0.023179 -0.990038 -0.138878
vn -0.025394 -0.987777 -0.153790
vn -0.002518 -0.999997 0.000010
vn -0.002518 -0.999997 0.000010
vn 1.000000 -0.000018 0.000000
vn 1.000000 -0.000020 0.000000
vn 0.014648 0.993527 -0.112645
vn 0.014648 0.993527 -0.112645
vn -1.000000 -0.000009 0.000000
vn -1.000000 -0.000013 0.000000
vn -0.047394 -0.952096 -0.302106
vn -0.047394 -0.952096 -0.302106
vn 1.000000 -0.000010 0.000000
vn 1.000000 -0.000023 0.000000
vn -0.027306 0.495837 -0.867986
vn -0.039565 0.226212 -0.973274
vn -0.038833 0.245254 -0.968681
vn -0.027306 0.495837 -0.867986
vn -1.000000 0.000000 0.000000
vn -1.000000 0.000000 0.000000
vn 0.027595 -0.435624 0.899706
vn 0.040029 -0.171371 0.984393
vn 0.040888 -0.149728 0.987881
vn 0.027595 -0.435624 0.899706
vn 1.000000 0.000000 0.000000
vn 1.000000 0.000000 0.000000
vn -0.043495 -0.034214 -0.998468
vn -0.043579 -0.031489 -0.998554
vn -1.000000 -0.000006 0.000000
vn -1.000000 -0.000010 0.000000
vn 0.046068 -0.050632 0.997654
vn 0.045990 -0.054598 0.997449
vn 1.000000 0.000000 0.000000
vn 1.000000 0.000000 0.000000
vn -0.042913 -0.052912 -0.997677
vn -0.042913 -0.052912 -0.997677
vn -1.000000 -0.000012 0.000000
vn -1.000000 -0.000012 0.000000
vn 0.045456 -0.080508 0.995717
vn 0.045456 -0.080508 0.995717
vn 0.008316 0.088213 -0.996067
vn -0.060577 0.224464 -0.972598
vn -0.049479 0.232914 -0.971238
vn 0.008316 -0.088215 -0.996067
vn -0.564366 0.000531 -0.825525
vn -0.060485 -0.217574 -0.974168
vn -0.059080 -0.217086 -0.974363
vn -0.052331 -0.207663 -0.976800
vn -0.567122 0.000000 -0.823634
vn -0.567132 0.000000 -0.823627
vn -0.060166 0.225999 -0.972268
vn -0.050004 0.234216 -0.970898
vn 0.567110 0.000009 -0.823642
vn 0.567114 0.000010 -0.823640
vn 0.567151 0.000020 -0.823614
vn 0.567151 0.000020 -0.823614
vn -0.669943 0.000000 -0.742413
vn -0.669945 0.000000 -0.742411
vn -0.669945 0.000000 -0.742411
vn -0.669944 0.000000 -0.742412
vn 0.000000 0.000000 -1.000000
vn 0.000000 0.000000 -1.000000
vn 0.000000 0.000000 -1.000000
vn 0.000000 0.000000 -1.000000
vn 0.669938 0.000000 -0.742417
vn 0.669938 0.000000 -0.742417
vn 0.669935 0.000000 -0.742420
vn 0.669935 0.000000 -0.742419
vn 0.044971 0.000000 -0.998988
vn 0.044971 0.000000 -0.998988
vn 0.044971 0.000000 -0.998988
vn 0.044971 0.000000 -0.998988
vn -1.000000 0.000000 0.000000
vn -1.000000 0.000000 0.000000
vn -1.000000 0.000000 0.000000
vn -1.000000 0.000000 0.000000
vn 0.044972 0.000000 0.998988
vn 0.044973 0.000000 0.998988
vn 0.044973 0.000000 0.998988
vn 0.044972 0.000000 0.998988
vn 0.669952 0.000000 0.742405
vn 0.669951 0.000000 0.742405
vn 0.669951 0.000000 0.742405
vn 0.669952 0.000000 0.742405
vn 0.000000 0.000000 1.000000
vn 0.000000 0.000000 1.000000
vn 0.000000 0.000000 1.000000
vn 0.000000 0.000000 1.000000
vn -0.669962 0.000000 0.742395
vn -0.669962 0.000000 0.742395
vn -0.669964 0.000000 0.742393
vn -0.669964 0.000000 0.742394
vn -0.044971 0.000000 0.998988
vn -0.044971 0.000000 0.998988
vn -0.044970 0.000000 0.998988
vn -0.044971 0.000000 0.998988
vn 1.000000 0.000000 0.000000
vn 1.000000 0.000000 0.000000
vn 1.000000 0.000000 0.000000
vn 1.000000 0.000000 0.000000
vn 1.000000 0.000000 0.000000
vn 1.000000 0.000000 0.000000
vn -0.044961 0.000000 0.998989
vn -0.044961 0.000000 0.998989
vn -0.669984 0.000000 0.742375
vn -0.669984 0.000000 0.742375
vn 0.000000 0.000000 1.000000
vn 0.000000 0.000000 1.000000
vn 0.669963 0.000000 0.742394
vn 0.669963 0.000000 0.742394
vn 0.044964 0.000000 0.998989
vn 0.044964 0.000000 0.998989
vn -1.000000 0.000000 0.000000
vn -1.000000 0.000000 0.000000
vn 0.044964 0.000000 -0.998989
vn 0.044963 0.000000 -0.998989
vn 0.669910 0.000000 -0.742442
vn 0.669910 0.000000 -0.742442
vn 0.000000 0.000000 -1.000000
vn 0.000000 0.000000 -1.000000
vn -0.669919 0.000000 -0.742435
vn -0.669918 0.000000 -0.742435
vn -0.669927 0.000000 -0.742427
vn -0.669927 0.000000 -0.742427
vn 0.000000 0.000000 -1.000000
vn 0.000000 0.000000 -1.000000
vn 0.669904 0.000000 -0.742448
vn 0.669904 0.000000 -0.742448
vn 0.044972 0.000000 -0.998988
vn 0.044972 0.000000 -0.998988
vn -1.000000 0.000000 0.000000
vn -1.000000 0.000000 0.000000
vn 0.044964 0.000000 0.998989
vn 0.044964 0.000000 0.998989
vn 0.669963 0.000000 0.742394
vn 0.669963 0.000000 0.742394
vn 0.000000 0.000000 1.000000
vn 0.000000 0.000000 1.000000
vn -0.669985 0.000000 0.742374
vn -0.669985 0.000000 0.742374
vn -0.044958 0.000000 0.998989
vn -0.044958 0.000000 0.998989
vn 1.000000 0.000000 0.000000
vn 1.000000 0.000000 0.000000
s 1
g polySurface2
usemtl standardSurface2SG
f 145/143/333 224/144/334 223/145/335 146/146/336
s off
usemtl standardSurface3SG
f 131/147/337 133/148/338 134/149/339 132/150/340
s 2
usemtl standardSurface2SG
f 217/151/341 152/152/342 151/153/343 218/154/344
s off
usemtl standardSurface3SG
f 135/155/345 129/156/346 130/157/347 136/158/348
s 3
f 130/159/349 221/160/350 220/161/351 136/162/352
s 4
f 135/163/353 154/164/354 226/165/355 129/166/356
s off
f 129/166/357 137/167/358 138/168/359 130/159/360
s 5
f 130/159/361 138/168/362 222/169/363 221/160/364
s off
f 132/150/365 139/170/366 140/171/367 131/147/368
s 6
f 225/172/369 137/167/370 129/166/371 226/165/372
s off
f 133/148/373 141/173/374 142/174/375 134/149/376
s 7
f 219/175/377 143/176/378 136/158/379 220/177/380
s off
f 136/158/381 143/176/382 144/178/383 135/155/384
f 137/167/385 145/143/386 146/146/387 138/168/388
s 8
f 138/168/389 146/146/390 223/145/391 222/169/392
s off
f 139/170/393 147/179/394 148/180/395 140/171/396
s 9
f 224/144/397 145/143/398 137/167/399 225/172/400
s off
f 141/173/401 149/181/402 150/182/403 142/174/404
s 10
f 218/154/405 151/153/406 143/176/407 219/175/408
s off
f 143/176/409 151/153/410 152/152/411 144/178/412
s 11
f 144/178/413 152/152/414 217/151/415 156/183/416
s off
f 133/148/417 153/184/418 214/185/419 213/186/420 155/187/421 141/173/422
f 144/178/423 156/183/424 210/188/425 209/189/426 154/190/427 135/155/428
s 12
f 157/191/429 158/192/430 153/184/431 215/193/432
s 13
f 167/194/433 168/195/434 155/187/435 213/186/436
f 172/196/437 173/197/438 156/183/439 211/198/440
f 162/199/441 163/200/442 154/190/443 209/189/444
s off
f 203/201/445 207/202/446 208/203/447 205/204/448 206/205/449 201/206/450 202/207/451 204/208/452
s 16
f 157/191/453 160/209/454 161/210/455 159/211/456
f 160/209/454 177/212/457 178/213/458 161/210/455
s 17
f 162/199/459 165/214/460 166/215/461 164/216/462
f 165/214/460 179/217/463 180/218/464 166/215/461
s 18
f 167/194/465 170/219/466 171/220/467 169/221/468
f 170/219/466 181/222/469 182/223/470 171/220/467
s 19
f 172/196/471 175/224/472 176/225/473 174/226/474
f 175/224/472 183/227/475 184/228/476 176/225/473
s 20
f 177/212/477 185/229/478 186/230/479 178/213/480
s 21
f 179/217/481 187/231/482 188/232/483 180/218/484
s 22
f 181/222/485 189/233/486 190/234/487 182/223/488
s 23
f 183/227/489 191/235/490 192/236/491 184/228/492
s 20
f 185/229/478 193/237/493 194/238/494 186/230/479
s 21
f 187/231/482 195/239/495 196/240/496 188/232/483
s 22
f 189/233/486 197/241/497 198/242/498 190/234/487
s 23
f 191/235/490 199/243/499 200/244/500 192/236/491
s 20
f 193/237/493 202/207/501 201/206/502 194/238/494
s 21
f 195/239/495 203/201/503 204/208/504 196/240/496
s 22
f 197/241/497 206/205/505 205/204/506 198/242/498
s 23
f 199/243/499 208/203/507 207/202/508 200/244/500
s 24
f 166/215/509 160/209/510 157/191/511 164/216/512
s 25
f 161/210/513 170/219/514 167/194/515 159/211/516
s 26
f 171/220/517 175/224/518 172/196/519 169/221/520
s 27
f 176/225/521 165/214/522 162/199/523 174/226/524
s 24
f 166/215/509 180/218/525 177/212/526 160/209/510
s 25
f 161/210/513 178/213/527 181/222/528 170/219/514
s 26
f 171/220/517 182/223/529 183/227/530 175/224/518
s 27
f 176/225/521 184/228/531 179/217/532 165/214/522
s 24
f 180/218/525 188/232/533 185/229/534 177/212/526
s 28
f 178/213/535 186/230/536 189/233/537 181/222/538
s 26
f 182/223/529 190/234/539 191/235/540 183/227/530
s 29
f 184/228/541 192/236/542 187/231/543 179/217/544
s 24
f 188/232/533 196/240/545 193/237/546 185/229/534
s 28
f 186/230/536 194/238/547 197/241/548 189/233/537
s 26
f 190/234/539 198/242/549 199/243/550 191/235/540
s 29
f 192/236/542 200/244/551 195/239/552 187/231/543
s 24
f 196/240/545 204/208/553 202/207/554 193/237/546
s 28
f 194/238/547 201/206/555 206/205/556 197/241/548
s 26
f 198/242/549 205/204/557 208/203/558 199/243/550
s 29
f 200/244/551 207/202/559 203/201/560 195/239/552
s 13
f 157/191/561 159/211/562 158/192/563
f 162/199/441 164/216/564 163/200/442
f 167/194/433 169/221/565 168/195/434
f 172/196/437 174/226/566 173/197/438
f 174/226/566 162/199/441 209/189/444 210/188/567
f 156/183/568 173/197/438 174/226/566 210/188/567
f 169/221/565 172/196/437 211/198/440 212/245/569
f 155/187/570 168/195/434 169/221/565 212/245/569
f 159/211/562 167/194/433 213/186/436 214/185/571
f 153/184/572 158/192/563 159/211/562 214/185/571
s 12
f 164/216/573 157/191/429 215/193/432 216/246/574
f 154/190/575 163/200/576 164/216/573 216/246/574
s 11
f 236/247/577 149/181/578 141/173/579 155/187/580
s 2
usemtl standardSurface2SG
f 149/181/581 236/247/582 235/248/583 150/182/584
s 10
usemtl standardSurface3SG
f 142/174/585 150/182/586 235/248/587 234/249/588
s 7
f 134/149/589 142/174/590 234/249/591 233/250/592
s 3
f 232/251/593 132/150/594 134/252/595 233/253/596
s 5
f 231/254/597 139/170/598 132/150/599 232/251/600
s 8
f 230/255/601 147/179/602 139/170/603 231/254/604
s 1
usemtl standardSurface2SG
f 229/256/605 148/180/606 147/179/607 230/255/608
s 9
usemtl standardSurface3SG
f 140/171/609 148/180/610 229/256/611 228/257/612
s 6
f 131/147/613 140/171/614 228/257/615 227/258/616
s 4
f 153/259/617 133/260/618 131/147/619 227/258/620
f 154/164/354 216/261/621 256/262/622 226/165/355
s 6
f 255/263/623 225/172/369 226/165/372 256/262/624
s 9
f 254/264/625 224/144/397 225/172/400 255/263/626
s 1
usemtl standardSurface2SG
f 224/144/334 254/264/627 253/265/628 223/145/335
s 8
usemtl standardSurface3SG
f 223/145/391 253/265/629 252/266/630 222/169/392
s 5
f 222/169/363 252/266/631 251/267/632 221/160/364
s 3
f 221/160/350 251/267/633 250/268/634 220/161/351
s 7
f 249/269/635 219/175/377 220/177/380 250/270/636
s 10
f 248/271/637 218/154/405 219/175/408 249/269/638
s 2
usemtl standardSurface2SG
f 247/272/639 217/151/341 218/154/344 248/271/640
s 11
usemtl standardSurface3SG
f 217/151/415 247/272/641 211/198/642 156/183/416
f 237/273/643 236/247/577 155/187/580 212/245/644
s 2
usemtl standardSurface2SG
f 236/247/582 237/273/645 238/274/646 235/248/583
s 10
usemtl standardSurface3SG
f 235/248/587 238/274/647 239/275/648 234/249/588
s 7
f 234/249/591 239/275/649 240/276/650 233/250/592
s 3
f 241/277/651 232/251/593 233/253/596 240/278/652
s 5
f 242/279/653 231/254/597 232/251/600 241/277/654
s 8
f 243/280/655 230/255/601 231/254/604 242/279/656
s 1
usemtl standardSurface2SG
f 244/281/657 229/256/605 230/255/608 243/280/658
s 9
usemtl standardSurface3SG
f 229/256/611 244/281/659 245/282/660 228/257/612
s 6
f 228/257/615 245/282/661 246/283/662 227/258/616
s 4
f 215/284/663 153/259/617 227/258/620 246/283/664
s 11
f 247/272/641 237/273/643 212/245/644 211/198/642
s 2
usemtl standardSurface2SG
f 237/273/645 247/272/639 248/271/640 238/274/646
s 10
usemtl standardSurface3SG
f 238/274/647 248/271/637 249/269/638 239/275/648
s 7
f 239/275/649 249/269/635 250/270/636 240/276/650
s 3
f 251/267/633 241/277/651 240/278/652 250/268/634
s 5
f 252/266/631 242/279/653 241/277/654 251/267/632
s 8
f 253/265/629 243/280/655 242/279/656 252/266/630
s 1
usemtl standardSurface2SG
f 254/264/627 244/281/657 243/280/658 253/265/628
s 9
usemtl standardSurface3SG
f 244/281/659 254/264/625 255/263/626 245/282/660
s 6
f 245/282/661 255/263/623 256/262/624 246/283/662
s 4
f 216/261/621 215/284/663 246/283/664 256/262/622
g default
v 45.140072 2.364294 35.004662
v 45.344533 2.364294 35.004662
v 45.140072 7.551950 35.004662
v 45.344533 7.551950 35.004662
v 45.140072 7.551950 34.656077
v 45.344533 7.551950 34.656077
v 45.140072 2.364294 34.656077
v 45.344533 2.364294 34.656077
vt 0.375000 0.000000
vt 0.625000 0.000000
vt 0.375000 0.250000
vt 0.625000 0.250000
vt 0.375000 0.500000
vt 0.625000 0.500000
vt 0.375000 0.750000
vt 0.625000 0.750000
vt 0.375000 1.000000
vt 0.625000 1.000000
vt 0.875000 0.000000
vt 0.875000 0.250000
vt 0.125000 0.000000
vt 0.125000 0.250000
vn 0.000000 0.000000 1.000000
vn 0.000000 0.000000 1.000000
vn 0.000000 0.000000 1.000000
vn 0.000000 0.000000 1.000000
vn 0.000000 1.000000 0.000000
vn 0.000000 1.000000 0.000000
vn 0.000000 1.000000 0.000000
vn 0.000000 1.000000 0.000000
vn 0.000000 0.000000 -1.000000
vn 0.000000 0.000000 -1.000000
vn 0.000000 0.000000 -1.000000
vn 0.000000 0.000000 -1.000000
vn 0.000000 -1.000000 0.000000
vn 0.000000 -1.000000 0.000000
vn 0.000000 -1.000000 0.000000
vn 0.000000 -1.000000 0.000000
vn 1.000000 0.000000 0.000000
vn 1.000000 0.000000 0.000000
vn 1.000000 0.000000 0.000000
vn 1.000000 0.000000 0.000000
vn -1.000000 0.000000 0.000000
vn -1.000000 0.000000 0.000000
vn -1.000000 0.000000 0.000000
vn -1.000000 0.000000 0.000000
s off
g pCube6
usemtl initialShadingGroup
f 257/285/665 258/286/666 260/288/667 259/287/668
f 259/287/669 260/288/670 262/290/671 261/289/672
f 261/289/673 262/290/674 264/292/675 263/291/676
f 263/291/677 264/292/678 258/294/679 257/293/680
f 258/286/681 264/295/682 262/296/683 260/288/684
f 263/297/685 257/285/686 259/287/687 261/298/688
