# This file uses centimeters as units for non-parametric coordinates.

mtllib windows_bedroom.mtl
g default
v 45.344735 2.364294 34.907616
v 48.459750 2.364294 34.907616
v 45.344735 7.551950 34.907616
v 48.459750 7.551950 34.907616
v 45.344735 7.551950 34.735275
v 48.459750 7.551950 34.735275
v 45.344735 2.364294 34.735275
v 48.459750 2.364294 34.735275
v 45.587973 2.693995 34.896667
v 48.216511 2.693995 34.896667
v 48.216511 7.222250 34.896667
v 45.587973 7.222250 34.896667
v 45.587973 7.222251 34.746223
v 48.216511 7.222251 34.746223
v 48.216511 2.693992 34.746223
v 45.587973 2.693992 34.746223
v 45.646300 2.721001 34.844028
v 48.158184 2.721001 34.844028
v 48.158184 7.195243 34.844028
v 45.646300 7.195243 34.844028
v 45.646300 7.195245 34.798855
v 48.158184 7.195245 34.798855
v 48.158184 2.720998 34.798855
v 45.646300 2.720998 34.798855
v 45.344735 5.185756 34.735275
v 45.344735 4.731392 34.735275
v 45.587973 5.182926 34.746223
v 45.587973 4.731914 34.746223
v 45.398047 5.010810 34.698570
v 45.395248 5.032264 34.700493
v 45.411005 5.023735 34.699604
v 45.398047 5.010716 34.647083
v 45.411053 5.023735 34.647209
v 45.411005 4.892508 34.699604
v 45.395248 4.883979 34.700493
v 45.398047 4.905433 34.698570
v 45.411047 4.892508 34.647209
v 45.398047 4.905580 34.647777
v 45.521738 5.023457 34.708477
v 45.537474 5.031915 34.711449
v 45.534661 5.010500 34.709518
v 45.521804 5.023457 34.656082
v 45.534661 5.010522 34.657660
v 45.534661 4.905744 34.709518
v 45.537474 4.884329 34.711449
v 45.521738 4.892787 34.708477
v 45.534661 4.905582 34.659469
v 45.521848 4.892787 34.656085
v 45.398047 4.993677 34.527645
v 45.410964 5.006414 34.520179
v 45.411085 4.904260 34.602554
v 45.398047 4.918479 34.594706
v 45.521688 5.011767 34.527266
v 45.534661 5.000259 34.535787
v 45.534661 4.927273 34.603574
v 45.521860 4.910051 34.609302
v 45.398047 4.929264 34.491639
v 45.411225 4.933674 34.479187
v 45.410702 4.841695 34.572792
v 45.398047 4.843374 34.559309
v 45.521988 4.939814 34.485622
v 45.534661 4.936806 34.498774
v 45.534661 4.851874 34.566078
v 45.521483 4.848226 34.578812
v 45.398047 4.814025 34.488010
v 45.411237 4.814317 34.475227
v 45.410803 4.748538 34.578812
v 45.398047 4.749220 34.565357
v 45.522000 4.821862 34.479518
v 45.534661 4.823159 34.492710
v 45.534661 4.758733 34.569980
v 45.521569 4.756361 34.582656
v 45.411287 4.370598 34.498688
v 45.398047 4.377325 34.510580
v 45.410663 4.399987 34.548779
v 45.398047 4.389749 34.531582
v 45.534661 4.383049 34.515697
v 45.522026 4.375936 34.503242
v 45.521388 4.404925 34.556079
v 45.534661 4.396769 34.540905
v 45.420800 4.730962 34.738697
v 45.540074 4.731545 34.744064
v 45.587973 4.905754 34.746223
v 45.587973 5.008649 34.746223
v 45.494779 5.184919 34.742024
v 45.414401 5.185312 34.738405
v 45.344735 5.008393 34.735275
v 45.344735 4.902683 34.735275
v 45.646300 4.763263 34.798855
v 48.158184 4.763263 34.798855
v 48.216511 4.760911 34.746223
v 48.459750 4.732194 34.735275
v 48.459750 4.732194 34.907616
v 48.216511 4.760911 34.896667
v 48.158184 4.763264 34.844028
v 45.646300 4.763264 34.844028
v 45.587973 4.760911 34.896667
v 45.344735 4.732194 34.907616
v 45.344735 5.185859 34.907616
v 45.587973 5.156912 34.896667
v 45.646300 5.154540 34.844028
v 48.158184 5.154540 34.844028
v 48.216511 5.156912 34.896667
v 48.459750 5.185859 34.907616
v 48.459750 5.185859 34.735275
v 48.216511 5.156911 34.746223
v 48.158184 5.154541 34.798855
v 45.646300 5.154541 34.798855
v 45.646300 5.001631 34.798855
v 48.158184 5.001631 34.798855
v 48.216511 5.002156 34.746223
v 48.459750 5.008569 34.735275
v 48.459750 5.008569 34.907616
v 48.216511 5.002157 34.896667
v 48.158184 5.001631 34.844028
v 45.646300 5.001631 34.844028
v 45.587973 5.002157 34.896667
v 45.344735 5.008569 34.907616
v 45.646300 4.910452 34.798855
v 48.158184 4.910452 34.798855
v 48.216511 4.909877 34.746223
v 48.459750 4.902853 34.735275
v 48.459750 4.902853 34.907616
v 48.216511 4.909878 34.896667
v 48.158184 4.910452 34.844028
v 45.646300 4.910452 34.844028
v 45.587973 4.909878 34.896667
v 45.344735 4.902853 34.907616
v 45.144737 2.364294 34.907616
v 42.029725 2.364294 34.907616
v 45.144737 7.551950 34.907616
v 42.029725 7.551950 34.907616
v 45.144737 7.551950 34.735275
v 42.029725 7.551950 34.735275
v 45.144737 2.364294 34.735275
v 42.029725 2.364294 34.735275
v 44.901502 2.693995 34.896667
v 42.272961 2.693995 34.896667
v 42.272961 7.222250 34.896667
v 44.901502 7.222250 34.896667
v 44.901502 7.222251 34.746223
v 42.272961 7.222251 34.746223
v 42.272961 2.693992 34.746223
v 44.901502 2.693992 34.746223
v 44.843175 2.721001 34.844028
v 42.331288 2.721001 34.844028
v 42.331288 7.195243 34.844028
v 44.843175 7.195243 34.844028
v 44.843175 7.195245 34.798855
v 42.331288 7.195245 34.798855
v 42.331288 2.720998 34.798855
v 44.843175 2.720998 34.798855
v 45.144737 5.185756 34.735275
v 45.144737 4.731392 34.735275
v 44.901502 5.182926 34.746223
v 44.901502 4.731914 34.746223
v 45.091428 5.010810 34.698570
v 45.094223 5.032264 34.700493
v 45.078470 5.023735 34.699604
v 45.091428 5.010716 34.647083
v 45.078419 5.023735 34.647209
v 45.078470 4.892508 34.699604
v 45.094223 4.883979 34.700493
v 45.091428 4.905433 34.698570
v 45.078428 4.892508 34.647209
v 45.091428 4.905580 34.647777
v 44.967737 5.023457 34.708477
v 44.952001 5.031915 34.711449
v 44.954811 5.010500 34.709518
v 44.967671 5.023457 34.656082
v 44.954811 5.010522 34.657660
v 44.954811 4.905744 34.709518
v 44.952001 4.884329 34.711449
v 44.967737 4.892787 34.708477
v 44.954811 4.905582 34.659469
v 44.967627 4.892787 34.656085
v 45.091428 4.993677 34.527645
v 45.078511 5.006414 34.520179
v 45.078390 4.904260 34.602554
v 45.091428 4.918479 34.594706
v 44.967787 5.011767 34.527266
v 44.954811 5.000259 34.535787
v 44.954811 4.927273 34.603574
v 44.967615 4.910051 34.609302
v 45.091428 4.929264 34.491639
v 45.078247 4.933674 34.479187
v 45.078770 4.841695 34.572792
v 45.091428 4.843374 34.559309
v 44.967484 4.939814 34.485622
v 44.954811 4.936806 34.498774
v 44.954811 4.851874 34.566078
v 44.967992 4.848226 34.578812
v 45.091428 4.814025 34.488010
v 45.078238 4.814317 34.475227
v 45.078672 4.748538 34.578812
v 45.091428 4.749220 34.565357
v 44.967472 4.821862 34.479518
v 44.954811 4.823159 34.492710
v 44.954811 4.758733 34.569980
v 44.967906 4.756361 34.582656
v 45.078188 4.370598 34.498688
v 45.091428 4.377325 34.510580
v 45.078808 4.399987 34.548779
v 45.091428 4.389749 34.531582
v 44.954811 4.383049 34.515697
v 44.967445 4.375936 34.503242
v 44.968087 4.404925 34.556079
v 44.954811 4.396769 34.540905
v 45.068672 4.730962 34.738697
v 44.949398 4.731545 34.744064
v 44.901502 4.905754 34.746223
v 44.901502 5.008649 34.746223
v 44.994696 5.184919 34.742024
v 45.075074 5.185312 34.738405
v 45.144737 5.008393 34.735275
v 45.144737 4.902683 34.735275
v 44.843175 4.763263 34.798855
v 42.331288 4.763263 34.798855
v 42.272961 4.760911 34.746223
v 42.029725 4.732194 34.735275
v 42.029725 4.732194 34.907616
v 42.272961 4.760911 34.896667
v 42.331288 4.763264 34.844028
v 44.843175 4.763264 34.844028
v 44.901502 4.760911 34.896667
v 45.144737 4.732194 34.907616
v 45.144737 5.185859 34.907616
v 44.901502 5.156912 34.896667
v 44.843175 5.154540 34.844028
v 42.331288 5.154540 34.844028
v 42.272961 5.156912 34.896667
v 42.029725 5.185859 34.907616
v 42.029725 5.185859 34.735275
v 42.272961 5.156911 34.746223
v 42.331288 5.154541 34.798855
v 44.843175 5.154541 34.798855
v 44.843175 5.001631 34.798855
v 42.331288 5.001631 34.798855
v 42.272961 5.002156 34.746223
v 42.029725 5.008569 34.735275
v 42.029725 5.008569 34.907616
v 42.272961 5.002157 34.896667
v 42.331288 5.001631 34.844028
v 44.843175 5.001631 34.844028
v 44.901502 5.002157 34.896667
v 45.144737 5.008569 34.907616
v 44.843175 4.910452 34.798855
v 42.331288 4.910452 34.798855
v 42.272961 4.909877 34.746223
v 42.029725 4.902853 34.735275
v 42.029725 4.902853 34.907616
v 42.272961 4.909878 34.896667
v 42.331288 4.910452 34.844028
v 44.843175 4.910452 34.844028
v 44.901502 4.909878 34.896667
v 45.144737 4.902853 34.907616
vt 0.375000 0.000000
vt 0.625000 0.000000
vt 0.375000 0.250000
vt 0.625000 0.250000
vt 0.375000 0.500000
vt 0.625000 0.500000
vt 0.375000 0.750000
vt 0.625000 0.750000
vt 0.375000 1.000000
vt 0.625000 1.000000
vt 0.875000 0.000000
vt 0.875000 0.250000
vt 0.125000 0.000000
vt 0.125000 0.250000
vt 0.375000 0.000000
vt 0.625000 0.000000
vt 0.625000 0.250000
vt 0.375000 0.250000
vt 0.375000 0.500000
vt 0.625000 0.500000
vt 0.625000 0.750000
vt 0.375000 0.750000
vt 0.375000 0.000000
vt 0.625000 0.000000
vt 0.625000 0.250000
vt 0.375000 0.250000
vt 0.375000 0.500000
vt 0.625000 0.500000
vt 0.625000 0.750000
vt 0.375000 0.750000
vt 0.375000 0.557012
vt 0.375000 0.557012
vt 0.375000 0.692944
vt 0.375000 0.692944
vt 0.375000 0.500000
vt 0.375000 0.725330
vt 0.375000 0.524739
vt 0.375000 0.750000
vt 0.375000 0.562479
vt 0.375000 0.750000
vt 0.375000 0.500000
vt 0.375000 0.674510
vt 0.375000 0.524674
vt 0.375000 0.524851
vt 0.375000 0.500000
vt 0.375000 0.500000
vt 0.375000 0.725261
vt 0.375000 0.725570
vt 0.375000 0.750000
vt 0.375000 0.750000
vt 0.375000 0.725047
vt 0.375000 0.526796
vt 0.375000 0.500000
vt 0.375000 0.500000
vt 0.375000 0.524696
vt 0.375000 0.710653
vt 0.375000 0.750000
vt 0.375000 0.750000
vt 0.375000 0.715104
vt 0.375000 0.526289
vt 0.375000 0.500000
vt 0.375000 0.500000
vt 0.375000 0.525883
vt 0.375000 0.712758
vt 0.375000 0.750000
vt 0.375000 0.750000
vt 0.375000 0.716696
vt 0.375000 0.533577
vt 0.375000 0.500000
vt 0.375000 0.500000
vt 0.375000 0.524911
vt 0.375000 0.721962
vt 0.375000 0.750000
vt 0.375000 0.750000
vt 0.375000 0.722864
vt 0.375000 0.667879
vt 0.375000 0.500000
vt 0.375000 0.500000
vt 0.375000 0.529719
vt 0.375000 0.556102
vt 0.375000 0.750000
vt 0.375000 0.750000
vt 0.375000 0.500000
vt 0.375000 0.750000
vt 0.375000 0.500000
vt 0.375000 0.750000
vt 0.375000 0.750000
vt 0.375000 0.750000
vt 0.375000 0.641931
vt 0.375000 0.608039
vt 0.375000 0.500000
vt 0.375000 0.500000
vt 0.375000 0.610024
vt 0.375000 0.641607
vt 0.375000 0.635888
vt 0.625000 0.635888
vt 0.625000 0.635888
vt 0.625000 0.635888
vt 0.875000 0.114112
vt 0.625000 0.114112
vt 0.625000 0.114112
vt 0.625000 0.114112
vt 0.375000 0.114112
vt 0.375000 0.114112
vt 0.375000 0.114112
vt 0.125000 0.114112
vt 0.125000 0.135975
vt 0.375000 0.135975
vt 0.375000 0.135975
vt 0.375000 0.135975
vt 0.625000 0.135975
vt 0.625000 0.135975
vt 0.625000 0.135975
vt 0.625000 0.614025
vt 0.875000 0.135975
vt 0.625000 0.614025
vt 0.625000 0.614025
vt 0.375000 0.614025
vt 0.375000 0.622569
vt 0.625000 0.622569
vt 0.625000 0.622569
vt 0.625000 0.622569
vt 0.875000 0.127431
vt 0.625000 0.127431
vt 0.625000 0.127431
vt 0.625000 0.127431
vt 0.375000 0.127431
vt 0.375000 0.127431
vt 0.375000 0.127431
vt 0.125000 0.127431
vt 0.375000 0.627663
vt 0.625000 0.627663
vt 0.625000 0.627663
vt 0.625000 0.627663
vt 0.875000 0.122336
vt 0.625000 0.122336
vt 0.625000 0.122336
vt 0.625000 0.122336
vt 0.375000 0.122336
vt 0.375000 0.122336
vt 0.375000 0.122336
vt 0.125000 0.122336
vt 0.375000 0.000000
vt 0.625000 0.000000
vt 0.625000 0.114112
vt 0.375000 0.114112
vt 0.375000 0.250000
vt 0.625000 0.250000
vt 0.625000 0.500000
vt 0.375000 0.500000
vt 0.375000 0.635888
vt 0.625000 0.635888
vt 0.625000 0.750000
vt 0.375000 0.750000
vt 0.375000 0.750000
vt 0.625000 0.750000
vt 0.625000 1.000000
vt 0.375000 1.000000
vt 0.625000 0.000000
vt 0.875000 0.000000
vt 0.875000 0.114112
vt 0.625000 0.114112
vt 0.125000 0.000000
vt 0.375000 0.000000
vt 0.375000 0.114112
vt 0.125000 0.114112
vt 0.625000 0.000000
vt 0.375000 0.000000
vt 0.625000 0.114112
vt 0.375000 0.250000
vt 0.625000 0.250000
vt 0.375000 0.114112
vt 0.625000 0.500000
vt 0.375000 0.500000
vt 0.625000 0.635888
vt 0.625000 0.635888
vt 0.625000 0.750000
vt 0.375000 0.750000
vt 0.375000 0.250000
vt 0.625000 0.250000
vt 0.625000 0.500000
vt 0.375000 0.500000
vt 0.375000 0.692944
vt 0.375000 0.557012
vt 0.375000 0.500000
vt 0.375000 0.500000
vt 0.375000 0.557012
vt 0.375000 0.692944
vt 0.375000 0.750000
vt 0.375000 0.750000
vt 0.375000 0.524674
vt 0.375000 0.610024
vt 0.375000 0.500000
vt 0.375000 0.500000
vt 0.375000 0.500000
vt 0.375000 0.725261
vt 0.375000 0.641931
vt 0.375000 0.750000
vt 0.375000 0.750000
vt 0.375000 0.750000
vt 0.375000 0.750000
vt 0.375000 0.667879
vt 0.375000 0.562479
vt 0.375000 0.500000
vt 0.375000 0.500000
vt 0.375000 0.556102
vt 0.375000 0.674510
vt 0.375000 0.750000
vt 0.375000 0.500000
vt 0.375000 0.500000
vt 0.375000 0.524851
vt 0.375000 0.500000
vt 0.375000 0.526796
vt 0.375000 0.725330
vt 0.375000 0.725047
vt 0.375000 0.750000
vt 0.375000 0.715104
vt 0.375000 0.750000
vt 0.375000 0.524739
vt 0.375000 0.524696
vt 0.375000 0.500000
vt 0.375000 0.525883
vt 0.375000 0.500000
vt 0.375000 0.750000
vt 0.375000 0.750000
vt 0.375000 0.725570
vt 0.375000 0.750000
vt 0.375000 0.710653
vt 0.375000 0.500000
vt 0.375000 0.526289
vt 0.375000 0.716696
vt 0.375000 0.750000
vt 0.375000 0.524911
vt 0.375000 0.500000
vt 0.375000 0.750000
vt 0.375000 0.712758
vt 0.375000 0.500000
vt 0.375000 0.533577
vt 0.375000 0.722864
vt 0.375000 0.750000
vt 0.375000 0.529719
vt 0.375000 0.500000
vt 0.375000 0.750000
vt 0.375000 0.721962
vt 0.375000 0.608039
vt 0.375000 0.641607
vt 0.375000 0.614025
vt 0.625000 0.614025
vt 0.625000 0.614025
vt 0.625000 0.614025
vt 0.625000 0.135975
vt 0.875000 0.135975
vt 0.875000 0.250000
vt 0.625000 0.135975
vt 0.625000 0.135975
vt 0.375000 0.135975
vt 0.375000 0.135975
vt 0.375000 0.135975
vt 0.125000 0.135975
vt 0.125000 0.250000
vt 0.375000 0.122336
vt 0.125000 0.122336
vt 0.375000 0.122336
vt 0.375000 0.122336
vt 0.625000 0.122336
vt 0.625000 0.122336
vt 0.625000 0.122336
vt 0.875000 0.122336
vt 0.625000 0.627663
vt 0.625000 0.627663
vt 0.625000 0.627663
vt 0.375000 0.627663
vt 0.375000 0.622569
vt 0.625000 0.622569
vt 0.625000 0.622569
vt 0.625000 0.622569
vt 0.625000 0.127431
vt 0.875000 0.127431
vt 0.625000 0.127431
vt 0.625000 0.127431
vt 0.375000 0.127431
vt 0.375000 0.127431
vt 0.375000 0.127431
vt 0.125000 0.127431
vn 0.000000 0.000000 1.000000
vn 0.000000 0.000000 1.000000
vn 0.000000 0.000000 1.000000
vn 0.000000 0.000000 1.000000
vn 0.000000 1.000000 0.000000
vn 0.000000 1.000000 0.000000
vn 0.000000 1.000000 0.000000
vn 0.000000 1.000000 0.000000
vn 0.000000 0.000000 -1.000000
vn 0.000000 0.000000 -1.000000
vn 0.000000 0.000000 -1.000000
vn 0.000000 0.000000 -1.000000
vn 0.000000 -1.000000 0.000000
vn 0.000000 -1.000000 0.000000
vn 0.000000 -1.000000 0.000000
vn 0.000000 -1.000000 0.000000
vn 1.000000 0.000000 0.000000
vn 1.000000 0.000000 0.000000
vn 1.000000 0.000000 0.000000
vn 1.000000 0.000000 0.000000
vn -1.000000 0.000000 0.000000
vn -1.000000 0.000000 0.000000
vn -1.000000 0.000000 0.000000
vn -1.000000 0.000000 0.000000
vn 0.000000 0.033188 0.999449
vn 0.000000 0.033188 0.999449
vn 0.000000 0.033188 0.999449
vn 0.000000 0.033188 0.999449
vn -0.044964 0.000000 0.998989
vn -0.044964 0.000000 0.998989
vn -0.044964 0.000000 0.998989
vn -0.044964 0.000000 0.998989
vn 0.000000 -0.033188 0.999449
vn 0.000000 -0.033188 0.999449
vn 0.000000 -0.033188 0.999449
vn 0.000000 -0.033188 0.999449
vn 0.044964 0.000000 0.998989
vn 0.044964 0.000000 0.998989
vn 0.044964 0.000000 0.998989
vn 0.044964 0.000000 0.998989
vn 0.000000 -0.033188 -0.999449
vn 0.000000 -0.033188 -0.999449
vn 0.000000 -0.033188 -0.999449
vn 0.000000 -0.033188 -0.999449
vn -0.044964 0.000000 -0.998989
vn -0.044964 0.000000 -0.998989
vn -0.044964 0.000000 -0.998989
vn -0.044964 0.000000 -0.998989
vn 0.000000 0.033188 -0.999449
vn 0.000000 0.033188 -0.999449
vn 0.000000 0.033188 -0.999449
vn 0.000000 0.033188 -0.999449
vn 0.000000 0.889740 0.456468
vn 0.000000 0.889740 0.456468
vn 0.000000 0.889740 0.456468
vn 0.000000 0.889740 0.456468
vn -0.669985 0.000000 0.742375
vn -0.669984 0.000000 0.742375
vn -0.669985 0.000000 0.742375
vn -0.669985 0.000000 0.742375
vn 0.000000 -0.889732 0.456484
vn 0.000000 -0.889732 0.456484
vn 0.000000 -0.889732 0.456484
vn 0.000000 -0.889732 0.456484
vn 0.669985 0.000000 0.742375
vn 0.669984 0.000000 0.742375
vn 0.669985 0.000000 0.742375
vn 0.669985 0.000000 0.742375
vn 0.000000 -0.889713 -0.456520
vn 0.000000 -0.889713 -0.456520
vn 0.000000 -0.889713 -0.456520
vn 0.000000 -0.889713 -0.456520
vn -0.669929 0.000000 -0.742425
vn -0.669929 0.000000 -0.742425
vn -0.669929 0.000000 -0.742425
vn -0.669929 0.000000 -0.742425
vn 0.000000 0.889708 -0.456529
vn 0.000000 0.889708 -0.456529
vn 0.000000 0.889708 -0.456529
vn 0.000000 0.889708 -0.456529
vn 0.669929 0.000000 -0.742425
vn 0.669929 0.000000 -0.742425
vn 0.669929 0.000000 -0.742425
vn 0.669929 0.000000 -0.742425
vn 0.044964 0.000002 -0.998989
vn 0.044964 0.000002 -0.998989
vn 0.044964 0.000002 -0.998989
vn 0.044964 0.000002 -0.998989
vn 0.044964 0.000002 -0.998989
vn 0.044964 0.000002 -0.998989
vn 0.044964 -0.000001 -0.998989
vn 0.044964 -0.000001 -0.998989
vn 0.044964 -0.000001 -0.998989
vn 0.044964 -0.000001 -0.998989
vn 0.044964 -0.000001 -0.998989
vn 0.044964 -0.000001 -0.998989
vn -0.567089 -0.000003 -0.823656
vn -0.567102 -0.000009 -0.823648
vn -0.567123 -0.000018 -0.823633
vn -0.567123 -0.000018 -0.823633
vn 0.063678 0.221379 -0.973107
vn 0.057348 0.215292 -0.974864
vn 0.051846 0.209584 -0.976415
vn 0.274495 0.128769 -0.952928
vn 0.556992 -0.001934 -0.830516
vn 0.567113 0.000014 -0.823640
vn 0.567147 0.000030 -0.823617
vn 0.348933 -0.097836 -0.932027
vn 0.055523 -0.222585 -0.973331
vn 0.059324 -0.221835 -0.973278
vn 0.047464 -0.234495 -0.970958
vn 0.047138 -0.233650 -0.971177
vn 0.013959 -0.869701 0.493382
vn 0.013959 -0.869701 0.493382
vn 0.013959 -0.869701 0.493382
vn 0.013959 -0.869701 0.493382
vn 0.013959 -0.869701 0.493382
vn 0.013959 -0.869701 0.493382
vn 0.013959 -0.869701 0.493382
vn 0.013959 -0.869701 0.493382
vn -0.706804 0.707409 -0.000963
vn -0.706804 0.707409 -0.000963
vn -0.713099 0.698087 -0.064532
vn -0.713652 0.696781 -0.072093
vn -0.715135 0.692327 -0.096258
vn -0.715135 0.692327 -0.096258
vn -0.707611 -0.706601 -0.001291
vn -0.707611 -0.706601 -0.001291
vn -0.703995 -0.708094 -0.054716
vn -0.696605 -0.707096 -0.121480
vn -0.687854 -0.703739 -0.177786
vn -0.687854 -0.703739 -0.177786
vn 0.708599 0.705611 0.000599
vn 0.708600 0.705611 0.000599
vn 0.705931 0.708035 -0.018651
vn 0.699589 0.712169 -0.058228
vn 0.698796 0.712566 -0.062723
vn 0.698796 0.712566 -0.062723
vn 0.707177 -0.707034 0.001877
vn 0.707177 -0.707034 0.001877
vn 0.728512 -0.646574 -0.226302
vn 0.710800 -0.703135 -0.019099
vn 0.728464 -0.640562 -0.242943
vn 0.728464 -0.640562 -0.242943
vn -0.702450 0.347397 -0.621193
vn -0.702450 0.347397 -0.621192
vn -0.694632 0.031593 -0.718671
vn -0.708235 0.257330 -0.657407
vn -0.712199 -0.298692 0.635260
vn -0.712199 -0.298692 0.635260
vn -0.728185 -0.001751 0.685378
vn -0.729787 -0.122247 0.672656
vn 0.712400 0.353678 -0.606133
vn 0.712400 0.353678 -0.606133
vn 0.720975 0.287918 -0.630317
vn 0.722110 0.043301 -0.690421
vn 0.705121 -0.316353 0.634607
vn 0.705121 -0.316353 0.634607
vn 0.709746 -0.147263 0.688893
vn 0.697043 -0.006551 0.716999
vn -0.688911 -0.021281 -0.724534
vn -0.688349 -0.026030 -0.724912
vn -0.754037 -0.038625 0.655695
vn -0.752437 -0.033592 0.657806
vn 0.718625 -0.021365 -0.695070
vn 0.718629 -0.021313 -0.695067
vn 0.712218 -0.030446 0.701298
vn 0.714807 -0.038715 0.698249
vn -0.686864 -0.037986 -0.725792
vn -0.686864 -0.037986 -0.725792
vn -0.760024 -0.058185 0.647285
vn -0.760024 -0.058185 0.647285
vn 0.717465 -0.036652 -0.695630
vn 0.717465 -0.036652 -0.695630
vn 0.719494 -0.054196 0.692380
vn 0.719494 -0.054196 0.692380
vn -1.000000 0.000001 0.000000
vn -1.000000 0.000000 0.000000
vn -1.000000 0.000000 0.000000
vn -1.000000 0.000001 0.000000
vn -0.013139 0.994621 -0.102741
vn 0.002510 0.999997 0.000003
vn 0.002510 0.999997 0.000003
vn -0.003831 0.999125 -0.041648
vn 1.000000 0.000000 0.000000
vn 1.000000 0.000000 0.000000
vn 1.000000 0.000000 0.000000
vn 1.000000 0.000000 0.000000
vn 0.010636 -0.998455 -0.054543
vn 0.002518 -0.999997 0.000004
vn 0.002518 -0.999997 0.000004
vn 0.038430 -0.969596 -0.241675
vn -1.000000 -0.000002 0.000000
vn -1.000000 0.000001 0.000000
vn -0.014649 0.993527 -0.112644
vn -0.014649 0.993528 -0.112644
vn 1.000000 0.000000 0.000000
vn 1.000000 0.000001 0.000000
vn 0.047385 -0.952096 -0.302107
vn 0.047385 -0.952096 -0.302107
vn -1.000000 0.000000 0.000000
vn -1.000000 -0.000001 0.000000
vn 0.027267 0.495824 -0.867995
vn 0.027267 0.495824 -0.867995
vn 0.034621 0.345815 -0.937664
vn 0.042785 0.135778 -0.989815
vn 1.000000 0.000001 0.000000
vn 1.000000 -0.000000 0.000000
vn -0.027621 -0.435633 0.899700
vn -0.027621 -0.435633 0.899700
vn -0.041135 -0.143463 0.988800
vn -0.039991 -0.172447 0.984207
vn -1.000000 0.000000 0.000000
vn -1.000000 -0.000000 0.000000
vn 0.043553 -0.032605 -0.998519
vn 0.043564 -0.032253 -0.998530
vn 1.000000 -0.000000 0.000000
vn 1.000000 -0.000000 0.000000
vn -0.046021 -0.053303 0.997517
vn -0.046081 -0.050219 0.997675
vn -1.000000 -0.000000 0.000000
vn -1.000000 -0.000000 0.000000
vn 0.042925 -0.052911 -0.997676
vn 0.042925 -0.052911 -0.997676
vn 1.000000 -0.000000 0.000000
vn 1.000000 -0.000000 0.000000
vn -0.045466 -0.080506 0.995717
vn -0.045466 -0.080506 0.995717
vn -0.008476 0.088149 -0.996071
vn 0.049703 0.233328 -0.971127
vn 0.058090 0.224119 -0.972829
vn -0.008476 -0.088149 -0.996071
vn 0.556996 0.001933 -0.830513
vn 0.061025 -0.219364 -0.973733
vn 0.057566 -0.214954 -0.974926
vn 0.052364 -0.207633 -0.976804
vn 0.567112 -0.000014 -0.823640
vn 0.567146 -0.000030 -0.823617
vn 0.062286 0.224265 -0.972536
vn 0.050070 0.234236 -0.970890
vn -0.567089 0.000003 -0.823656
vn -0.567102 0.000009 -0.823648
vn -0.567124 0.000019 -0.823632
vn -0.567124 0.000019 -0.823632
vn 0.669929 0.000000 -0.742425
vn 0.669929 0.000000 -0.742425
vn 0.669929 0.000000 -0.742425
vn 0.669929 0.000000 -0.742425
vn 0.000000 0.000000 -1.000000
vn 0.000000 0.000000 -1.000000
vn 0.000000 0.000000 -1.000000
vn 0.000000 0.000000 -1.000000
vn -0.669929 0.000000 -0.742425
vn -0.669929 0.000000 -0.742425
vn -0.669929 0.000000 -0.742425
vn -0.669929 0.000000 -0.742425
vn -0.044964 0.000000 -0.998989
vn -0.044964 0.000000 -0.998989
vn -0.044964 0.000000 -0.998989
vn -0.044964 0.000000 -0.998989
vn 1.000000 0.000000 0.000000
vn 1.000000 0.000000 0.000000
vn 1.000000 0.000000 0.000000
vn 1.000000 0.000000 0.000000
vn -0.044964 0.000000 0.998989
vn -0.044964 0.000000 0.998989
vn -0.044964 0.000000 0.998989
vn -0.044964 0.000000 0.998989
vn -0.669985 0.000000 0.742375
vn -0.669985 0.000000 0.742375
vn -0.669985 0.000000 0.742375
vn -0.669984 0.000000 0.742375
vn 0.000000 0.000000 1.000000
vn 0.000000 0.000000 1.000000
vn 0.000000 0.000000 1.000000
vn 0.000000 0.000000 1.000000
vn 0.669985 0.000000 0.742375
vn 0.669985 0.000000 0.742375
vn 0.669985 0.000000 0.742375
vn 0.669985 0.000000 0.742375
vn 0.044964 0.000000 0.998989
vn 0.044964 0.000000 0.998989
vn 0.044964 0.000000 0.998989
vn 0.044964 0.000000 0.998989
vn -1.000000 0.000000 0.000000
vn -1.000000 0.000000 0.000000
vn -1.000000 0.000000 0.000000
vn -1.000000 0.000000 0.000000
vn -1.000000 0.000000 0.000000
vn -1.000000 0.000000 0.000000
vn 0.044964 0.000000 0.998989
vn 0.044964 0.000000 0.998989
vn 0.669984 0.000000 0.742375
vn 0.669985 0.000000 0.742375
vn 0.000000 0.000000 1.000000
vn 0.000000 0.000000 1.000000
vn -0.669985 0.000000 0.742375
vn -0.669984 0.000000 0.742375
vn -0.044964 0.000000 0.998989
vn -0.044964 0.000000 0.998989
vn 1.000000 0.000000 0.000000
vn 1.000000 0.000000 0.000000
vn -0.044964 0.000000 -0.998989
vn -0.044964 0.000000 -0.998989
vn -0.669929 0.000000 -0.742425
vn -0.669929 0.000000 -0.742425
vn 0.000000 0.000000 -1.000000
vn 0.000000 0.000000 -1.000000
vn 0.669929 0.000000 -0.742425
vn 0.669929 0.000000 -0.742425
vn 0.669929 0.000000 -0.742425
vn 0.669929 0.000000 -0.742425
vn 0.000000 0.000000 -1.000000
vn 0.000000 0.000000 -1.000000
vn -0.669929 0.000000 -0.742425
vn -0.669929 0.000000 -0.742425
vn -0.044964 0.000000 -0.998989
vn -0.044964 0.000000 -0.998989
vn 1.000000 0.000000 0.000000
vn 1.000000 0.000000 0.000000
vn -0.044964 0.000000 0.998989
vn -0.044964 0.000000 0.998989
vn -0.669985 0.000000 0.742375
vn -0.669984 0.000000 0.742375
vn 0.000000 0.000000 1.000000
vn 0.000000 0.000000 1.000000
vn 0.669984 0.000000 0.742375
vn 0.669985 0.000000 0.742375
vn 0.044964 0.000000 0.998989
vn 0.044964 0.000000 0.998989
vn -1.000000 0.000000 0.000000
vn -1.000000 0.000000 0.000000
vn 0.000000 0.000000 1.000000
vn 0.000000 0.000000 1.000000
vn 0.000000 0.000000 1.000000
vn 0.000000 0.000000 1.000000
vn 0.000000 1.000000 0.000000
vn 0.000000 1.000000 0.000000
vn 0.000000 1.000000 0.000000
vn 0.000000 1.000000 0.000000
vn 0.000000 0.000000 -1.000000
vn 0.000000 0.000000 -1.000000
vn 0.000000 0.000000 -1.000000
vn 0.000000 0.000000 -1.000000
vn 0.000000 -1.000000 0.000000
vn 0.000000 -1.000000 0.000000
vn 0.000000 -1.000000 0.000000
vn 0.000000 -1.000000 0.000000
vn -1.000000 0.000000 0.000000
vn -1.000000 0.000000 0.000000
vn -1.000000 0.000000 0.000000
vn -1.000000 0.000000 0.000000
vn 1.000000 0.000000 0.000000
vn 1.000000 0.000000 0.000000
vn 1.000000 0.000000 0.000000
vn 1.000000 0.000000 0.000000
vn 0.000000 0.033188 0.999449
vn 0.000000 0.033188 0.999449
vn 0.000000 0.033188 0.999449
vn 0.000000 0.033188 0.999449
vn 0.044965 0.000000 0.998989
vn 0.044965 0.000000 0.998989
vn 0.044965 0.000000 0.998989
vn 0.044965 0.000000 0.998989
vn 0.000000 -0.033188 0.999449
vn 0.000000 -0.033188 0.999449
vn 0.000000 -0.033188 0.999449
vn 0.000000 -0.033188 0.999449
vn -0.044965 0.000000 0.998989
vn -0.044965 0.000000 0.998989
vn -0.044965 0.000000 0.998989
vn -0.044965 0.000000 0.998989
vn 0.000000 -0.033188 -0.999449
vn 0.000000 -0.033188 -0.999449
vn 0.000000 -0.033188 -0.999449
vn 0.000000 -0.033188 -0.999449
vn 0.044965 0.000000 -0.998989
vn 0.044965 0.000000 -0.998989
vn 0.044965 0.000000 -0.998989
vn 0.044965 0.000000 -0.998989
vn 0.000000 0.033188 -0.999449
vn 0.000000 0.033188 -0.999449
vn 0.000000 0.033188 -0.999449
vn 0.000000 0.033188 -0.999449
vn 0.000000 0.889740 0.456468
vn 0.000000 0.889740 0.456468
vn 0.000000 0.889740 0.456468
vn 0.000000 0.889740 0.456468
vn 0.669985 0.000000 0.742375
vn 0.669985 0.000000 0.742375
vn 0.669985 0.000000 0.742375
vn 0.669984 0.000000 0.742375
vn 0.000000 -0.889732 0.456483
vn 0.000000 -0.889732 0.456483
vn 0.000000 -0.889732 0.456483
vn 0.000000 -0.889732 0.456483
vn -0.669985 0.000000 0.742375
vn -0.669985 0.000000 0.742375
vn -0.669985 0.000000 0.742375
vn -0.669985 0.000000 0.742375
vn 0.000000 -0.889713 -0.456519
vn 0.000000 -0.889713 -0.456519
vn 0.000000 -0.889713 -0.456519
vn 0.000000 -0.889713 -0.456519
vn 0.669929 0.000000 -0.742425
vn 0.669929 0.000000 -0.742425
vn 0.669929 0.000000 -0.742425
vn 0.669929 0.000000 -0.742425
vn 0.000000 0.889708 -0.456530
vn 0.000000 0.889708 -0.456529
vn 0.000000 0.889708 -0.456529
vn 0.000000 0.889708 -0.456530
vn -0.669929 0.000000 -0.742425
vn -0.669929 0.000000 -0.742425
vn -0.669929 0.000000 -0.742425
vn -0.669929 0.000000 -0.742425
vn -0.044965 0.000002 -0.998989
vn -0.044965 0.000002 -0.998989
vn -0.044965 0.000002 -0.998989
vn -0.044965 0.000002 -0.998989
vn -0.044965 0.000002 -0.998989
vn -0.044965 0.000002 -0.998989
vn -0.044965 -0.000001 -0.998989
vn -0.044965 -0.000001 -0.998989
vn -0.044965 -0.000001 -0.998989
vn -0.044965 -0.000001 -0.998989
vn -0.044965 -0.000001 -0.998989
vn -0.044965 -0.000001 -0.998989
vn 0.567107 -0.000002 -0.823644
vn 0.567126 -0.000010 -0.823631
vn 0.567126 -0.000010 -0.823631
vn 0.567114 -0.000005 -0.823639
vn -0.063678 0.221379 -0.973107
vn -0.274495 0.128773 -0.952927
vn -0.051846 0.209583 -0.976415
vn -0.057348 0.215292 -0.974864
vn -0.557009 -0.001936 -0.830504
vn -0.348940 -0.097839 -0.932024
vn -0.567149 0.000021 -0.823615
vn -0.567125 0.000010 -0.823632
vn -0.055524 -0.222584 -0.973331
vn -0.047139 -0.233649 -0.971178
vn -0.047465 -0.234495 -0.970958
vn -0.059324 -0.221834 -0.973278
vn -0.013959 -0.869701 0.493382
vn -0.013959 -0.869701 0.493382
vn -0.013959 -0.869701 0.493382
vn -0.013959 -0.869701 0.493382
vn -0.013959 -0.869701 0.493382
vn -0.013959 -0.869701 0.493382
vn -0.013959 -0.869701 0.493382
vn -0.013959 -0.869701 0.493382
vn 0.706757 0.707455 -0.000984
vn 0.713611 0.696823 -0.072095
vn 0.713058 0.698129 -0.064537
vn 0.706757 0.707455 -0.000984
vn 0.715096 0.692367 -0.096256
vn 0.715096 0.692367 -0.096256
vn 0.707616 -0.706596 -0.001291
vn 0.696610 -0.707091 -0.121481
vn 0.703999 -0.708090 -0.054717
vn 0.707616 -0.706596 -0.001291
vn 0.687859 -0.703734 -0.177788
vn 0.687859 -0.703734 -0.177788
vn -0.708519 0.705691 0.000599
vn -0.699507 0.712249 -0.058234
vn -0.705849 0.708116 -0.018656
vn -0.708519 0.705691 0.000599
vn -0.698714 0.712646 -0.062730
vn -0.698714 0.712646 -0.062730
vn -0.707095 -0.707116 0.001877
vn -0.710719 -0.703217 -0.019104
vn -0.728434 -0.646653 -0.226328
vn -0.707095 -0.707116 0.001877
vn -0.728386 -0.640639 -0.242973
vn -0.728386 -0.640639 -0.242973
vn 0.702409 0.347401 -0.621236
vn 0.708194 0.257337 -0.657449
vn 0.694592 0.031604 -0.718709
vn 0.702409 0.347401 -0.621236
vn 0.712161 -0.298720 0.635290
vn 0.729750 -0.122253 0.672696
vn 0.728146 -0.001746 0.685420
vn 0.712161 -0.298720 0.635290
vn -0.712361 0.353709 -0.606162
vn -0.722110 0.043303 -0.690422
vn -0.720944 0.287946 -0.630339
vn -0.712361 0.353709 -0.606162
vn -0.705040 -0.316386 0.634680
vn -0.696962 -0.006553 0.717078
vn -0.709666 -0.147279 0.688973
vn -0.705040 -0.316386 0.634680
vn 0.688341 -0.026027 -0.724920
vn 0.688900 -0.021277 -0.724544
vn 0.752399 -0.033593 0.657851
vn 0.753998 -0.038627 0.655740
vn -0.718629 -0.021313 -0.695067
vn -0.718625 -0.021364 -0.695070
vn -0.714728 -0.038719 0.698330
vn -0.712139 -0.030449 0.701378
vn 0.686864 -0.037986 -0.725793
vn 0.686864 -0.037986 -0.725793
vn 0.759986 -0.058192 0.647329
vn 0.759986 -0.058192 0.647329
vn -0.717465 -0.036652 -0.695630
vn -0.717465 -0.036652 -0.695630
vn -0.719416 -0.054202 0.692461
vn -0.719416 -0.054202 0.692461
vn 1.000000 0.000001 0.000000
vn 1.000000 0.000001 0.000000
vn 1.000000 0.000000 0.000000
vn 1.000000 0.000000 0.000000
vn 0.013139 0.994621 -0.102741
vn 0.003831 0.999125 -0.041647
vn -0.002510 0.999997 0.000003
vn -0.002510 0.999997 0.000003
vn -1.000000 -0.000000 0.000000
vn -1.000000 0.000001 0.000000
vn -1.000000 0.000001 0.000000
vn -1.000000 0.000001 0.000000
vn -0.010636 -0.998455 -0.054543
vn -0.038430 -0.969596 -0.241675
vn -0.002518 -0.999997 0.000004
vn -0.002518 -0.999997 0.000004
vn 1.000000 0.000001 0.000000
vn 1.000000 0.000000 0.000000
vn 0.014649 0.993528 -0.112643
vn 0.014649 0.993528 -0.112643
vn -1.000000 -0.000000 0.000000
vn -1.000000 -0.000001 0.000000
vn -0.047385 -0.952095 -0.302107
vn -0.047385 -0.952096 -0.302107
vn 1.000000 0.000000 0.000000
vn 1.000000 0.000000 0.000000
vn -0.027267 0.495826 -0.867994
vn -0.042785 0.135776 -0.989815
vn -0.034621 0.345814 -0.937664
vn -0.027267 0.495826 -0.867994
vn -1.000000 0.000000 0.000000
vn -1.000000 0.000000 0.000000
vn 0.027621 -0.435633 0.899700
vn 0.039991 -0.172447 0.984207
vn 0.041136 -0.143460 0.988801
vn 0.027621 -0.435633 0.899700
vn 1.000000 0.000000 0.000000
vn 1.000000 0.000000 0.000000
vn -0.043563 -0.032254 -0.998530
vn -0.043552 -0.032605 -0.998519
vn -1.000000 0.000000 0.000000
vn -1.000000 0.000000 0.000000
vn 0.046082 -0.050219 0.997675
vn 0.046021 -0.053303 0.997517
vn 1.000000 0.000000 0.000000
vn 1.000000 0.000000 0.000000
vn -0.042923 -0.052911 -0.997676
vn -0.042923 -0.052911 -0.997676
vn -1.000000 0.000000 0.000000
vn -1.000000 0.000000 0.000000
vn 0.045467 -0.080506 0.995717
vn 0.045467 -0.080506 0.995717
vn 0.008477 0.088152 -0.996071
vn -0.058092 0.224119 -0.972829
vn -0.049706 0.233330 -0.971126
vn 0.008477 -0.088151 -0.996071
vn -0.557013 0.001936 -0.830502
vn -0.061025 -0.219363 -0.973733
vn -0.057567 -0.214953 -0.974926
vn -0.052366 -0.207632 -0.976804
vn -0.567125 -0.000010 -0.823632
vn -0.567149 -0.000021 -0.823615
vn -0.062287 0.224265 -0.972536
vn -0.050074 0.234237 -0.970889
vn 0.567107 0.000002 -0.823644
vn 0.567114 0.000005 -0.823639
vn 0.567126 0.000010 -0.823631
vn 0.567126 0.000010 -0.823631
vn -0.669929 0.000000 -0.742425
vn -0.669929 0.000000 -0.742425
vn -0.669929 0.000000 -0.742425
vn -0.669929 0.000000 -0.742425
vn 0.000000 0.000000 -1.000000
vn 0.000000 0.000000 -1.000000
vn 0.000000 0.000000 -1.000000
vn 0.000000 0.000000 -1.000000
vn 0.669929 0.000000 -0.742425
vn 0.669929 0.000000 -0.742425
vn 0.669929 0.000000 -0.742425
vn 0.669929 0.000000 -0.742425
vn 0.044965 0.000000 -0.998989
vn 0.044965 0.000000 -0.998989
vn 0.044965 0.000000 -0.998989
vn 0.044965 0.000000 -0.998989
vn -1.000000 0.000000 0.000000
vn -1.000000 0.000000 0.000000
vn -1.000000 0.000000 0.000000
vn -1.000000 0.000000 0.000000
vn 0.044965 0.000000 0.998989
vn 0.044965 0.000000 0.998989
vn 0.044965 0.000000 0.998989
vn 0.044965 0.000000 0.998989
vn 0.669985 0.000000 0.742375
vn 0.669985 0.000000 0.742375
vn 0.669985 0.000000 0.742375
vn 0.669985 0.000000 0.742375
vn 0.000000 0.000000 1.000000
vn 0.000000 0.000000 1.000000
vn 0.000000 0.000000 1.000000
vn 0.000000 0.000000 1.000000
vn -0.669985 0.000000 0.742375
vn -0.669985 0.000000 0.742375
vn -0.669985 0.000000 0.742375
vn -0.669985 0.000000 0.742375
vn -0.044965 0.000000 0.998989
vn -0.044965 0.000000 0.998989
vn -0.044965 0.000000 0.998989
vn -0.044965 0.000000 0.998989
vn 1.000000 0.000000 0.000000
vn 1.000000 0.000000 0.000000
vn 1.000000 0.000000 0.000000
vn 1.000000 0.000000 0.000000
vn 1.000000 0.000000 0.000000
vn 1.000000 0.000000 0.000000
vn -0.044965 0.000000 0.998989
vn -0.044965 0.000000 0.998989
vn -0.669984 0.000000 0.742375
vn -0.669985 0.000000 0.742375
vn 0.000000 0.000000 1.000000
vn 0.000000 0.000000 1.000000
vn 0.669984 0.000000 0.742375
vn 0.669985 0.000000 0.742375
vn 0.044965 0.000000 0.998989
vn 0.044965 0.000000 0.998989
vn -1.000000 0.000000 0.000000
vn -1.000000 0.000000 0.000000
vn 0.044965 0.000000 -0.998989
vn 0.044965 0.000000 -0.998989
vn 0.669929 0.000000 -0.742425
vn 0.669929 0.000000 -0.742425
vn 0.000000 0.000000 -1.000000
vn 0.000000 0.000000 -1.000000
vn -0.669929 0.000000 -0.742425
vn -0.669929 0.000000 -0.742425
vn -0.669929 0.000000 -0.742425
vn -0.669929 0.000000 -0.742425
vn 0.000000 0.000000 -1.000000
vn 0.000000 0.000000 -1.000000
vn 0.669929 0.000000 -0.742425
vn 0.669929 0.000000 -0.742425
vn 0.044965 0.000000 -0.998989
vn 0.044965 0.000000 -0.998989
vn -1.000000 0.000000 0.000000
vn -1.000000 0.000000 0.000000
vn 0.044965 0.000000 0.998989
vn 0.044965 0.000000 0.998989
vn 0.669985 0.000000 0.742375
vn 0.669984 0.000000 0.742375
vn 0.000000 0.000000 1.000000
vn 0.000000 0.000000 1.000000
vn -0.669985 0.000000 0.742375
vn -0.669984 0.000000 0.742375
vn -0.044965 0.000000 0.998989
vn -0.044965 0.000000 0.998989
vn 1.000000 0.000000 0.000000
vn 1.000000 0.000000 0.000000
s 1
g pCube4
usemtl standardSurface2SG
f 17/23/1 18/24/2 95/102/3 96/103/4
s off
usemtl standardSurface3SG
f 3/3/5 4/4/6 6/6/7 5/5/8
s 2
usemtl standardSurface2SG
f 89/95/9 90/96/10 23/29/11 24/30/12
s off
usemtl standardSurface3SG
f 7/7/13 8/8/14 2/10/15 1/9/16
s 3
f 2/2/17 8/11/18 92/99/19 93/100/20
s 4
f 7/13/21 1/1/22 98/105/23 26/106/24
s off
f 1/1/25 2/2/26 10/16/27 9/15/28
s 5
f 2/2/29 93/100/30 94/101/31 10/16/32
s off
f 4/4/33 3/3/34 12/18/35 11/17/36
s 6
f 97/104/37 98/105/38 1/1/39 9/15/40
s off
f 5/5/41 6/6/42 14/20/43 13/19/44
s 7
f 91/97/45 92/98/46 8/8/47 15/21/48
s off
f 8/8/49 7/7/50 16/22/51 15/21/52
f 9/15/53 10/16/54 18/24/55 17/23/56
s 8
f 10/16/57 94/101/58 95/102/59 18/24/60
s off
f 11/17/61 12/18/62 20/26/63 19/25/64
s 9
f 96/103/65 97/104/66 9/15/67 17/23/68
s off
f 13/19/69 14/20/70 22/28/71 21/27/72
s 10
f 90/96/73 91/97/74 15/21/75 23/29/76
s off
f 15/21/77 16/22/78 24/30/79 23/29/80
s 11
f 16/22/81 28/33/82 89/95/83 24/30/84
s off
f 5/5/85 13/19/86 27/32/87 85/91/88 86/92/89 25/31/90
f 16/22/91 7/7/92 26/34/93 81/87/94 82/88/95 28/33/96
s 12
f 29/43/97 87/93/98 25/31/99 30/83/100
s 13
f 39/45/101 85/91/102 27/32/103 40/85/104
f 44/47/105 83/89/106 28/33/107 45/86/108
f 34/49/109 81/87/110 26/34/111 35/84/112
s off
f 75/40/113 76/76/114 74/39/115 73/78/116 78/41/117 77/80/118 80/42/119 79/82/120
s 16
f 29/43/121 31/35/122 33/53/123 32/44/124
f 32/44/124 33/53/123 50/61/125 49/52/126
s 17
f 34/49/127 36/36/128 38/51/129 37/50/130
f 37/50/130 38/51/129 52/59/131 51/58/132
s 18
f 39/45/133 41/37/134 43/55/135 42/46/136
f 42/46/136 43/55/135 54/63/137 53/54/138
s 19
f 44/47/139 46/38/140 48/57/141 47/48/142
f 47/48/142 48/57/141 56/65/143 55/56/144
s 20
f 49/52/145 50/61/146 58/69/147 57/60/148
s 21
f 51/58/149 52/59/150 60/67/151 59/66/152
s 22
f 53/54/153 54/63/154 62/71/155 61/62/156
s 23
f 55/56/157 56/65/158 64/73/159 63/64/160
s 20
f 57/60/148 58/69/147 66/77/161 65/68/162
s 21
f 59/66/152 60/67/151 68/75/163 67/74/164
s 22
f 61/62/156 62/71/155 70/79/165 69/70/166
s 23
f 63/64/160 64/73/159 72/81/167 71/72/168
s 20
f 65/68/162 66/77/161 73/78/169 74/39/170
s 21
f 67/74/164 68/75/163 76/76/171 75/40/172
s 22
f 69/70/166 70/79/165 77/80/173 78/41/174
s 23
f 71/72/168 72/81/167 79/82/175 80/42/176
s 24
f 38/51/177 36/36/178 29/43/179 32/44/180
s 25
f 33/53/181 31/35/182 39/45/183 42/46/184
s 26
f 43/55/185 41/37/186 44/47/187 47/48/188
s 27
f 48/57/189 46/38/190 34/49/191 37/50/192
s 24
f 38/51/177 32/44/180 49/52/193 52/59/194
s 25
f 33/53/181 42/46/184 53/54/195 50/61/196
s 26
f 43/55/185 47/48/188 55/56/197 54/63/198
s 27
f 48/57/189 37/50/192 51/58/199 56/65/200
s 24
f 52/59/194 49/52/193 57/60/201 60/67/202
s 28
f 50/61/203 53/54/204 61/62/205 58/69/206
s 26
f 54/63/198 55/56/197 63/64/207 62/71/208
s 29
f 56/65/209 51/58/210 59/66/211 64/73/212
s 24
f 60/67/202 57/60/201 65/68/213 68/75/214
s 28
f 58/69/206 61/62/205 69/70/215 66/77/216
s 26
f 62/71/208 63/64/207 71/72/217 70/79/218
s 29
f 64/73/212 59/66/211 67/74/219 72/81/220
s 24
f 68/75/214 65/68/213 74/39/221 76/76/222
s 28
f 66/77/216 69/70/215 78/41/223 73/78/224
s 26
f 70/79/218 71/72/217 80/42/225 77/80/226
s 29
f 72/81/220 67/74/219 75/40/227 79/82/228
s 13
f 29/43/229 30/83/230 31/35/231
f 34/49/109 35/84/112 36/36/232
f 39/45/101 40/85/104 41/37/233
f 44/47/105 45/86/108 46/38/234
f 46/38/234 82/88/235 81/87/110 34/49/109
f 28/33/236 82/88/235 46/38/234 45/86/108
f 41/37/233 84/90/237 83/89/106 44/47/105
f 27/32/238 84/90/237 41/37/233 40/85/104
f 31/35/231 86/92/239 85/91/102 39/45/101
f 25/31/240 86/92/239 31/35/231 30/83/230
s 12
f 36/36/241 88/94/242 87/93/98 29/43/97
f 26/34/243 88/94/242 36/36/241 35/84/244
s 11
f 108/118/245 27/32/246 13/19/247 21/27/248
s 2
usemtl standardSurface2SG
f 21/27/249 22/28/250 107/117/251 108/118/252
s 10
usemtl standardSurface3SG
f 14/20/253 106/116/254 107/117/255 22/28/256
s 7
f 6/6/257 105/114/258 106/116/259 14/20/260
s 3
f 104/113/261 105/115/262 6/12/263 4/4/264
s 5
f 103/112/265 104/113/266 4/4/267 11/17/268
s 8
f 102/111/269 103/112/270 11/17/271 19/25/272
s 1
usemtl standardSurface2SG
f 101/110/273 102/111/274 19/25/275 20/26/276
s 9
usemtl standardSurface3SG
f 12/18/277 100/109/278 101/110/279 20/26/280
s 6
f 3/3/281 99/108/282 100/109/283 12/18/284
s 4
f 25/107/285 99/108/286 3/3/287 5/14/288
f 26/106/24 98/105/23 128/141/289 88/142/290
s 6
f 127/140/291 128/141/292 98/105/38 97/104/37
s 9
f 126/139/293 127/140/294 97/104/66 96/103/65
s 1
usemtl standardSurface2SG
f 96/103/4 95/102/3 125/138/295 126/139/296
s 8
usemtl standardSurface3SG
f 95/102/59 94/101/58 124/137/297 125/138/298
s 5
f 94/101/31 93/100/30 123/136/299 124/137/300
s 3
f 93/100/20 92/99/19 122/135/301 123/136/302
s 7
f 121/133/303 122/134/304 92/98/46 91/97/45
s 10
f 120/132/305 121/133/306 91/97/74 90/96/73
s 2
usemtl standardSurface2SG
f 119/131/307 120/132/308 90/96/10 89/95/9
s 11
usemtl standardSurface3SG
f 89/95/83 28/33/82 83/89/309 119/131/310
f 109/119/311 84/90/312 27/32/246 108/118/245
s 2
usemtl standardSurface2SG
f 108/118/252 107/117/251 110/120/313 109/119/314
s 10
usemtl standardSurface3SG
f 107/117/255 106/116/254 111/121/315 110/120/316
s 7
f 106/116/259 105/114/258 112/122/317 111/121/318
s 3
f 113/124/319 112/123/320 105/115/262 104/113/261
s 5
f 114/125/321 113/124/322 104/113/266 103/112/265
s 8
f 115/126/323 114/125/324 103/112/270 102/111/269
s 1
usemtl standardSurface2SG
f 116/127/325 115/126/326 102/111/274 101/110/273
s 9
usemtl standardSurface3SG
f 101/110/279 100/109/278 117/128/327 116/127/328
s 6
f 100/109/283 99/108/282 118/129/329 117/128/330
s 4
f 87/130/331 118/129/332 99/108/286 25/107/285
s 11
f 119/131/310 83/89/309 84/90/312 109/119/311
s 2
usemtl standardSurface2SG
f 109/119/314 110/120/313 120/132/308 119/131/307
s 10
usemtl standardSurface3SG
f 110/120/316 111/121/315 121/133/306 120/132/305
s 7
f 111/121/318 112/122/317 122/134/304 121/133/303
s 3
f 123/136/302 122/135/301 112/123/320 113/124/319
s 5
f 124/137/300 123/136/299 113/124/322 114/125/321
s 8
f 125/138/298 124/137/297 114/125/324 115/126/323
s 1
usemtl standardSurface2SG
f 126/139/296 125/138/295 115/126/326 116/127/325
s 9
usemtl standardSurface3SG
f 116/127/328 117/128/327 127/140/294 126/139/293
s 6
f 117/128/330 118/129/329 128/141/292 127/140/291
s 4
f 88/142/290 128/141/289 118/129/332 87/130/331
s 42
usemtl standardSurface2SG
f 145/143/333 224/146/334 223/145/335 146/144/336
s off
usemtl standardSurface3SG
f 131/147/337 133/150/338 134/149/339 132/148/340
s 43
usemtl standardSurface2SG
f 217/151/341 152/154/342 151/153/343 218/152/344
s off
usemtl standardSurface3SG
f 135/155/345 129/158/346 130/157/347 136/156/348
s 44
f 130/159/349 221/162/350 220/161/351 136/160/352
s 45
f 135/163/353 154/166/354 226/165/355 129/164/356
s off
f 129/164/357 137/168/358 138/167/359 130/159/360
s 46
f 130/159/361 138/167/362 222/169/363 221/162/364
s off
f 132/148/365 139/171/366 140/170/367 131/147/368
s 47
f 225/172/369 137/168/370 129/164/371 226/165/372
s off
f 133/150/373 141/174/374 142/173/375 134/149/376
s 48
f 219/175/377 143/177/378 136/156/379 220/176/380
s off
f 136/156/381 143/177/382 144/178/383 135/155/384
f 137/168/385 145/143/386 146/144/387 138/167/388
s 49
f 138/167/389 146/144/390 223/145/391 222/169/392
s off
f 139/171/393 147/180/394 148/179/395 140/170/396
s 50
f 224/146/397 145/143/398 137/168/399 225/172/400
s off
f 141/174/401 149/182/402 150/181/403 142/173/404
s 51
f 218/152/405 151/153/406 143/177/407 219/175/408
s off
f 143/177/409 151/153/410 152/154/411 144/178/412
s 52
f 144/178/413 152/154/414 217/151/415 156/183/416
s off
f 133/150/417 153/187/418 214/186/419 213/185/420 155/184/421 141/174/422
f 144/178/423 156/183/424 210/190/425 209/189/426 154/188/427 135/155/428
s 53
f 157/191/429 158/193/430 153/187/431 215/192/432
s 54
f 167/194/433 168/195/434 155/184/435 213/185/436
f 172/196/437 173/198/438 156/183/439 211/197/440
f 162/199/441 163/200/442 154/188/443 209/189/444
s off
f 203/201/445 207/208/446 208/207/447 205/206/448 206/205/449 201/204/450 202/203/451 204/202/452
s 57
f 157/191/453 160/211/454 161/210/455 159/209/456
f 160/211/454 177/213/457 178/212/458 161/210/455
s 58
f 162/199/459 165/216/460 166/215/461 164/214/462
f 165/216/460 179/218/463 180/217/464 166/215/461
s 59
f 167/194/465 170/221/466 171/220/467 169/219/468
f 170/221/466 181/223/469 182/222/470 171/220/467
s 60
f 172/196/471 175/226/472 176/225/473 174/224/474
f 175/226/472 183/228/475 184/227/476 176/225/473
s 61
f 177/213/477 185/230/478 186/229/479 178/212/480
s 62
f 179/218/481 187/232/482 188/231/483 180/217/484
s 63
f 181/223/485 189/234/486 190/233/487 182/222/488
s 64
f 183/228/489 191/236/490 192/235/491 184/227/492
s 61
f 185/230/478 193/238/493 194/237/494 186/229/479
s 62
f 187/232/482 195/240/495 196/239/496 188/231/483
s 63
f 189/234/486 197/242/497 198/241/498 190/233/487
s 64
f 191/236/490 199/244/499 200/243/500 192/235/491
s 61
f 193/238/493 202/203/501 201/204/502 194/237/494
s 62
f 195/240/495 203/201/503 204/202/504 196/239/496
s 63
f 197/242/497 206/205/505 205/206/506 198/241/498
s 64
f 199/244/499 208/207/507 207/208/508 200/243/500
s 65
f 166/215/509 160/211/510 157/191/511 164/214/512
s 66
f 161/210/513 170/221/514 167/194/515 159/209/516
s 67
f 171/220/517 175/226/518 172/196/519 169/219/520
s 68
f 176/225/521 165/216/522 162/199/523 174/224/524
s 65
f 166/215/509 180/217/525 177/213/526 160/211/510
s 66
f 161/210/513 178/212/527 181/223/528 170/221/514
s 67
f 171/220/517 182/222/529 183/228/530 175/226/518
s 68
f 176/225/521 184/227/531 179/218/532 165/216/522
s 65
f 180/217/525 188/231/533 185/230/534 177/213/526
s 69
f 178/212/535 186/229/536 189/234/537 181/223/538
s 67
f 182/222/529 190/233/539 191/236/540 183/228/530
s 70
f 184/227/541 192/235/542 187/232/543 179/218/544
s 65
f 188/231/533 196/239/545 193/238/546 185/230/534
s 69
f 186/229/536 194/237/547 197/242/548 189/234/537
s 67
f 190/233/539 198/241/549 199/244/550 191/236/540
s 70
f 192/235/542 200/243/551 195/240/552 187/232/543
s 65
f 196/239/545 204/202/553 202/203/554 193/238/546
s 69
f 194/237/547 201/204/555 206/205/556 197/242/548
s 67
f 198/241/549 205/206/557 208/207/558 199/244/550
s 70
f 200/243/551 207/208/559 203/201/560 195/240/552
s 54
f 157/191/561 159/209/562 158/193/563
f 162/199/441 164/214/564 163/200/442
f 167/194/433 169/219/565 168/195/434
f 172/196/437 174/224/566 173/198/438
f 174/224/566 162/199/441 209/189/444 210/190/567
f 156/183/568 173/198/438 174/224/566 210/190/567
f 169/219/565 172/196/437 211/197/440 212/245/569
f 155/184/570 168/195/434 169/219/565 212/245/569
f 159/209/562 167/194/433 213/185/436 214/186/571
f 153/187/572 158/193/563 159/209/562 214/186/571
s 53
f 164/214/573 157/191/429 215/192/432 216/246/574
f 154/188/575 163/200/576 164/214/573 216/246/574
s 52
f 236/247/577 149/182/578 141/174/579 155/184/580
s 43
usemtl standardSurface2SG
f 149/182/581 236/247/582 235/248/583 150/181/584
s 51
usemtl standardSurface3SG
f 142/173/585 150/181/586 235/248/587 234/249/588
s 48
f 134/149/589 142/173/590 234/249/591 233/250/592
s 44
f 232/251/593 132/148/594 134/253/595 233/252/596
s 46
f 231/254/597 139/171/598 132/148/599 232/251/600
s 49
f 230/255/601 147/180/602 139/171/603 231/254/604
s 42
usemtl standardSurface2SG
f 229/256/605 148/179/606 147/180/607 230/255/608
s 50
usemtl standardSurface3SG
f 140/170/609 148/179/610 229/256/611 228/257/612
s 47
f 131/147/613 140/170/614 228/257/615 227/258/616
s 45
f 153/259/617 133/260/618 131/147/619 227/258/620
f 154/166/354 216/262/621 256/261/622 226/165/355
s 47
f 255/263/623 225/172/369 226/165/372 256/261/624
s 50
f 254/264/625 224/146/397 225/172/400 255/263/626
s 42
usemtl standardSurface2SG
f 224/146/334 254/264/627 253/265/628 223/145/335
s 49
usemtl standardSurface3SG
f 223/145/391 253/265/629 252/266/630 222/169/392
s 46
f 222/169/363 252/266/631 251/267/632 221/162/364
s 44
f 221/162/350 251/267/633 250/268/634 220/161/351
s 48
f 249/269/635 219/175/377 220/176/380 250/270/636
s 51
f 248/271/637 218/152/405 219/175/408 249/269/638
s 43
usemtl standardSurface2SG
f 247/272/639 217/151/341 218/152/344 248/271/640
s 52
usemtl standardSurface3SG
f 217/151/415 247/272/641 211/197/642 156/183/416
f 237/273/643 236/247/577 155/184/580 212/245/644
s 43
usemtl standardSurface2SG
f 236/247/582 237/273/645 238/274/646 235/248/583
s 51
usemtl standardSurface3SG
f 235/248/587 238/274/647 239/275/648 234/249/588
s 48
f 234/249/591 239/275/649 240/276/650 233/250/592
s 44
f 241/277/651 232/251/593 233/252/596 240/278/652
s 46
f 242/279/653 231/254/597 232/251/600 241/277/654
s 49
f 243/280/655 230/255/601 231/254/604 242/279/656
s 42
usemtl standardSurface2SG
f 244/281/657 229/256/605 230/255/608 243/280/658
s 50
usemtl standardSurface3SG
f 229/256/611 244/281/659 245/282/660 228/257/612
s 47
f 228/257/615 245/282/661 246/283/662 227/258/616
s 45
f 215/284/663 153/259/617 227/258/620 246/283/664
s 52
f 247/272/641 237/273/643 212/245/644 211/197/642
s 43
usemtl standardSurface2SG
f 237/273/645 247/272/639 248/271/640 238/274/646
s 51
usemtl standardSurface3SG
f 238/274/647 248/271/637 249/269/638 239/275/648
s 48
f 239/275/649 249/269/635 250/270/636 240/276/650
s 44
f 251/267/633 241/277/651 240/278/652 250/268/634
s 46
f 252/266/631 242/279/653 241/277/654 251/267/632
s 49
f 253/265/629 243/280/655 242/279/656 252/266/630
s 42
usemtl standardSurface2SG
f 254/264/627 244/281/657 243/280/658 253/265/628
s 50
usemtl standardSurface3SG
f 244/281/659 254/264/625 255/263/626 245/282/660
s 47
f 245/282/661 255/263/623 256/261/624 246/283/662
s 45
f 216/262/621 215/284/663 246/283/664 256/261/622
g default
v 45.140072 2.364294 35.004662
v 45.344533 2.364294 35.004662
v 45.140072 7.551950 35.004662
v 45.344533 7.551950 35.004662
v 45.140072 7.551950 34.656077
v 45.344533 7.551950 34.656077
v 45.140072 2.364294 34.656077
v 45.344533 2.364294 34.656077
vt 0.375000 0.000000
vt 0.625000 0.000000
vt 0.375000 0.250000
vt 0.625000 0.250000
vt 0.375000 0.500000
vt 0.625000 0.500000
vt 0.375000 0.750000
vt 0.625000 0.750000
vt 0.375000 1.000000
vt 0.625000 1.000000
vt 0.875000 0.000000
vt 0.875000 0.250000
vt 0.125000 0.000000
vt 0.125000 0.250000
vn 0.000000 0.000000 1.000000
vn 0.000000 0.000000 1.000000
vn 0.000000 0.000000 1.000000
vn 0.000000 0.000000 1.000000
vn 0.000000 1.000000 0.000000
vn 0.000000 1.000000 0.000000
vn 0.000000 1.000000 0.000000
vn 0.000000 1.000000 0.000000
vn 0.000000 0.000000 -1.000000
vn 0.000000 0.000000 -1.000000
vn 0.000000 0.000000 -1.000000
vn 0.000000 0.000000 -1.000000
vn 0.000000 -1.000000 0.000000
vn 0.000000 -1.000000 0.000000
vn 0.000000 -1.000000 0.000000
vn 0.000000 -1.000000 0.000000
vn 1.000000 0.000000 0.000000
vn 1.000000 0.000000 0.000000
vn 1.000000 0.000000 0.000000
vn 1.000000 0.000000 0.000000
vn -1.000000 0.000000 0.000000
vn -1.000000 0.000000 0.000000
vn -1.000000 0.000000 0.000000
vn -1.000000 0.000000 0.000000
s off
g pCube6
usemtl initialShadingGroup
f 257/285/665 258/286/666 260/288/667 259/287/668
f 259/287/669 260/288/670 262/290/671 261/289/672
f 261/289/673 262/290/674 264/292/675 263/291/676
f 263/291/677 264/292/678 258/294/679 257/293/680
f 258/286/681 264/295/682 262/296/683 260/288/684
f 263/297/685 257/285/686 259/287/687 261/298/688
